M48
; DRILL file {KiCad (6.0.5-0)} date Friday, June 03, 2022 at 02:01:52 PM
; FORMAT={-:-/ absolute / inch / decimal}
; #@! TF.CreationDate,2022-06-03T14:01:52-04:00
; #@! TF.GenerationSoftware,Kicad,Pcbnew,(6.0.5-0)
; #@! TF.FileFunction,Plated,1,4,PTH
FMAT,2
INCH
; #@! TA.AperFunction,Plated,PTH,ComponentDrill
T1C0.0307
; #@! TA.AperFunction,Plated,PTH,ComponentDrill
T2C0.0315
; #@! TA.AperFunction,Plated,PTH,ComponentDrill
T3C0.0354
; #@! TA.AperFunction,Plated,PTH,ComponentDrill
T4C0.0382
; #@! TA.AperFunction,Plated,PTH,ComponentDrill
T5C0.0394
; #@! TA.AperFunction,Plated,PTH,ComponentDrill
T6C0.0400
; #@! TA.AperFunction,Plated,PTH,ComponentDrill
T7C0.0402
; #@! TA.AperFunction,Plated,PTH,ComponentDrill
T8C0.0433
; #@! TA.AperFunction,Plated,PTH,ComponentDrill
T9C0.0510
; #@! TA.AperFunction,Plated,PTH,ComponentDrill
T10C0.0618
; #@! TA.AperFunction,Plated,PTH,ComponentDrill
T11C0.0630
; #@! TA.AperFunction,Plated,PTH,ComponentDrill
T12C0.0669
%
G90
G05
T1
X1.3791Y-2.1697
X1.3791Y-2.2697
X1.3791Y-2.3697
X1.3791Y-2.4697
X1.3791Y-2.5697
X1.3791Y-2.6697
X1.3791Y-2.7697
X1.3791Y-2.8697
X1.6917Y-2.1697
X1.6917Y-2.2697
X1.6917Y-2.3697
X1.6917Y-2.4697
X1.6917Y-2.5697
X1.6917Y-2.6697
X1.6917Y-2.7697
X1.6917Y-2.8697
X2.4815Y-2.1697
X2.4815Y-2.2697
X2.4815Y-2.3697
X2.4815Y-2.4697
X2.4815Y-2.5697
X2.4815Y-2.6697
X2.4815Y-2.7697
X2.4815Y-2.8697
X2.7941Y-2.1697
X2.7941Y-2.2697
X2.7941Y-2.3697
X2.7941Y-2.4697
X2.7941Y-2.5697
X2.7941Y-2.6697
X2.7941Y-2.7697
X2.7941Y-2.8697
X3.5839Y-2.1697
X3.5839Y-2.2697
X3.5839Y-2.3697
X3.5839Y-2.4697
X3.5839Y-2.5697
X3.5839Y-2.6697
X3.5839Y-2.7697
X3.5839Y-2.8697
X3.8965Y-2.1697
X3.8965Y-2.2697
X3.8965Y-2.3697
X3.8965Y-2.4697
X3.8965Y-2.5697
X3.8965Y-2.6697
X3.8965Y-2.7697
X3.8965Y-2.8697
X4.6469Y-2.1697
X4.6469Y-2.2697
X4.6469Y-2.3697
X4.6469Y-2.4697
X4.6469Y-2.5697
X4.6469Y-2.6697
X4.6469Y-2.7697
X4.6469Y-2.8697
X4.9594Y-2.1697
X4.9594Y-2.2697
X4.9594Y-2.3697
X4.9594Y-2.4697
X4.9594Y-2.5697
X4.9594Y-2.6697
X4.9594Y-2.7697
X4.9594Y-2.8697
X5.7886Y-2.1697
X5.7886Y-2.2697
X5.7886Y-2.3697
X5.7886Y-2.4697
X5.7886Y-2.5697
X5.7886Y-2.6697
X5.7886Y-2.7697
X5.7886Y-2.8697
X6.1012Y-2.1697
X6.1012Y-2.2697
X6.1012Y-2.3697
X6.1012Y-2.4697
X6.1012Y-2.5697
X6.1012Y-2.6697
X6.1012Y-2.7697
X6.1012Y-2.8697
X6.5366Y-2.1697
X6.5366Y-2.2697
X6.5366Y-2.3697
X6.5366Y-2.4697
X6.5366Y-2.5697
X6.5366Y-2.6697
X6.5366Y-2.7697
X6.5366Y-2.8697
X6.8492Y-2.1697
X6.8492Y-2.2697
X6.8492Y-2.3697
X6.8492Y-2.4697
X6.8492Y-2.5697
X6.8492Y-2.6697
X6.8492Y-2.7697
X6.8492Y-2.8697
T2
X6.3386Y-4.535
X6.3386Y-4.835
X6.9291Y-4.535
X6.9291Y-4.835
X7.5197Y-4.535
X7.5197Y-4.835
X8.1102Y-4.535
X8.1102Y-4.835
X8.8657Y-3.3485
X8.8657Y-3.9391
X8.8657Y-4.5296
X8.8732Y-1.4194
X8.8732Y-2.0099
X8.8732Y-2.758
X9.1657Y-3.3485
X9.1657Y-3.9391
X9.1657Y-4.5296
X9.1732Y-1.4194
X9.1732Y-2.0099
X9.1732Y-2.758
T3
X1.1949Y-3.2108
X1.1949Y-3.3108
X1.1949Y-3.4108
X1.1949Y-3.5108
X1.2949Y-3.2608
X1.2949Y-3.3608
X1.2949Y-3.4608
X1.2949Y-3.5608
X6.0024Y-4.7638
X6.1024Y-4.7638
X6.5929Y-4.7638
X6.6929Y-4.7638
X7.1835Y-4.7638
X7.2835Y-4.7638
X7.774Y-4.7638
X7.874Y-4.7638
X9.0837Y-1.6448
X9.0837Y-1.7448
X9.0837Y-2.2353
X9.0837Y-2.3353
X9.0837Y-2.9833
X9.0837Y-3.0833
X9.1033Y-3.5739
X9.1033Y-3.6739
X9.1033Y-4.1644
X9.1033Y-4.2644
X9.1033Y-4.755
X9.1033Y-4.855
T4
X1.089Y-1.6886
X1.089Y-1.9484
X1.139Y-1.5886
X1.139Y-1.8484
X1.189Y-1.6886
X1.189Y-1.9484
X1.239Y-1.5886
X1.239Y-1.8484
X1.289Y-1.6886
X1.289Y-1.9484
X1.339Y-1.5886
X1.339Y-1.8484
X1.389Y-1.6886
X1.389Y-1.9484
X1.439Y-1.5886
X1.439Y-1.8484
X1.639Y-1.6886
X1.639Y-1.9484
X1.689Y-1.5886
X1.689Y-1.8484
X1.739Y-1.6886
X1.739Y-1.9484
X1.789Y-1.5886
X1.789Y-1.8484
X1.839Y-1.6886
X1.839Y-1.9484
X1.889Y-1.5886
X1.889Y-1.8484
X1.939Y-1.6886
X1.939Y-1.9484
X1.989Y-1.5886
X1.989Y-1.8484
X2.189Y-1.6886
X2.189Y-1.9484
X2.239Y-1.5886
X2.239Y-1.8484
X2.289Y-1.6886
X2.289Y-1.9484
X2.339Y-1.5886
X2.339Y-1.8484
X2.389Y-1.6886
X2.389Y-1.9484
X2.439Y-1.5886
X2.439Y-1.8484
X2.489Y-1.6886
X2.489Y-1.9484
X2.539Y-1.5886
X2.539Y-1.8484
X2.739Y-1.6886
X2.739Y-1.9484
X2.789Y-1.5886
X2.789Y-1.8484
X2.839Y-1.6886
X2.839Y-1.9484
X2.889Y-1.5886
X2.889Y-1.8484
X2.939Y-1.6886
X2.939Y-1.9484
X2.989Y-1.5886
X2.989Y-1.8484
X3.039Y-1.6886
X3.039Y-1.9484
X3.089Y-1.5886
X3.089Y-1.8484
X3.289Y-1.6886
X3.289Y-1.9484
X3.339Y-1.5886
X3.339Y-1.8484
X3.389Y-1.6886
X3.389Y-1.9484
X3.439Y-1.5886
X3.439Y-1.8484
X3.489Y-1.6886
X3.489Y-1.9484
X3.539Y-1.5886
X3.539Y-1.8484
X3.589Y-1.6886
X3.589Y-1.9484
X3.639Y-1.5886
X3.639Y-1.8484
X3.839Y-1.6886
X3.839Y-1.9484
X3.889Y-1.5886
X3.889Y-1.8484
X3.939Y-1.6886
X3.939Y-1.9484
X3.989Y-1.5886
X3.989Y-1.8484
X4.039Y-1.6886
X4.039Y-1.9484
X4.089Y-1.5886
X4.089Y-1.8484
X4.139Y-1.6886
X4.139Y-1.9484
X4.189Y-1.5886
X4.189Y-1.8484
X4.389Y-1.6886
X4.389Y-1.9484
X4.439Y-1.5886
X4.439Y-1.8484
X4.489Y-1.6886
X4.489Y-1.9484
X4.539Y-1.5886
X4.539Y-1.8484
X4.589Y-1.6886
X4.589Y-1.9484
X4.639Y-1.5886
X4.639Y-1.8484
X4.689Y-1.6886
X4.689Y-1.9484
X4.739Y-1.5886
X4.739Y-1.8484
X4.939Y-1.6886
X4.939Y-1.9484
X4.989Y-1.5886
X4.989Y-1.8484
X5.039Y-1.6886
X5.039Y-1.9484
X5.089Y-1.5886
X5.089Y-1.8484
X5.139Y-1.6886
X5.139Y-1.9484
X5.189Y-1.5886
X5.189Y-1.8484
X5.239Y-1.6886
X5.239Y-1.9484
X5.289Y-1.5886
X5.289Y-1.8484
X5.7717Y-1.6886
X5.7717Y-1.9486
X5.8217Y-1.5886
X5.8217Y-1.8486
X5.8717Y-1.6886
X5.8717Y-1.9486
X5.9217Y-1.5886
X5.9217Y-1.8486
X5.9717Y-1.6886
X5.9717Y-1.9486
X6.0217Y-1.5886
X6.0217Y-1.8486
X6.0717Y-1.6886
X6.0717Y-1.9486
X6.1217Y-1.5886
X6.1217Y-1.8486
X6.3217Y-1.6886
X6.3217Y-1.9486
X6.3717Y-1.5886
X6.3717Y-1.8486
X6.4217Y-1.6886
X6.4217Y-1.9486
X6.4717Y-1.5886
X6.4717Y-1.8486
X6.5217Y-1.6886
X6.5217Y-1.9486
X6.5717Y-1.5886
X6.5717Y-1.8486
X6.6217Y-1.6886
X6.6217Y-1.9486
X6.6717Y-1.5886
X6.6717Y-1.8486
X6.8717Y-1.6886
X6.8717Y-1.9486
X6.9217Y-1.5886
X6.9217Y-1.8486
X6.9717Y-1.6886
X6.9717Y-1.9486
X7.0217Y-1.5886
X7.0217Y-1.8486
X7.0717Y-1.6886
X7.0717Y-1.9486
X7.1217Y-1.5886
X7.1217Y-1.8486
X7.1717Y-1.6886
X7.1717Y-1.9486
X7.2217Y-1.5886
X7.2217Y-1.8486
X7.4217Y-1.6886
X7.4217Y-1.9486
X7.4717Y-1.5886
X7.4717Y-1.8486
X7.5217Y-1.6886
X7.5217Y-1.9486
X7.5717Y-1.5886
X7.5717Y-1.8486
X7.6217Y-1.6886
X7.6217Y-1.9486
X7.6717Y-1.5886
X7.6717Y-1.8486
X7.7217Y-1.6886
X7.7217Y-1.9486
X7.7717Y-1.5886
X7.7717Y-1.8486
T5
X1.5354Y-3.2283
X1.5354Y-3.3268
X1.5354Y-3.4252
X2.3228Y-3.2283
X2.3228Y-3.3268
X2.3228Y-3.4252
X5.5387Y-5.1543
X5.5387Y-5.2543
X5.5387Y-5.3543
T6
X2.9225Y-4.3538
X2.9225Y-4.5538
X2.9225Y-4.6538
X2.9225Y-4.9538
X3.0225Y-4.3538
X3.0225Y-4.9538
X3.0225Y-5.4138
X3.1225Y-4.3538
X3.1225Y-4.9538
X3.1225Y-5.4138
X3.2225Y-4.3538
X3.2225Y-4.9538
X3.2225Y-5.4138
X3.3225Y-4.3538
X3.3225Y-4.9538
X3.3725Y-4.1038
X3.3725Y-4.2038
X3.4225Y-4.3538
X3.4225Y-4.9538
X3.4725Y-4.1038
X3.4725Y-4.2038
X3.5225Y-4.3538
X3.5225Y-4.9538
X3.5725Y-4.1038
X3.5725Y-4.2038
X3.6225Y-4.3538
X3.6225Y-4.9538
X3.6725Y-4.2038
X3.7225Y-4.3538
X3.7225Y-4.9538
X3.7725Y-4.1038
X3.7725Y-4.2038
X3.8225Y-4.3538
X3.8225Y-4.9538
X3.8985Y-5.1779
X3.8985Y-5.2795
X3.8985Y-5.3794
X3.9225Y-4.3538
X3.9225Y-4.9538
X4.0225Y-4.3538
X4.0225Y-4.9538
X4.1225Y-4.3538
X4.1225Y-4.9538
X4.2225Y-4.3538
X4.2225Y-4.9538
T7
X1.5823Y-3.7551
X1.5823Y-5.378
X1.6823Y-3.7551
X1.6823Y-5.378
X1.7823Y-3.7551
X1.7823Y-5.378
X1.8823Y-3.7551
X1.8823Y-5.378
T8
X5.9366Y-3.4795
X5.9366Y-4.0795
X6.0366Y-3.4795
X6.0366Y-4.0795
X6.1366Y-3.4795
X6.1366Y-4.0795
X6.2366Y-3.4795
X6.2366Y-4.0795
X6.3366Y-3.4795
X6.3366Y-4.0795
X6.4366Y-3.4795
X6.4366Y-4.0795
X6.5366Y-3.4795
X6.5366Y-4.0795
X6.6366Y-3.4795
X6.6366Y-4.0795
X6.7366Y-3.4795
X6.7366Y-4.0795
X6.8366Y-3.4795
X6.8366Y-4.0795
X6.9366Y-3.4795
X6.9366Y-4.0795
X7.0366Y-3.4795
X7.0366Y-4.0795
X7.1366Y-3.4795
X7.1366Y-4.0795
X7.2366Y-3.4795
X7.2366Y-4.0795
X7.3366Y-3.4795
X7.3366Y-4.0795
X7.4366Y-3.4795
X7.4366Y-4.0795
X7.5366Y-3.4795
X7.5366Y-4.0795
X7.6366Y-3.4795
X7.6366Y-4.0795
X7.7366Y-3.4795
X7.7366Y-4.0795
X7.8366Y-3.4795
X7.8366Y-4.0795
X7.9366Y-3.4795
X7.9366Y-4.0795
X8.0366Y-3.4795
X8.0366Y-4.0795
X8.1366Y-3.4795
X8.1366Y-4.0795
X8.2366Y-3.4795
X8.2366Y-4.0795
T9
X6.0542Y-5.0623
X6.0542Y-5.3851
X6.3495Y-5.0623
X6.3495Y-5.3851
X6.6448Y-5.0623
X6.6448Y-5.3851
X6.94Y-5.0623
X6.94Y-5.3851
X7.2353Y-5.0623
X7.2353Y-5.3851
X7.5306Y-5.0623
X7.5306Y-5.3851
X7.8259Y-5.0623
X7.8259Y-5.3851
X8.1211Y-5.0623
X8.1211Y-5.3851
X9.4018Y-1.3976
X9.4018Y-1.6929
X9.4018Y-1.9882
X9.4018Y-2.2835
X9.4018Y-2.7362
X9.4018Y-3.0315
X9.4018Y-3.3268
X9.4018Y-3.622
X9.4018Y-3.9173
X9.4018Y-4.2126
X9.4018Y-4.5079
X9.4018Y-4.8031
X9.7247Y-1.3976
X9.7247Y-1.6929
X9.7247Y-1.9882
X9.7247Y-2.2835
X9.7247Y-2.7362
X9.7247Y-3.0315
X9.7247Y-3.3268
X9.7247Y-3.622
X9.7247Y-3.9173
X9.7247Y-4.2126
X9.7247Y-4.5079
X9.7247Y-4.8031
T10
X0.9291Y-1.1587
X0.9291Y-1.7886
X0.9591Y-1.5685
X5.4189Y-1.6984
X5.4488Y-1.1587
X5.4488Y-1.9484
X5.6117Y-1.1586
X5.6117Y-1.7886
X5.6417Y-1.5686
X7.9017Y-1.6986
X7.9317Y-1.1586
X7.9317Y-1.9486
T11
X1.1417Y-3.937
X1.1417Y-4.137
X1.1417Y-4.337
X1.1417Y-4.537
X1.1417Y-4.737
X1.1417Y-4.937
X1.1417Y-5.137
X1.1417Y-5.337
X2.341Y-3.9457
X2.341Y-4.1457
X2.341Y-4.3457
X2.341Y-4.5457
X2.341Y-4.7457
X2.341Y-4.9457
X2.341Y-5.1457
X2.341Y-5.3457
T12
X0.8248Y-3.0821
X0.8248Y-3.6896
T8
G00X1.8169Y-3.1378
M15
G01X1.8445Y-3.1378
M16
G05
G00X1.8169Y-3.5157
M15
G01X1.8445Y-3.5157
M16
G05
G00X2.6043Y-3.1378
M15
G01X2.6319Y-3.1378
M16
G05
G00X2.6043Y-3.5157
M15
G01X2.6319Y-3.5157
M16
G05
T0
M30
