G04 #@! TF.GenerationSoftware,KiCad,Pcbnew,(6.0.5-0)*
G04 #@! TF.CreationDate,2022-05-20T18:14:10-04:00*
G04 #@! TF.ProjectId,AntennaRemoteButtons,416e7465-6e6e-4615-9265-6d6f74654275,rev?*
G04 #@! TF.SameCoordinates,Original*
G04 #@! TF.FileFunction,Legend,Top*
G04 #@! TF.FilePolarity,Positive*
%FSLAX46Y46*%
G04 Gerber Fmt 4.6, Leading zero omitted, Abs format (unit mm)*
G04 Created by KiCad (PCBNEW (6.0.5-0)) date 2022-05-20 18:14:10*
%MOMM*%
%LPD*%
G01*
G04 APERTURE LIST*
%ADD10C,0.150000*%
%ADD11C,0.015000*%
%ADD12C,0.127000*%
%ADD13C,0.200000*%
%ADD14C,0.120000*%
%ADD15C,0.100000*%
G04 APERTURE END LIST*
D10*
X87147619Y-82371428D02*
X86147619Y-82704761D01*
X87147619Y-83038095D01*
X86242857Y-83942857D02*
X86195238Y-83895238D01*
X86147619Y-83752380D01*
X86147619Y-83657142D01*
X86195238Y-83514285D01*
X86290476Y-83419047D01*
X86385714Y-83371428D01*
X86576190Y-83323809D01*
X86719047Y-83323809D01*
X86909523Y-83371428D01*
X87004761Y-83419047D01*
X87100000Y-83514285D01*
X87147619Y-83657142D01*
X87147619Y-83752380D01*
X87100000Y-83895238D01*
X87052380Y-83942857D01*
X86242857Y-84942857D02*
X86195238Y-84895238D01*
X86147619Y-84752380D01*
X86147619Y-84657142D01*
X86195238Y-84514285D01*
X86290476Y-84419047D01*
X86385714Y-84371428D01*
X86576190Y-84323809D01*
X86719047Y-84323809D01*
X86909523Y-84371428D01*
X87004761Y-84419047D01*
X87100000Y-84514285D01*
X87147619Y-84657142D01*
X87147619Y-84752380D01*
X87100000Y-84895238D01*
X87052380Y-84942857D01*
X86433333Y-86085714D02*
X86433333Y-86561904D01*
X86147619Y-85990476D02*
X87147619Y-86323809D01*
X86147619Y-86657142D01*
X86671428Y-88085714D02*
X86623809Y-88228571D01*
X86576190Y-88276190D01*
X86480952Y-88323809D01*
X86338095Y-88323809D01*
X86242857Y-88276190D01*
X86195238Y-88228571D01*
X86147619Y-88133333D01*
X86147619Y-87752380D01*
X87147619Y-87752380D01*
X87147619Y-88085714D01*
X87100000Y-88180952D01*
X87052380Y-88228571D01*
X86957142Y-88276190D01*
X86861904Y-88276190D01*
X86766666Y-88228571D01*
X86719047Y-88180952D01*
X86671428Y-88085714D01*
X86671428Y-87752380D01*
X87100000Y-90038095D02*
X87147619Y-89942857D01*
X87147619Y-89800000D01*
X87100000Y-89657142D01*
X87004761Y-89561904D01*
X86909523Y-89514285D01*
X86719047Y-89466666D01*
X86576190Y-89466666D01*
X86385714Y-89514285D01*
X86290476Y-89561904D01*
X86195238Y-89657142D01*
X86147619Y-89800000D01*
X86147619Y-89895238D01*
X86195238Y-90038095D01*
X86242857Y-90085714D01*
X86576190Y-90085714D01*
X86576190Y-89895238D01*
X86147619Y-90514285D02*
X87147619Y-90514285D01*
X86147619Y-91085714D01*
X87147619Y-91085714D01*
X86147619Y-91561904D02*
X87147619Y-91561904D01*
X87147619Y-91800000D01*
X87100000Y-91942857D01*
X87004761Y-92038095D01*
X86909523Y-92085714D01*
X86719047Y-92133333D01*
X86576190Y-92133333D01*
X86385714Y-92085714D01*
X86290476Y-92038095D01*
X86195238Y-91942857D01*
X86147619Y-91800000D01*
X86147619Y-91561904D01*
X51552380Y-91471428D02*
X50552380Y-91471428D01*
X50552380Y-91233333D01*
X50600000Y-91090476D01*
X50695238Y-90995238D01*
X50790476Y-90947619D01*
X50980952Y-90900000D01*
X51123809Y-90900000D01*
X51314285Y-90947619D01*
X51409523Y-90995238D01*
X51504761Y-91090476D01*
X51552380Y-91233333D01*
X51552380Y-91471428D01*
X51552380Y-90471428D02*
X50552380Y-90471428D01*
X51552380Y-89233333D02*
X50552380Y-89233333D01*
X50552380Y-88995238D01*
X50600000Y-88852380D01*
X50695238Y-88757142D01*
X50790476Y-88709523D01*
X50980952Y-88661904D01*
X51123809Y-88661904D01*
X51314285Y-88709523D01*
X51409523Y-88757142D01*
X51504761Y-88852380D01*
X51552380Y-88995238D01*
X51552380Y-89233333D01*
X51028571Y-88233333D02*
X51028571Y-87900000D01*
X51552380Y-87757142D02*
X51552380Y-88233333D01*
X50552380Y-88233333D01*
X50552380Y-87757142D01*
X51552380Y-85995238D02*
X51076190Y-86328571D01*
X51552380Y-86566666D02*
X50552380Y-86566666D01*
X50552380Y-86185714D01*
X50600000Y-86090476D01*
X50647619Y-86042857D01*
X50742857Y-85995238D01*
X50885714Y-85995238D01*
X50980952Y-86042857D01*
X51028571Y-86090476D01*
X51076190Y-86185714D01*
X51076190Y-86566666D01*
X51028571Y-85566666D02*
X51028571Y-85233333D01*
X51552380Y-85090476D02*
X51552380Y-85566666D01*
X50552380Y-85566666D01*
X50552380Y-85090476D01*
X51552380Y-83328571D02*
X51076190Y-83661904D01*
X51552380Y-83900000D02*
X50552380Y-83900000D01*
X50552380Y-83519047D01*
X50600000Y-83423809D01*
X50647619Y-83376190D01*
X50742857Y-83328571D01*
X50885714Y-83328571D01*
X50980952Y-83376190D01*
X51028571Y-83423809D01*
X51076190Y-83519047D01*
X51076190Y-83900000D01*
X50552380Y-82709523D02*
X50552380Y-82519047D01*
X50600000Y-82423809D01*
X50695238Y-82328571D01*
X50885714Y-82280952D01*
X51219047Y-82280952D01*
X51409523Y-82328571D01*
X51504761Y-82423809D01*
X51552380Y-82519047D01*
X51552380Y-82709523D01*
X51504761Y-82804761D01*
X51409523Y-82900000D01*
X51219047Y-82947619D01*
X50885714Y-82947619D01*
X50695238Y-82900000D01*
X50600000Y-82804761D01*
X50552380Y-82709523D01*
X165738095Y-94823571D02*
X165880952Y-94871190D01*
X165928571Y-94918809D01*
X165976190Y-95014047D01*
X165976190Y-95156904D01*
X165928571Y-95252142D01*
X165880952Y-95299761D01*
X165785714Y-95347380D01*
X165404761Y-95347380D01*
X165404761Y-94347380D01*
X165738095Y-94347380D01*
X165833333Y-94395000D01*
X165880952Y-94442619D01*
X165928571Y-94537857D01*
X165928571Y-94633095D01*
X165880952Y-94728333D01*
X165833333Y-94775952D01*
X165738095Y-94823571D01*
X165404761Y-94823571D01*
X166404761Y-94347380D02*
X166404761Y-95156904D01*
X166452380Y-95252142D01*
X166500000Y-95299761D01*
X166595238Y-95347380D01*
X166785714Y-95347380D01*
X166880952Y-95299761D01*
X166928571Y-95252142D01*
X166976190Y-95156904D01*
X166976190Y-94347380D01*
X167309523Y-94347380D02*
X167880952Y-94347380D01*
X167595238Y-95347380D02*
X167595238Y-94347380D01*
X168071428Y-94347380D02*
X168642857Y-94347380D01*
X168357142Y-95347380D02*
X168357142Y-94347380D01*
X169166666Y-94347380D02*
X169357142Y-94347380D01*
X169452380Y-94395000D01*
X169547619Y-94490238D01*
X169595238Y-94680714D01*
X169595238Y-95014047D01*
X169547619Y-95204523D01*
X169452380Y-95299761D01*
X169357142Y-95347380D01*
X169166666Y-95347380D01*
X169071428Y-95299761D01*
X168976190Y-95204523D01*
X168928571Y-95014047D01*
X168928571Y-94680714D01*
X168976190Y-94490238D01*
X169071428Y-94395000D01*
X169166666Y-94347380D01*
X170023809Y-95347380D02*
X170023809Y-94347380D01*
X170595238Y-95347380D01*
X170595238Y-94347380D01*
X167238095Y-96005000D02*
X167142857Y-95957380D01*
X167000000Y-95957380D01*
X166857142Y-96005000D01*
X166761904Y-96100238D01*
X166714285Y-96195476D01*
X166666666Y-96385952D01*
X166666666Y-96528809D01*
X166714285Y-96719285D01*
X166761904Y-96814523D01*
X166857142Y-96909761D01*
X167000000Y-96957380D01*
X167095238Y-96957380D01*
X167238095Y-96909761D01*
X167285714Y-96862142D01*
X167285714Y-96528809D01*
X167095238Y-96528809D01*
X167714285Y-96957380D02*
X167714285Y-95957380D01*
X168285714Y-96957380D01*
X168285714Y-95957380D01*
X168761904Y-96957380D02*
X168761904Y-95957380D01*
X169000000Y-95957380D01*
X169142857Y-96005000D01*
X169238095Y-96100238D01*
X169285714Y-96195476D01*
X169333333Y-96385952D01*
X169333333Y-96528809D01*
X169285714Y-96719285D01*
X169238095Y-96814523D01*
X169142857Y-96909761D01*
X169000000Y-96957380D01*
X168761904Y-96957380D01*
X155700000Y-96252380D02*
X155700000Y-95252380D01*
X155938095Y-95252380D01*
X156080952Y-95300000D01*
X156176190Y-95395238D01*
X156223809Y-95490476D01*
X156271428Y-95680952D01*
X156271428Y-95823809D01*
X156223809Y-96014285D01*
X156176190Y-96109523D01*
X156080952Y-96204761D01*
X155938095Y-96252380D01*
X155700000Y-96252380D01*
X156652380Y-95966666D02*
X157128571Y-95966666D01*
X156557142Y-96252380D02*
X156890476Y-95252380D01*
X157223809Y-96252380D01*
X157414285Y-95252380D02*
X157985714Y-95252380D01*
X157700000Y-96252380D02*
X157700000Y-95252380D01*
X158271428Y-95966666D02*
X158747619Y-95966666D01*
X158176190Y-96252380D02*
X158509523Y-95252380D01*
X158842857Y-96252380D01*
X161638095Y-95300000D02*
X161542857Y-95252380D01*
X161400000Y-95252380D01*
X161257142Y-95300000D01*
X161161904Y-95395238D01*
X161114285Y-95490476D01*
X161066666Y-95680952D01*
X161066666Y-95823809D01*
X161114285Y-96014285D01*
X161161904Y-96109523D01*
X161257142Y-96204761D01*
X161400000Y-96252380D01*
X161495238Y-96252380D01*
X161638095Y-96204761D01*
X161685714Y-96157142D01*
X161685714Y-95823809D01*
X161495238Y-95823809D01*
X162114285Y-96252380D02*
X162114285Y-95252380D01*
X162685714Y-96252380D01*
X162685714Y-95252380D01*
X163161904Y-96252380D02*
X163161904Y-95252380D01*
X163400000Y-95252380D01*
X163542857Y-95300000D01*
X163638095Y-95395238D01*
X163685714Y-95490476D01*
X163733333Y-95680952D01*
X163733333Y-95823809D01*
X163685714Y-96014285D01*
X163638095Y-96109523D01*
X163542857Y-96204761D01*
X163400000Y-96252380D01*
X163161904Y-96252380D01*
X152109523Y-95252380D02*
X151633333Y-95252380D01*
X151585714Y-95728571D01*
X151633333Y-95680952D01*
X151728571Y-95633333D01*
X151966666Y-95633333D01*
X152061904Y-95680952D01*
X152109523Y-95728571D01*
X152157142Y-95823809D01*
X152157142Y-96061904D01*
X152109523Y-96157142D01*
X152061904Y-96204761D01*
X151966666Y-96252380D01*
X151728571Y-96252380D01*
X151633333Y-96204761D01*
X151585714Y-96157142D01*
X152442857Y-95252380D02*
X152776190Y-96252380D01*
X153109523Y-95252380D01*
X93300000Y-44252380D02*
X93871428Y-44252380D01*
X93585714Y-45252380D02*
X93585714Y-44252380D01*
X94395238Y-44252380D02*
X94585714Y-44252380D01*
X94680952Y-44300000D01*
X94776190Y-44395238D01*
X94823809Y-44585714D01*
X94823809Y-44919047D01*
X94776190Y-45109523D01*
X94680952Y-45204761D01*
X94585714Y-45252380D01*
X94395238Y-45252380D01*
X94300000Y-45204761D01*
X94204761Y-45109523D01*
X94157142Y-44919047D01*
X94157142Y-44585714D01*
X94204761Y-44395238D01*
X94300000Y-44300000D01*
X94395238Y-44252380D01*
X96347619Y-44728571D02*
X96490476Y-44776190D01*
X96538095Y-44823809D01*
X96585714Y-44919047D01*
X96585714Y-45061904D01*
X96538095Y-45157142D01*
X96490476Y-45204761D01*
X96395238Y-45252380D01*
X96014285Y-45252380D01*
X96014285Y-44252380D01*
X96347619Y-44252380D01*
X96442857Y-44300000D01*
X96490476Y-44347619D01*
X96538095Y-44442857D01*
X96538095Y-44538095D01*
X96490476Y-44633333D01*
X96442857Y-44680952D01*
X96347619Y-44728571D01*
X96014285Y-44728571D01*
X97014285Y-44252380D02*
X97014285Y-45061904D01*
X97061904Y-45157142D01*
X97109523Y-45204761D01*
X97204761Y-45252380D01*
X97395238Y-45252380D01*
X97490476Y-45204761D01*
X97538095Y-45157142D01*
X97585714Y-45061904D01*
X97585714Y-44252380D01*
X97919047Y-44252380D02*
X98490476Y-44252380D01*
X98204761Y-45252380D02*
X98204761Y-44252380D01*
X98680952Y-44252380D02*
X99252380Y-44252380D01*
X98966666Y-45252380D02*
X98966666Y-44252380D01*
X99776190Y-44252380D02*
X99966666Y-44252380D01*
X100061904Y-44300000D01*
X100157142Y-44395238D01*
X100204761Y-44585714D01*
X100204761Y-44919047D01*
X100157142Y-45109523D01*
X100061904Y-45204761D01*
X99966666Y-45252380D01*
X99776190Y-45252380D01*
X99680952Y-45204761D01*
X99585714Y-45109523D01*
X99538095Y-44919047D01*
X99538095Y-44585714D01*
X99585714Y-44395238D01*
X99680952Y-44300000D01*
X99776190Y-44252380D01*
X100633333Y-45252380D02*
X100633333Y-44252380D01*
X101204761Y-45252380D01*
X101204761Y-44252380D01*
X101633333Y-45204761D02*
X101776190Y-45252380D01*
X102014285Y-45252380D01*
X102109523Y-45204761D01*
X102157142Y-45157142D01*
X102204761Y-45061904D01*
X102204761Y-44966666D01*
X102157142Y-44871428D01*
X102109523Y-44823809D01*
X102014285Y-44776190D01*
X101823809Y-44728571D01*
X101728571Y-44680952D01*
X101680952Y-44633333D01*
X101633333Y-44538095D01*
X101633333Y-44442857D01*
X101680952Y-44347619D01*
X101728571Y-44300000D01*
X101823809Y-44252380D01*
X102061904Y-44252380D01*
X102204761Y-44300000D01*
X152809523Y-66452380D02*
X152333333Y-66452380D01*
X152285714Y-66928571D01*
X152333333Y-66880952D01*
X152428571Y-66833333D01*
X152666666Y-66833333D01*
X152761904Y-66880952D01*
X152809523Y-66928571D01*
X152857142Y-67023809D01*
X152857142Y-67261904D01*
X152809523Y-67357142D01*
X152761904Y-67404761D01*
X152666666Y-67452380D01*
X152428571Y-67452380D01*
X152333333Y-67404761D01*
X152285714Y-67357142D01*
X153142857Y-66452380D02*
X153476190Y-67452380D01*
X153809523Y-66452380D01*
X152380952Y-61452380D02*
X151809523Y-61452380D01*
X152095238Y-61452380D02*
X152095238Y-60452380D01*
X152000000Y-60595238D01*
X151904761Y-60690476D01*
X151809523Y-60738095D01*
X152761904Y-60547619D02*
X152809523Y-60500000D01*
X152904761Y-60452380D01*
X153142857Y-60452380D01*
X153238095Y-60500000D01*
X153285714Y-60547619D01*
X153333333Y-60642857D01*
X153333333Y-60738095D01*
X153285714Y-60880952D01*
X152714285Y-61452380D01*
X153333333Y-61452380D01*
X153619047Y-60452380D02*
X153952380Y-61452380D01*
X154285714Y-60452380D01*
X44333333Y-98318571D02*
X44000000Y-98318571D01*
X44000000Y-98842380D02*
X44000000Y-97842380D01*
X44476190Y-97842380D01*
X44857142Y-97842380D02*
X44857142Y-98651904D01*
X44904761Y-98747142D01*
X44952380Y-98794761D01*
X45047619Y-98842380D01*
X45238095Y-98842380D01*
X45333333Y-98794761D01*
X45380952Y-98747142D01*
X45428571Y-98651904D01*
X45428571Y-97842380D01*
X45761904Y-97842380D02*
X46333333Y-97842380D01*
X46047619Y-98842380D02*
X46047619Y-97842380D01*
X46666666Y-97842380D02*
X46666666Y-98651904D01*
X46714285Y-98747142D01*
X46761904Y-98794761D01*
X46857142Y-98842380D01*
X47047619Y-98842380D01*
X47142857Y-98794761D01*
X47190476Y-98747142D01*
X47238095Y-98651904D01*
X47238095Y-97842380D01*
X48285714Y-98842380D02*
X47952380Y-98366190D01*
X47714285Y-98842380D02*
X47714285Y-97842380D01*
X48095238Y-97842380D01*
X48190476Y-97890000D01*
X48238095Y-97937619D01*
X48285714Y-98032857D01*
X48285714Y-98175714D01*
X48238095Y-98270952D01*
X48190476Y-98318571D01*
X48095238Y-98366190D01*
X47714285Y-98366190D01*
X48714285Y-98318571D02*
X49047619Y-98318571D01*
X49190476Y-98842380D02*
X48714285Y-98842380D01*
X48714285Y-97842380D01*
X49190476Y-97842380D01*
X50238095Y-97842380D02*
X50809523Y-97842380D01*
X50523809Y-98842380D02*
X50523809Y-97842380D01*
X51142857Y-97842380D02*
X51142857Y-98651904D01*
X51190476Y-98747142D01*
X51238095Y-98794761D01*
X51333333Y-98842380D01*
X51523809Y-98842380D01*
X51619047Y-98794761D01*
X51666666Y-98747142D01*
X51714285Y-98651904D01*
X51714285Y-97842380D01*
X52761904Y-98842380D02*
X52428571Y-98366190D01*
X52190476Y-98842380D02*
X52190476Y-97842380D01*
X52571428Y-97842380D01*
X52666666Y-97890000D01*
X52714285Y-97937619D01*
X52761904Y-98032857D01*
X52761904Y-98175714D01*
X52714285Y-98270952D01*
X52666666Y-98318571D01*
X52571428Y-98366190D01*
X52190476Y-98366190D01*
X53047619Y-97842380D02*
X53619047Y-97842380D01*
X53333333Y-98842380D02*
X53333333Y-97842380D01*
X54428571Y-98842380D02*
X53952380Y-98842380D01*
X53952380Y-97842380D01*
X54761904Y-98318571D02*
X55095238Y-98318571D01*
X55238095Y-98842380D02*
X54761904Y-98842380D01*
X54761904Y-97842380D01*
X55238095Y-97842380D01*
X55619047Y-98794761D02*
X55761904Y-98842380D01*
X56000000Y-98842380D01*
X56095238Y-98794761D01*
X56142857Y-98747142D01*
X56190476Y-98651904D01*
X56190476Y-98556666D01*
X56142857Y-98461428D01*
X56095238Y-98413809D01*
X56000000Y-98366190D01*
X55809523Y-98318571D01*
X55714285Y-98270952D01*
X55666666Y-98223333D01*
X55619047Y-98128095D01*
X55619047Y-98032857D01*
X55666666Y-97937619D01*
X55714285Y-97890000D01*
X55809523Y-97842380D01*
X56047619Y-97842380D01*
X56190476Y-97890000D01*
X57333333Y-98556666D02*
X57809523Y-98556666D01*
X57238095Y-98842380D02*
X57571428Y-97842380D01*
X57904761Y-98842380D01*
X58238095Y-98842380D02*
X58238095Y-97842380D01*
X58809523Y-98842380D01*
X58809523Y-97842380D01*
X59142857Y-97842380D02*
X59714285Y-97842380D01*
X59428571Y-98842380D02*
X59428571Y-97842380D01*
X60047619Y-98318571D02*
X60380952Y-98318571D01*
X60523809Y-98842380D02*
X60047619Y-98842380D01*
X60047619Y-97842380D01*
X60523809Y-97842380D01*
X60952380Y-98842380D02*
X60952380Y-97842380D01*
X61523809Y-98842380D01*
X61523809Y-97842380D01*
X62000000Y-98842380D02*
X62000000Y-97842380D01*
X62571428Y-98842380D01*
X62571428Y-97842380D01*
X63000000Y-98556666D02*
X63476190Y-98556666D01*
X62904761Y-98842380D02*
X63238095Y-97842380D01*
X63571428Y-98842380D01*
X64619047Y-97937619D02*
X64666666Y-97890000D01*
X64761904Y-97842380D01*
X65000000Y-97842380D01*
X65095238Y-97890000D01*
X65142857Y-97937619D01*
X65190476Y-98032857D01*
X65190476Y-98128095D01*
X65142857Y-98270952D01*
X64571428Y-98842380D01*
X65190476Y-98842380D01*
X65809523Y-97842380D02*
X65904761Y-97842380D01*
X66000000Y-97890000D01*
X66047619Y-97937619D01*
X66095238Y-98032857D01*
X66142857Y-98223333D01*
X66142857Y-98461428D01*
X66095238Y-98651904D01*
X66047619Y-98747142D01*
X66000000Y-98794761D01*
X65904761Y-98842380D01*
X65809523Y-98842380D01*
X65714285Y-98794761D01*
X65666666Y-98747142D01*
X65619047Y-98651904D01*
X65571428Y-98461428D01*
X65571428Y-98223333D01*
X65619047Y-98032857D01*
X65666666Y-97937619D01*
X65714285Y-97890000D01*
X65809523Y-97842380D01*
X66523809Y-97937619D02*
X66571428Y-97890000D01*
X66666666Y-97842380D01*
X66904761Y-97842380D01*
X67000000Y-97890000D01*
X67047619Y-97937619D01*
X67095238Y-98032857D01*
X67095238Y-98128095D01*
X67047619Y-98270952D01*
X66476190Y-98842380D01*
X67095238Y-98842380D01*
X67476190Y-97937619D02*
X67523809Y-97890000D01*
X67619047Y-97842380D01*
X67857142Y-97842380D01*
X67952380Y-97890000D01*
X68000000Y-97937619D01*
X68047619Y-98032857D01*
X68047619Y-98128095D01*
X68000000Y-98270952D01*
X67428571Y-98842380D01*
X68047619Y-98842380D01*
X51071428Y-99452380D02*
X51071428Y-100166666D01*
X51023809Y-100309523D01*
X50928571Y-100404761D01*
X50785714Y-100452380D01*
X50690476Y-100452380D01*
X51738095Y-99452380D02*
X51928571Y-99452380D01*
X52023809Y-99500000D01*
X52119047Y-99595238D01*
X52166666Y-99785714D01*
X52166666Y-100119047D01*
X52119047Y-100309523D01*
X52023809Y-100404761D01*
X51928571Y-100452380D01*
X51738095Y-100452380D01*
X51642857Y-100404761D01*
X51547619Y-100309523D01*
X51500000Y-100119047D01*
X51500000Y-99785714D01*
X51547619Y-99595238D01*
X51642857Y-99500000D01*
X51738095Y-99452380D01*
X52595238Y-99928571D02*
X52928571Y-99928571D01*
X53071428Y-100452380D02*
X52595238Y-100452380D01*
X52595238Y-99452380D01*
X53071428Y-99452380D01*
X53976190Y-100452380D02*
X53500000Y-100452380D01*
X53500000Y-99452380D01*
X55023809Y-100404761D02*
X55166666Y-100452380D01*
X55404761Y-100452380D01*
X55500000Y-100404761D01*
X55547619Y-100357142D01*
X55595238Y-100261904D01*
X55595238Y-100166666D01*
X55547619Y-100071428D01*
X55500000Y-100023809D01*
X55404761Y-99976190D01*
X55214285Y-99928571D01*
X55119047Y-99880952D01*
X55071428Y-99833333D01*
X55023809Y-99738095D01*
X55023809Y-99642857D01*
X55071428Y-99547619D01*
X55119047Y-99500000D01*
X55214285Y-99452380D01*
X55452380Y-99452380D01*
X55595238Y-99500000D01*
X56023809Y-100452380D02*
X56023809Y-99452380D01*
X56404761Y-99452380D01*
X56500000Y-99500000D01*
X56547619Y-99547619D01*
X56595238Y-99642857D01*
X56595238Y-99785714D01*
X56547619Y-99880952D01*
X56500000Y-99928571D01*
X56404761Y-99976190D01*
X56023809Y-99976190D01*
X57214285Y-99452380D02*
X57404761Y-99452380D01*
X57500000Y-99500000D01*
X57595238Y-99595238D01*
X57642857Y-99785714D01*
X57642857Y-100119047D01*
X57595238Y-100309523D01*
X57500000Y-100404761D01*
X57404761Y-100452380D01*
X57214285Y-100452380D01*
X57119047Y-100404761D01*
X57023809Y-100309523D01*
X56976190Y-100119047D01*
X56976190Y-99785714D01*
X57023809Y-99595238D01*
X57119047Y-99500000D01*
X57214285Y-99452380D01*
X58547619Y-100452380D02*
X58071428Y-100452380D01*
X58071428Y-99452380D01*
X58833333Y-100404761D02*
X58976190Y-100452380D01*
X59214285Y-100452380D01*
X59309523Y-100404761D01*
X59357142Y-100357142D01*
X59404761Y-100261904D01*
X59404761Y-100166666D01*
X59357142Y-100071428D01*
X59309523Y-100023809D01*
X59214285Y-99976190D01*
X59023809Y-99928571D01*
X58928571Y-99880952D01*
X58880952Y-99833333D01*
X58833333Y-99738095D01*
X58833333Y-99642857D01*
X58880952Y-99547619D01*
X58928571Y-99500000D01*
X59023809Y-99452380D01*
X59261904Y-99452380D01*
X59404761Y-99500000D01*
X59833333Y-100452380D02*
X59833333Y-99452380D01*
X60404761Y-100452380D02*
X59976190Y-99880952D01*
X60404761Y-99452380D02*
X59833333Y-100023809D01*
X61023809Y-99976190D02*
X61023809Y-100452380D01*
X60690476Y-99452380D02*
X61023809Y-99976190D01*
X61357142Y-99452380D01*
X45428571Y-102062380D02*
X45095238Y-101586190D01*
X44857142Y-102062380D02*
X44857142Y-101062380D01*
X45238095Y-101062380D01*
X45333333Y-101110000D01*
X45380952Y-101157619D01*
X45428571Y-101252857D01*
X45428571Y-101395714D01*
X45380952Y-101490952D01*
X45333333Y-101538571D01*
X45238095Y-101586190D01*
X44857142Y-101586190D01*
X45857142Y-101538571D02*
X46190476Y-101538571D01*
X46333333Y-102062380D02*
X45857142Y-102062380D01*
X45857142Y-101062380D01*
X46333333Y-101062380D01*
X46761904Y-102062380D02*
X46761904Y-101062380D01*
X47095238Y-101776666D01*
X47428571Y-101062380D01*
X47428571Y-102062380D01*
X48095238Y-101062380D02*
X48285714Y-101062380D01*
X48380952Y-101110000D01*
X48476190Y-101205238D01*
X48523809Y-101395714D01*
X48523809Y-101729047D01*
X48476190Y-101919523D01*
X48380952Y-102014761D01*
X48285714Y-102062380D01*
X48095238Y-102062380D01*
X48000000Y-102014761D01*
X47904761Y-101919523D01*
X47857142Y-101729047D01*
X47857142Y-101395714D01*
X47904761Y-101205238D01*
X48000000Y-101110000D01*
X48095238Y-101062380D01*
X48809523Y-101062380D02*
X49380952Y-101062380D01*
X49095238Y-102062380D02*
X49095238Y-101062380D01*
X49714285Y-101538571D02*
X50047619Y-101538571D01*
X50190476Y-102062380D02*
X49714285Y-102062380D01*
X49714285Y-101062380D01*
X50190476Y-101062380D01*
X51952380Y-101967142D02*
X51904761Y-102014761D01*
X51761904Y-102062380D01*
X51666666Y-102062380D01*
X51523809Y-102014761D01*
X51428571Y-101919523D01*
X51380952Y-101824285D01*
X51333333Y-101633809D01*
X51333333Y-101490952D01*
X51380952Y-101300476D01*
X51428571Y-101205238D01*
X51523809Y-101110000D01*
X51666666Y-101062380D01*
X51761904Y-101062380D01*
X51904761Y-101110000D01*
X51952380Y-101157619D01*
X52571428Y-101062380D02*
X52761904Y-101062380D01*
X52857142Y-101110000D01*
X52952380Y-101205238D01*
X53000000Y-101395714D01*
X53000000Y-101729047D01*
X52952380Y-101919523D01*
X52857142Y-102014761D01*
X52761904Y-102062380D01*
X52571428Y-102062380D01*
X52476190Y-102014761D01*
X52380952Y-101919523D01*
X52333333Y-101729047D01*
X52333333Y-101395714D01*
X52380952Y-101205238D01*
X52476190Y-101110000D01*
X52571428Y-101062380D01*
X53428571Y-102062380D02*
X53428571Y-101062380D01*
X54000000Y-102062380D01*
X54000000Y-101062380D01*
X54333333Y-101062380D02*
X54904761Y-101062380D01*
X54619047Y-102062380D02*
X54619047Y-101062380D01*
X55809523Y-102062380D02*
X55476190Y-101586190D01*
X55238095Y-102062380D02*
X55238095Y-101062380D01*
X55619047Y-101062380D01*
X55714285Y-101110000D01*
X55761904Y-101157619D01*
X55809523Y-101252857D01*
X55809523Y-101395714D01*
X55761904Y-101490952D01*
X55714285Y-101538571D01*
X55619047Y-101586190D01*
X55238095Y-101586190D01*
X56428571Y-101062380D02*
X56619047Y-101062380D01*
X56714285Y-101110000D01*
X56809523Y-101205238D01*
X56857142Y-101395714D01*
X56857142Y-101729047D01*
X56809523Y-101919523D01*
X56714285Y-102014761D01*
X56619047Y-102062380D01*
X56428571Y-102062380D01*
X56333333Y-102014761D01*
X56238095Y-101919523D01*
X56190476Y-101729047D01*
X56190476Y-101395714D01*
X56238095Y-101205238D01*
X56333333Y-101110000D01*
X56428571Y-101062380D01*
X57761904Y-102062380D02*
X57285714Y-102062380D01*
X57285714Y-101062380D01*
X58857142Y-102062380D02*
X58857142Y-101062380D01*
X59428571Y-102062380D02*
X59000000Y-101490952D01*
X59428571Y-101062380D02*
X58857142Y-101633809D01*
X59857142Y-101538571D02*
X60190476Y-101538571D01*
X60333333Y-102062380D02*
X59857142Y-102062380D01*
X59857142Y-101062380D01*
X60333333Y-101062380D01*
X60952380Y-101586190D02*
X60952380Y-102062380D01*
X60619047Y-101062380D02*
X60952380Y-101586190D01*
X61285714Y-101062380D01*
X61619047Y-102062380D02*
X61619047Y-101062380D01*
X62000000Y-101062380D01*
X62095238Y-101110000D01*
X62142857Y-101157619D01*
X62190476Y-101252857D01*
X62190476Y-101395714D01*
X62142857Y-101490952D01*
X62095238Y-101538571D01*
X62000000Y-101586190D01*
X61619047Y-101586190D01*
X62571428Y-101776666D02*
X63047619Y-101776666D01*
X62476190Y-102062380D02*
X62809523Y-101062380D01*
X63142857Y-102062380D01*
X63476190Y-102062380D02*
X63476190Y-101062380D01*
X63714285Y-101062380D01*
X63857142Y-101110000D01*
X63952380Y-101205238D01*
X64000000Y-101300476D01*
X64047619Y-101490952D01*
X64047619Y-101633809D01*
X64000000Y-101824285D01*
X63952380Y-101919523D01*
X63857142Y-102014761D01*
X63714285Y-102062380D01*
X63476190Y-102062380D01*
X65761904Y-102062380D02*
X65190476Y-102062380D01*
X65476190Y-102062380D02*
X65476190Y-101062380D01*
X65380952Y-101205238D01*
X65285714Y-101300476D01*
X65190476Y-101348095D01*
X66190476Y-101967142D02*
X66238095Y-102014761D01*
X66190476Y-102062380D01*
X66142857Y-102014761D01*
X66190476Y-101967142D01*
X66190476Y-102062380D01*
X66857142Y-101062380D02*
X66952380Y-101062380D01*
X67047619Y-101110000D01*
X67095238Y-101157619D01*
X67142857Y-101252857D01*
X67190476Y-101443333D01*
X67190476Y-101681428D01*
X67142857Y-101871904D01*
X67095238Y-101967142D01*
X67047619Y-102014761D01*
X66952380Y-102062380D01*
X66857142Y-102062380D01*
X66761904Y-102014761D01*
X66714285Y-101967142D01*
X66666666Y-101871904D01*
X66619047Y-101681428D01*
X66619047Y-101443333D01*
X66666666Y-101252857D01*
X66714285Y-101157619D01*
X66761904Y-101110000D01*
X66857142Y-101062380D01*
G04 #@! TO.C,U4*
X145587380Y-85936904D02*
X146396904Y-85936904D01*
X146492142Y-85889285D01*
X146539761Y-85841666D01*
X146587380Y-85746428D01*
X146587380Y-85555952D01*
X146539761Y-85460714D01*
X146492142Y-85413095D01*
X146396904Y-85365476D01*
X145587380Y-85365476D01*
X145920714Y-84460714D02*
X146587380Y-84460714D01*
X145539761Y-84698809D02*
X146254047Y-84936904D01*
X146254047Y-84317857D01*
G04 #@! TO.C,U3*
X49163095Y-78317380D02*
X49163095Y-79126904D01*
X49210714Y-79222142D01*
X49258333Y-79269761D01*
X49353571Y-79317380D01*
X49544047Y-79317380D01*
X49639285Y-79269761D01*
X49686904Y-79222142D01*
X49734523Y-79126904D01*
X49734523Y-78317380D01*
X50115476Y-78317380D02*
X50734523Y-78317380D01*
X50401190Y-78698333D01*
X50544047Y-78698333D01*
X50639285Y-78745952D01*
X50686904Y-78793571D01*
X50734523Y-78888809D01*
X50734523Y-79126904D01*
X50686904Y-79222142D01*
X50639285Y-79269761D01*
X50544047Y-79317380D01*
X50258333Y-79317380D01*
X50163095Y-79269761D01*
X50115476Y-79222142D01*
G04 #@! TO.C,U2*
X164479880Y-60829404D02*
X165289404Y-60829404D01*
X165384642Y-60781785D01*
X165432261Y-60734166D01*
X165479880Y-60638928D01*
X165479880Y-60448452D01*
X165432261Y-60353214D01*
X165384642Y-60305595D01*
X165289404Y-60257976D01*
X164479880Y-60257976D01*
X164575119Y-59829404D02*
X164527500Y-59781785D01*
X164479880Y-59686547D01*
X164479880Y-59448452D01*
X164527500Y-59353214D01*
X164575119Y-59305595D01*
X164670357Y-59257976D01*
X164765595Y-59257976D01*
X164908452Y-59305595D01*
X165479880Y-59877023D01*
X165479880Y-59257976D01*
G04 #@! TO.C,U1*
X117238095Y-53292380D02*
X117238095Y-54101904D01*
X117285714Y-54197142D01*
X117333333Y-54244761D01*
X117428571Y-54292380D01*
X117619047Y-54292380D01*
X117714285Y-54244761D01*
X117761904Y-54197142D01*
X117809523Y-54101904D01*
X117809523Y-53292380D01*
X118809523Y-54292380D02*
X118238095Y-54292380D01*
X118523809Y-54292380D02*
X118523809Y-53292380D01*
X118428571Y-53435238D01*
X118333333Y-53530476D01*
X118238095Y-53578095D01*
X139010952Y-64452380D02*
X139010952Y-63452380D01*
X139344285Y-64166666D01*
X139677619Y-63452380D01*
X139677619Y-64452380D01*
X140153809Y-64452380D02*
X140153809Y-63785714D01*
X140153809Y-63452380D02*
X140106190Y-63500000D01*
X140153809Y-63547619D01*
X140201428Y-63500000D01*
X140153809Y-63452380D01*
X140153809Y-63547619D01*
X141058571Y-64404761D02*
X140963333Y-64452380D01*
X140772857Y-64452380D01*
X140677619Y-64404761D01*
X140630000Y-64357142D01*
X140582380Y-64261904D01*
X140582380Y-63976190D01*
X140630000Y-63880952D01*
X140677619Y-63833333D01*
X140772857Y-63785714D01*
X140963333Y-63785714D01*
X141058571Y-63833333D01*
X141487142Y-64452380D02*
X141487142Y-63785714D01*
X141487142Y-63976190D02*
X141534761Y-63880952D01*
X141582380Y-63833333D01*
X141677619Y-63785714D01*
X141772857Y-63785714D01*
X142249047Y-64452380D02*
X142153809Y-64404761D01*
X142106190Y-64357142D01*
X142058571Y-64261904D01*
X142058571Y-63976190D01*
X142106190Y-63880952D01*
X142153809Y-63833333D01*
X142249047Y-63785714D01*
X142391904Y-63785714D01*
X142487142Y-63833333D01*
X142534761Y-63880952D01*
X142582380Y-63976190D01*
X142582380Y-64261904D01*
X142534761Y-64357142D01*
X142487142Y-64404761D01*
X142391904Y-64452380D01*
X142249047Y-64452380D01*
X143725238Y-64404761D02*
X143868095Y-64452380D01*
X144106190Y-64452380D01*
X144201428Y-64404761D01*
X144249047Y-64357142D01*
X144296666Y-64261904D01*
X144296666Y-64166666D01*
X144249047Y-64071428D01*
X144201428Y-64023809D01*
X144106190Y-63976190D01*
X143915714Y-63928571D01*
X143820476Y-63880952D01*
X143772857Y-63833333D01*
X143725238Y-63738095D01*
X143725238Y-63642857D01*
X143772857Y-63547619D01*
X143820476Y-63500000D01*
X143915714Y-63452380D01*
X144153809Y-63452380D01*
X144296666Y-63500000D01*
X144725238Y-64452380D02*
X144725238Y-63452380D01*
X144963333Y-63452380D01*
X145106190Y-63500000D01*
X145201428Y-63595238D01*
X145249047Y-63690476D01*
X145296666Y-63880952D01*
X145296666Y-64023809D01*
X145249047Y-64214285D01*
X145201428Y-64309523D01*
X145106190Y-64404761D01*
X144963333Y-64452380D01*
X144725238Y-64452380D01*
X117046666Y-67083333D02*
X116346666Y-67083333D01*
X116846666Y-66850000D01*
X116346666Y-66616666D01*
X117046666Y-66616666D01*
X117046666Y-66283333D02*
X116346666Y-66283333D01*
X117046666Y-65950000D02*
X116346666Y-65950000D01*
X116846666Y-65716666D01*
X116346666Y-65483333D01*
X117046666Y-65483333D01*
X116346666Y-65216666D02*
X117046666Y-64750000D01*
X116346666Y-64750000D02*
X117046666Y-65216666D01*
X117046666Y-64083333D02*
X116713333Y-64316666D01*
X117046666Y-64483333D02*
X116346666Y-64483333D01*
X116346666Y-64216666D01*
X116380000Y-64150000D01*
X116413333Y-64116666D01*
X116480000Y-64083333D01*
X116580000Y-64083333D01*
X116646666Y-64116666D01*
X116680000Y-64150000D01*
X116713333Y-64216666D01*
X116713333Y-64483333D01*
X116346666Y-63883333D02*
X116346666Y-63483333D01*
X117046666Y-63683333D02*
X116346666Y-63683333D01*
X117046666Y-62883333D02*
X117046666Y-63283333D01*
X117046666Y-63083333D02*
X116346666Y-63083333D01*
X116446666Y-63150000D01*
X116513333Y-63216666D01*
X116546666Y-63283333D01*
X116346666Y-62450000D02*
X116346666Y-62383333D01*
X116380000Y-62316666D01*
X116413333Y-62283333D01*
X116480000Y-62250000D01*
X116613333Y-62216666D01*
X116780000Y-62216666D01*
X116913333Y-62250000D01*
X116980000Y-62283333D01*
X117013333Y-62316666D01*
X117046666Y-62383333D01*
X117046666Y-62450000D01*
X117013333Y-62516666D01*
X116980000Y-62550000D01*
X116913333Y-62583333D01*
X116780000Y-62616666D01*
X116613333Y-62616666D01*
X116480000Y-62583333D01*
X116413333Y-62550000D01*
X116380000Y-62516666D01*
X116346666Y-62450000D01*
X116346666Y-61616666D02*
X116346666Y-61750000D01*
X116380000Y-61816666D01*
X116413333Y-61850000D01*
X116513333Y-61916666D01*
X116646666Y-61950000D01*
X116913333Y-61950000D01*
X116980000Y-61916666D01*
X117013333Y-61883333D01*
X117046666Y-61816666D01*
X117046666Y-61683333D01*
X117013333Y-61616666D01*
X116980000Y-61583333D01*
X116913333Y-61550000D01*
X116746666Y-61550000D01*
X116680000Y-61583333D01*
X116646666Y-61616666D01*
X116613333Y-61683333D01*
X116613333Y-61816666D01*
X116646666Y-61883333D01*
X116680000Y-61916666D01*
X116746666Y-61950000D01*
X116413333Y-61283333D02*
X116380000Y-61250000D01*
X116346666Y-61183333D01*
X116346666Y-61016666D01*
X116380000Y-60950000D01*
X116413333Y-60916666D01*
X116480000Y-60883333D01*
X116546666Y-60883333D01*
X116646666Y-60916666D01*
X117046666Y-61316666D01*
X117046666Y-60883333D01*
X115776666Y-65203333D02*
X115076666Y-65203333D01*
X115076666Y-65036666D01*
X115110000Y-64936666D01*
X115176666Y-64870000D01*
X115243333Y-64836666D01*
X115376666Y-64803333D01*
X115476666Y-64803333D01*
X115610000Y-64836666D01*
X115676666Y-64870000D01*
X115743333Y-64936666D01*
X115776666Y-65036666D01*
X115776666Y-65203333D01*
X115076666Y-64603333D02*
X115776666Y-64370000D01*
X115076666Y-64136666D01*
X115076666Y-63703333D02*
X115576666Y-63703333D01*
X115676666Y-63736666D01*
X115743333Y-63803333D01*
X115776666Y-63903333D01*
X115776666Y-63970000D01*
X115076666Y-63070000D02*
X115076666Y-63203333D01*
X115110000Y-63270000D01*
X115143333Y-63303333D01*
X115243333Y-63370000D01*
X115376666Y-63403333D01*
X115643333Y-63403333D01*
X115710000Y-63370000D01*
X115743333Y-63336666D01*
X115776666Y-63270000D01*
X115776666Y-63136666D01*
X115743333Y-63070000D01*
X115710000Y-63036666D01*
X115643333Y-63003333D01*
X115476666Y-63003333D01*
X115410000Y-63036666D01*
X115376666Y-63070000D01*
X115343333Y-63136666D01*
X115343333Y-63270000D01*
X115376666Y-63336666D01*
X115410000Y-63370000D01*
X115476666Y-63403333D01*
X115576666Y-62736666D02*
X115576666Y-62403333D01*
X115776666Y-62803333D02*
X115076666Y-62570000D01*
X115776666Y-62336666D01*
D11*
G04 #@! TO.C,J3*
X156453226Y-49001980D02*
X156453226Y-49716266D01*
X156405607Y-49859123D01*
X156310369Y-49954361D01*
X156167512Y-50001980D01*
X156072274Y-50001980D01*
X156834179Y-49001980D02*
X157453226Y-49001980D01*
X157119893Y-49382933D01*
X157262750Y-49382933D01*
X157357988Y-49430552D01*
X157405607Y-49478171D01*
X157453226Y-49573409D01*
X157453226Y-49811504D01*
X157405607Y-49906742D01*
X157357988Y-49954361D01*
X157262750Y-50001980D01*
X156977036Y-50001980D01*
X156881798Y-49954361D01*
X156834179Y-49906742D01*
D12*
G04 #@! TO.C,U4*
X144652500Y-89175000D02*
X143510000Y-89175000D01*
X126490000Y-89175000D02*
X125347500Y-89175000D01*
X125347500Y-82825000D02*
X126490000Y-82825000D01*
X125347500Y-89175000D02*
X125347500Y-82825000D01*
X143510000Y-82825000D02*
X144652500Y-82825000D01*
X144652500Y-82825000D02*
X144652500Y-89175000D01*
D13*
X142720000Y-80900000D02*
G75*
G03*
X142720000Y-80900000I-100000J0D01*
G01*
D12*
G04 #@! TO.C,U3*
X91000000Y-80000000D02*
X91000000Y-94000000D01*
X47000000Y-80000000D02*
X91000000Y-80000000D01*
X47000000Y-94000000D02*
X47000000Y-80000000D01*
X91000000Y-94000000D02*
X47000000Y-94000000D01*
D13*
X46468000Y-83060000D02*
G75*
G03*
X46468000Y-83060000I-100000J0D01*
G01*
D14*
G04 #@! TO.C,U2*
X158317500Y-57817500D02*
X155867500Y-57817500D01*
X164047500Y-58147500D02*
X164047500Y-70087500D01*
X164047500Y-70087500D02*
X156197500Y-70087500D01*
X155867500Y-57817500D02*
X155867500Y-60147500D01*
X156197500Y-58147500D02*
X164047500Y-58147500D01*
X156197500Y-70087500D02*
X156197500Y-58147500D01*
D10*
G04 #@! TO.C,U1*
X130963026Y-64000000D02*
G75*
G03*
X130963026Y-64000000I-898026J0D01*
G01*
X110380000Y-57650000D02*
X110380000Y-70350000D01*
X123080000Y-57650000D02*
X110380000Y-57650000D01*
X123080000Y-70350000D02*
X123080000Y-57650000D01*
X110380000Y-70350000D02*
X123080000Y-70350000D01*
X128160000Y-62730000D02*
X131970000Y-62730000D01*
X128160000Y-65270000D02*
X128160000Y-62730000D01*
X131970000Y-65270000D02*
X128160000Y-65270000D01*
X131970000Y-62730000D02*
X131970000Y-65270000D01*
X147210000Y-69080000D02*
X148480000Y-69080000D01*
X147210000Y-58920000D02*
X147210000Y-69080000D01*
X148480000Y-58920000D02*
X147210000Y-58920000D01*
X135780000Y-70350000D02*
X148480000Y-70350000D01*
X135780000Y-57650000D02*
X135780000Y-70350000D01*
X148480000Y-57650000D02*
X135780000Y-57650000D01*
X87520000Y-67810000D02*
X86250000Y-67810000D01*
X86250000Y-67810000D02*
X86250000Y-60190000D01*
X86250000Y-60190000D02*
X87520000Y-60190000D01*
X92600000Y-67810000D02*
X92600000Y-60190000D01*
X92600000Y-60190000D02*
X87520000Y-60190000D01*
X92600000Y-67810000D02*
X87520000Y-67810000D01*
X87520000Y-55110000D02*
X148480000Y-55110000D01*
X148480000Y-55110000D02*
X148480000Y-72890000D01*
X148480000Y-72890000D02*
X87520000Y-72890000D01*
X87520000Y-72890000D02*
X87520000Y-55110000D01*
G36*
X120435000Y-64455000D02*
G01*
X120181000Y-64709000D01*
X119927000Y-64328000D01*
X120181000Y-64074000D01*
X120435000Y-64455000D01*
G37*
D15*
X120435000Y-64455000D02*
X120181000Y-64709000D01*
X119927000Y-64328000D01*
X120181000Y-64074000D01*
X120435000Y-64455000D01*
G36*
X120054000Y-63947000D02*
G01*
X119800000Y-64201000D01*
X119546000Y-63820000D01*
X119800000Y-63566000D01*
X120054000Y-63947000D01*
G37*
X120054000Y-63947000D02*
X119800000Y-64201000D01*
X119546000Y-63820000D01*
X119800000Y-63566000D01*
X120054000Y-63947000D01*
G36*
X119673000Y-63439000D02*
G01*
X119419000Y-63693000D01*
X119165000Y-63312000D01*
X119419000Y-63058000D01*
X119673000Y-63439000D01*
G37*
X119673000Y-63439000D02*
X119419000Y-63693000D01*
X119165000Y-63312000D01*
X119419000Y-63058000D01*
X119673000Y-63439000D01*
G36*
X119673000Y-64328000D02*
G01*
X119419000Y-64582000D01*
X119165000Y-64201000D01*
X119419000Y-63947000D01*
X119673000Y-64328000D01*
G37*
X119673000Y-64328000D02*
X119419000Y-64582000D01*
X119165000Y-64201000D01*
X119419000Y-63947000D01*
X119673000Y-64328000D01*
G36*
X119292000Y-63820000D02*
G01*
X119038000Y-64074000D01*
X118784000Y-63693000D01*
X119038000Y-63439000D01*
X119292000Y-63820000D01*
G37*
X119292000Y-63820000D02*
X119038000Y-64074000D01*
X118784000Y-63693000D01*
X119038000Y-63439000D01*
X119292000Y-63820000D01*
G36*
X118911000Y-63312000D02*
G01*
X118657000Y-63566000D01*
X118403000Y-63185000D01*
X118657000Y-62931000D01*
X118911000Y-63312000D01*
G37*
X118911000Y-63312000D02*
X118657000Y-63566000D01*
X118403000Y-63185000D01*
X118657000Y-62931000D01*
X118911000Y-63312000D01*
G36*
X120816000Y-64074000D02*
G01*
X120562000Y-64328000D01*
X120308000Y-63947000D01*
X120562000Y-63693000D01*
X120816000Y-64074000D01*
G37*
X120816000Y-64074000D02*
X120562000Y-64328000D01*
X120308000Y-63947000D01*
X120562000Y-63693000D01*
X120816000Y-64074000D01*
G36*
X121197000Y-63693000D02*
G01*
X120943000Y-63947000D01*
X120689000Y-63566000D01*
X120943000Y-63312000D01*
X121197000Y-63693000D01*
G37*
X121197000Y-63693000D02*
X120943000Y-63947000D01*
X120689000Y-63566000D01*
X120943000Y-63312000D01*
X121197000Y-63693000D01*
D12*
G04 #@! TO.C,J4*
X170160000Y-91100000D02*
X149840000Y-91100000D01*
X149840000Y-80900000D02*
X170160000Y-80900000D01*
X149840000Y-91100000D02*
X149840000Y-80900000D01*
X170160000Y-80900000D02*
X170160000Y-91100000D01*
D13*
X152480000Y-79900000D02*
G75*
G03*
X152480000Y-79900000I-100000J0D01*
G01*
G04 #@! TO.C,J3*
X160720000Y-44350000D02*
G75*
G03*
X160720000Y-44350000I-100000J0D01*
G01*
D12*
X159000000Y-36520000D02*
X159000000Y-48370000D01*
X159000000Y-29870000D02*
X159000000Y-33380000D01*
X143000000Y-29870000D02*
X159000000Y-29870000D01*
X143000000Y-33380000D02*
X143000000Y-29870000D01*
X143000000Y-48370000D02*
X143000000Y-36520000D01*
X159000000Y-48370000D02*
X143000000Y-48370000D01*
G04 #@! TO.C,J2*
X97320000Y-41562500D02*
X56680000Y-41562500D01*
X56680000Y-41562500D02*
X56680000Y-31362500D01*
X56680000Y-31362500D02*
X97320000Y-31362500D01*
X97320000Y-31362500D02*
X97320000Y-41562500D01*
D13*
X59320000Y-30362500D02*
G75*
G03*
X59320000Y-30362500I-100000J0D01*
G01*
D12*
G04 #@! TO.C,J1*
X98680000Y-31437500D02*
X139320000Y-31437500D01*
X139320000Y-31437500D02*
X139320000Y-41637500D01*
X139320000Y-41637500D02*
X98680000Y-41637500D01*
X98680000Y-41637500D02*
X98680000Y-31437500D01*
D13*
X136880000Y-42637500D02*
G75*
G03*
X136880000Y-42637500I-100000J0D01*
G01*
G04 #@! TD*
M02*
