M48
; DRILL file {KiCad (6.0.5-0)} date Friday, May 20, 2022 at 06:14:07 PM
; FORMAT={-:-/ absolute / inch / decimal}
; #@! TF.CreationDate,2022-05-20T18:14:07-04:00
; #@! TF.GenerationSoftware,Kicad,Pcbnew,(6.0.5-0)
; #@! TF.FileFunction,Plated,1,2,PTH
FMAT,2
INCH
; #@! TA.AperFunction,Plated,PTH,ComponentDrill
T1C0.0291
; #@! TA.AperFunction,Plated,PTH,ComponentDrill
T2C0.0354
; #@! TA.AperFunction,Plated,PTH,ComponentDrill
T3C0.0394
; #@! TA.AperFunction,Plated,PTH,ComponentDrill
T4C0.0402
; #@! TA.AperFunction,Plated,PTH,ComponentDrill
T5C0.0433
; #@! TA.AperFunction,Plated,PTH,ComponentDrill
T6C0.0630
; #@! TA.AperFunction,Plated,PTH,ComponentDrill
T7C0.0669
%
G90
G05
T1
X5.015Y-3.2295
X5.015Y-3.5421
X5.115Y-3.2295
X5.115Y-3.5421
X5.215Y-3.2295
X5.215Y-3.5421
X5.315Y-3.2295
X5.315Y-3.5421
X5.415Y-3.2295
X5.415Y-3.5421
X5.515Y-3.2295
X5.515Y-3.5421
X5.615Y-3.2295
X5.615Y-3.5421
T2
X5.7699Y-1.8461
X5.8199Y-1.7461
X5.8699Y-1.8461
X5.9199Y-1.7461
X5.9699Y-1.8461
X6.0199Y-1.7461
X6.0699Y-1.8461
X6.1199Y-1.7461
T3
X6.233Y-2.4239
X6.233Y-2.5239
X6.233Y-2.6239
T4
X1.9055Y-3.2752
X1.9055Y-3.3752
X1.9055Y-3.4752
X1.9055Y-3.5752
X3.5283Y-3.2752
X3.5283Y-3.3752
X3.5283Y-3.4752
X3.5283Y-3.5752
T5
X3.4957Y-2.2197
X3.4957Y-2.8197
X3.5957Y-2.2197
X3.5957Y-2.8197
X3.6957Y-2.2197
X3.6957Y-2.8197
X3.7957Y-2.2197
X3.7957Y-2.8197
X3.8957Y-2.2197
X3.8957Y-2.8197
X3.9957Y-2.2197
X3.9957Y-2.8197
X4.0957Y-2.2197
X4.0957Y-2.8197
X4.1957Y-2.2197
X4.1957Y-2.8197
X4.2957Y-2.2197
X4.2957Y-2.8197
X4.3957Y-2.2197
X4.3957Y-2.8197
X4.4957Y-2.2197
X4.4957Y-2.8197
X4.5957Y-2.2197
X4.5957Y-2.8197
X4.6957Y-2.2197
X4.6957Y-2.8197
X4.7957Y-2.2197
X4.7957Y-2.8197
X4.8957Y-2.2197
X4.8957Y-2.8197
X4.9957Y-2.2197
X4.9957Y-2.8197
X5.0957Y-2.2197
X5.0957Y-2.8197
X5.1957Y-2.2197
X5.1957Y-2.8197
X5.2957Y-2.2197
X5.2957Y-2.8197
X5.3957Y-2.2197
X5.3957Y-2.8197
X5.4957Y-2.2197
X5.4957Y-2.8197
X5.5957Y-2.2197
X5.5957Y-2.8197
X5.6957Y-2.2197
X5.6957Y-2.8197
X5.7957Y-2.2197
X5.7957Y-2.8197
T6
X2.3315Y-1.4355
X2.5315Y-1.4355
X2.7315Y-1.4355
X2.9315Y-1.4355
X3.1315Y-1.4355
X3.3315Y-1.4355
X3.5315Y-1.4355
X3.7315Y-1.4355
X3.985Y-1.4385
X4.185Y-1.4385
X4.385Y-1.4385
X4.585Y-1.4385
X4.785Y-1.4385
X4.985Y-1.4385
X5.185Y-1.4385
X5.385Y-1.4385
X5.9992Y-3.3858
X6.1992Y-3.3858
X6.3992Y-3.3858
X6.5992Y-3.3858
T7
X5.6411Y-1.376
X6.2486Y-1.376
T0
M30
