G04 #@! TF.GenerationSoftware,KiCad,Pcbnew,(6.0.5-0)*
G04 #@! TF.CreationDate,2022-05-08T11:44:23-04:00*
G04 #@! TF.ProjectId,Receiver,52656365-6976-4657-922e-6b696361645f,rev?*
G04 #@! TF.SameCoordinates,Original*
G04 #@! TF.FileFunction,Legend,Top*
G04 #@! TF.FilePolarity,Positive*
%FSLAX46Y46*%
G04 Gerber Fmt 4.6, Leading zero omitted, Abs format (unit mm)*
G04 Created by KiCad (PCBNEW (6.0.5-0)) date 2022-05-08 11:44:23*
%MOMM*%
%LPD*%
G01*
G04 APERTURE LIST*
%ADD10C,0.150000*%
%ADD11C,0.500000*%
%ADD12C,0.120000*%
G04 APERTURE END LIST*
D10*
X95161904Y-77595238D02*
X95733333Y-77595238D01*
X95847619Y-77633333D01*
X95923809Y-77709523D01*
X95961904Y-77823809D01*
X95961904Y-77900000D01*
X95961904Y-76833333D02*
X95961904Y-77214285D01*
X95161904Y-77214285D01*
X95885714Y-76109523D02*
X95923809Y-76147619D01*
X95961904Y-76261904D01*
X95961904Y-76338095D01*
X95923809Y-76452380D01*
X95847619Y-76528571D01*
X95771428Y-76566666D01*
X95619047Y-76604761D01*
X95504761Y-76604761D01*
X95352380Y-76566666D01*
X95276190Y-76528571D01*
X95200000Y-76452380D01*
X95161904Y-76338095D01*
X95161904Y-76261904D01*
X95200000Y-76147619D01*
X95238095Y-76109523D01*
X95161904Y-75538095D02*
X95733333Y-75538095D01*
X95847619Y-75576190D01*
X95923809Y-75652380D01*
X95961904Y-75766666D01*
X95961904Y-75842857D01*
X95961904Y-74776190D02*
X95961904Y-75157142D01*
X95161904Y-75157142D01*
X95885714Y-74052380D02*
X95923809Y-74090476D01*
X95961904Y-74204761D01*
X95961904Y-74280952D01*
X95923809Y-74395238D01*
X95847619Y-74471428D01*
X95771428Y-74509523D01*
X95619047Y-74547619D01*
X95504761Y-74547619D01*
X95352380Y-74509523D01*
X95276190Y-74471428D01*
X95200000Y-74395238D01*
X95161904Y-74280952D01*
X95161904Y-74204761D01*
X95200000Y-74090476D01*
X95238095Y-74052380D01*
X95161904Y-73480952D02*
X95733333Y-73480952D01*
X95847619Y-73519047D01*
X95923809Y-73595238D01*
X95961904Y-73709523D01*
X95961904Y-73785714D01*
X95961904Y-72719047D02*
X95961904Y-73100000D01*
X95161904Y-73100000D01*
X95885714Y-71995238D02*
X95923809Y-72033333D01*
X95961904Y-72147619D01*
X95961904Y-72223809D01*
X95923809Y-72338095D01*
X95847619Y-72414285D01*
X95771428Y-72452380D01*
X95619047Y-72490476D01*
X95504761Y-72490476D01*
X95352380Y-72452380D01*
X95276190Y-72414285D01*
X95200000Y-72338095D01*
X95161904Y-72223809D01*
X95161904Y-72147619D01*
X95200000Y-72033333D01*
X95238095Y-71995238D01*
X95161904Y-71423809D02*
X95733333Y-71423809D01*
X95847619Y-71461904D01*
X95923809Y-71538095D01*
X95961904Y-71652380D01*
X95961904Y-71728571D01*
X95961904Y-70661904D02*
X95961904Y-71042857D01*
X95161904Y-71042857D01*
X95885714Y-69938095D02*
X95923809Y-69976190D01*
X95961904Y-70090476D01*
X95961904Y-70166666D01*
X95923809Y-70280952D01*
X95847619Y-70357142D01*
X95771428Y-70395238D01*
X95619047Y-70433333D01*
X95504761Y-70433333D01*
X95352380Y-70395238D01*
X95276190Y-70357142D01*
X95200000Y-70280952D01*
X95161904Y-70166666D01*
X95161904Y-70090476D01*
X95200000Y-69976190D01*
X95238095Y-69938095D01*
X50500000Y-75300000D02*
X63600000Y-75300000D01*
D11*
X88522000Y-77700000D02*
G75*
G03*
X88522000Y-77700000I-250000J0D01*
G01*
D10*
X61142857Y-73928571D02*
X61285714Y-73976190D01*
X61333333Y-74023809D01*
X61380952Y-74119047D01*
X61380952Y-74261904D01*
X61333333Y-74357142D01*
X61285714Y-74404761D01*
X61190476Y-74452380D01*
X60809523Y-74452380D01*
X60809523Y-73452380D01*
X61142857Y-73452380D01*
X61238095Y-73500000D01*
X61285714Y-73547619D01*
X61333333Y-73642857D01*
X61333333Y-73738095D01*
X61285714Y-73833333D01*
X61238095Y-73880952D01*
X61142857Y-73928571D01*
X60809523Y-73928571D01*
X62285714Y-74452380D02*
X61809523Y-74452380D01*
X61809523Y-73452380D01*
X62619047Y-73452380D02*
X62619047Y-74261904D01*
X62666666Y-74357142D01*
X62714285Y-74404761D01*
X62809523Y-74452380D01*
X63000000Y-74452380D01*
X63095238Y-74404761D01*
X63142857Y-74357142D01*
X63190476Y-74261904D01*
X63190476Y-73452380D01*
X103714285Y-74352380D02*
X103714285Y-73352380D01*
X103952380Y-73352380D01*
X104095238Y-73400000D01*
X104190476Y-73495238D01*
X104238095Y-73590476D01*
X104285714Y-73780952D01*
X104285714Y-73923809D01*
X104238095Y-74114285D01*
X104190476Y-74209523D01*
X104095238Y-74304761D01*
X103952380Y-74352380D01*
X103714285Y-74352380D01*
X104904761Y-73352380D02*
X105095238Y-73352380D01*
X105190476Y-73400000D01*
X105285714Y-73495238D01*
X105333333Y-73685714D01*
X105333333Y-74019047D01*
X105285714Y-74209523D01*
X105190476Y-74304761D01*
X105095238Y-74352380D01*
X104904761Y-74352380D01*
X104809523Y-74304761D01*
X104714285Y-74209523D01*
X104666666Y-74019047D01*
X104666666Y-73685714D01*
X104714285Y-73495238D01*
X104809523Y-73400000D01*
X104904761Y-73352380D01*
X85053547Y-70471428D02*
X85815452Y-70471428D01*
X108480952Y-77852380D02*
X107909523Y-77852380D01*
X108195238Y-77852380D02*
X108195238Y-76852380D01*
X108100000Y-76995238D01*
X108004761Y-77090476D01*
X107909523Y-77138095D01*
X108861904Y-76947619D02*
X108909523Y-76900000D01*
X109004761Y-76852380D01*
X109242857Y-76852380D01*
X109338095Y-76900000D01*
X109385714Y-76947619D01*
X109433333Y-77042857D01*
X109433333Y-77138095D01*
X109385714Y-77280952D01*
X108814285Y-77852380D01*
X109433333Y-77852380D01*
X109719047Y-76852380D02*
X110052380Y-77852380D01*
X110385714Y-76852380D01*
X54738095Y-73500000D02*
X54642857Y-73452380D01*
X54500000Y-73452380D01*
X54357142Y-73500000D01*
X54261904Y-73595238D01*
X54214285Y-73690476D01*
X54166666Y-73880952D01*
X54166666Y-74023809D01*
X54214285Y-74214285D01*
X54261904Y-74309523D01*
X54357142Y-74404761D01*
X54500000Y-74452380D01*
X54595238Y-74452380D01*
X54738095Y-74404761D01*
X54785714Y-74357142D01*
X54785714Y-74023809D01*
X54595238Y-74023809D01*
X55785714Y-74452380D02*
X55452380Y-73976190D01*
X55214285Y-74452380D02*
X55214285Y-73452380D01*
X55595238Y-73452380D01*
X55690476Y-73500000D01*
X55738095Y-73547619D01*
X55785714Y-73642857D01*
X55785714Y-73785714D01*
X55738095Y-73880952D01*
X55690476Y-73928571D01*
X55595238Y-73976190D01*
X55214285Y-73976190D01*
X56214285Y-74452380D02*
X56214285Y-73452380D01*
X56785714Y-74452380D01*
X56785714Y-73452380D01*
X57676190Y-73452380D02*
X57866666Y-73452380D01*
X57961904Y-73500000D01*
X58057142Y-73595238D01*
X58104761Y-73785714D01*
X58104761Y-74119047D01*
X58057142Y-74309523D01*
X57961904Y-74404761D01*
X57866666Y-74452380D01*
X57676190Y-74452380D01*
X57580952Y-74404761D01*
X57485714Y-74309523D01*
X57438095Y-74119047D01*
X57438095Y-73785714D01*
X57485714Y-73595238D01*
X57580952Y-73500000D01*
X57676190Y-73452380D01*
X59104761Y-74452380D02*
X58771428Y-73976190D01*
X58533333Y-74452380D02*
X58533333Y-73452380D01*
X58914285Y-73452380D01*
X59009523Y-73500000D01*
X59057142Y-73547619D01*
X59104761Y-73642857D01*
X59104761Y-73785714D01*
X59057142Y-73880952D01*
X59009523Y-73928571D01*
X58914285Y-73976190D01*
X58533333Y-73976190D01*
X59485714Y-74166666D02*
X59961904Y-74166666D01*
X59390476Y-74452380D02*
X59723809Y-73452380D01*
X60057142Y-74452380D01*
X50619047Y-72771428D02*
X51380952Y-72771428D01*
X52619047Y-72771428D02*
X53380952Y-72771428D01*
X54619047Y-72771428D02*
X55380952Y-72771428D01*
X56619047Y-72771428D02*
X57380952Y-72771428D01*
X58619047Y-72771428D02*
X59380952Y-72771428D01*
X60619047Y-72771428D02*
X61380952Y-72771428D01*
X62619047Y-72771428D02*
X63380952Y-72771428D01*
X108438095Y-70300000D02*
X108342857Y-70252380D01*
X108200000Y-70252380D01*
X108057142Y-70300000D01*
X107961904Y-70395238D01*
X107914285Y-70490476D01*
X107866666Y-70680952D01*
X107866666Y-70823809D01*
X107914285Y-71014285D01*
X107961904Y-71109523D01*
X108057142Y-71204761D01*
X108200000Y-71252380D01*
X108295238Y-71252380D01*
X108438095Y-71204761D01*
X108485714Y-71157142D01*
X108485714Y-70823809D01*
X108295238Y-70823809D01*
X108914285Y-71252380D02*
X108914285Y-70252380D01*
X109485714Y-71252380D01*
X109485714Y-70252380D01*
X109961904Y-71252380D02*
X109961904Y-70252380D01*
X110200000Y-70252380D01*
X110342857Y-70300000D01*
X110438095Y-70395238D01*
X110485714Y-70490476D01*
X110533333Y-70680952D01*
X110533333Y-70823809D01*
X110485714Y-71014285D01*
X110438095Y-71109523D01*
X110342857Y-71204761D01*
X110200000Y-71252380D01*
X109961904Y-71252380D01*
X80303547Y-70471428D02*
X81065452Y-70471428D01*
X80684500Y-70852380D02*
X80684500Y-70090476D01*
X51147619Y-73928571D02*
X51290476Y-73976190D01*
X51338095Y-74023809D01*
X51385714Y-74119047D01*
X51385714Y-74261904D01*
X51338095Y-74357142D01*
X51290476Y-74404761D01*
X51195238Y-74452380D01*
X50814285Y-74452380D01*
X50814285Y-73452380D01*
X51147619Y-73452380D01*
X51242857Y-73500000D01*
X51290476Y-73547619D01*
X51338095Y-73642857D01*
X51338095Y-73738095D01*
X51290476Y-73833333D01*
X51242857Y-73880952D01*
X51147619Y-73928571D01*
X50814285Y-73928571D01*
X52385714Y-74452380D02*
X52052380Y-73976190D01*
X51814285Y-74452380D02*
X51814285Y-73452380D01*
X52195238Y-73452380D01*
X52290476Y-73500000D01*
X52338095Y-73547619D01*
X52385714Y-73642857D01*
X52385714Y-73785714D01*
X52338095Y-73880952D01*
X52290476Y-73928571D01*
X52195238Y-73976190D01*
X51814285Y-73976190D01*
X52814285Y-74452380D02*
X52814285Y-73452380D01*
X53385714Y-74452380D01*
X53385714Y-73452380D01*
D12*
G04 #@! TO.C,U2*
X84200000Y-71840000D02*
X82250000Y-71840000D01*
X84200000Y-71840000D02*
X86150000Y-71840000D01*
X84200000Y-76960000D02*
X87650000Y-76960000D01*
X84200000Y-76960000D02*
X82250000Y-76960000D01*
G04 #@! TO.C,R6*
X77884742Y-73072500D02*
X78359258Y-73072500D01*
X77884742Y-72027500D02*
X78359258Y-72027500D01*
G04 #@! TO.C,R2*
X90609258Y-75244500D02*
X90134742Y-75244500D01*
X90609258Y-74199500D02*
X90134742Y-74199500D01*
G04 #@! TO.C,C2*
X78365252Y-76315000D02*
X77842748Y-76315000D01*
X78365252Y-77785000D02*
X77842748Y-77785000D01*
G04 #@! TO.C,C5*
X96311252Y-78664000D02*
X94888748Y-78664000D01*
X96311252Y-75944000D02*
X94888748Y-75944000D01*
G04 #@! TO.C,R3*
X90609258Y-72421500D02*
X90134742Y-72421500D01*
X90609258Y-73466500D02*
X90134742Y-73466500D01*
G04 #@! TO.C,C6*
X96311252Y-72642000D02*
X94888748Y-72642000D01*
X96311252Y-75362000D02*
X94888748Y-75362000D01*
G04 #@! TO.C,C1*
X66265000Y-70638748D02*
X66265000Y-71161252D01*
X67735000Y-70638748D02*
X67735000Y-71161252D01*
G04 #@! TO.C,R7*
X78359258Y-74027500D02*
X77884742Y-74027500D01*
X78359258Y-75072500D02*
X77884742Y-75072500D01*
G04 #@! TO.C,C4*
X81479836Y-78160000D02*
X81264164Y-78160000D01*
X81479836Y-77440000D02*
X81264164Y-77440000D01*
G04 #@! TO.C,R4*
X77855242Y-70071500D02*
X78329758Y-70071500D01*
X77855242Y-71116500D02*
X78329758Y-71116500D01*
G04 #@! TO.C,R5*
X90609258Y-71688500D02*
X90134742Y-71688500D01*
X90609258Y-70643500D02*
X90134742Y-70643500D01*
G04 #@! TO.C,D1*
X84619500Y-71460000D02*
X84619500Y-69540000D01*
X81934500Y-71460000D02*
X84619500Y-71460000D01*
X84619500Y-69540000D02*
X81934500Y-69540000D01*
G04 #@! TO.C,C3*
X66265000Y-77223252D02*
X66265000Y-76700748D01*
X67735000Y-77223252D02*
X67735000Y-76700748D01*
G04 #@! TO.C,C7*
X96311252Y-72060000D02*
X94888748Y-72060000D01*
X96311252Y-69340000D02*
X94888748Y-69340000D01*
G04 #@! TO.C,R8*
X64177500Y-73662742D02*
X64177500Y-74137258D01*
X65222500Y-73662742D02*
X65222500Y-74137258D01*
G04 #@! TO.C,R1*
X90609258Y-77022500D02*
X90134742Y-77022500D01*
X90609258Y-75977500D02*
X90134742Y-75977500D01*
G04 #@! TO.C,U1*
X68690000Y-72150000D02*
X68690000Y-75910000D01*
X75510000Y-69900000D02*
X75510000Y-75910000D01*
X75510000Y-75910000D02*
X74250000Y-75910000D01*
X68690000Y-75910000D02*
X69950000Y-75910000D01*
G04 #@! TD*
M02*
