M48
; DRILL file {KiCad (6.0.5-0)} date Sunday, May 08, 2022 at 11:44:16 AM
; FORMAT={-:-/ absolute / inch / decimal}
; #@! TF.CreationDate,2022-05-08T11:44:16-04:00
; #@! TF.GenerationSoftware,Kicad,Pcbnew,(6.0.5-0)
; #@! TF.FileFunction,Plated,1,4,PTH
FMAT,2
INCH
; #@! TA.AperFunction,Plated,PTH,ViaDrill
T1C0.0157
; #@! TA.AperFunction,Plated,PTH,ComponentDrill
T2C0.0335
; #@! TA.AperFunction,Plated,PTH,ComponentDrill
T3C0.0689
%
G90
G05
T1
X2.0512Y-2.9803
X2.5709Y-2.7559
X2.5709Y-2.8071
X2.6142Y-2.9331
X2.6732Y-2.9331
X2.9921Y-2.7874
X2.9961Y-3.0315
X3.1063Y-2.8927
X3.1102Y-2.9803
X3.1575Y-2.8425
X3.1575Y-3.0276
X3.557Y-2.9802
X3.6535Y-2.7835
X3.8819Y-2.7835
T2
X2.0472Y-2.7756
X2.0512Y-3.0512
X2.1772Y-2.7756
X2.1811Y-3.0512
X2.3071Y-2.7756
X2.311Y-3.0512
X2.437Y-2.7756
X2.4409Y-3.0512
T3
X3.9822Y-2.9134
X4.1496Y-2.7913
X4.1496Y-3.0315
T0
M30
