G04 #@! TF.GenerationSoftware,KiCad,Pcbnew,(6.0.5-0)*
G04 #@! TF.CreationDate,2022-05-08T11:44:23-04:00*
G04 #@! TF.ProjectId,Receiver,52656365-6976-4657-922e-6b696361645f,rev?*
G04 #@! TF.SameCoordinates,Original*
G04 #@! TF.FileFunction,Legend,Bot*
G04 #@! TF.FilePolarity,Positive*
%FSLAX46Y46*%
G04 Gerber Fmt 4.6, Leading zero omitted, Abs format (unit mm)*
G04 Created by KiCad (PCBNEW (6.0.5-0)) date 2022-05-08 11:44:23*
%MOMM*%
%LPD*%
G01*
G04 APERTURE LIST*
%ADD10C,0.150000*%
G04 APERTURE END LIST*
D10*
X90838095Y-71137142D02*
X90885714Y-71184761D01*
X91028571Y-71232380D01*
X91123809Y-71232380D01*
X91266666Y-71184761D01*
X91361904Y-71089523D01*
X91409523Y-70994285D01*
X91457142Y-70803809D01*
X91457142Y-70660952D01*
X91409523Y-70470476D01*
X91361904Y-70375238D01*
X91266666Y-70280000D01*
X91123809Y-70232380D01*
X91028571Y-70232380D01*
X90885714Y-70280000D01*
X90838095Y-70327619D01*
X90457142Y-70946666D02*
X89980952Y-70946666D01*
X90552380Y-71232380D02*
X90219047Y-70232380D01*
X89885714Y-71232380D01*
X89695238Y-70232380D02*
X89123809Y-70232380D01*
X89409523Y-71232380D02*
X89409523Y-70232380D01*
X88790476Y-70851428D02*
X88028571Y-70851428D01*
X87123809Y-70232380D02*
X87314285Y-70232380D01*
X87409523Y-70280000D01*
X87457142Y-70327619D01*
X87552380Y-70470476D01*
X87600000Y-70660952D01*
X87600000Y-71041904D01*
X87552380Y-71137142D01*
X87504761Y-71184761D01*
X87409523Y-71232380D01*
X87219047Y-71232380D01*
X87123809Y-71184761D01*
X87076190Y-71137142D01*
X87028571Y-71041904D01*
X87028571Y-70803809D01*
X87076190Y-70708571D01*
X87123809Y-70660952D01*
X87219047Y-70613333D01*
X87409523Y-70613333D01*
X87504761Y-70660952D01*
X87552380Y-70708571D01*
X87600000Y-70803809D01*
X85980952Y-70232380D02*
X85409523Y-70232380D01*
X85695238Y-71232380D02*
X85695238Y-70232380D01*
X84885714Y-70232380D02*
X84695238Y-70232380D01*
X84600000Y-70280000D01*
X84504761Y-70375238D01*
X84457142Y-70565714D01*
X84457142Y-70899047D01*
X84504761Y-71089523D01*
X84600000Y-71184761D01*
X84695238Y-71232380D01*
X84885714Y-71232380D01*
X84980952Y-71184761D01*
X85076190Y-71089523D01*
X85123809Y-70899047D01*
X85123809Y-70565714D01*
X85076190Y-70375238D01*
X84980952Y-70280000D01*
X84885714Y-70232380D01*
X83361904Y-70232380D02*
X83123809Y-71232380D01*
X82933333Y-70518095D01*
X82742857Y-71232380D01*
X82504761Y-70232380D01*
X82171428Y-71184761D02*
X82028571Y-71232380D01*
X81790476Y-71232380D01*
X81695238Y-71184761D01*
X81647619Y-71137142D01*
X81600000Y-71041904D01*
X81600000Y-70946666D01*
X81647619Y-70851428D01*
X81695238Y-70803809D01*
X81790476Y-70756190D01*
X81980952Y-70708571D01*
X82076190Y-70660952D01*
X82123809Y-70613333D01*
X82171428Y-70518095D01*
X82171428Y-70422857D01*
X82123809Y-70327619D01*
X82076190Y-70280000D01*
X81980952Y-70232380D01*
X81742857Y-70232380D01*
X81600000Y-70280000D01*
X81219047Y-70327619D02*
X81171428Y-70280000D01*
X81076190Y-70232380D01*
X80838095Y-70232380D01*
X80742857Y-70280000D01*
X80695238Y-70327619D01*
X80647619Y-70422857D01*
X80647619Y-70518095D01*
X80695238Y-70660952D01*
X81266666Y-71232380D01*
X80647619Y-71232380D01*
X80076190Y-70660952D02*
X80171428Y-70613333D01*
X80219047Y-70565714D01*
X80266666Y-70470476D01*
X80266666Y-70422857D01*
X80219047Y-70327619D01*
X80171428Y-70280000D01*
X80076190Y-70232380D01*
X79885714Y-70232380D01*
X79790476Y-70280000D01*
X79742857Y-70327619D01*
X79695238Y-70422857D01*
X79695238Y-70470476D01*
X79742857Y-70565714D01*
X79790476Y-70613333D01*
X79885714Y-70660952D01*
X80076190Y-70660952D01*
X80171428Y-70708571D01*
X80219047Y-70756190D01*
X80266666Y-70851428D01*
X80266666Y-71041904D01*
X80219047Y-71137142D01*
X80171428Y-71184761D01*
X80076190Y-71232380D01*
X79885714Y-71232380D01*
X79790476Y-71184761D01*
X79742857Y-71137142D01*
X79695238Y-71041904D01*
X79695238Y-70851428D01*
X79742857Y-70756190D01*
X79790476Y-70708571D01*
X79885714Y-70660952D01*
X78742857Y-71232380D02*
X79314285Y-71232380D01*
X79028571Y-71232380D02*
X79028571Y-70232380D01*
X79123809Y-70375238D01*
X79219047Y-70470476D01*
X79314285Y-70518095D01*
X77838095Y-70232380D02*
X78314285Y-70232380D01*
X78361904Y-70708571D01*
X78314285Y-70660952D01*
X78219047Y-70613333D01*
X77980952Y-70613333D01*
X77885714Y-70660952D01*
X77838095Y-70708571D01*
X77790476Y-70803809D01*
X77790476Y-71041904D01*
X77838095Y-71137142D01*
X77885714Y-71184761D01*
X77980952Y-71232380D01*
X78219047Y-71232380D01*
X78314285Y-71184761D01*
X78361904Y-71137142D01*
X77028571Y-70708571D02*
X76885714Y-70756190D01*
X76838095Y-70803809D01*
X76790476Y-70899047D01*
X76790476Y-71041904D01*
X76838095Y-71137142D01*
X76885714Y-71184761D01*
X76980952Y-71232380D01*
X77361904Y-71232380D01*
X77361904Y-70232380D01*
X77028571Y-70232380D01*
X76933333Y-70280000D01*
X76885714Y-70327619D01*
X76838095Y-70422857D01*
X76838095Y-70518095D01*
X76885714Y-70613333D01*
X76933333Y-70660952D01*
X77028571Y-70708571D01*
X77361904Y-70708571D01*
X75695238Y-70232380D02*
X75457142Y-71232380D01*
X75266666Y-70518095D01*
X75076190Y-71232380D01*
X74838095Y-70232380D01*
X74457142Y-71232380D02*
X74457142Y-70232380D01*
X74123809Y-70232380D02*
X73552380Y-70232380D01*
X73838095Y-71232380D02*
X73838095Y-70232380D01*
X73219047Y-71232380D02*
X73219047Y-70232380D01*
X73219047Y-70708571D02*
X72647619Y-70708571D01*
X72647619Y-71232380D02*
X72647619Y-70232380D01*
X71409523Y-71232380D02*
X71409523Y-70232380D01*
X71028571Y-70232380D01*
X70933333Y-70280000D01*
X70885714Y-70327619D01*
X70838095Y-70422857D01*
X70838095Y-70565714D01*
X70885714Y-70660952D01*
X70933333Y-70708571D01*
X71028571Y-70756190D01*
X71409523Y-70756190D01*
X70219047Y-70232380D02*
X70028571Y-70232380D01*
X69933333Y-70280000D01*
X69838095Y-70375238D01*
X69790476Y-70565714D01*
X69790476Y-70899047D01*
X69838095Y-71089523D01*
X69933333Y-71184761D01*
X70028571Y-71232380D01*
X70219047Y-71232380D01*
X70314285Y-71184761D01*
X70409523Y-71089523D01*
X70457142Y-70899047D01*
X70457142Y-70565714D01*
X70409523Y-70375238D01*
X70314285Y-70280000D01*
X70219047Y-70232380D01*
X69457142Y-70232380D02*
X69219047Y-71232380D01*
X69028571Y-70518095D01*
X68838095Y-71232380D01*
X68600000Y-70232380D01*
X68219047Y-70708571D02*
X67885714Y-70708571D01*
X67742857Y-71232380D02*
X68219047Y-71232380D01*
X68219047Y-70232380D01*
X67742857Y-70232380D01*
X66742857Y-71232380D02*
X67076190Y-70756190D01*
X67314285Y-71232380D02*
X67314285Y-70232380D01*
X66933333Y-70232380D01*
X66838095Y-70280000D01*
X66790476Y-70327619D01*
X66742857Y-70422857D01*
X66742857Y-70565714D01*
X66790476Y-70660952D01*
X66838095Y-70708571D01*
X66933333Y-70756190D01*
X67314285Y-70756190D01*
X84028571Y-71842380D02*
X84028571Y-72556666D01*
X84076190Y-72699523D01*
X84171428Y-72794761D01*
X84314285Y-72842380D01*
X84409523Y-72842380D01*
X83361904Y-71842380D02*
X83171428Y-71842380D01*
X83076190Y-71890000D01*
X82980952Y-71985238D01*
X82933333Y-72175714D01*
X82933333Y-72509047D01*
X82980952Y-72699523D01*
X83076190Y-72794761D01*
X83171428Y-72842380D01*
X83361904Y-72842380D01*
X83457142Y-72794761D01*
X83552380Y-72699523D01*
X83600000Y-72509047D01*
X83600000Y-72175714D01*
X83552380Y-71985238D01*
X83457142Y-71890000D01*
X83361904Y-71842380D01*
X82504761Y-72318571D02*
X82171428Y-72318571D01*
X82028571Y-72842380D02*
X82504761Y-72842380D01*
X82504761Y-71842380D01*
X82028571Y-71842380D01*
X81123809Y-72842380D02*
X81600000Y-72842380D01*
X81600000Y-71842380D01*
X80076190Y-72794761D02*
X79933333Y-72842380D01*
X79695238Y-72842380D01*
X79600000Y-72794761D01*
X79552380Y-72747142D01*
X79504761Y-72651904D01*
X79504761Y-72556666D01*
X79552380Y-72461428D01*
X79600000Y-72413809D01*
X79695238Y-72366190D01*
X79885714Y-72318571D01*
X79980952Y-72270952D01*
X80028571Y-72223333D01*
X80076190Y-72128095D01*
X80076190Y-72032857D01*
X80028571Y-71937619D01*
X79980952Y-71890000D01*
X79885714Y-71842380D01*
X79647619Y-71842380D01*
X79504761Y-71890000D01*
X79076190Y-72842380D02*
X79076190Y-71842380D01*
X78695238Y-71842380D01*
X78600000Y-71890000D01*
X78552380Y-71937619D01*
X78504761Y-72032857D01*
X78504761Y-72175714D01*
X78552380Y-72270952D01*
X78600000Y-72318571D01*
X78695238Y-72366190D01*
X79076190Y-72366190D01*
X77885714Y-71842380D02*
X77695238Y-71842380D01*
X77600000Y-71890000D01*
X77504761Y-71985238D01*
X77457142Y-72175714D01*
X77457142Y-72509047D01*
X77504761Y-72699523D01*
X77600000Y-72794761D01*
X77695238Y-72842380D01*
X77885714Y-72842380D01*
X77980952Y-72794761D01*
X78076190Y-72699523D01*
X78123809Y-72509047D01*
X78123809Y-72175714D01*
X78076190Y-71985238D01*
X77980952Y-71890000D01*
X77885714Y-71842380D01*
X76552380Y-72842380D02*
X77028571Y-72842380D01*
X77028571Y-71842380D01*
X76266666Y-72794761D02*
X76123809Y-72842380D01*
X75885714Y-72842380D01*
X75790476Y-72794761D01*
X75742857Y-72747142D01*
X75695238Y-72651904D01*
X75695238Y-72556666D01*
X75742857Y-72461428D01*
X75790476Y-72413809D01*
X75885714Y-72366190D01*
X76076190Y-72318571D01*
X76171428Y-72270952D01*
X76219047Y-72223333D01*
X76266666Y-72128095D01*
X76266666Y-72032857D01*
X76219047Y-71937619D01*
X76171428Y-71890000D01*
X76076190Y-71842380D01*
X75838095Y-71842380D01*
X75695238Y-71890000D01*
X75266666Y-72842380D02*
X75266666Y-71842380D01*
X74695238Y-72842380D02*
X75123809Y-72270952D01*
X74695238Y-71842380D02*
X75266666Y-72413809D01*
X74076190Y-72366190D02*
X74076190Y-72842380D01*
X74409523Y-71842380D02*
X74076190Y-72366190D01*
X73742857Y-71842380D01*
X88171428Y-74452380D02*
X88171428Y-73452380D01*
X87742857Y-74452380D02*
X87742857Y-73928571D01*
X87790476Y-73833333D01*
X87885714Y-73785714D01*
X88028571Y-73785714D01*
X88123809Y-73833333D01*
X88171428Y-73880952D01*
X87409523Y-73785714D02*
X87028571Y-73785714D01*
X87266666Y-73452380D02*
X87266666Y-74309523D01*
X87219047Y-74404761D01*
X87123809Y-74452380D01*
X87028571Y-74452380D01*
X86838095Y-73785714D02*
X86457142Y-73785714D01*
X86695238Y-73452380D02*
X86695238Y-74309523D01*
X86647619Y-74404761D01*
X86552380Y-74452380D01*
X86457142Y-74452380D01*
X86123809Y-73785714D02*
X86123809Y-74785714D01*
X86123809Y-73833333D02*
X86028571Y-73785714D01*
X85838095Y-73785714D01*
X85742857Y-73833333D01*
X85695238Y-73880952D01*
X85647619Y-73976190D01*
X85647619Y-74261904D01*
X85695238Y-74357142D01*
X85742857Y-74404761D01*
X85838095Y-74452380D01*
X86028571Y-74452380D01*
X86123809Y-74404761D01*
X85266666Y-74404761D02*
X85171428Y-74452380D01*
X84980952Y-74452380D01*
X84885714Y-74404761D01*
X84838095Y-74309523D01*
X84838095Y-74261904D01*
X84885714Y-74166666D01*
X84980952Y-74119047D01*
X85123809Y-74119047D01*
X85219047Y-74071428D01*
X85266666Y-73976190D01*
X85266666Y-73928571D01*
X85219047Y-73833333D01*
X85123809Y-73785714D01*
X84980952Y-73785714D01*
X84885714Y-73833333D01*
X84409523Y-74357142D02*
X84361904Y-74404761D01*
X84409523Y-74452380D01*
X84457142Y-74404761D01*
X84409523Y-74357142D01*
X84409523Y-74452380D01*
X84409523Y-73833333D02*
X84361904Y-73880952D01*
X84409523Y-73928571D01*
X84457142Y-73880952D01*
X84409523Y-73833333D01*
X84409523Y-73928571D01*
X83219047Y-73404761D02*
X84076190Y-74690476D01*
X82171428Y-73404761D02*
X83028571Y-74690476D01*
X81838095Y-74452380D02*
X81838095Y-73452380D01*
X81838095Y-73833333D02*
X81742857Y-73785714D01*
X81552380Y-73785714D01*
X81457142Y-73833333D01*
X81409523Y-73880952D01*
X81361904Y-73976190D01*
X81361904Y-74261904D01*
X81409523Y-74357142D01*
X81457142Y-74404761D01*
X81552380Y-74452380D01*
X81742857Y-74452380D01*
X81838095Y-74404761D01*
X80790476Y-74452380D02*
X80885714Y-74404761D01*
X80933333Y-74309523D01*
X80933333Y-73452380D01*
X80409523Y-74452380D02*
X80409523Y-73785714D01*
X80409523Y-73452380D02*
X80457142Y-73500000D01*
X80409523Y-73547619D01*
X80361904Y-73500000D01*
X80409523Y-73452380D01*
X80409523Y-73547619D01*
X79933333Y-73785714D02*
X79933333Y-74452380D01*
X79933333Y-73880952D02*
X79885714Y-73833333D01*
X79790476Y-73785714D01*
X79647619Y-73785714D01*
X79552380Y-73833333D01*
X79504761Y-73928571D01*
X79504761Y-74452380D01*
X79028571Y-74452380D02*
X79028571Y-73452380D01*
X78933333Y-74071428D02*
X78647619Y-74452380D01*
X78647619Y-73785714D02*
X79028571Y-74166666D01*
X78314285Y-73785714D02*
X78076190Y-74452380D01*
X77838095Y-73785714D02*
X78076190Y-74452380D01*
X78171428Y-74690476D01*
X78219047Y-74738095D01*
X78314285Y-74785714D01*
X77314285Y-74452380D02*
X77409523Y-74404761D01*
X77457142Y-74309523D01*
X77457142Y-73452380D01*
X76933333Y-74452380D02*
X76933333Y-73785714D01*
X76933333Y-73452380D02*
X76980952Y-73500000D01*
X76933333Y-73547619D01*
X76885714Y-73500000D01*
X76933333Y-73452380D01*
X76933333Y-73547619D01*
X76028571Y-73785714D02*
X76028571Y-74595238D01*
X76076190Y-74690476D01*
X76123809Y-74738095D01*
X76219047Y-74785714D01*
X76361904Y-74785714D01*
X76457142Y-74738095D01*
X76028571Y-74404761D02*
X76123809Y-74452380D01*
X76314285Y-74452380D01*
X76409523Y-74404761D01*
X76457142Y-74357142D01*
X76504761Y-74261904D01*
X76504761Y-73976190D01*
X76457142Y-73880952D01*
X76409523Y-73833333D01*
X76314285Y-73785714D01*
X76123809Y-73785714D01*
X76028571Y-73833333D01*
X75552380Y-74452380D02*
X75552380Y-73452380D01*
X75123809Y-74452380D02*
X75123809Y-73928571D01*
X75171428Y-73833333D01*
X75266666Y-73785714D01*
X75409523Y-73785714D01*
X75504761Y-73833333D01*
X75552380Y-73880952D01*
X74790476Y-73785714D02*
X74409523Y-73785714D01*
X74647619Y-73452380D02*
X74647619Y-74309523D01*
X74600000Y-74404761D01*
X74504761Y-74452380D01*
X74409523Y-74452380D01*
X74123809Y-74404761D02*
X74028571Y-74452380D01*
X73838095Y-74452380D01*
X73742857Y-74404761D01*
X73695238Y-74309523D01*
X73695238Y-74261904D01*
X73742857Y-74166666D01*
X73838095Y-74119047D01*
X73980952Y-74119047D01*
X74076190Y-74071428D01*
X74123809Y-73976190D01*
X74123809Y-73928571D01*
X74076190Y-73833333D01*
X73980952Y-73785714D01*
X73838095Y-73785714D01*
X73742857Y-73833333D01*
X73266666Y-74357142D02*
X73219047Y-74404761D01*
X73266666Y-74452380D01*
X73314285Y-74404761D01*
X73266666Y-74357142D01*
X73266666Y-74452380D01*
X72790476Y-74452380D02*
X72790476Y-73452380D01*
X72790476Y-73833333D02*
X72695238Y-73785714D01*
X72504761Y-73785714D01*
X72409523Y-73833333D01*
X72361904Y-73880952D01*
X72314285Y-73976190D01*
X72314285Y-74261904D01*
X72361904Y-74357142D01*
X72409523Y-74404761D01*
X72504761Y-74452380D01*
X72695238Y-74452380D01*
X72790476Y-74404761D01*
X71742857Y-74452380D02*
X71838095Y-74404761D01*
X71885714Y-74309523D01*
X71885714Y-73452380D01*
X71219047Y-74452380D02*
X71314285Y-74404761D01*
X71361904Y-74357142D01*
X71409523Y-74261904D01*
X71409523Y-73976190D01*
X71361904Y-73880952D01*
X71314285Y-73833333D01*
X71219047Y-73785714D01*
X71076190Y-73785714D01*
X70980952Y-73833333D01*
X70933333Y-73880952D01*
X70885714Y-73976190D01*
X70885714Y-74261904D01*
X70933333Y-74357142D01*
X70980952Y-74404761D01*
X71076190Y-74452380D01*
X71219047Y-74452380D01*
X70028571Y-73785714D02*
X70028571Y-74595238D01*
X70076190Y-74690476D01*
X70123809Y-74738095D01*
X70219047Y-74785714D01*
X70361904Y-74785714D01*
X70457142Y-74738095D01*
X70028571Y-74404761D02*
X70123809Y-74452380D01*
X70314285Y-74452380D01*
X70409523Y-74404761D01*
X70457142Y-74357142D01*
X70504761Y-74261904D01*
X70504761Y-73976190D01*
X70457142Y-73880952D01*
X70409523Y-73833333D01*
X70314285Y-73785714D01*
X70123809Y-73785714D01*
X70028571Y-73833333D01*
X90195238Y-76672380D02*
X90195238Y-77481904D01*
X90147619Y-77577142D01*
X90100000Y-77624761D01*
X90004761Y-77672380D01*
X89814285Y-77672380D01*
X89719047Y-77624761D01*
X89671428Y-77577142D01*
X89623809Y-77481904D01*
X89623809Y-76672380D01*
X89195238Y-77624761D02*
X89052380Y-77672380D01*
X88814285Y-77672380D01*
X88719047Y-77624761D01*
X88671428Y-77577142D01*
X88623809Y-77481904D01*
X88623809Y-77386666D01*
X88671428Y-77291428D01*
X88719047Y-77243809D01*
X88814285Y-77196190D01*
X89004761Y-77148571D01*
X89100000Y-77100952D01*
X89147619Y-77053333D01*
X89195238Y-76958095D01*
X89195238Y-76862857D01*
X89147619Y-76767619D01*
X89100000Y-76720000D01*
X89004761Y-76672380D01*
X88766666Y-76672380D01*
X88623809Y-76720000D01*
X88195238Y-77148571D02*
X87861904Y-77148571D01*
X87719047Y-77672380D02*
X88195238Y-77672380D01*
X88195238Y-76672380D01*
X87719047Y-76672380D01*
X86576190Y-76767619D02*
X86528571Y-76720000D01*
X86433333Y-76672380D01*
X86195238Y-76672380D01*
X86100000Y-76720000D01*
X86052380Y-76767619D01*
X86004761Y-76862857D01*
X86004761Y-76958095D01*
X86052380Y-77100952D01*
X86623809Y-77672380D01*
X86004761Y-77672380D01*
X85671428Y-76672380D02*
X85052380Y-76672380D01*
X85385714Y-77053333D01*
X85242857Y-77053333D01*
X85147619Y-77100952D01*
X85100000Y-77148571D01*
X85052380Y-77243809D01*
X85052380Y-77481904D01*
X85100000Y-77577142D01*
X85147619Y-77624761D01*
X85242857Y-77672380D01*
X85528571Y-77672380D01*
X85623809Y-77624761D01*
X85671428Y-77577142D01*
X84195238Y-77672380D02*
X84195238Y-77148571D01*
X84242857Y-77053333D01*
X84338095Y-77005714D01*
X84528571Y-77005714D01*
X84623809Y-77053333D01*
X84195238Y-77624761D02*
X84290476Y-77672380D01*
X84528571Y-77672380D01*
X84623809Y-77624761D01*
X84671428Y-77529523D01*
X84671428Y-77434285D01*
X84623809Y-77339047D01*
X84528571Y-77291428D01*
X84290476Y-77291428D01*
X84195238Y-77243809D01*
X83814285Y-77005714D02*
X83623809Y-77672380D01*
X83433333Y-77196190D01*
X83242857Y-77672380D01*
X83052380Y-77005714D01*
X82242857Y-77005714D02*
X82242857Y-77815238D01*
X82290476Y-77910476D01*
X82338095Y-77958095D01*
X82433333Y-78005714D01*
X82576190Y-78005714D01*
X82671428Y-77958095D01*
X82242857Y-77624761D02*
X82338095Y-77672380D01*
X82528571Y-77672380D01*
X82623809Y-77624761D01*
X82671428Y-77577142D01*
X82719047Y-77481904D01*
X82719047Y-77196190D01*
X82671428Y-77100952D01*
X82623809Y-77053333D01*
X82528571Y-77005714D01*
X82338095Y-77005714D01*
X82242857Y-77053333D01*
X80433333Y-77577142D02*
X80480952Y-77624761D01*
X80623809Y-77672380D01*
X80719047Y-77672380D01*
X80861904Y-77624761D01*
X80957142Y-77529523D01*
X81004761Y-77434285D01*
X81052380Y-77243809D01*
X81052380Y-77100952D01*
X81004761Y-76910476D01*
X80957142Y-76815238D01*
X80861904Y-76720000D01*
X80719047Y-76672380D01*
X80623809Y-76672380D01*
X80480952Y-76720000D01*
X80433333Y-76767619D01*
X80052380Y-77386666D02*
X79576190Y-77386666D01*
X80147619Y-77672380D02*
X79814285Y-76672380D01*
X79480952Y-77672380D01*
X78814285Y-77148571D02*
X78671428Y-77196190D01*
X78623809Y-77243809D01*
X78576190Y-77339047D01*
X78576190Y-77481904D01*
X78623809Y-77577142D01*
X78671428Y-77624761D01*
X78766666Y-77672380D01*
X79147619Y-77672380D01*
X79147619Y-76672380D01*
X78814285Y-76672380D01*
X78719047Y-76720000D01*
X78671428Y-76767619D01*
X78623809Y-76862857D01*
X78623809Y-76958095D01*
X78671428Y-77053333D01*
X78719047Y-77100952D01*
X78814285Y-77148571D01*
X79147619Y-77148571D01*
X77671428Y-77672380D02*
X78147619Y-77672380D01*
X78147619Y-76672380D01*
X77338095Y-77148571D02*
X77004761Y-77148571D01*
X76861904Y-77672380D02*
X77338095Y-77672380D01*
X77338095Y-76672380D01*
X76861904Y-76672380D01*
X75480952Y-76672380D02*
X75290476Y-76672380D01*
X75195238Y-76720000D01*
X75100000Y-76815238D01*
X75052380Y-77005714D01*
X75052380Y-77339047D01*
X75100000Y-77529523D01*
X75195238Y-77624761D01*
X75290476Y-77672380D01*
X75480952Y-77672380D01*
X75576190Y-77624761D01*
X75671428Y-77529523D01*
X75719047Y-77339047D01*
X75719047Y-77005714D01*
X75671428Y-76815238D01*
X75576190Y-76720000D01*
X75480952Y-76672380D01*
X74052380Y-77672380D02*
X74385714Y-77196190D01*
X74623809Y-77672380D02*
X74623809Y-76672380D01*
X74242857Y-76672380D01*
X74147619Y-76720000D01*
X74100000Y-76767619D01*
X74052380Y-76862857D01*
X74052380Y-77005714D01*
X74100000Y-77100952D01*
X74147619Y-77148571D01*
X74242857Y-77196190D01*
X74623809Y-77196190D01*
X72528571Y-77148571D02*
X72385714Y-77196190D01*
X72338095Y-77243809D01*
X72290476Y-77339047D01*
X72290476Y-77481904D01*
X72338095Y-77577142D01*
X72385714Y-77624761D01*
X72480952Y-77672380D01*
X72861904Y-77672380D01*
X72861904Y-76672380D01*
X72528571Y-76672380D01*
X72433333Y-76720000D01*
X72385714Y-76767619D01*
X72338095Y-76862857D01*
X72338095Y-76958095D01*
X72385714Y-77053333D01*
X72433333Y-77100952D01*
X72528571Y-77148571D01*
X72861904Y-77148571D01*
X71861904Y-77148571D02*
X71528571Y-77148571D01*
X71385714Y-77672380D02*
X71861904Y-77672380D01*
X71861904Y-76672380D01*
X71385714Y-76672380D01*
X71100000Y-76672380D02*
X70528571Y-76672380D01*
X70814285Y-77672380D02*
X70814285Y-76672380D01*
X70338095Y-76672380D02*
X69766666Y-76672380D01*
X70052380Y-77672380D02*
X70052380Y-76672380D01*
X69433333Y-77148571D02*
X69100000Y-77148571D01*
X68957142Y-77672380D02*
X69433333Y-77672380D01*
X69433333Y-76672380D01*
X68957142Y-76672380D01*
X67957142Y-77672380D02*
X68290476Y-77196190D01*
X68528571Y-77672380D02*
X68528571Y-76672380D01*
X68147619Y-76672380D01*
X68052380Y-76720000D01*
X68004761Y-76767619D01*
X67957142Y-76862857D01*
X67957142Y-77005714D01*
X68004761Y-77100952D01*
X68052380Y-77148571D01*
X68147619Y-77196190D01*
X68528571Y-77196190D01*
M02*
