G04 #@! TF.GenerationSoftware,KiCad,Pcbnew,(6.0.5-0)*
G04 #@! TF.CreationDate,2022-05-08T11:44:23-04:00*
G04 #@! TF.ProjectId,Receiver,52656365-6976-4657-922e-6b696361645f,rev?*
G04 #@! TF.SameCoordinates,Original*
G04 #@! TF.FileFunction,Profile,NP*
%FSLAX46Y46*%
G04 Gerber Fmt 4.6, Leading zero omitted, Abs format (unit mm)*
G04 Created by KiCad (PCBNEW (6.0.5-0)) date 2022-05-08 11:44:23*
%MOMM*%
%LPD*%
G01*
G04 APERTURE LIST*
G04 #@! TA.AperFunction,Profile*
%ADD10C,0.100000*%
G04 #@! TD*
G04 APERTURE END LIST*
D10*
X42166666Y-79000000D02*
G75*
G03*
X42166666Y-79000000I-1666666J0D01*
G01*
X38000000Y-79000000D02*
X43000000Y-79000000D01*
X40500000Y-76500000D02*
X40500000Y-81500000D01*
X116500000Y-79000000D02*
G75*
G03*
X117500000Y-78000000I0J1000000D01*
G01*
X117500000Y-70000000D02*
G75*
G03*
X116500000Y-69000000I-1000000J0D01*
G01*
X114000000Y-69000000D02*
X116500000Y-69000000D01*
X114000000Y-70500000D02*
X114000000Y-69000000D01*
X111000000Y-70500000D02*
X114000000Y-70500000D01*
X111000000Y-69000000D02*
X111000000Y-70500000D01*
X114000000Y-79000000D02*
X116500000Y-79000000D01*
X114000000Y-77500000D02*
X114000000Y-79000000D01*
X111000000Y-77500000D02*
X114000000Y-77500000D01*
X111000000Y-78950000D02*
X111000000Y-77500000D01*
X117500000Y-70000000D02*
X117500000Y-78000000D01*
X47000000Y-69000000D02*
X111000000Y-69000000D01*
X44000000Y-70500000D02*
X47000000Y-70500000D01*
X44000000Y-69000000D02*
X41500000Y-69000000D01*
X40500000Y-78000000D02*
G75*
G03*
X41500000Y-79000000I1000000J0D01*
G01*
X47000000Y-79000000D02*
X111000000Y-78950000D01*
X44000000Y-69000000D02*
X44000000Y-70500000D01*
X40500000Y-78000000D02*
X40500000Y-70000000D01*
X47000000Y-70500000D02*
X47000000Y-69000000D01*
X44000000Y-79000000D02*
X44000000Y-77500000D01*
X41500000Y-79000000D02*
X44000000Y-79000000D01*
X44000000Y-77500000D02*
X47000000Y-77500000D01*
X41500000Y-69000000D02*
G75*
G03*
X40500000Y-70000000I0J-1000000D01*
G01*
X47000000Y-77500000D02*
X47000000Y-79000000D01*
M02*
