G04 #@! TF.GenerationSoftware,KiCad,Pcbnew,(6.0.5-0)*
G04 #@! TF.CreationDate,2022-05-08T11:44:22-04:00*
G04 #@! TF.ProjectId,Receiver,52656365-6976-4657-922e-6b696361645f,rev?*
G04 #@! TF.SameCoordinates,Original*
G04 #@! TF.FileFunction,Copper,L1,Top*
G04 #@! TF.FilePolarity,Positive*
%FSLAX46Y46*%
G04 Gerber Fmt 4.6, Leading zero omitted, Abs format (unit mm)*
G04 Created by KiCad (PCBNEW (6.0.5-0)) date 2022-05-08 11:44:22*
%MOMM*%
%LPD*%
G01*
G04 APERTURE LIST*
G04 Aperture macros list*
%AMRoundRect*
0 Rectangle with rounded corners*
0 $1 Rounding radius*
0 $2 $3 $4 $5 $6 $7 $8 $9 X,Y pos of 4 corners*
0 Add a 4 corners polygon primitive as box body*
4,1,4,$2,$3,$4,$5,$6,$7,$8,$9,$2,$3,0*
0 Add four circle primitives for the rounded corners*
1,1,$1+$1,$2,$3*
1,1,$1+$1,$4,$5*
1,1,$1+$1,$6,$7*
1,1,$1+$1,$8,$9*
0 Add four rect primitives between the rounded corners*
20,1,$1+$1,$2,$3,$4,$5,0*
20,1,$1+$1,$4,$5,$6,$7,0*
20,1,$1+$1,$6,$7,$8,$9,0*
20,1,$1+$1,$8,$9,$2,$3,0*%
G04 Aperture macros list end*
G04 #@! TA.AperFunction,WasherPad*
%ADD10C,1.300000*%
G04 #@! TD*
G04 #@! TA.AperFunction,ComponentPad*
%ADD11RoundRect,0.250000X-1.125000X-1.125000X1.125000X-1.125000X1.125000X1.125000X-1.125000X1.125000X0*%
G04 #@! TD*
G04 #@! TA.AperFunction,ComponentPad*
%ADD12RoundRect,0.250000X-0.675000X-0.675000X0.675000X-0.675000X0.675000X0.675000X-0.675000X0.675000X0*%
G04 #@! TD*
G04 #@! TA.AperFunction,SMDPad,CuDef*
%ADD13RoundRect,0.150000X0.825000X0.150000X-0.825000X0.150000X-0.825000X-0.150000X0.825000X-0.150000X0*%
G04 #@! TD*
G04 #@! TA.AperFunction,SMDPad,CuDef*
%ADD14RoundRect,0.200000X-0.200000X-0.275000X0.200000X-0.275000X0.200000X0.275000X-0.200000X0.275000X0*%
G04 #@! TD*
G04 #@! TA.AperFunction,SMDPad,CuDef*
%ADD15RoundRect,0.200000X0.200000X0.275000X-0.200000X0.275000X-0.200000X-0.275000X0.200000X-0.275000X0*%
G04 #@! TD*
G04 #@! TA.AperFunction,SMDPad,CuDef*
%ADD16RoundRect,0.250000X0.250000X0.475000X-0.250000X0.475000X-0.250000X-0.475000X0.250000X-0.475000X0*%
G04 #@! TD*
G04 #@! TA.AperFunction,SMDPad,CuDef*
%ADD17RoundRect,0.250000X0.325000X1.100000X-0.325000X1.100000X-0.325000X-1.100000X0.325000X-1.100000X0*%
G04 #@! TD*
G04 #@! TA.AperFunction,SMDPad,CuDef*
%ADD18RoundRect,0.250000X-0.475000X0.250000X-0.475000X-0.250000X0.475000X-0.250000X0.475000X0.250000X0*%
G04 #@! TD*
G04 #@! TA.AperFunction,SMDPad,CuDef*
%ADD19RoundRect,0.140000X0.140000X0.170000X-0.140000X0.170000X-0.140000X-0.170000X0.140000X-0.170000X0*%
G04 #@! TD*
G04 #@! TA.AperFunction,SMDPad,CuDef*
%ADD20RoundRect,0.243750X0.243750X0.456250X-0.243750X0.456250X-0.243750X-0.456250X0.243750X-0.456250X0*%
G04 #@! TD*
G04 #@! TA.AperFunction,SMDPad,CuDef*
%ADD21RoundRect,0.250000X0.475000X-0.250000X0.475000X0.250000X-0.475000X0.250000X-0.475000X-0.250000X0*%
G04 #@! TD*
G04 #@! TA.AperFunction,SMDPad,CuDef*
%ADD22RoundRect,0.200000X-0.275000X0.200000X-0.275000X-0.200000X0.275000X-0.200000X0.275000X0.200000X0*%
G04 #@! TD*
G04 #@! TA.AperFunction,SMDPad,CuDef*
%ADD23R,1.500000X2.000000*%
G04 #@! TD*
G04 #@! TA.AperFunction,SMDPad,CuDef*
%ADD24R,3.800000X2.000000*%
G04 #@! TD*
G04 #@! TA.AperFunction,ViaPad*
%ADD25C,0.800000*%
G04 #@! TD*
G04 #@! TA.AperFunction,Conductor*
%ADD26C,0.500000*%
G04 #@! TD*
G04 #@! TA.AperFunction,Conductor*
%ADD27C,0.250000*%
G04 #@! TD*
G04 APERTURE END LIST*
D10*
G04 #@! TO.P,H2,*
G04 #@! TO.N,*
X114500000Y-74100000D03*
G04 #@! TD*
G04 #@! TO.P,H1,*
G04 #@! TO.N,*
X43500000Y-74400000D03*
G04 #@! TD*
D11*
G04 #@! TO.P,J11,1,Pin_1*
G04 #@! TO.N,GND*
X105400000Y-70900000D03*
G04 #@! TD*
D12*
G04 #@! TO.P,J8,1,Pin_1*
G04 #@! TO.N,GND*
X52100000Y-77500000D03*
G04 #@! TD*
D13*
G04 #@! TO.P,U2,1,RO*
G04 #@! TO.N,/LED DI*
X86675000Y-76305000D03*
G04 #@! TO.P,U2,2,~{RE}*
G04 #@! TO.N,GND*
X86675000Y-75035000D03*
G04 #@! TO.P,U2,3,DE*
X86675000Y-73765000D03*
G04 #@! TO.P,U2,4,DI*
G04 #@! TO.N,Net-(R5-Pad2)*
X86675000Y-72495000D03*
G04 #@! TO.P,U2,5,GND*
G04 #@! TO.N,GND*
X81725000Y-72495000D03*
G04 #@! TO.P,U2,6,A*
G04 #@! TO.N,/A*
X81725000Y-73765000D03*
G04 #@! TO.P,U2,7,B*
G04 #@! TO.N,/B*
X81725000Y-75035000D03*
G04 #@! TO.P,U2,8,VCC*
G04 #@! TO.N,+5V*
X81725000Y-76305000D03*
G04 #@! TD*
D12*
G04 #@! TO.P,J3,1,Pin_1*
G04 #@! TO.N,+12V*
X55300000Y-70500000D03*
G04 #@! TD*
G04 #@! TO.P,J2,1,Pin_1*
G04 #@! TO.N,+12V*
X58700000Y-77500000D03*
G04 #@! TD*
D14*
G04 #@! TO.P,R6,1*
G04 #@! TO.N,+5V*
X77297000Y-72550000D03*
G04 #@! TO.P,R6,2*
G04 #@! TO.N,/A*
X78947000Y-72550000D03*
G04 #@! TD*
D12*
G04 #@! TO.P,J5,1,Pin_1*
G04 #@! TO.N,/B*
X61900000Y-70500000D03*
G04 #@! TD*
D15*
G04 #@! TO.P,R2,1*
G04 #@! TO.N,+5V*
X91197000Y-74722000D03*
G04 #@! TO.P,R2,2*
G04 #@! TO.N,GND*
X89547000Y-74722000D03*
G04 #@! TD*
D11*
G04 #@! TO.P,J10,1,Pin_1*
G04 #@! TO.N,/LED DI*
X101148000Y-74000000D03*
G04 #@! TD*
D16*
G04 #@! TO.P,C2,1*
G04 #@! TO.N,+5V*
X79054000Y-77050000D03*
G04 #@! TO.P,C2,2*
G04 #@! TO.N,GND*
X77154000Y-77050000D03*
G04 #@! TD*
D17*
G04 #@! TO.P,C5,1*
G04 #@! TO.N,+12V*
X97075000Y-77304000D03*
G04 #@! TO.P,C5,2*
G04 #@! TO.N,GND*
X94125000Y-77304000D03*
G04 #@! TD*
D15*
G04 #@! TO.P,R3,1*
G04 #@! TO.N,+5V*
X91197000Y-72944000D03*
G04 #@! TO.P,R3,2*
G04 #@! TO.N,GND*
X89547000Y-72944000D03*
G04 #@! TD*
D17*
G04 #@! TO.P,C6,1*
G04 #@! TO.N,+12V*
X97075000Y-74002000D03*
G04 #@! TO.P,C6,2*
G04 #@! TO.N,GND*
X94125000Y-74002000D03*
G04 #@! TD*
D11*
G04 #@! TO.P,J9,1,Pin_1*
G04 #@! TO.N,+12V*
X105400000Y-77000000D03*
G04 #@! TD*
D18*
G04 #@! TO.P,C1,1*
G04 #@! TO.N,+12V*
X67000000Y-69950000D03*
G04 #@! TO.P,C1,2*
G04 #@! TO.N,GND*
X67000000Y-71850000D03*
G04 #@! TD*
D15*
G04 #@! TO.P,R7,1*
G04 #@! TO.N,/B*
X78947000Y-74550000D03*
G04 #@! TO.P,R7,2*
G04 #@! TO.N,GND*
X77297000Y-74550000D03*
G04 #@! TD*
D19*
G04 #@! TO.P,C4,1*
G04 #@! TO.N,+5V*
X81852000Y-77800000D03*
G04 #@! TO.P,C4,2*
G04 #@! TO.N,GND*
X80892000Y-77800000D03*
G04 #@! TD*
D12*
G04 #@! TO.P,J1,1,Pin_1*
G04 #@! TO.N,+12V*
X58600000Y-70500000D03*
G04 #@! TD*
D14*
G04 #@! TO.P,R4,1*
G04 #@! TO.N,+5V*
X77267500Y-70594000D03*
G04 #@! TO.P,R4,2*
G04 #@! TO.N,Net-(D1-Pad2)*
X78917500Y-70594000D03*
G04 #@! TD*
D15*
G04 #@! TO.P,R5,1*
G04 #@! TO.N,+5V*
X91197000Y-71166000D03*
G04 #@! TO.P,R5,2*
G04 #@! TO.N,Net-(R5-Pad2)*
X89547000Y-71166000D03*
G04 #@! TD*
D12*
G04 #@! TO.P,J6,1,Pin_1*
G04 #@! TO.N,GND*
X55400000Y-77500000D03*
G04 #@! TD*
G04 #@! TO.P,J7,1,Pin_1*
G04 #@! TO.N,GND*
X52000000Y-70500000D03*
G04 #@! TD*
D20*
G04 #@! TO.P,D1,1,K*
G04 #@! TO.N,GND*
X83872000Y-70500000D03*
G04 #@! TO.P,D1,2,A*
G04 #@! TO.N,Net-(D1-Pad2)*
X81997000Y-70500000D03*
G04 #@! TD*
D21*
G04 #@! TO.P,C3,1*
G04 #@! TO.N,+5V*
X67000000Y-77912000D03*
G04 #@! TO.P,C3,2*
G04 #@! TO.N,GND*
X67000000Y-76012000D03*
G04 #@! TD*
D17*
G04 #@! TO.P,C7,1*
G04 #@! TO.N,+12V*
X97075000Y-70700000D03*
G04 #@! TO.P,C7,2*
G04 #@! TO.N,GND*
X94125000Y-70700000D03*
G04 #@! TD*
D22*
G04 #@! TO.P,R8,1*
G04 #@! TO.N,/B*
X64700000Y-73075000D03*
G04 #@! TO.P,R8,2*
G04 #@! TO.N,/A*
X64700000Y-74725000D03*
G04 #@! TD*
D15*
G04 #@! TO.P,R1,1*
G04 #@! TO.N,+5V*
X91197000Y-76500000D03*
G04 #@! TO.P,R1,2*
G04 #@! TO.N,/LED DI*
X89547000Y-76500000D03*
G04 #@! TD*
D12*
G04 #@! TO.P,J4,1,Pin_1*
G04 #@! TO.N,/A*
X62000000Y-77500000D03*
G04 #@! TD*
D23*
G04 #@! TO.P,U1,1,GND*
G04 #@! TO.N,GND*
X74400000Y-70850000D03*
D24*
G04 #@! TO.P,U1,2,VO*
G04 #@! TO.N,+5V*
X72100000Y-77150000D03*
D23*
X72100000Y-70850000D03*
G04 #@! TO.P,U1,3,VI*
G04 #@! TO.N,+12V*
X69800000Y-70850000D03*
G04 #@! TD*
D25*
G04 #@! TO.N,+12V*
X98600000Y-70700000D03*
X65300000Y-70000000D03*
G04 #@! TO.N,GND*
X65300000Y-71300000D03*
X76100000Y-77000000D03*
X52100000Y-75700000D03*
X76000000Y-70800000D03*
X92800000Y-70700000D03*
X80200000Y-76900000D03*
X80200000Y-72200000D03*
G04 #@! TO.N,/A*
X78900000Y-73475500D03*
X66400000Y-74500000D03*
G04 #@! TO.N,/B*
X67900000Y-74500000D03*
X79000000Y-75700000D03*
G04 #@! TO.N,/LED DI*
X90347500Y-75697032D03*
G04 #@! TD*
D26*
G04 #@! TO.N,+5V*
X77879480Y-78224520D02*
X79054000Y-77050000D01*
X73174520Y-78224520D02*
X77879480Y-78224520D01*
X72100000Y-77150000D02*
X73174520Y-78224520D01*
G04 #@! TO.N,+12V*
X97075000Y-77304000D02*
X105096000Y-77304000D01*
X67900000Y-70850000D02*
X67000000Y-69950000D01*
X58600000Y-70500000D02*
X58600000Y-77400000D01*
X58600000Y-77400000D02*
X58700000Y-77500000D01*
X97075000Y-70700000D02*
X98600000Y-70700000D01*
X105096000Y-77304000D02*
X105400000Y-77000000D01*
X69800000Y-70850000D02*
X67900000Y-70850000D01*
X97075000Y-70700000D02*
X97075000Y-74002000D01*
X97075000Y-74002000D02*
X97075000Y-77304000D01*
X67000000Y-69950000D02*
X65350000Y-69950000D01*
X65350000Y-69950000D02*
X65300000Y-70000000D01*
X55300000Y-70500000D02*
X58600000Y-70500000D01*
G04 #@! TO.N,GND*
X80892000Y-77800000D02*
X80892000Y-77592000D01*
X51500000Y-71000000D02*
X51500000Y-76900000D01*
X76150000Y-77050000D02*
X76100000Y-77000000D01*
X74400000Y-70850000D02*
X75950000Y-70850000D01*
X94125000Y-70700000D02*
X92800000Y-70700000D01*
X89234000Y-75035000D02*
X89547000Y-74722000D01*
X86675000Y-73765000D02*
X86675000Y-75035000D01*
X55400000Y-77500000D02*
X52100000Y-77500000D01*
X52100000Y-70600000D02*
X52000000Y-70500000D01*
X89547000Y-72944000D02*
X89547000Y-74722000D01*
X81725000Y-72495000D02*
X80495000Y-72495000D01*
X51500000Y-76900000D02*
X52100000Y-77500000D01*
X67000000Y-71850000D02*
X65850000Y-71850000D01*
X65850000Y-71850000D02*
X65300000Y-71300000D01*
X75950000Y-70850000D02*
X76000000Y-70800000D01*
X80495000Y-72495000D02*
X80200000Y-72200000D01*
X77154000Y-77050000D02*
X76150000Y-77050000D01*
X86675000Y-75035000D02*
X89234000Y-75035000D01*
X80892000Y-77592000D02*
X80200000Y-76900000D01*
X52000000Y-70500000D02*
X51500000Y-71000000D01*
G04 #@! TO.N,+5V*
X67762000Y-77150000D02*
X72100000Y-77150000D01*
X73550000Y-72550000D02*
X77297000Y-72550000D01*
X81725000Y-76305000D02*
X81725000Y-77673000D01*
X77297000Y-72550000D02*
X77297000Y-70623500D01*
X81852000Y-77800000D02*
X81852000Y-78348000D01*
X79054000Y-77105707D02*
X79054000Y-77050000D01*
X91197000Y-72944000D02*
X91197000Y-74722000D01*
X89897000Y-77800000D02*
X91197000Y-76500000D01*
X72100000Y-71100000D02*
X73550000Y-72550000D01*
X81725000Y-77673000D02*
X81852000Y-77800000D01*
X80548293Y-78600000D02*
X79054000Y-77105707D01*
X77297000Y-70623500D02*
X77267500Y-70594000D01*
X72100000Y-77150000D02*
X72100000Y-70850000D01*
X91197000Y-74722000D02*
X91197000Y-76500000D01*
X81852000Y-77800000D02*
X89897000Y-77800000D01*
X81600000Y-78600000D02*
X80548293Y-78600000D01*
X67000000Y-77912000D02*
X67762000Y-77150000D01*
X81852000Y-78348000D02*
X81600000Y-78600000D01*
X91197000Y-71166000D02*
X91197000Y-72944000D01*
X72100000Y-70850000D02*
X72100000Y-71100000D01*
D27*
G04 #@! TO.N,Net-(D1-Pad2)*
X81903000Y-70594000D02*
X81997000Y-70500000D01*
X78917500Y-70594000D02*
X81903000Y-70594000D01*
G04 #@! TO.N,/A*
X78900000Y-73475500D02*
X78900000Y-72597000D01*
X80162000Y-73765000D02*
X81725000Y-73765000D01*
X64700000Y-74800000D02*
X64700000Y-74725000D01*
X64700000Y-74725000D02*
X66175000Y-74725000D01*
X78900000Y-72597000D02*
X78947000Y-72550000D01*
X78947000Y-72550000D02*
X80162000Y-73765000D01*
X66175000Y-74725000D02*
X66400000Y-74500000D01*
X62000000Y-77500000D02*
X64700000Y-74800000D01*
G04 #@! TO.N,/B*
X79000000Y-75700000D02*
X79000000Y-74603000D01*
X66475000Y-73075000D02*
X67900000Y-74500000D01*
X81240000Y-74550000D02*
X81725000Y-75035000D01*
X79000000Y-74603000D02*
X78947000Y-74550000D01*
X78947000Y-74550000D02*
X81240000Y-74550000D01*
X64475000Y-73075000D02*
X64700000Y-73075000D01*
X61900000Y-70500000D02*
X64475000Y-73075000D01*
X64700000Y-73075000D02*
X66475000Y-73075000D01*
G04 #@! TO.N,/LED DI*
X89547000Y-76497532D02*
X90347500Y-75697032D01*
X86680000Y-76300000D02*
X86675000Y-76305000D01*
X88400000Y-76300000D02*
X89347000Y-76300000D01*
X88400000Y-76300000D02*
X86680000Y-76300000D01*
X89347000Y-76300000D02*
X89547000Y-76500000D01*
X89547000Y-76500000D02*
X89547000Y-76497532D01*
G04 #@! TO.N,Net-(R5-Pad2)*
X88218000Y-72495000D02*
X89547000Y-71166000D01*
X86675000Y-72495000D02*
X88218000Y-72495000D01*
G04 #@! TD*
G04 #@! TA.AperFunction,Conductor*
G04 #@! TO.N,GND*
G36*
X103467696Y-69528502D02*
G01*
X103514189Y-69582158D01*
X103524919Y-69647342D01*
X103517328Y-69721437D01*
X103517000Y-69727855D01*
X103517000Y-70627885D01*
X103521475Y-70643124D01*
X103522865Y-70644329D01*
X103530548Y-70646000D01*
X107264884Y-70646000D01*
X107280123Y-70641525D01*
X107281328Y-70640135D01*
X107282999Y-70632452D01*
X107282999Y-69727905D01*
X107282662Y-69721386D01*
X107274996Y-69647503D01*
X107287861Y-69577682D01*
X107336432Y-69525900D01*
X107400323Y-69508500D01*
X110365500Y-69508500D01*
X110433621Y-69528502D01*
X110480114Y-69582158D01*
X110491500Y-69634500D01*
X110491500Y-70491377D01*
X110491498Y-70492147D01*
X110491024Y-70569721D01*
X110497050Y-70590804D01*
X110499150Y-70598153D01*
X110502728Y-70614915D01*
X110506920Y-70644187D01*
X110510634Y-70652355D01*
X110510634Y-70652356D01*
X110517548Y-70667562D01*
X110523996Y-70685086D01*
X110531051Y-70709771D01*
X110535843Y-70717365D01*
X110535844Y-70717368D01*
X110546830Y-70734780D01*
X110554969Y-70749863D01*
X110567208Y-70776782D01*
X110573069Y-70783584D01*
X110583970Y-70796235D01*
X110595073Y-70811239D01*
X110608776Y-70832958D01*
X110615501Y-70838897D01*
X110615504Y-70838901D01*
X110630938Y-70852532D01*
X110642982Y-70864724D01*
X110656427Y-70880327D01*
X110656430Y-70880329D01*
X110662287Y-70887127D01*
X110669816Y-70892007D01*
X110669817Y-70892008D01*
X110683835Y-70901094D01*
X110698709Y-70912385D01*
X110710447Y-70922751D01*
X110717951Y-70929378D01*
X110744711Y-70941942D01*
X110759691Y-70950263D01*
X110776983Y-70961471D01*
X110776988Y-70961473D01*
X110784515Y-70966352D01*
X110793108Y-70968922D01*
X110793113Y-70968924D01*
X110809120Y-70973711D01*
X110826564Y-70980372D01*
X110841676Y-70987467D01*
X110841678Y-70987468D01*
X110849800Y-70991281D01*
X110858667Y-70992662D01*
X110858668Y-70992662D01*
X110861353Y-70993080D01*
X110879017Y-70995830D01*
X110895732Y-70999613D01*
X110915466Y-71005515D01*
X110915472Y-71005516D01*
X110924066Y-71008086D01*
X110933037Y-71008141D01*
X110933038Y-71008141D01*
X110943097Y-71008202D01*
X110958506Y-71008296D01*
X110959289Y-71008329D01*
X110960386Y-71008500D01*
X110991377Y-71008500D01*
X110992147Y-71008502D01*
X111065785Y-71008952D01*
X111065786Y-71008952D01*
X111069721Y-71008976D01*
X111071065Y-71008592D01*
X111072410Y-71008500D01*
X113991377Y-71008500D01*
X113992148Y-71008502D01*
X114069721Y-71008976D01*
X114098152Y-71000850D01*
X114114915Y-70997272D01*
X114115753Y-70997152D01*
X114144187Y-70993080D01*
X114167564Y-70982451D01*
X114185087Y-70976004D01*
X114209771Y-70968949D01*
X114217365Y-70964157D01*
X114217368Y-70964156D01*
X114234780Y-70953170D01*
X114249865Y-70945030D01*
X114276782Y-70932792D01*
X114296235Y-70916030D01*
X114311239Y-70904927D01*
X114332958Y-70891224D01*
X114338897Y-70884499D01*
X114338901Y-70884496D01*
X114352532Y-70869062D01*
X114364724Y-70857018D01*
X114380327Y-70843573D01*
X114380329Y-70843570D01*
X114387127Y-70837713D01*
X114401094Y-70816165D01*
X114412385Y-70801291D01*
X114423431Y-70788783D01*
X114423432Y-70788782D01*
X114429378Y-70782049D01*
X114441943Y-70755287D01*
X114450263Y-70740309D01*
X114461471Y-70723017D01*
X114461473Y-70723012D01*
X114466352Y-70715485D01*
X114468922Y-70706892D01*
X114468924Y-70706887D01*
X114473711Y-70690880D01*
X114480372Y-70673436D01*
X114487467Y-70658324D01*
X114487468Y-70658322D01*
X114491281Y-70650200D01*
X114495830Y-70620983D01*
X114499613Y-70604268D01*
X114505515Y-70584534D01*
X114505516Y-70584528D01*
X114508086Y-70575934D01*
X114508296Y-70541494D01*
X114508329Y-70540711D01*
X114508500Y-70539614D01*
X114508500Y-70508623D01*
X114508502Y-70507853D01*
X114508952Y-70434215D01*
X114508952Y-70434214D01*
X114508976Y-70430279D01*
X114508592Y-70428935D01*
X114508500Y-70427590D01*
X114508500Y-69634500D01*
X114528502Y-69566379D01*
X114582158Y-69519886D01*
X114634500Y-69508500D01*
X116450633Y-69508500D01*
X116470018Y-69510000D01*
X116484852Y-69512310D01*
X116484855Y-69512310D01*
X116493724Y-69513691D01*
X116502626Y-69512527D01*
X116502750Y-69512511D01*
X116533192Y-69512240D01*
X116540621Y-69513077D01*
X116595264Y-69519234D01*
X116622771Y-69525513D01*
X116699853Y-69552485D01*
X116725274Y-69564727D01*
X116794426Y-69608178D01*
X116816485Y-69625770D01*
X116874230Y-69683515D01*
X116891822Y-69705574D01*
X116935273Y-69774726D01*
X116947515Y-69800147D01*
X116974487Y-69877228D01*
X116980766Y-69904736D01*
X116987018Y-69960226D01*
X116986923Y-69975868D01*
X116987800Y-69975879D01*
X116987690Y-69984851D01*
X116986309Y-69993724D01*
X116987473Y-70002626D01*
X116987473Y-70002628D01*
X116990436Y-70025283D01*
X116991500Y-70041621D01*
X116991500Y-77950633D01*
X116990000Y-77970018D01*
X116986309Y-77993724D01*
X116987473Y-78002626D01*
X116987489Y-78002750D01*
X116987760Y-78033193D01*
X116980766Y-78095264D01*
X116974487Y-78122771D01*
X116947515Y-78199853D01*
X116935273Y-78225274D01*
X116891822Y-78294426D01*
X116874230Y-78316485D01*
X116816485Y-78374230D01*
X116794426Y-78391822D01*
X116725274Y-78435273D01*
X116699853Y-78447515D01*
X116622772Y-78474487D01*
X116595264Y-78480766D01*
X116539774Y-78487018D01*
X116524132Y-78486923D01*
X116524121Y-78487800D01*
X116515149Y-78487690D01*
X116506276Y-78486309D01*
X116497374Y-78487473D01*
X116497372Y-78487473D01*
X116486385Y-78488910D01*
X116474714Y-78490436D01*
X116458379Y-78491500D01*
X114634500Y-78491500D01*
X114566379Y-78471498D01*
X114519886Y-78417842D01*
X114508500Y-78365500D01*
X114508500Y-77508623D01*
X114508502Y-77507853D01*
X114508800Y-77459102D01*
X114508976Y-77430279D01*
X114500850Y-77401847D01*
X114497272Y-77385085D01*
X114494352Y-77364698D01*
X114493080Y-77355813D01*
X114488714Y-77346209D01*
X114482452Y-77332438D01*
X114476004Y-77314913D01*
X114471416Y-77298862D01*
X114468949Y-77290229D01*
X114464156Y-77282632D01*
X114453170Y-77265220D01*
X114445030Y-77250135D01*
X114442390Y-77244329D01*
X114432792Y-77223218D01*
X114416030Y-77203765D01*
X114404927Y-77188761D01*
X114391224Y-77167042D01*
X114384499Y-77161103D01*
X114384496Y-77161099D01*
X114369062Y-77147468D01*
X114357018Y-77135276D01*
X114343573Y-77119673D01*
X114343570Y-77119671D01*
X114337713Y-77112873D01*
X114324009Y-77103990D01*
X114316165Y-77098906D01*
X114301291Y-77087615D01*
X114288783Y-77076569D01*
X114288782Y-77076568D01*
X114282049Y-77070622D01*
X114255287Y-77058057D01*
X114240309Y-77049737D01*
X114223017Y-77038529D01*
X114223012Y-77038527D01*
X114215485Y-77033648D01*
X114206892Y-77031078D01*
X114206887Y-77031076D01*
X114190880Y-77026289D01*
X114173436Y-77019628D01*
X114158324Y-77012533D01*
X114158322Y-77012532D01*
X114150200Y-77008719D01*
X114141333Y-77007338D01*
X114141332Y-77007338D01*
X114130478Y-77005648D01*
X114120983Y-77004170D01*
X114104268Y-77000387D01*
X114084534Y-76994485D01*
X114084528Y-76994484D01*
X114075934Y-76991914D01*
X114066963Y-76991859D01*
X114066962Y-76991859D01*
X114056903Y-76991798D01*
X114041494Y-76991704D01*
X114040711Y-76991671D01*
X114039614Y-76991500D01*
X114008623Y-76991500D01*
X114007853Y-76991498D01*
X113934215Y-76991048D01*
X113934214Y-76991048D01*
X113930279Y-76991024D01*
X113928935Y-76991408D01*
X113927590Y-76991500D01*
X111008623Y-76991500D01*
X111007853Y-76991498D01*
X111007037Y-76991493D01*
X110930279Y-76991024D01*
X110907918Y-76997415D01*
X110901847Y-76999150D01*
X110885085Y-77002728D01*
X110855813Y-77006920D01*
X110847645Y-77010634D01*
X110847644Y-77010634D01*
X110832438Y-77017548D01*
X110814914Y-77023996D01*
X110790229Y-77031051D01*
X110782635Y-77035843D01*
X110782632Y-77035844D01*
X110765220Y-77046830D01*
X110750137Y-77054969D01*
X110723218Y-77067208D01*
X110716416Y-77073069D01*
X110703765Y-77083970D01*
X110688761Y-77095073D01*
X110667042Y-77108776D01*
X110661103Y-77115501D01*
X110661099Y-77115504D01*
X110647468Y-77130938D01*
X110635276Y-77142982D01*
X110619673Y-77156427D01*
X110619671Y-77156430D01*
X110612873Y-77162287D01*
X110607993Y-77169816D01*
X110607992Y-77169817D01*
X110598906Y-77183835D01*
X110587615Y-77198709D01*
X110578633Y-77208880D01*
X110570622Y-77217951D01*
X110559554Y-77241525D01*
X110558058Y-77244711D01*
X110549737Y-77259691D01*
X110538529Y-77276983D01*
X110538527Y-77276988D01*
X110533648Y-77284515D01*
X110531078Y-77293108D01*
X110531076Y-77293113D01*
X110526289Y-77309120D01*
X110519628Y-77326564D01*
X110512533Y-77341676D01*
X110508719Y-77349800D01*
X110507338Y-77358667D01*
X110507338Y-77358668D01*
X110504170Y-77379015D01*
X110500387Y-77395732D01*
X110494485Y-77415466D01*
X110494484Y-77415472D01*
X110491914Y-77424066D01*
X110491728Y-77454634D01*
X110491704Y-77458497D01*
X110491671Y-77459289D01*
X110491500Y-77460386D01*
X110491500Y-77491377D01*
X110491498Y-77492147D01*
X110491024Y-77569721D01*
X110491408Y-77571065D01*
X110491500Y-77572410D01*
X110491500Y-78315995D01*
X110471498Y-78384116D01*
X110417842Y-78430609D01*
X110365598Y-78441995D01*
X108872535Y-78443162D01*
X107392746Y-78444318D01*
X107324611Y-78424369D01*
X107278076Y-78370750D01*
X107267918Y-78300484D01*
X107269449Y-78291902D01*
X107270630Y-78286395D01*
X107272797Y-78279861D01*
X107283500Y-78175400D01*
X107283500Y-75824600D01*
X107283010Y-75819877D01*
X107273238Y-75725692D01*
X107273237Y-75725688D01*
X107272526Y-75718834D01*
X107269684Y-75710314D01*
X107218868Y-75558002D01*
X107216550Y-75551054D01*
X107123478Y-75400652D01*
X107103661Y-75380869D01*
X107021148Y-75298500D01*
X106998303Y-75275695D01*
X106981571Y-75265381D01*
X106853968Y-75186725D01*
X106853966Y-75186724D01*
X106847738Y-75182885D01*
X106746129Y-75149183D01*
X106686389Y-75129368D01*
X106686387Y-75129368D01*
X106679861Y-75127203D01*
X106673025Y-75126503D01*
X106673022Y-75126502D01*
X106629969Y-75122091D01*
X106575400Y-75116500D01*
X104224600Y-75116500D01*
X104221354Y-75116837D01*
X104221350Y-75116837D01*
X104125692Y-75126762D01*
X104125688Y-75126763D01*
X104118834Y-75127474D01*
X104112298Y-75129655D01*
X104112296Y-75129655D01*
X104054028Y-75149095D01*
X103951054Y-75183450D01*
X103800652Y-75276522D01*
X103675695Y-75401697D01*
X103671855Y-75407927D01*
X103671854Y-75407928D01*
X103598374Y-75527135D01*
X103582885Y-75552262D01*
X103572034Y-75584978D01*
X103531706Y-75706564D01*
X103527203Y-75720139D01*
X103526503Y-75726975D01*
X103526502Y-75726978D01*
X103523925Y-75752135D01*
X103516500Y-75824600D01*
X103516500Y-76419500D01*
X103496498Y-76487621D01*
X103442842Y-76534114D01*
X103390500Y-76545500D01*
X98284500Y-76545500D01*
X98216379Y-76525498D01*
X98169886Y-76471842D01*
X98158500Y-76419500D01*
X98158500Y-76153600D01*
X98156857Y-76137761D01*
X98148238Y-76054692D01*
X98148237Y-76054688D01*
X98147526Y-76047834D01*
X98142339Y-76032285D01*
X98093868Y-75887002D01*
X98091550Y-75880054D01*
X97998478Y-75729652D01*
X97997710Y-75728885D01*
X97972036Y-75665451D01*
X97985208Y-75595687D01*
X97996447Y-75578166D01*
X97999305Y-75575303D01*
X98014253Y-75551054D01*
X98088275Y-75430968D01*
X98088276Y-75430966D01*
X98092115Y-75424738D01*
X98125039Y-75325476D01*
X98145632Y-75263389D01*
X98145632Y-75263387D01*
X98147797Y-75256861D01*
X98156143Y-75175400D01*
X99264500Y-75175400D01*
X99264837Y-75178646D01*
X99264837Y-75178650D01*
X99274508Y-75271854D01*
X99275474Y-75281166D01*
X99277655Y-75287702D01*
X99277655Y-75287704D01*
X99280799Y-75297128D01*
X99331450Y-75448946D01*
X99424522Y-75599348D01*
X99549697Y-75724305D01*
X99555927Y-75728145D01*
X99555928Y-75728146D01*
X99693090Y-75812694D01*
X99700262Y-75817115D01*
X99754534Y-75835116D01*
X99861611Y-75870632D01*
X99861613Y-75870632D01*
X99868139Y-75872797D01*
X99874975Y-75873497D01*
X99874978Y-75873498D01*
X99918031Y-75877909D01*
X99972600Y-75883500D01*
X102323400Y-75883500D01*
X102326646Y-75883163D01*
X102326650Y-75883163D01*
X102422308Y-75873238D01*
X102422312Y-75873237D01*
X102429166Y-75872526D01*
X102435702Y-75870345D01*
X102435704Y-75870345D01*
X102586974Y-75819877D01*
X102596946Y-75816550D01*
X102747348Y-75723478D01*
X102872305Y-75598303D01*
X102886378Y-75575472D01*
X102961275Y-75453968D01*
X102961276Y-75453966D01*
X102965115Y-75447738D01*
X103011996Y-75306395D01*
X103018632Y-75286389D01*
X103018632Y-75286387D01*
X103020797Y-75279861D01*
X103021618Y-75271854D01*
X103028621Y-75203502D01*
X103031500Y-75175400D01*
X103031500Y-74100000D01*
X113596551Y-74100000D01*
X113597241Y-74106565D01*
X113611114Y-74238550D01*
X113616294Y-74287838D01*
X113618334Y-74294116D01*
X113618334Y-74294117D01*
X113670430Y-74454452D01*
X113674658Y-74467466D01*
X113677961Y-74473188D01*
X113677962Y-74473189D01*
X113697232Y-74506565D01*
X113769094Y-74631034D01*
X113895475Y-74771393D01*
X113904164Y-74777706D01*
X114041213Y-74877279D01*
X114048275Y-74882410D01*
X114054302Y-74885093D01*
X114054303Y-74885094D01*
X114196301Y-74948315D01*
X114220819Y-74959231D01*
X114313192Y-74978866D01*
X114399107Y-74997128D01*
X114399112Y-74997128D01*
X114405564Y-74998500D01*
X114594436Y-74998500D01*
X114600888Y-74997128D01*
X114600893Y-74997128D01*
X114686808Y-74978866D01*
X114779181Y-74959231D01*
X114803699Y-74948315D01*
X114945697Y-74885094D01*
X114945698Y-74885093D01*
X114951725Y-74882410D01*
X114958788Y-74877279D01*
X115095836Y-74777706D01*
X115104525Y-74771393D01*
X115230906Y-74631034D01*
X115302768Y-74506565D01*
X115322038Y-74473189D01*
X115322039Y-74473188D01*
X115325342Y-74467466D01*
X115329571Y-74454452D01*
X115381666Y-74294117D01*
X115381666Y-74294116D01*
X115383706Y-74287838D01*
X115388887Y-74238550D01*
X115402759Y-74106565D01*
X115403449Y-74100000D01*
X115383706Y-73912162D01*
X115381666Y-73905883D01*
X115327384Y-73738818D01*
X115327383Y-73738816D01*
X115325342Y-73732534D01*
X115311686Y-73708880D01*
X115234209Y-73574687D01*
X115230906Y-73568966D01*
X115224139Y-73561450D01*
X115185768Y-73518836D01*
X115104525Y-73428607D01*
X115062960Y-73398408D01*
X114957063Y-73321468D01*
X114957061Y-73321467D01*
X114951725Y-73317590D01*
X114945695Y-73314905D01*
X114785212Y-73243454D01*
X114785211Y-73243454D01*
X114779181Y-73240769D01*
X114686809Y-73221135D01*
X114600893Y-73202872D01*
X114600888Y-73202872D01*
X114594436Y-73201500D01*
X114405564Y-73201500D01*
X114399112Y-73202872D01*
X114399107Y-73202872D01*
X114313191Y-73221135D01*
X114220819Y-73240769D01*
X114214789Y-73243454D01*
X114214788Y-73243454D01*
X114054306Y-73314905D01*
X114054304Y-73314906D01*
X114048276Y-73317590D01*
X114042935Y-73321470D01*
X114042934Y-73321471D01*
X114011137Y-73344573D01*
X113895475Y-73428607D01*
X113891061Y-73433509D01*
X113891060Y-73433510D01*
X113773513Y-73564058D01*
X113769094Y-73568966D01*
X113765791Y-73574687D01*
X113688315Y-73708880D01*
X113674658Y-73732534D01*
X113672617Y-73738816D01*
X113672616Y-73738818D01*
X113618334Y-73905883D01*
X113616294Y-73912162D01*
X113596551Y-74100000D01*
X103031500Y-74100000D01*
X103031500Y-72824600D01*
X103027149Y-72782662D01*
X103021238Y-72725692D01*
X103021237Y-72725688D01*
X103020526Y-72718834D01*
X103017580Y-72710002D01*
X102966868Y-72558002D01*
X102964550Y-72551054D01*
X102871478Y-72400652D01*
X102746303Y-72275695D01*
X102676334Y-72232565D01*
X102601968Y-72186725D01*
X102601966Y-72186724D01*
X102595738Y-72182885D01*
X102474743Y-72142753D01*
X102434389Y-72129368D01*
X102434387Y-72129368D01*
X102427861Y-72127203D01*
X102421025Y-72126503D01*
X102421022Y-72126502D01*
X102377969Y-72122091D01*
X102323400Y-72116500D01*
X99972600Y-72116500D01*
X99969354Y-72116837D01*
X99969350Y-72116837D01*
X99873692Y-72126762D01*
X99873688Y-72126763D01*
X99866834Y-72127474D01*
X99860298Y-72129655D01*
X99860296Y-72129655D01*
X99788639Y-72153562D01*
X99699054Y-72183450D01*
X99548652Y-72276522D01*
X99423695Y-72401697D01*
X99419855Y-72407927D01*
X99419854Y-72407928D01*
X99347452Y-72525386D01*
X99330885Y-72552262D01*
X99310950Y-72612365D01*
X99278887Y-72709033D01*
X99275203Y-72720139D01*
X99274503Y-72726975D01*
X99274502Y-72726978D01*
X99270744Y-72763658D01*
X99264500Y-72824600D01*
X99264500Y-75175400D01*
X98156143Y-75175400D01*
X98158500Y-75152400D01*
X98158500Y-72851600D01*
X98157800Y-72844851D01*
X98148238Y-72752692D01*
X98148237Y-72752688D01*
X98147526Y-72745834D01*
X98138954Y-72720139D01*
X98093868Y-72585002D01*
X98091550Y-72578054D01*
X97998478Y-72427652D01*
X97997710Y-72426885D01*
X97972036Y-72363451D01*
X97985208Y-72293687D01*
X97996447Y-72276166D01*
X97999305Y-72273303D01*
X98005903Y-72262600D01*
X98088275Y-72128968D01*
X98088276Y-72128966D01*
X98092115Y-72122738D01*
X98108912Y-72072095D01*
X103517001Y-72072095D01*
X103517338Y-72078614D01*
X103527257Y-72174206D01*
X103530149Y-72187600D01*
X103581588Y-72341784D01*
X103587761Y-72354962D01*
X103673063Y-72492807D01*
X103682099Y-72504208D01*
X103796829Y-72618739D01*
X103808240Y-72627751D01*
X103946243Y-72712816D01*
X103959424Y-72718963D01*
X104113710Y-72770138D01*
X104127086Y-72773005D01*
X104221438Y-72782672D01*
X104227854Y-72783000D01*
X105127885Y-72783000D01*
X105143124Y-72778525D01*
X105144329Y-72777135D01*
X105146000Y-72769452D01*
X105146000Y-72764884D01*
X105654000Y-72764884D01*
X105658475Y-72780123D01*
X105659865Y-72781328D01*
X105667548Y-72782999D01*
X106572095Y-72782999D01*
X106578614Y-72782662D01*
X106674206Y-72772743D01*
X106687600Y-72769851D01*
X106841784Y-72718412D01*
X106854962Y-72712239D01*
X106992807Y-72626937D01*
X107004208Y-72617901D01*
X107118739Y-72503171D01*
X107127751Y-72491760D01*
X107212816Y-72353757D01*
X107218963Y-72340576D01*
X107270138Y-72186290D01*
X107273005Y-72172914D01*
X107282672Y-72078562D01*
X107283000Y-72072146D01*
X107283000Y-71172115D01*
X107278525Y-71156876D01*
X107277135Y-71155671D01*
X107269452Y-71154000D01*
X105672115Y-71154000D01*
X105656876Y-71158475D01*
X105655671Y-71159865D01*
X105654000Y-71167548D01*
X105654000Y-72764884D01*
X105146000Y-72764884D01*
X105146000Y-71172115D01*
X105141525Y-71156876D01*
X105140135Y-71155671D01*
X105132452Y-71154000D01*
X103535116Y-71154000D01*
X103519877Y-71158475D01*
X103518672Y-71159865D01*
X103517001Y-71167548D01*
X103517001Y-72072095D01*
X98108912Y-72072095D01*
X98120412Y-72037424D01*
X98145632Y-71961389D01*
X98145632Y-71961387D01*
X98147797Y-71954861D01*
X98148775Y-71945322D01*
X98156608Y-71868868D01*
X98158500Y-71850400D01*
X98158500Y-71689762D01*
X98178502Y-71621641D01*
X98232158Y-71575148D01*
X98302432Y-71565044D01*
X98316786Y-71568382D01*
X98317712Y-71568794D01*
X98328382Y-71571062D01*
X98498056Y-71607128D01*
X98498061Y-71607128D01*
X98504513Y-71608500D01*
X98695487Y-71608500D01*
X98701939Y-71607128D01*
X98701944Y-71607128D01*
X98788888Y-71588647D01*
X98882288Y-71568794D01*
X98888319Y-71566109D01*
X99050722Y-71493803D01*
X99050724Y-71493802D01*
X99056752Y-71491118D01*
X99064715Y-71485333D01*
X99134575Y-71434576D01*
X99211253Y-71378866D01*
X99215675Y-71373955D01*
X99334621Y-71241852D01*
X99334622Y-71241851D01*
X99339040Y-71236944D01*
X99414831Y-71105671D01*
X99431223Y-71077279D01*
X99431224Y-71077278D01*
X99434527Y-71071556D01*
X99493542Y-70889928D01*
X99496046Y-70866109D01*
X99512814Y-70706565D01*
X99513504Y-70700000D01*
X99508657Y-70653879D01*
X99494232Y-70516635D01*
X99494232Y-70516633D01*
X99493542Y-70510072D01*
X99434527Y-70328444D01*
X99339040Y-70163056D01*
X99221348Y-70032345D01*
X99215675Y-70026045D01*
X99215674Y-70026044D01*
X99211253Y-70021134D01*
X99100268Y-69940498D01*
X99062094Y-69912763D01*
X99062093Y-69912762D01*
X99056752Y-69908882D01*
X99050724Y-69906198D01*
X99050722Y-69906197D01*
X98888319Y-69833891D01*
X98888318Y-69833891D01*
X98882288Y-69831206D01*
X98782861Y-69810072D01*
X98701944Y-69792872D01*
X98701939Y-69792872D01*
X98695487Y-69791500D01*
X98504513Y-69791500D01*
X98498061Y-69792872D01*
X98498056Y-69792872D01*
X98343373Y-69825752D01*
X98317712Y-69831206D01*
X98317507Y-69830242D01*
X98252464Y-69832097D01*
X98191667Y-69795432D01*
X98160345Y-69731719D01*
X98158500Y-69710238D01*
X98158500Y-69634500D01*
X98178502Y-69566379D01*
X98232158Y-69519886D01*
X98284500Y-69508500D01*
X103399575Y-69508500D01*
X103467696Y-69528502D01*
G37*
G04 #@! TD.AperFunction*
G04 #@! TA.AperFunction,Conductor*
G36*
X43433621Y-69528502D02*
G01*
X43480114Y-69582158D01*
X43491500Y-69634500D01*
X43491500Y-70491377D01*
X43491498Y-70492147D01*
X43491024Y-70569721D01*
X43497050Y-70590804D01*
X43499150Y-70598153D01*
X43502728Y-70614915D01*
X43506920Y-70644187D01*
X43510634Y-70652355D01*
X43510634Y-70652356D01*
X43517548Y-70667562D01*
X43523996Y-70685086D01*
X43531051Y-70709771D01*
X43535843Y-70717365D01*
X43535844Y-70717368D01*
X43546830Y-70734780D01*
X43554969Y-70749863D01*
X43567208Y-70776782D01*
X43573069Y-70783584D01*
X43583970Y-70796235D01*
X43595073Y-70811239D01*
X43608776Y-70832958D01*
X43615501Y-70838897D01*
X43615504Y-70838901D01*
X43630938Y-70852532D01*
X43642982Y-70864724D01*
X43656427Y-70880327D01*
X43656430Y-70880329D01*
X43662287Y-70887127D01*
X43669816Y-70892007D01*
X43669817Y-70892008D01*
X43683835Y-70901094D01*
X43698709Y-70912385D01*
X43710447Y-70922751D01*
X43717951Y-70929378D01*
X43744711Y-70941942D01*
X43759691Y-70950263D01*
X43776983Y-70961471D01*
X43776988Y-70961473D01*
X43784515Y-70966352D01*
X43793108Y-70968922D01*
X43793113Y-70968924D01*
X43809120Y-70973711D01*
X43826564Y-70980372D01*
X43841676Y-70987467D01*
X43841678Y-70987468D01*
X43849800Y-70991281D01*
X43858667Y-70992662D01*
X43858668Y-70992662D01*
X43861353Y-70993080D01*
X43879017Y-70995830D01*
X43895732Y-70999613D01*
X43915466Y-71005515D01*
X43915472Y-71005516D01*
X43924066Y-71008086D01*
X43933037Y-71008141D01*
X43933038Y-71008141D01*
X43943097Y-71008202D01*
X43958506Y-71008296D01*
X43959289Y-71008329D01*
X43960386Y-71008500D01*
X43991377Y-71008500D01*
X43992147Y-71008502D01*
X44065785Y-71008952D01*
X44065786Y-71008952D01*
X44069721Y-71008976D01*
X44071065Y-71008592D01*
X44072410Y-71008500D01*
X46991377Y-71008500D01*
X46992148Y-71008502D01*
X47069721Y-71008976D01*
X47098152Y-71000850D01*
X47114915Y-70997272D01*
X47115753Y-70997152D01*
X47144187Y-70993080D01*
X47167564Y-70982451D01*
X47185087Y-70976004D01*
X47209771Y-70968949D01*
X47217365Y-70964157D01*
X47217368Y-70964156D01*
X47234780Y-70953170D01*
X47249865Y-70945030D01*
X47276782Y-70932792D01*
X47296235Y-70916030D01*
X47311239Y-70904927D01*
X47332958Y-70891224D01*
X47338897Y-70884499D01*
X47338901Y-70884496D01*
X47352532Y-70869062D01*
X47364724Y-70857018D01*
X47380327Y-70843573D01*
X47380329Y-70843570D01*
X47387127Y-70837713D01*
X47401094Y-70816165D01*
X47412385Y-70801291D01*
X47423431Y-70788783D01*
X47423432Y-70788782D01*
X47429378Y-70782049D01*
X47441943Y-70755287D01*
X47450263Y-70740309D01*
X47461471Y-70723017D01*
X47461473Y-70723012D01*
X47466352Y-70715485D01*
X47468922Y-70706892D01*
X47468924Y-70706887D01*
X47473711Y-70690880D01*
X47480372Y-70673436D01*
X47487467Y-70658324D01*
X47487468Y-70658322D01*
X47491281Y-70650200D01*
X47495830Y-70620983D01*
X47499613Y-70604268D01*
X47505515Y-70584534D01*
X47505516Y-70584528D01*
X47508086Y-70575934D01*
X47508296Y-70541494D01*
X47508329Y-70540711D01*
X47508500Y-70539614D01*
X47508500Y-70508623D01*
X47508502Y-70507853D01*
X47508952Y-70434215D01*
X47508952Y-70434214D01*
X47508976Y-70430279D01*
X47508592Y-70428935D01*
X47508500Y-70427590D01*
X47508500Y-69634500D01*
X47528502Y-69566379D01*
X47582158Y-69519886D01*
X47634500Y-69508500D01*
X50457261Y-69508500D01*
X50525382Y-69528502D01*
X50571875Y-69582158D01*
X50581979Y-69652432D01*
X50580462Y-69660911D01*
X50576995Y-69677084D01*
X50567328Y-69771438D01*
X50567000Y-69777855D01*
X50567000Y-70227885D01*
X50571475Y-70243124D01*
X50572865Y-70244329D01*
X50580548Y-70246000D01*
X53414884Y-70246000D01*
X53430123Y-70241525D01*
X53431328Y-70240135D01*
X53432999Y-70232452D01*
X53432999Y-69777905D01*
X53432662Y-69771386D01*
X53422744Y-69675796D01*
X53419569Y-69661093D01*
X53424744Y-69590285D01*
X53467378Y-69533515D01*
X53533937Y-69508807D01*
X53542731Y-69508500D01*
X53756746Y-69508500D01*
X53824867Y-69528502D01*
X53871360Y-69582158D01*
X53881464Y-69652432D01*
X53879947Y-69660912D01*
X53879369Y-69663610D01*
X53877203Y-69670139D01*
X53866500Y-69774600D01*
X53866500Y-71225400D01*
X53866837Y-71228646D01*
X53866837Y-71228650D01*
X53876752Y-71324206D01*
X53877474Y-71331166D01*
X53879655Y-71337702D01*
X53879655Y-71337704D01*
X53911069Y-71431862D01*
X53933450Y-71498946D01*
X54026522Y-71649348D01*
X54031704Y-71654521D01*
X54067129Y-71689884D01*
X54151697Y-71774305D01*
X54157927Y-71778145D01*
X54157928Y-71778146D01*
X54295288Y-71862816D01*
X54302262Y-71867115D01*
X54345273Y-71881381D01*
X54463611Y-71920632D01*
X54463613Y-71920632D01*
X54470139Y-71922797D01*
X54476975Y-71923497D01*
X54476978Y-71923498D01*
X54520031Y-71927909D01*
X54574600Y-71933500D01*
X56025400Y-71933500D01*
X56028646Y-71933163D01*
X56028650Y-71933163D01*
X56124308Y-71923238D01*
X56124312Y-71923237D01*
X56131166Y-71922526D01*
X56137702Y-71920345D01*
X56137704Y-71920345D01*
X56269806Y-71876272D01*
X56298946Y-71866550D01*
X56449348Y-71773478D01*
X56574305Y-71648303D01*
X56599686Y-71607128D01*
X56663275Y-71503968D01*
X56663276Y-71503966D01*
X56667115Y-71497738D01*
X56717831Y-71344833D01*
X56758261Y-71286473D01*
X56823826Y-71259236D01*
X56837424Y-71258500D01*
X57062440Y-71258500D01*
X57130561Y-71278502D01*
X57177054Y-71332158D01*
X57181964Y-71344623D01*
X57233450Y-71498946D01*
X57326522Y-71649348D01*
X57331704Y-71654521D01*
X57367129Y-71689884D01*
X57451697Y-71774305D01*
X57457927Y-71778145D01*
X57457928Y-71778146D01*
X57595288Y-71862816D01*
X57602262Y-71867115D01*
X57645273Y-71881381D01*
X57755167Y-71917831D01*
X57813527Y-71958261D01*
X57840764Y-72023826D01*
X57841500Y-72037424D01*
X57841500Y-75995803D01*
X57821498Y-76063924D01*
X57767842Y-76110417D01*
X57755377Y-76115326D01*
X57707998Y-76131133D01*
X57707996Y-76131134D01*
X57701054Y-76133450D01*
X57694830Y-76137301D01*
X57694829Y-76137302D01*
X57639972Y-76171249D01*
X57550652Y-76226522D01*
X57425695Y-76351697D01*
X57421855Y-76357927D01*
X57421854Y-76357928D01*
X57375903Y-76432475D01*
X57332885Y-76502262D01*
X57277203Y-76670139D01*
X57266500Y-76774600D01*
X57266500Y-78225400D01*
X57266837Y-78228646D01*
X57266837Y-78228650D01*
X57276629Y-78323019D01*
X57277474Y-78331166D01*
X57278059Y-78332918D01*
X57273029Y-78401776D01*
X57230397Y-78458548D01*
X57163839Y-78483258D01*
X57155139Y-78483566D01*
X57025584Y-78483667D01*
X56944502Y-78483731D01*
X56876366Y-78463782D01*
X56829831Y-78410163D01*
X56819672Y-78339897D01*
X56821204Y-78331316D01*
X56823005Y-78322915D01*
X56832672Y-78228562D01*
X56833000Y-78222146D01*
X56833000Y-77772115D01*
X56828525Y-77756876D01*
X56827135Y-77755671D01*
X56819452Y-77754000D01*
X53985116Y-77754000D01*
X53969877Y-77758475D01*
X53968672Y-77759865D01*
X53967001Y-77767548D01*
X53967001Y-78222095D01*
X53967338Y-78228614D01*
X53977256Y-78324205D01*
X53979274Y-78333548D01*
X53974102Y-78404356D01*
X53931469Y-78461127D01*
X53864911Y-78485836D01*
X53856221Y-78486144D01*
X53768770Y-78486212D01*
X53643950Y-78486309D01*
X53575814Y-78466360D01*
X53529279Y-78412740D01*
X53519121Y-78342474D01*
X53520651Y-78333899D01*
X53523005Y-78322918D01*
X53532672Y-78228562D01*
X53533000Y-78222145D01*
X53533000Y-77772115D01*
X53528525Y-77756876D01*
X53527135Y-77755671D01*
X53519452Y-77754000D01*
X50685116Y-77754000D01*
X50669877Y-77758475D01*
X50668672Y-77759865D01*
X50667001Y-77767548D01*
X50667001Y-78222095D01*
X50667338Y-78228614D01*
X50677256Y-78324201D01*
X50679831Y-78336124D01*
X50674659Y-78406932D01*
X50632027Y-78463704D01*
X50565470Y-78488414D01*
X50556784Y-78488721D01*
X48995570Y-78489941D01*
X47634598Y-78491004D01*
X47566462Y-78471055D01*
X47519927Y-78417436D01*
X47508500Y-78365004D01*
X47508500Y-77508623D01*
X47508502Y-77507853D01*
X47508800Y-77459102D01*
X47508976Y-77430279D01*
X47500850Y-77401847D01*
X47497272Y-77385085D01*
X47494352Y-77364698D01*
X47493080Y-77355813D01*
X47488714Y-77346209D01*
X47482452Y-77332438D01*
X47476004Y-77314913D01*
X47471416Y-77298862D01*
X47468949Y-77290229D01*
X47464156Y-77282632D01*
X47453170Y-77265220D01*
X47445030Y-77250135D01*
X47442390Y-77244329D01*
X47434914Y-77227885D01*
X50667000Y-77227885D01*
X50671475Y-77243124D01*
X50672865Y-77244329D01*
X50680548Y-77246000D01*
X51827885Y-77246000D01*
X51843124Y-77241525D01*
X51844329Y-77240135D01*
X51846000Y-77232452D01*
X51846000Y-77227885D01*
X52354000Y-77227885D01*
X52358475Y-77243124D01*
X52359865Y-77244329D01*
X52367548Y-77246000D01*
X53514884Y-77246000D01*
X53530123Y-77241525D01*
X53531328Y-77240135D01*
X53532999Y-77232452D01*
X53532999Y-77227885D01*
X53967000Y-77227885D01*
X53971475Y-77243124D01*
X53972865Y-77244329D01*
X53980548Y-77246000D01*
X55127885Y-77246000D01*
X55143124Y-77241525D01*
X55144329Y-77240135D01*
X55146000Y-77232452D01*
X55146000Y-77227885D01*
X55654000Y-77227885D01*
X55658475Y-77243124D01*
X55659865Y-77244329D01*
X55667548Y-77246000D01*
X56814884Y-77246000D01*
X56830123Y-77241525D01*
X56831328Y-77240135D01*
X56832999Y-77232452D01*
X56832999Y-76777905D01*
X56832662Y-76771386D01*
X56822743Y-76675794D01*
X56819851Y-76662400D01*
X56768412Y-76508216D01*
X56762239Y-76495038D01*
X56676937Y-76357193D01*
X56667901Y-76345792D01*
X56553171Y-76231261D01*
X56541760Y-76222249D01*
X56403757Y-76137184D01*
X56390576Y-76131037D01*
X56236290Y-76079862D01*
X56222914Y-76076995D01*
X56128562Y-76067328D01*
X56122145Y-76067000D01*
X55672115Y-76067000D01*
X55656876Y-76071475D01*
X55655671Y-76072865D01*
X55654000Y-76080548D01*
X55654000Y-77227885D01*
X55146000Y-77227885D01*
X55146000Y-76085116D01*
X55141525Y-76069877D01*
X55140135Y-76068672D01*
X55132452Y-76067001D01*
X54677905Y-76067001D01*
X54671386Y-76067338D01*
X54575794Y-76077257D01*
X54562400Y-76080149D01*
X54408216Y-76131588D01*
X54395038Y-76137761D01*
X54257193Y-76223063D01*
X54245792Y-76232099D01*
X54131261Y-76346829D01*
X54122249Y-76358240D01*
X54037184Y-76496243D01*
X54031037Y-76509424D01*
X53979862Y-76663710D01*
X53976995Y-76677086D01*
X53967328Y-76771438D01*
X53967000Y-76777855D01*
X53967000Y-77227885D01*
X53532999Y-77227885D01*
X53532999Y-76777905D01*
X53532662Y-76771386D01*
X53522743Y-76675794D01*
X53519851Y-76662400D01*
X53468412Y-76508216D01*
X53462239Y-76495038D01*
X53376937Y-76357193D01*
X53367901Y-76345792D01*
X53253171Y-76231261D01*
X53241760Y-76222249D01*
X53103757Y-76137184D01*
X53090576Y-76131037D01*
X52936290Y-76079862D01*
X52922914Y-76076995D01*
X52828562Y-76067328D01*
X52822145Y-76067000D01*
X52372115Y-76067000D01*
X52356876Y-76071475D01*
X52355671Y-76072865D01*
X52354000Y-76080548D01*
X52354000Y-77227885D01*
X51846000Y-77227885D01*
X51846000Y-76085116D01*
X51841525Y-76069877D01*
X51840135Y-76068672D01*
X51832452Y-76067001D01*
X51377905Y-76067001D01*
X51371386Y-76067338D01*
X51275794Y-76077257D01*
X51262400Y-76080149D01*
X51108216Y-76131588D01*
X51095038Y-76137761D01*
X50957193Y-76223063D01*
X50945792Y-76232099D01*
X50831261Y-76346829D01*
X50822249Y-76358240D01*
X50737184Y-76496243D01*
X50731037Y-76509424D01*
X50679862Y-76663710D01*
X50676995Y-76677086D01*
X50667328Y-76771438D01*
X50667000Y-76777855D01*
X50667000Y-77227885D01*
X47434914Y-77227885D01*
X47432792Y-77223218D01*
X47416030Y-77203765D01*
X47404927Y-77188761D01*
X47391224Y-77167042D01*
X47384499Y-77161103D01*
X47384496Y-77161099D01*
X47369062Y-77147468D01*
X47357018Y-77135276D01*
X47343573Y-77119673D01*
X47343570Y-77119671D01*
X47337713Y-77112873D01*
X47324009Y-77103990D01*
X47316165Y-77098906D01*
X47301291Y-77087615D01*
X47288783Y-77076569D01*
X47288782Y-77076568D01*
X47282049Y-77070622D01*
X47255287Y-77058057D01*
X47240309Y-77049737D01*
X47223017Y-77038529D01*
X47223012Y-77038527D01*
X47215485Y-77033648D01*
X47206892Y-77031078D01*
X47206887Y-77031076D01*
X47190880Y-77026289D01*
X47173436Y-77019628D01*
X47158324Y-77012533D01*
X47158322Y-77012532D01*
X47150200Y-77008719D01*
X47141333Y-77007338D01*
X47141332Y-77007338D01*
X47130478Y-77005648D01*
X47120983Y-77004170D01*
X47104268Y-77000387D01*
X47084534Y-76994485D01*
X47084528Y-76994484D01*
X47075934Y-76991914D01*
X47066963Y-76991859D01*
X47066962Y-76991859D01*
X47056903Y-76991798D01*
X47041494Y-76991704D01*
X47040711Y-76991671D01*
X47039614Y-76991500D01*
X47008623Y-76991500D01*
X47007853Y-76991498D01*
X46934215Y-76991048D01*
X46934214Y-76991048D01*
X46930279Y-76991024D01*
X46928935Y-76991408D01*
X46927590Y-76991500D01*
X44008623Y-76991500D01*
X44007853Y-76991498D01*
X44007037Y-76991493D01*
X43930279Y-76991024D01*
X43907918Y-76997415D01*
X43901847Y-76999150D01*
X43885085Y-77002728D01*
X43855813Y-77006920D01*
X43847645Y-77010634D01*
X43847644Y-77010634D01*
X43832438Y-77017548D01*
X43814914Y-77023996D01*
X43790229Y-77031051D01*
X43782635Y-77035843D01*
X43782632Y-77035844D01*
X43765220Y-77046830D01*
X43750137Y-77054969D01*
X43723218Y-77067208D01*
X43716416Y-77073069D01*
X43703765Y-77083970D01*
X43688761Y-77095073D01*
X43667042Y-77108776D01*
X43661103Y-77115501D01*
X43661099Y-77115504D01*
X43647468Y-77130938D01*
X43635276Y-77142982D01*
X43619673Y-77156427D01*
X43619671Y-77156430D01*
X43612873Y-77162287D01*
X43607993Y-77169816D01*
X43607992Y-77169817D01*
X43598906Y-77183835D01*
X43587615Y-77198709D01*
X43578633Y-77208880D01*
X43570622Y-77217951D01*
X43559554Y-77241525D01*
X43558058Y-77244711D01*
X43549737Y-77259691D01*
X43538529Y-77276983D01*
X43538527Y-77276988D01*
X43533648Y-77284515D01*
X43531078Y-77293108D01*
X43531076Y-77293113D01*
X43526289Y-77309120D01*
X43519628Y-77326564D01*
X43512533Y-77341676D01*
X43508719Y-77349800D01*
X43507338Y-77358667D01*
X43507338Y-77358668D01*
X43504170Y-77379015D01*
X43500387Y-77395732D01*
X43494485Y-77415466D01*
X43494484Y-77415472D01*
X43491914Y-77424066D01*
X43491728Y-77454634D01*
X43491704Y-77458497D01*
X43491671Y-77459289D01*
X43491500Y-77460386D01*
X43491500Y-77491377D01*
X43491498Y-77492147D01*
X43491024Y-77569721D01*
X43491408Y-77571065D01*
X43491500Y-77572410D01*
X43491500Y-78365500D01*
X43471498Y-78433621D01*
X43417842Y-78480114D01*
X43365500Y-78491500D01*
X42716537Y-78491500D01*
X42648416Y-78471498D01*
X42601923Y-78417842D01*
X42597764Y-78407560D01*
X42570713Y-78331169D01*
X42500934Y-78134119D01*
X42364907Y-77870572D01*
X42351226Y-77851105D01*
X42247923Y-77704120D01*
X42194372Y-77627925D01*
X42082794Y-77507853D01*
X41995404Y-77413810D01*
X41995401Y-77413808D01*
X41992483Y-77410667D01*
X41989168Y-77407953D01*
X41989164Y-77407950D01*
X41836055Y-77282632D01*
X41762977Y-77222818D01*
X41510101Y-77067856D01*
X41462203Y-77046830D01*
X41242465Y-76950372D01*
X41238533Y-76948646D01*
X41185363Y-76933500D01*
X41099981Y-76909178D01*
X41039946Y-76871279D01*
X41009932Y-76806939D01*
X41008500Y-76787999D01*
X41008500Y-74400000D01*
X42596551Y-74400000D01*
X42597241Y-74406565D01*
X42597723Y-74411146D01*
X42616294Y-74587838D01*
X42618334Y-74594116D01*
X42618334Y-74594117D01*
X42649465Y-74689928D01*
X42674658Y-74767466D01*
X42677961Y-74773188D01*
X42677962Y-74773189D01*
X42722309Y-74850000D01*
X42769094Y-74931034D01*
X42895475Y-75071393D01*
X42900814Y-75075272D01*
X43038627Y-75175400D01*
X43048275Y-75182410D01*
X43054302Y-75185093D01*
X43054303Y-75185094D01*
X43214788Y-75256546D01*
X43220819Y-75259231D01*
X43306622Y-75277469D01*
X43399107Y-75297128D01*
X43399112Y-75297128D01*
X43405564Y-75298500D01*
X43594436Y-75298500D01*
X43600888Y-75297128D01*
X43600893Y-75297128D01*
X43693378Y-75277469D01*
X43779181Y-75259231D01*
X43785212Y-75256546D01*
X43945697Y-75185094D01*
X43945698Y-75185093D01*
X43951725Y-75182410D01*
X43961374Y-75175400D01*
X44099186Y-75075272D01*
X44104525Y-75071393D01*
X44230906Y-74931034D01*
X44277691Y-74850000D01*
X44322038Y-74773189D01*
X44322039Y-74773188D01*
X44325342Y-74767466D01*
X44350536Y-74689928D01*
X44381666Y-74594117D01*
X44381666Y-74594116D01*
X44383706Y-74587838D01*
X44402278Y-74411146D01*
X44402759Y-74406565D01*
X44403449Y-74400000D01*
X44402436Y-74390365D01*
X44384396Y-74218726D01*
X44384396Y-74218725D01*
X44383706Y-74212162D01*
X44381666Y-74205883D01*
X44327384Y-74038818D01*
X44327383Y-74038816D01*
X44325342Y-74032534D01*
X44307458Y-74001557D01*
X44234209Y-73874687D01*
X44230906Y-73868966D01*
X44104525Y-73728607D01*
X43974961Y-73634472D01*
X43957063Y-73621468D01*
X43957061Y-73621467D01*
X43951725Y-73617590D01*
X43945695Y-73614905D01*
X43785212Y-73543454D01*
X43785211Y-73543454D01*
X43779181Y-73540769D01*
X43676710Y-73518988D01*
X43600893Y-73502872D01*
X43600888Y-73502872D01*
X43594436Y-73501500D01*
X43405564Y-73501500D01*
X43399112Y-73502872D01*
X43399107Y-73502872D01*
X43323290Y-73518988D01*
X43220819Y-73540769D01*
X43214789Y-73543454D01*
X43214788Y-73543454D01*
X43054306Y-73614905D01*
X43054304Y-73614906D01*
X43048276Y-73617590D01*
X43042935Y-73621470D01*
X43042934Y-73621471D01*
X43025040Y-73634472D01*
X42895475Y-73728607D01*
X42891061Y-73733509D01*
X42891060Y-73733510D01*
X42793891Y-73841426D01*
X42769094Y-73868966D01*
X42765791Y-73874687D01*
X42692543Y-74001557D01*
X42674658Y-74032534D01*
X42672617Y-74038816D01*
X42672616Y-74038818D01*
X42618334Y-74205883D01*
X42616294Y-74212162D01*
X42615604Y-74218725D01*
X42615604Y-74218726D01*
X42597564Y-74390365D01*
X42596551Y-74400000D01*
X41008500Y-74400000D01*
X41008500Y-71222095D01*
X50567001Y-71222095D01*
X50567338Y-71228614D01*
X50577257Y-71324206D01*
X50580149Y-71337600D01*
X50631588Y-71491784D01*
X50637761Y-71504962D01*
X50723063Y-71642807D01*
X50732099Y-71654208D01*
X50846829Y-71768739D01*
X50858240Y-71777751D01*
X50996243Y-71862816D01*
X51009424Y-71868963D01*
X51163710Y-71920138D01*
X51177086Y-71923005D01*
X51271438Y-71932672D01*
X51277854Y-71933000D01*
X51727885Y-71933000D01*
X51743124Y-71928525D01*
X51744329Y-71927135D01*
X51746000Y-71919452D01*
X51746000Y-71914884D01*
X52254000Y-71914884D01*
X52258475Y-71930123D01*
X52259865Y-71931328D01*
X52267548Y-71932999D01*
X52722095Y-71932999D01*
X52728614Y-71932662D01*
X52824206Y-71922743D01*
X52837600Y-71919851D01*
X52991784Y-71868412D01*
X53004962Y-71862239D01*
X53142807Y-71776937D01*
X53154208Y-71767901D01*
X53268739Y-71653171D01*
X53277751Y-71641760D01*
X53362816Y-71503757D01*
X53368963Y-71490576D01*
X53420138Y-71336290D01*
X53423005Y-71322914D01*
X53432672Y-71228562D01*
X53433000Y-71222145D01*
X53433000Y-70772115D01*
X53428525Y-70756876D01*
X53427135Y-70755671D01*
X53419452Y-70754000D01*
X52272115Y-70754000D01*
X52256876Y-70758475D01*
X52255671Y-70759865D01*
X52254000Y-70767548D01*
X52254000Y-71914884D01*
X51746000Y-71914884D01*
X51746000Y-70772115D01*
X51741525Y-70756876D01*
X51740135Y-70755671D01*
X51732452Y-70754000D01*
X50585116Y-70754000D01*
X50569877Y-70758475D01*
X50568672Y-70759865D01*
X50567001Y-70767548D01*
X50567001Y-71222095D01*
X41008500Y-71222095D01*
X41008500Y-70053250D01*
X41010246Y-70032345D01*
X41012770Y-70017344D01*
X41012770Y-70017341D01*
X41013576Y-70012552D01*
X41013729Y-70000000D01*
X41013040Y-69995188D01*
X41012723Y-69990327D01*
X41013008Y-69990308D01*
X41012607Y-69963549D01*
X41019234Y-69904736D01*
X41025513Y-69877229D01*
X41052485Y-69800147D01*
X41064727Y-69774726D01*
X41108178Y-69705574D01*
X41125770Y-69683515D01*
X41183515Y-69625770D01*
X41205574Y-69608178D01*
X41274726Y-69564727D01*
X41300147Y-69552485D01*
X41377228Y-69525513D01*
X41404736Y-69519234D01*
X41460226Y-69512982D01*
X41475868Y-69513077D01*
X41475879Y-69512200D01*
X41484851Y-69512310D01*
X41493724Y-69513691D01*
X41502626Y-69512527D01*
X41502628Y-69512527D01*
X41517951Y-69510523D01*
X41525286Y-69509564D01*
X41541621Y-69508500D01*
X43365500Y-69508500D01*
X43433621Y-69528502D01*
G37*
G04 #@! TD.AperFunction*
G04 #@! TA.AperFunction,Conductor*
G36*
X64399142Y-69528502D02*
G01*
X64445635Y-69582158D01*
X64455739Y-69652432D01*
X64450854Y-69673436D01*
X64406458Y-69810072D01*
X64405768Y-69816633D01*
X64405768Y-69816635D01*
X64396355Y-69906197D01*
X64386496Y-70000000D01*
X64387186Y-70006565D01*
X64404235Y-70168774D01*
X64406458Y-70189928D01*
X64465473Y-70371556D01*
X64468776Y-70377278D01*
X64468777Y-70377279D01*
X64499377Y-70430279D01*
X64560960Y-70536944D01*
X64565378Y-70541851D01*
X64565379Y-70541852D01*
X64670251Y-70658324D01*
X64688747Y-70678866D01*
X64753570Y-70725963D01*
X64830766Y-70782049D01*
X64843248Y-70791118D01*
X64849276Y-70793802D01*
X64849278Y-70793803D01*
X65011681Y-70866109D01*
X65017712Y-70868794D01*
X65086263Y-70883365D01*
X65198056Y-70907128D01*
X65198061Y-70907128D01*
X65204513Y-70908500D01*
X65395487Y-70908500D01*
X65401939Y-70907128D01*
X65401944Y-70907128D01*
X65513737Y-70883365D01*
X65582288Y-70868794D01*
X65588319Y-70866109D01*
X65750722Y-70793803D01*
X65750724Y-70793802D01*
X65756752Y-70791118D01*
X65767122Y-70783584D01*
X65835725Y-70733741D01*
X65902593Y-70709882D01*
X65971745Y-70725963D01*
X65998805Y-70746504D01*
X66051697Y-70799305D01*
X66056235Y-70802102D01*
X66096824Y-70859353D01*
X66100054Y-70930276D01*
X66064428Y-70991687D01*
X66055932Y-70999062D01*
X66045793Y-71007098D01*
X65931261Y-71121829D01*
X65922249Y-71133240D01*
X65837184Y-71271243D01*
X65831037Y-71284424D01*
X65779862Y-71438710D01*
X65776995Y-71452086D01*
X65767328Y-71546438D01*
X65767000Y-71552855D01*
X65767000Y-71577885D01*
X65771475Y-71593124D01*
X65772865Y-71594329D01*
X65780548Y-71596000D01*
X67742163Y-71596000D01*
X67772111Y-71599611D01*
X67805610Y-71607808D01*
X67811212Y-71608156D01*
X67811215Y-71608156D01*
X67816764Y-71608500D01*
X67816762Y-71608536D01*
X67820755Y-71608775D01*
X67824947Y-71609149D01*
X67832115Y-71610640D01*
X67909520Y-71608546D01*
X67912928Y-71608500D01*
X68415500Y-71608500D01*
X68483621Y-71628502D01*
X68530114Y-71682158D01*
X68541500Y-71734500D01*
X68541500Y-71898134D01*
X68548255Y-71960316D01*
X68599385Y-72096705D01*
X68686739Y-72213261D01*
X68803295Y-72300615D01*
X68939684Y-72351745D01*
X69001866Y-72358500D01*
X70598134Y-72358500D01*
X70660316Y-72351745D01*
X70796705Y-72300615D01*
X70805949Y-72293687D01*
X70874435Y-72242360D01*
X70940942Y-72217512D01*
X71010324Y-72232565D01*
X71025565Y-72242360D01*
X71094051Y-72293687D01*
X71103295Y-72300615D01*
X71111703Y-72303767D01*
X71232286Y-72348972D01*
X71232289Y-72348973D01*
X71239684Y-72351745D01*
X71245453Y-72352372D01*
X71306291Y-72387126D01*
X71339113Y-72450081D01*
X71341500Y-72474493D01*
X71341500Y-75515500D01*
X71321498Y-75583621D01*
X71267842Y-75630114D01*
X71215500Y-75641500D01*
X70151866Y-75641500D01*
X70089684Y-75648255D01*
X69953295Y-75699385D01*
X69836739Y-75786739D01*
X69749385Y-75903295D01*
X69698255Y-76039684D01*
X69691500Y-76101866D01*
X69691500Y-76265500D01*
X69671498Y-76333621D01*
X69617842Y-76380114D01*
X69565500Y-76391500D01*
X68358853Y-76391500D01*
X68290732Y-76371498D01*
X68244239Y-76317842D01*
X68237957Y-76300998D01*
X68228525Y-76268876D01*
X68227135Y-76267671D01*
X68219452Y-76266000D01*
X65785116Y-76266000D01*
X65769877Y-76270475D01*
X65768672Y-76271865D01*
X65767001Y-76279548D01*
X65767001Y-76309095D01*
X65767338Y-76315614D01*
X65777257Y-76411206D01*
X65780149Y-76424600D01*
X65831588Y-76578784D01*
X65837761Y-76591962D01*
X65923063Y-76729807D01*
X65932099Y-76741208D01*
X66046828Y-76855738D01*
X66055762Y-76862794D01*
X66096823Y-76920712D01*
X66100053Y-76991635D01*
X66064426Y-77053046D01*
X66056593Y-77059846D01*
X66050652Y-77063522D01*
X65925695Y-77188697D01*
X65921855Y-77194927D01*
X65921854Y-77194928D01*
X65837816Y-77331263D01*
X65832885Y-77339262D01*
X65824448Y-77364698D01*
X65782176Y-77492147D01*
X65777203Y-77507139D01*
X65766500Y-77611600D01*
X65766500Y-78212400D01*
X65777474Y-78318166D01*
X65779566Y-78324437D01*
X65774402Y-78395137D01*
X65731769Y-78451908D01*
X65665211Y-78476617D01*
X65656516Y-78476925D01*
X64352449Y-78477943D01*
X63546123Y-78478573D01*
X63477987Y-78458624D01*
X63431452Y-78405005D01*
X63421294Y-78334739D01*
X63421428Y-78333989D01*
X63422797Y-78329861D01*
X63433500Y-78225400D01*
X63433500Y-77014594D01*
X63453502Y-76946473D01*
X63470405Y-76925499D01*
X64725500Y-75670404D01*
X64787812Y-75636378D01*
X64814595Y-75633499D01*
X65031634Y-75633499D01*
X65034492Y-75633236D01*
X65034501Y-75633236D01*
X65070004Y-75629974D01*
X65105062Y-75626753D01*
X65121831Y-75621498D01*
X65261450Y-75577744D01*
X65261452Y-75577743D01*
X65268699Y-75575472D01*
X65415381Y-75486639D01*
X65506615Y-75395405D01*
X65568927Y-75361379D01*
X65595710Y-75358500D01*
X65685657Y-75358500D01*
X65753778Y-75378502D01*
X65800271Y-75432158D01*
X65810375Y-75502432D01*
X65805250Y-75524167D01*
X65779863Y-75600707D01*
X65776995Y-75614086D01*
X65767328Y-75708438D01*
X65767000Y-75714855D01*
X65767000Y-75739885D01*
X65771475Y-75755124D01*
X65772865Y-75756329D01*
X65780548Y-75758000D01*
X68214884Y-75758000D01*
X68230123Y-75753525D01*
X68231328Y-75752135D01*
X68232999Y-75744452D01*
X68232999Y-75714905D01*
X68232662Y-75708386D01*
X68222743Y-75612794D01*
X68219850Y-75599397D01*
X68184197Y-75492528D01*
X68181613Y-75421579D01*
X68217797Y-75360495D01*
X68252473Y-75337546D01*
X68350719Y-75293805D01*
X68350726Y-75293801D01*
X68356752Y-75291118D01*
X68368723Y-75282421D01*
X68459219Y-75216671D01*
X68511253Y-75178866D01*
X68515675Y-75173955D01*
X68634621Y-75041852D01*
X68634622Y-75041851D01*
X68639040Y-75036944D01*
X68727080Y-74884454D01*
X68731223Y-74877279D01*
X68731224Y-74877278D01*
X68734527Y-74871556D01*
X68793542Y-74689928D01*
X68799945Y-74629012D01*
X68812814Y-74506565D01*
X68813504Y-74500000D01*
X68804165Y-74411146D01*
X68794232Y-74316635D01*
X68794232Y-74316633D01*
X68793542Y-74310072D01*
X68734527Y-74128444D01*
X68639040Y-73963056D01*
X68511253Y-73821134D01*
X68390654Y-73733513D01*
X68362094Y-73712763D01*
X68362093Y-73712762D01*
X68356752Y-73708882D01*
X68350724Y-73706198D01*
X68350722Y-73706197D01*
X68188319Y-73633891D01*
X68188318Y-73633891D01*
X68182288Y-73631206D01*
X68088888Y-73611353D01*
X68001944Y-73592872D01*
X68001939Y-73592872D01*
X67995487Y-73591500D01*
X67939595Y-73591500D01*
X67871474Y-73571498D01*
X67850500Y-73554595D01*
X67368999Y-73073094D01*
X67334973Y-73010782D01*
X67340038Y-72939967D01*
X67382585Y-72883131D01*
X67449105Y-72858320D01*
X67458094Y-72857999D01*
X67522095Y-72857999D01*
X67528614Y-72857662D01*
X67624206Y-72847743D01*
X67637600Y-72844851D01*
X67791784Y-72793412D01*
X67804962Y-72787239D01*
X67942807Y-72701937D01*
X67954208Y-72692901D01*
X68068739Y-72578171D01*
X68077751Y-72566760D01*
X68162816Y-72428757D01*
X68168963Y-72415576D01*
X68220138Y-72261290D01*
X68223005Y-72247914D01*
X68232672Y-72153562D01*
X68233000Y-72147146D01*
X68233000Y-72122115D01*
X68228525Y-72106876D01*
X68227135Y-72105671D01*
X68219452Y-72104000D01*
X65785116Y-72104000D01*
X65769877Y-72108475D01*
X65768672Y-72109865D01*
X65767001Y-72117548D01*
X65767001Y-72147095D01*
X65767338Y-72153614D01*
X65777257Y-72249206D01*
X65780149Y-72262600D01*
X65784494Y-72275624D01*
X65787078Y-72346574D01*
X65750894Y-72407658D01*
X65687430Y-72439482D01*
X65664970Y-72441500D01*
X65595710Y-72441500D01*
X65527589Y-72421498D01*
X65506615Y-72404595D01*
X65415381Y-72313361D01*
X65268699Y-72224528D01*
X65261452Y-72222257D01*
X65261450Y-72222256D01*
X65195164Y-72201483D01*
X65105062Y-72173247D01*
X65031635Y-72166500D01*
X65001690Y-72166500D01*
X64514595Y-72166501D01*
X64446474Y-72146499D01*
X64425500Y-72129596D01*
X63370405Y-71074500D01*
X63336379Y-71012188D01*
X63333500Y-70985405D01*
X63333500Y-69774600D01*
X63331712Y-69757361D01*
X63323237Y-69675687D01*
X63322526Y-69668834D01*
X63320346Y-69662301D01*
X63320086Y-69661095D01*
X63325259Y-69590288D01*
X63367892Y-69533517D01*
X63434450Y-69508807D01*
X63443247Y-69508500D01*
X64331021Y-69508500D01*
X64399142Y-69528502D01*
G37*
G04 #@! TD.AperFunction*
G04 #@! TA.AperFunction,Conductor*
G36*
X92984121Y-69528502D02*
G01*
X93030614Y-69582158D01*
X93042000Y-69634500D01*
X93042000Y-70427885D01*
X93046475Y-70443124D01*
X93047865Y-70444329D01*
X93055548Y-70446000D01*
X95189884Y-70446000D01*
X95205123Y-70441525D01*
X95206328Y-70440135D01*
X95207999Y-70432452D01*
X95207999Y-69634500D01*
X95228001Y-69566379D01*
X95281657Y-69519886D01*
X95333999Y-69508500D01*
X95865500Y-69508500D01*
X95933621Y-69528502D01*
X95980114Y-69582158D01*
X95991500Y-69634500D01*
X95991500Y-71850400D01*
X95991837Y-71853646D01*
X95991837Y-71853650D01*
X96001752Y-71949206D01*
X96002474Y-71956166D01*
X96004655Y-71962702D01*
X96004655Y-71962704D01*
X96025047Y-72023826D01*
X96058450Y-72123946D01*
X96151522Y-72274348D01*
X96152290Y-72275115D01*
X96177964Y-72338549D01*
X96164792Y-72408313D01*
X96153553Y-72425834D01*
X96150695Y-72428697D01*
X96146853Y-72434929D01*
X96146852Y-72434931D01*
X96065591Y-72566760D01*
X96057885Y-72579262D01*
X96047856Y-72609499D01*
X96009317Y-72725692D01*
X96002203Y-72747139D01*
X96001503Y-72753975D01*
X96001502Y-72753978D01*
X95999553Y-72773005D01*
X95991500Y-72851600D01*
X95991500Y-75152400D01*
X95991837Y-75155646D01*
X95991837Y-75155650D01*
X96001752Y-75251206D01*
X96002474Y-75258166D01*
X96004655Y-75264702D01*
X96004655Y-75264704D01*
X96042621Y-75378502D01*
X96058450Y-75425946D01*
X96151522Y-75576348D01*
X96152290Y-75577115D01*
X96177964Y-75640549D01*
X96164792Y-75710313D01*
X96153553Y-75727834D01*
X96150695Y-75730697D01*
X96146853Y-75736929D01*
X96146852Y-75736931D01*
X96086330Y-75835116D01*
X96057885Y-75881262D01*
X96002203Y-76049139D01*
X96001503Y-76055975D01*
X96001502Y-76055978D01*
X95999322Y-76077257D01*
X95991500Y-76153600D01*
X95991500Y-78327323D01*
X95971498Y-78395444D01*
X95917842Y-78441937D01*
X95865599Y-78453323D01*
X95625748Y-78453511D01*
X95334098Y-78453739D01*
X95265962Y-78433790D01*
X95219427Y-78380171D01*
X95208000Y-78327739D01*
X95208000Y-77576115D01*
X95203525Y-77560876D01*
X95202135Y-77559671D01*
X95194452Y-77558000D01*
X93060116Y-77558000D01*
X93044877Y-77562475D01*
X93043672Y-77563865D01*
X93042001Y-77571548D01*
X93042001Y-78329627D01*
X93021999Y-78397748D01*
X92968343Y-78444241D01*
X92916099Y-78455627D01*
X90745527Y-78457323D01*
X90616545Y-78457424D01*
X90548409Y-78437475D01*
X90501874Y-78383856D01*
X90491716Y-78313590D01*
X90521158Y-78248986D01*
X90527352Y-78242329D01*
X91249277Y-77520404D01*
X91311589Y-77486378D01*
X91338372Y-77483499D01*
X91453634Y-77483499D01*
X91456492Y-77483236D01*
X91456501Y-77483236D01*
X91492004Y-77479974D01*
X91527062Y-77476753D01*
X91561311Y-77466020D01*
X91683450Y-77427744D01*
X91683452Y-77427743D01*
X91690699Y-77425472D01*
X91837381Y-77336639D01*
X91958639Y-77215381D01*
X92047472Y-77068699D01*
X92051775Y-77054970D01*
X92059009Y-77031885D01*
X93042000Y-77031885D01*
X93046475Y-77047124D01*
X93047865Y-77048329D01*
X93055548Y-77050000D01*
X93852885Y-77050000D01*
X93868124Y-77045525D01*
X93869329Y-77044135D01*
X93871000Y-77036452D01*
X93871000Y-77031885D01*
X94379000Y-77031885D01*
X94383475Y-77047124D01*
X94384865Y-77048329D01*
X94392548Y-77050000D01*
X95189884Y-77050000D01*
X95205123Y-77045525D01*
X95206328Y-77044135D01*
X95207999Y-77036452D01*
X95207999Y-76156905D01*
X95207662Y-76150386D01*
X95197743Y-76054794D01*
X95194851Y-76041400D01*
X95143412Y-75887216D01*
X95137239Y-75874038D01*
X95051934Y-75736189D01*
X95048029Y-75731261D01*
X95021394Y-75665450D01*
X95034567Y-75595686D01*
X95047897Y-75574905D01*
X95052753Y-75568757D01*
X95137816Y-75430757D01*
X95143963Y-75417576D01*
X95195138Y-75263290D01*
X95198005Y-75249914D01*
X95207672Y-75155562D01*
X95208000Y-75149146D01*
X95208000Y-74274115D01*
X95203525Y-74258876D01*
X95202135Y-74257671D01*
X95194452Y-74256000D01*
X94397115Y-74256000D01*
X94381876Y-74260475D01*
X94380671Y-74261865D01*
X94379000Y-74269548D01*
X94379000Y-77031885D01*
X93871000Y-77031885D01*
X93871000Y-74274115D01*
X93866525Y-74258876D01*
X93865135Y-74257671D01*
X93857452Y-74256000D01*
X93060116Y-74256000D01*
X93044877Y-74260475D01*
X93043672Y-74261865D01*
X93042001Y-74269548D01*
X93042001Y-75149095D01*
X93042338Y-75155614D01*
X93052257Y-75251206D01*
X93055149Y-75264600D01*
X93106588Y-75418784D01*
X93112761Y-75431962D01*
X93198066Y-75569811D01*
X93201971Y-75574739D01*
X93228606Y-75640550D01*
X93215433Y-75710314D01*
X93202103Y-75731095D01*
X93197247Y-75737243D01*
X93112184Y-75875243D01*
X93106037Y-75888424D01*
X93054862Y-76042710D01*
X93051995Y-76056086D01*
X93042328Y-76150438D01*
X93042000Y-76156855D01*
X93042000Y-77031885D01*
X92059009Y-77031885D01*
X92075440Y-76979453D01*
X92098753Y-76905062D01*
X92105500Y-76831635D01*
X92105499Y-76168366D01*
X92104443Y-76156866D01*
X92099364Y-76101592D01*
X92098753Y-76094938D01*
X92095675Y-76085116D01*
X92049744Y-75938550D01*
X92049743Y-75938548D01*
X92047472Y-75931301D01*
X91973724Y-75809527D01*
X91955500Y-75744257D01*
X91955500Y-75477743D01*
X91973724Y-75412472D01*
X91977111Y-75406880D01*
X92047472Y-75290699D01*
X92050460Y-75281166D01*
X92079110Y-75189742D01*
X92098753Y-75127062D01*
X92105500Y-75053635D01*
X92105499Y-74390366D01*
X92098753Y-74316938D01*
X92087577Y-74281274D01*
X92049744Y-74160550D01*
X92049743Y-74160548D01*
X92047472Y-74153301D01*
X91973724Y-74031527D01*
X91955500Y-73966257D01*
X91955500Y-73729885D01*
X93042000Y-73729885D01*
X93046475Y-73745124D01*
X93047865Y-73746329D01*
X93055548Y-73748000D01*
X93852885Y-73748000D01*
X93868124Y-73743525D01*
X93869329Y-73742135D01*
X93871000Y-73734452D01*
X93871000Y-73729885D01*
X94379000Y-73729885D01*
X94383475Y-73745124D01*
X94384865Y-73746329D01*
X94392548Y-73748000D01*
X95189884Y-73748000D01*
X95205123Y-73743525D01*
X95206328Y-73742135D01*
X95207999Y-73734452D01*
X95207999Y-72854905D01*
X95207662Y-72848386D01*
X95197743Y-72752794D01*
X95194851Y-72739400D01*
X95143412Y-72585216D01*
X95137239Y-72572038D01*
X95051934Y-72434189D01*
X95048029Y-72429261D01*
X95021394Y-72363450D01*
X95034567Y-72293686D01*
X95047897Y-72272905D01*
X95052753Y-72266757D01*
X95137816Y-72128757D01*
X95143963Y-72115576D01*
X95195138Y-71961290D01*
X95198005Y-71947914D01*
X95207672Y-71853562D01*
X95208000Y-71847146D01*
X95208000Y-70972115D01*
X95203525Y-70956876D01*
X95202135Y-70955671D01*
X95194452Y-70954000D01*
X94397115Y-70954000D01*
X94381876Y-70958475D01*
X94380671Y-70959865D01*
X94379000Y-70967548D01*
X94379000Y-73729885D01*
X93871000Y-73729885D01*
X93871000Y-70972115D01*
X93866525Y-70956876D01*
X93865135Y-70955671D01*
X93857452Y-70954000D01*
X93060116Y-70954000D01*
X93044877Y-70958475D01*
X93043672Y-70959865D01*
X93042001Y-70967548D01*
X93042001Y-71847095D01*
X93042338Y-71853614D01*
X93052257Y-71949206D01*
X93055149Y-71962600D01*
X93106588Y-72116784D01*
X93112761Y-72129962D01*
X93198066Y-72267811D01*
X93201971Y-72272739D01*
X93228606Y-72338550D01*
X93215433Y-72408314D01*
X93202103Y-72429095D01*
X93197247Y-72435243D01*
X93112184Y-72573243D01*
X93106037Y-72586424D01*
X93054862Y-72740710D01*
X93051995Y-72754086D01*
X93042328Y-72848438D01*
X93042000Y-72854855D01*
X93042000Y-73729885D01*
X91955500Y-73729885D01*
X91955500Y-73699743D01*
X91973724Y-73634472D01*
X91981598Y-73621471D01*
X92047472Y-73512699D01*
X92049888Y-73504992D01*
X92070517Y-73439164D01*
X92098753Y-73349062D01*
X92105500Y-73275635D01*
X92105499Y-72612366D01*
X92103697Y-72592745D01*
X92099866Y-72551054D01*
X92098753Y-72538938D01*
X92074585Y-72461819D01*
X92049744Y-72382550D01*
X92049743Y-72382548D01*
X92047472Y-72375301D01*
X91973724Y-72253527D01*
X91955500Y-72188257D01*
X91955500Y-71921743D01*
X91973724Y-71856472D01*
X91975465Y-71853598D01*
X92047472Y-71734699D01*
X92055683Y-71708500D01*
X92073021Y-71653171D01*
X92098753Y-71571062D01*
X92105500Y-71497635D01*
X92105499Y-70834366D01*
X92105234Y-70831474D01*
X92101169Y-70787237D01*
X92098753Y-70760938D01*
X92090230Y-70733741D01*
X92049744Y-70604550D01*
X92049743Y-70604548D01*
X92047472Y-70597301D01*
X91958639Y-70450619D01*
X91837381Y-70329361D01*
X91690699Y-70240528D01*
X91683452Y-70238257D01*
X91683450Y-70238256D01*
X91617164Y-70217483D01*
X91527062Y-70189247D01*
X91453635Y-70182500D01*
X91450737Y-70182500D01*
X91196335Y-70182501D01*
X90940366Y-70182501D01*
X90937508Y-70182764D01*
X90937499Y-70182764D01*
X90901996Y-70186026D01*
X90866938Y-70189247D01*
X90860560Y-70191246D01*
X90860559Y-70191246D01*
X90710550Y-70238256D01*
X90710548Y-70238257D01*
X90703301Y-70240528D01*
X90556619Y-70329361D01*
X90461095Y-70424885D01*
X90398783Y-70458911D01*
X90327968Y-70453846D01*
X90282905Y-70424885D01*
X90187381Y-70329361D01*
X90040699Y-70240528D01*
X90033452Y-70238257D01*
X90033450Y-70238256D01*
X89967164Y-70217483D01*
X89877062Y-70189247D01*
X89803635Y-70182500D01*
X89800737Y-70182500D01*
X89546335Y-70182501D01*
X89290366Y-70182501D01*
X89287508Y-70182764D01*
X89287499Y-70182764D01*
X89251996Y-70186026D01*
X89216938Y-70189247D01*
X89210560Y-70191246D01*
X89210559Y-70191246D01*
X89060550Y-70238256D01*
X89060548Y-70238257D01*
X89053301Y-70240528D01*
X88906619Y-70329361D01*
X88785361Y-70450619D01*
X88696528Y-70597301D01*
X88694257Y-70604548D01*
X88694256Y-70604550D01*
X88679950Y-70650200D01*
X88645247Y-70760938D01*
X88638500Y-70834365D01*
X88638501Y-71006231D01*
X88638501Y-71126404D01*
X88618499Y-71194524D01*
X88601596Y-71215500D01*
X88032307Y-71784788D01*
X87969995Y-71818813D01*
X87899179Y-71813748D01*
X87879073Y-71804145D01*
X87770427Y-71739892D01*
X87770428Y-71739892D01*
X87763601Y-71735855D01*
X87755990Y-71733644D01*
X87755988Y-71733643D01*
X87686175Y-71713361D01*
X87603831Y-71689438D01*
X87597426Y-71688934D01*
X87597421Y-71688933D01*
X87568958Y-71686693D01*
X87568950Y-71686693D01*
X87566502Y-71686500D01*
X85783498Y-71686500D01*
X85781050Y-71686693D01*
X85781042Y-71686693D01*
X85752579Y-71688933D01*
X85752574Y-71688934D01*
X85746169Y-71689438D01*
X85663825Y-71713361D01*
X85594012Y-71733643D01*
X85594010Y-71733644D01*
X85586399Y-71735855D01*
X85579572Y-71739892D01*
X85579573Y-71739892D01*
X85450020Y-71816509D01*
X85450017Y-71816511D01*
X85443193Y-71820547D01*
X85325547Y-71938193D01*
X85321511Y-71945017D01*
X85321509Y-71945020D01*
X85274904Y-72023826D01*
X85240855Y-72081399D01*
X85238644Y-72089010D01*
X85238643Y-72089012D01*
X85227676Y-72126762D01*
X85194438Y-72241169D01*
X85193934Y-72247574D01*
X85193933Y-72247579D01*
X85191693Y-72276042D01*
X85191500Y-72278498D01*
X85191500Y-72711502D01*
X85191693Y-72713950D01*
X85191693Y-72713958D01*
X85193799Y-72740710D01*
X85194438Y-72748831D01*
X85207390Y-72793412D01*
X85238586Y-72900790D01*
X85240855Y-72908601D01*
X85276686Y-72969188D01*
X85309737Y-73025073D01*
X85325547Y-73051807D01*
X85328487Y-73054747D01*
X85353820Y-73119266D01*
X85339921Y-73188889D01*
X85327874Y-73207636D01*
X85321910Y-73215324D01*
X85245352Y-73344779D01*
X85239107Y-73359210D01*
X85200061Y-73493605D01*
X85200101Y-73507706D01*
X85207370Y-73511000D01*
X88136878Y-73511000D01*
X88150409Y-73507027D01*
X88151544Y-73499129D01*
X88110893Y-73359210D01*
X88104646Y-73344775D01*
X88089779Y-73319635D01*
X88072320Y-73250819D01*
X88094837Y-73183488D01*
X88150182Y-73139019D01*
X88194274Y-73129559D01*
X88225986Y-73128562D01*
X88229945Y-73128500D01*
X88257856Y-73128500D01*
X88261791Y-73128003D01*
X88261856Y-73127995D01*
X88273693Y-73127062D01*
X88305951Y-73126048D01*
X88309970Y-73125922D01*
X88317889Y-73125673D01*
X88337343Y-73120021D01*
X88356700Y-73116013D01*
X88368930Y-73114468D01*
X88368931Y-73114468D01*
X88376797Y-73113474D01*
X88384168Y-73110555D01*
X88384170Y-73110555D01*
X88417912Y-73097196D01*
X88429142Y-73093351D01*
X88444025Y-73089027D01*
X88471592Y-73081018D01*
X88472037Y-73082549D01*
X88533426Y-73074974D01*
X88597403Y-73105754D01*
X88634584Y-73166237D01*
X88639001Y-73199308D01*
X88639001Y-73272705D01*
X88639264Y-73278454D01*
X88645132Y-73342315D01*
X88647743Y-73355351D01*
X88694715Y-73505243D01*
X88700921Y-73518988D01*
X88781824Y-73652574D01*
X88791131Y-73664443D01*
X88870593Y-73743905D01*
X88904619Y-73806217D01*
X88899554Y-73877032D01*
X88870593Y-73922095D01*
X88791131Y-74001557D01*
X88781824Y-74013426D01*
X88700921Y-74147012D01*
X88694715Y-74160757D01*
X88647744Y-74310644D01*
X88645131Y-74323694D01*
X88639266Y-74387521D01*
X88639000Y-74393309D01*
X88639000Y-74449885D01*
X88643475Y-74465124D01*
X88644865Y-74466329D01*
X88652548Y-74468000D01*
X89274885Y-74468000D01*
X89290124Y-74463525D01*
X89291329Y-74462135D01*
X89293000Y-74454452D01*
X89293000Y-72816000D01*
X89313002Y-72747879D01*
X89366658Y-72701386D01*
X89419000Y-72690000D01*
X89675000Y-72690000D01*
X89743121Y-72710002D01*
X89789614Y-72763658D01*
X89801000Y-72816000D01*
X89801000Y-74850000D01*
X89780998Y-74918121D01*
X89727342Y-74964614D01*
X89675000Y-74976000D01*
X88657116Y-74976000D01*
X88641877Y-74980475D01*
X88640672Y-74981865D01*
X88639001Y-74989548D01*
X88639001Y-75050705D01*
X88639264Y-75056454D01*
X88645132Y-75120315D01*
X88647743Y-75133351D01*
X88694715Y-75283243D01*
X88700921Y-75296988D01*
X88781824Y-75430574D01*
X88791131Y-75442443D01*
X88800093Y-75451405D01*
X88834119Y-75513717D01*
X88829054Y-75584532D01*
X88786507Y-75641368D01*
X88719987Y-75666179D01*
X88710998Y-75666500D01*
X88200600Y-75666500D01*
X88132479Y-75646498D01*
X88085986Y-75592842D01*
X88075882Y-75522568D01*
X88092146Y-75476361D01*
X88104648Y-75455221D01*
X88110893Y-75440790D01*
X88149939Y-75306395D01*
X88149899Y-75292294D01*
X88142630Y-75289000D01*
X85213122Y-75289000D01*
X85199591Y-75292973D01*
X85198456Y-75300871D01*
X85239107Y-75440790D01*
X85245352Y-75455221D01*
X85321911Y-75584677D01*
X85327871Y-75592360D01*
X85353820Y-75658444D01*
X85339922Y-75728067D01*
X85329579Y-75744161D01*
X85325547Y-75748193D01*
X85240855Y-75891399D01*
X85238644Y-75899010D01*
X85238643Y-75899012D01*
X85225023Y-75945895D01*
X85194438Y-76051169D01*
X85193934Y-76057574D01*
X85193933Y-76057579D01*
X85191766Y-76085116D01*
X85191500Y-76088498D01*
X85191500Y-76521502D01*
X85191693Y-76523950D01*
X85191693Y-76523958D01*
X85193539Y-76547405D01*
X85194438Y-76558831D01*
X85212673Y-76621598D01*
X85234820Y-76697827D01*
X85240855Y-76718601D01*
X85319371Y-76851363D01*
X85336829Y-76920177D01*
X85314312Y-76987508D01*
X85258968Y-77031978D01*
X85210916Y-77041500D01*
X83189084Y-77041500D01*
X83120963Y-77021498D01*
X83074470Y-76967842D01*
X83064366Y-76897568D01*
X83080629Y-76851364D01*
X83159145Y-76718601D01*
X83165181Y-76697827D01*
X83187327Y-76621598D01*
X83205562Y-76558831D01*
X83206462Y-76547405D01*
X83208307Y-76523958D01*
X83208307Y-76523950D01*
X83208500Y-76521502D01*
X83208500Y-76088498D01*
X83208234Y-76085116D01*
X83206067Y-76057579D01*
X83206066Y-76057574D01*
X83205562Y-76051169D01*
X83174977Y-75945895D01*
X83161357Y-75899012D01*
X83161356Y-75899010D01*
X83159145Y-75891399D01*
X83074453Y-75748193D01*
X83071771Y-75745511D01*
X83046498Y-75681139D01*
X83060400Y-75611516D01*
X83070573Y-75595687D01*
X83074453Y-75591807D01*
X83159145Y-75448601D01*
X83161415Y-75440790D01*
X83194053Y-75328444D01*
X83205562Y-75288831D01*
X83206166Y-75281166D01*
X83208307Y-75253958D01*
X83208307Y-75253950D01*
X83208500Y-75251502D01*
X83208500Y-74818498D01*
X83207711Y-74808475D01*
X83206067Y-74787579D01*
X83206066Y-74787574D01*
X83205562Y-74781169D01*
X83161944Y-74631034D01*
X83161357Y-74629012D01*
X83161356Y-74629010D01*
X83159145Y-74621399D01*
X83074453Y-74478193D01*
X83071771Y-74475511D01*
X83046498Y-74411139D01*
X83060400Y-74341516D01*
X83070572Y-74325688D01*
X83074453Y-74321807D01*
X83159145Y-74178601D01*
X83161415Y-74170790D01*
X83200459Y-74036395D01*
X83202064Y-74030871D01*
X85198456Y-74030871D01*
X85239107Y-74170790D01*
X85245352Y-74185221D01*
X85321912Y-74314678D01*
X85328189Y-74322770D01*
X85354139Y-74388854D01*
X85340241Y-74458477D01*
X85328189Y-74477230D01*
X85321912Y-74485322D01*
X85245352Y-74614779D01*
X85239107Y-74629210D01*
X85200061Y-74763605D01*
X85200101Y-74777706D01*
X85207370Y-74781000D01*
X86402885Y-74781000D01*
X86418124Y-74776525D01*
X86419329Y-74775135D01*
X86421000Y-74767452D01*
X86421000Y-74762885D01*
X86929000Y-74762885D01*
X86933475Y-74778124D01*
X86934865Y-74779329D01*
X86942548Y-74781000D01*
X88136878Y-74781000D01*
X88150409Y-74777027D01*
X88151544Y-74769129D01*
X88110893Y-74629210D01*
X88104648Y-74614779D01*
X88028088Y-74485322D01*
X88021811Y-74477230D01*
X87995861Y-74411146D01*
X88009759Y-74341523D01*
X88021811Y-74322770D01*
X88028088Y-74314678D01*
X88104648Y-74185221D01*
X88110893Y-74170790D01*
X88149939Y-74036395D01*
X88149899Y-74022294D01*
X88142630Y-74019000D01*
X86947115Y-74019000D01*
X86931876Y-74023475D01*
X86930671Y-74024865D01*
X86929000Y-74032548D01*
X86929000Y-74762885D01*
X86421000Y-74762885D01*
X86421000Y-74037115D01*
X86416525Y-74021876D01*
X86415135Y-74020671D01*
X86407452Y-74019000D01*
X85213122Y-74019000D01*
X85199591Y-74022973D01*
X85198456Y-74030871D01*
X83202064Y-74030871D01*
X83205562Y-74018831D01*
X83206524Y-74006619D01*
X83208307Y-73983958D01*
X83208307Y-73983950D01*
X83208500Y-73981502D01*
X83208500Y-73548498D01*
X83207320Y-73533500D01*
X83206067Y-73517579D01*
X83206066Y-73517574D01*
X83205562Y-73511169D01*
X83167821Y-73381263D01*
X83161357Y-73359012D01*
X83161356Y-73359010D01*
X83159145Y-73351399D01*
X83095306Y-73243454D01*
X83078493Y-73215024D01*
X83078492Y-73215023D01*
X83074453Y-73208193D01*
X83071513Y-73205253D01*
X83046180Y-73140734D01*
X83060079Y-73071111D01*
X83072126Y-73052364D01*
X83078090Y-73044676D01*
X83154648Y-72915221D01*
X83160893Y-72900790D01*
X83199939Y-72766395D01*
X83199899Y-72752294D01*
X83192630Y-72749000D01*
X80263122Y-72749000D01*
X80247883Y-72753475D01*
X80242962Y-72759154D01*
X80183236Y-72797538D01*
X80112239Y-72797538D01*
X80058642Y-72765737D01*
X79892405Y-72599500D01*
X79858379Y-72537188D01*
X79855500Y-72510405D01*
X79855499Y-72221249D01*
X79855499Y-72218366D01*
X79854371Y-72206081D01*
X79849364Y-72151592D01*
X79848753Y-72144938D01*
X79843057Y-72126762D01*
X79799744Y-71988550D01*
X79799743Y-71988548D01*
X79797472Y-71981301D01*
X79708639Y-71834619D01*
X79587381Y-71713361D01*
X79517175Y-71670843D01*
X79469268Y-71618446D01*
X79457295Y-71548466D01*
X79485056Y-71483122D01*
X79517175Y-71455291D01*
X79547956Y-71436650D01*
X79557881Y-71430639D01*
X79679139Y-71309381D01*
X79691949Y-71288229D01*
X79744346Y-71240322D01*
X79799725Y-71227500D01*
X80966239Y-71227500D01*
X81034360Y-71247502D01*
X81073382Y-71287196D01*
X81159703Y-71426689D01*
X81164885Y-71431862D01*
X81204921Y-71471828D01*
X81239000Y-71534110D01*
X81233997Y-71604930D01*
X81191500Y-71661803D01*
X81125002Y-71686672D01*
X81115903Y-71687001D01*
X80836017Y-71687001D01*
X80831080Y-71687195D01*
X80802664Y-71689430D01*
X80790069Y-71691730D01*
X80644210Y-71734107D01*
X80629779Y-71740352D01*
X80500322Y-71816911D01*
X80487896Y-71826551D01*
X80381551Y-71932896D01*
X80371911Y-71945322D01*
X80295352Y-72074779D01*
X80289107Y-72089210D01*
X80250061Y-72223605D01*
X80250101Y-72237706D01*
X80257370Y-72241000D01*
X83186878Y-72241000D01*
X83200409Y-72237027D01*
X83201544Y-72229129D01*
X83160893Y-72089210D01*
X83154648Y-72074779D01*
X83078089Y-71945322D01*
X83068449Y-71932896D01*
X82962104Y-71826551D01*
X82949678Y-71816911D01*
X82820221Y-71740352D01*
X82805786Y-71734105D01*
X82794221Y-71730745D01*
X82734386Y-71692530D01*
X82704711Y-71628033D01*
X82714616Y-71557731D01*
X82740204Y-71520731D01*
X82761952Y-71498946D01*
X82835117Y-71425653D01*
X82837114Y-71422413D01*
X82893852Y-71382186D01*
X82964775Y-71378953D01*
X83026187Y-71414578D01*
X83033566Y-71423078D01*
X83040282Y-71431552D01*
X83153979Y-71545051D01*
X83165390Y-71554063D01*
X83302154Y-71638365D01*
X83315332Y-71644509D01*
X83468240Y-71695227D01*
X83481606Y-71698093D01*
X83575101Y-71707672D01*
X83581516Y-71708000D01*
X83599885Y-71708000D01*
X83615124Y-71703525D01*
X83616329Y-71702135D01*
X83618000Y-71694452D01*
X83618000Y-71689884D01*
X84126000Y-71689884D01*
X84130475Y-71705123D01*
X84131865Y-71706328D01*
X84139548Y-71707999D01*
X84162433Y-71707999D01*
X84168952Y-71707662D01*
X84263670Y-71697834D01*
X84277064Y-71694942D01*
X84429865Y-71643964D01*
X84443043Y-71637790D01*
X84579649Y-71553256D01*
X84591050Y-71544220D01*
X84704551Y-71430521D01*
X84713563Y-71419110D01*
X84797865Y-71282346D01*
X84804009Y-71269168D01*
X84854727Y-71116260D01*
X84857593Y-71102894D01*
X84867172Y-71009399D01*
X84867500Y-71002984D01*
X84867500Y-70772115D01*
X84863025Y-70756876D01*
X84861635Y-70755671D01*
X84853952Y-70754000D01*
X84144115Y-70754000D01*
X84128876Y-70758475D01*
X84127671Y-70759865D01*
X84126000Y-70767548D01*
X84126000Y-71689884D01*
X83618000Y-71689884D01*
X83618000Y-70372000D01*
X83638002Y-70303879D01*
X83691658Y-70257386D01*
X83744000Y-70246000D01*
X84849384Y-70246000D01*
X84864623Y-70241525D01*
X84865828Y-70240135D01*
X84867499Y-70232452D01*
X84867499Y-69997067D01*
X84867162Y-69990548D01*
X84857334Y-69895830D01*
X84854442Y-69882436D01*
X84803464Y-69729635D01*
X84797291Y-69716459D01*
X84787603Y-69700802D01*
X84768766Y-69632350D01*
X84789928Y-69564580D01*
X84844369Y-69519010D01*
X84894748Y-69508500D01*
X92916000Y-69508500D01*
X92984121Y-69528502D01*
G37*
G04 #@! TD.AperFunction*
G04 #@! TA.AperFunction,Conductor*
G36*
X73062680Y-73131665D02*
G01*
X73067268Y-73135295D01*
X73070667Y-73138082D01*
X73126285Y-73185333D01*
X73132798Y-73188659D01*
X73137837Y-73192020D01*
X73142979Y-73195196D01*
X73148716Y-73199734D01*
X73214875Y-73230655D01*
X73218769Y-73232558D01*
X73283808Y-73265769D01*
X73290917Y-73267508D01*
X73296551Y-73269604D01*
X73302321Y-73271523D01*
X73308950Y-73274622D01*
X73316113Y-73276112D01*
X73316116Y-73276113D01*
X73366830Y-73286661D01*
X73380435Y-73289491D01*
X73384701Y-73290457D01*
X73455610Y-73307808D01*
X73461212Y-73308156D01*
X73461215Y-73308156D01*
X73466764Y-73308500D01*
X73466762Y-73308535D01*
X73470734Y-73308775D01*
X73474955Y-73309152D01*
X73482115Y-73310641D01*
X73559542Y-73308546D01*
X73562950Y-73308500D01*
X76526290Y-73308500D01*
X76594411Y-73328502D01*
X76615385Y-73345405D01*
X76656619Y-73386639D01*
X76697573Y-73411441D01*
X76748884Y-73442516D01*
X76796791Y-73494913D01*
X76808764Y-73564893D01*
X76781003Y-73630237D01*
X76748884Y-73658068D01*
X76663429Y-73709821D01*
X76651557Y-73719131D01*
X76541131Y-73829557D01*
X76531824Y-73841426D01*
X76450921Y-73975012D01*
X76444715Y-73988757D01*
X76397744Y-74138644D01*
X76395131Y-74151694D01*
X76389266Y-74215521D01*
X76389000Y-74221309D01*
X76389000Y-74277885D01*
X76393475Y-74293124D01*
X76394865Y-74294329D01*
X76402548Y-74296000D01*
X77425000Y-74296000D01*
X77493121Y-74316002D01*
X77539614Y-74369658D01*
X77551000Y-74422000D01*
X77551000Y-75514884D01*
X77555475Y-75530123D01*
X77556865Y-75531328D01*
X77561294Y-75532291D01*
X77620315Y-75526868D01*
X77633351Y-75524257D01*
X77783243Y-75477285D01*
X77796988Y-75471079D01*
X77914759Y-75399754D01*
X77983389Y-75381575D01*
X78050953Y-75403385D01*
X78095999Y-75458261D01*
X78105341Y-75520700D01*
X78086496Y-75700000D01*
X78106278Y-75888209D01*
X78106333Y-75888734D01*
X78093561Y-75958573D01*
X78045059Y-76010419D01*
X77976226Y-76027814D01*
X77908916Y-76005233D01*
X77892005Y-75991078D01*
X77882171Y-75981261D01*
X77870760Y-75972249D01*
X77732757Y-75887184D01*
X77719576Y-75881037D01*
X77565290Y-75829862D01*
X77551914Y-75826995D01*
X77457562Y-75817328D01*
X77451145Y-75817000D01*
X77426115Y-75817000D01*
X77410876Y-75821475D01*
X77409671Y-75822865D01*
X77408000Y-75830548D01*
X77408000Y-77178000D01*
X77387998Y-77246121D01*
X77334342Y-77292614D01*
X77282000Y-77304000D01*
X76164116Y-77304000D01*
X76148877Y-77308475D01*
X76147672Y-77309865D01*
X76146001Y-77317548D01*
X76146001Y-77340020D01*
X76125999Y-77408141D01*
X76072343Y-77454634D01*
X76020001Y-77466020D01*
X74634500Y-77466020D01*
X74566379Y-77446018D01*
X74519886Y-77392362D01*
X74508500Y-77340020D01*
X74508500Y-76777885D01*
X76146000Y-76777885D01*
X76150475Y-76793124D01*
X76151865Y-76794329D01*
X76159548Y-76796000D01*
X76881885Y-76796000D01*
X76897124Y-76791525D01*
X76898329Y-76790135D01*
X76900000Y-76782452D01*
X76900000Y-75835116D01*
X76895525Y-75819877D01*
X76894135Y-75818672D01*
X76886452Y-75817001D01*
X76856905Y-75817001D01*
X76850386Y-75817338D01*
X76754794Y-75827257D01*
X76741400Y-75830149D01*
X76587216Y-75881588D01*
X76574038Y-75887761D01*
X76436193Y-75973063D01*
X76424792Y-75982099D01*
X76310261Y-76096829D01*
X76301249Y-76108240D01*
X76216184Y-76246243D01*
X76210037Y-76259424D01*
X76158862Y-76413710D01*
X76155995Y-76427086D01*
X76146328Y-76521438D01*
X76146000Y-76527855D01*
X76146000Y-76777885D01*
X74508500Y-76777885D01*
X74508500Y-76101866D01*
X74501745Y-76039684D01*
X74450615Y-75903295D01*
X74363261Y-75786739D01*
X74246705Y-75699385D01*
X74110316Y-75648255D01*
X74048134Y-75641500D01*
X72984500Y-75641500D01*
X72916379Y-75621498D01*
X72869886Y-75567842D01*
X72858500Y-75515500D01*
X72858500Y-74878705D01*
X76389001Y-74878705D01*
X76389264Y-74884454D01*
X76395132Y-74948315D01*
X76397743Y-74961351D01*
X76444715Y-75111243D01*
X76450921Y-75124988D01*
X76531824Y-75258574D01*
X76541131Y-75270443D01*
X76651557Y-75380869D01*
X76663426Y-75390176D01*
X76797012Y-75471079D01*
X76810757Y-75477285D01*
X76960644Y-75524256D01*
X76973694Y-75526869D01*
X77028586Y-75531913D01*
X77040124Y-75528525D01*
X77041329Y-75527135D01*
X77043000Y-75519452D01*
X77043000Y-74822115D01*
X77038525Y-74806876D01*
X77037135Y-74805671D01*
X77029452Y-74804000D01*
X76407116Y-74804000D01*
X76391877Y-74808475D01*
X76390672Y-74809865D01*
X76389001Y-74817548D01*
X76389001Y-74878705D01*
X72858500Y-74878705D01*
X72858500Y-73230477D01*
X72878502Y-73162356D01*
X72932158Y-73115863D01*
X73002432Y-73105759D01*
X73062680Y-73131665D01*
G37*
G04 #@! TD.AperFunction*
G04 #@! TA.AperFunction,Conductor*
G36*
X80271012Y-76697827D02*
G01*
X80296953Y-76728912D01*
X80371509Y-76854980D01*
X80371511Y-76854983D01*
X80375547Y-76861807D01*
X80410232Y-76896492D01*
X80444258Y-76958804D01*
X80439193Y-77029619D01*
X80396646Y-77086455D01*
X80385277Y-77094040D01*
X80358503Y-77109874D01*
X80346074Y-77119516D01*
X80332377Y-77133213D01*
X80270065Y-77167239D01*
X80199250Y-77162174D01*
X80154187Y-77133213D01*
X80099405Y-77078431D01*
X80065379Y-77016119D01*
X80062500Y-76989336D01*
X80062500Y-76793051D01*
X80082502Y-76724930D01*
X80136158Y-76678437D01*
X80206432Y-76668333D01*
X80271012Y-76697827D01*
G37*
G04 #@! TD.AperFunction*
G04 #@! TA.AperFunction,Conductor*
G36*
X76654878Y-69528502D02*
G01*
X76701371Y-69582158D01*
X76711475Y-69652432D01*
X76681981Y-69717012D01*
X76652030Y-69742275D01*
X76627119Y-69757361D01*
X76505861Y-69878619D01*
X76417028Y-70025301D01*
X76414757Y-70032548D01*
X76414756Y-70032550D01*
X76396282Y-70091500D01*
X76365747Y-70188938D01*
X76359000Y-70262365D01*
X76359001Y-70925634D01*
X76359264Y-70928492D01*
X76359264Y-70928501D01*
X76361871Y-70956876D01*
X76365747Y-70999062D01*
X76367746Y-71005440D01*
X76367746Y-71005441D01*
X76404310Y-71122115D01*
X76417028Y-71162699D01*
X76455001Y-71225400D01*
X76491988Y-71286473D01*
X76505861Y-71309381D01*
X76511236Y-71314756D01*
X76511654Y-71315289D01*
X76537946Y-71381238D01*
X76538500Y-71393036D01*
X76538500Y-71665500D01*
X76518498Y-71733621D01*
X76464842Y-71780114D01*
X76412500Y-71791500D01*
X75784000Y-71791500D01*
X75715879Y-71771498D01*
X75669386Y-71717842D01*
X75658000Y-71665500D01*
X75658000Y-71122115D01*
X75653525Y-71106876D01*
X75652135Y-71105671D01*
X75644452Y-71104000D01*
X74272000Y-71104000D01*
X74203879Y-71083998D01*
X74157386Y-71030342D01*
X74146000Y-70978000D01*
X74146000Y-70722000D01*
X74166002Y-70653879D01*
X74219658Y-70607386D01*
X74272000Y-70596000D01*
X75639884Y-70596000D01*
X75655123Y-70591525D01*
X75656328Y-70590135D01*
X75657999Y-70582452D01*
X75657999Y-69805331D01*
X75657629Y-69798510D01*
X75652105Y-69747648D01*
X75648479Y-69732397D01*
X75628360Y-69678730D01*
X75623177Y-69607923D01*
X75657097Y-69545554D01*
X75719352Y-69511425D01*
X75746342Y-69508500D01*
X76586757Y-69508500D01*
X76654878Y-69528502D01*
G37*
G04 #@! TD.AperFunction*
G04 #@! TD*
M02*
