G04 #@! TF.GenerationSoftware,KiCad,Pcbnew,(6.0.5-0)*
G04 #@! TF.CreationDate,2022-05-08T11:44:23-04:00*
G04 #@! TF.ProjectId,Receiver,52656365-6976-4657-922e-6b696361645f,rev?*
G04 #@! TF.SameCoordinates,Original*
G04 #@! TF.FileFunction,Paste,Top*
G04 #@! TF.FilePolarity,Positive*
%FSLAX46Y46*%
G04 Gerber Fmt 4.6, Leading zero omitted, Abs format (unit mm)*
G04 Created by KiCad (PCBNEW (6.0.5-0)) date 2022-05-08 11:44:23*
%MOMM*%
%LPD*%
G01*
G04 APERTURE LIST*
G04 Aperture macros list*
%AMRoundRect*
0 Rectangle with rounded corners*
0 $1 Rounding radius*
0 $2 $3 $4 $5 $6 $7 $8 $9 X,Y pos of 4 corners*
0 Add a 4 corners polygon primitive as box body*
4,1,4,$2,$3,$4,$5,$6,$7,$8,$9,$2,$3,0*
0 Add four circle primitives for the rounded corners*
1,1,$1+$1,$2,$3*
1,1,$1+$1,$4,$5*
1,1,$1+$1,$6,$7*
1,1,$1+$1,$8,$9*
0 Add four rect primitives between the rounded corners*
20,1,$1+$1,$2,$3,$4,$5,0*
20,1,$1+$1,$4,$5,$6,$7,0*
20,1,$1+$1,$6,$7,$8,$9,0*
20,1,$1+$1,$8,$9,$2,$3,0*%
G04 Aperture macros list end*
%ADD10RoundRect,0.150000X0.825000X0.150000X-0.825000X0.150000X-0.825000X-0.150000X0.825000X-0.150000X0*%
%ADD11RoundRect,0.200000X-0.200000X-0.275000X0.200000X-0.275000X0.200000X0.275000X-0.200000X0.275000X0*%
%ADD12RoundRect,0.200000X0.200000X0.275000X-0.200000X0.275000X-0.200000X-0.275000X0.200000X-0.275000X0*%
%ADD13RoundRect,0.250000X0.250000X0.475000X-0.250000X0.475000X-0.250000X-0.475000X0.250000X-0.475000X0*%
%ADD14RoundRect,0.250000X0.325000X1.100000X-0.325000X1.100000X-0.325000X-1.100000X0.325000X-1.100000X0*%
%ADD15RoundRect,0.250000X-0.475000X0.250000X-0.475000X-0.250000X0.475000X-0.250000X0.475000X0.250000X0*%
%ADD16RoundRect,0.140000X0.140000X0.170000X-0.140000X0.170000X-0.140000X-0.170000X0.140000X-0.170000X0*%
%ADD17RoundRect,0.243750X0.243750X0.456250X-0.243750X0.456250X-0.243750X-0.456250X0.243750X-0.456250X0*%
%ADD18RoundRect,0.250000X0.475000X-0.250000X0.475000X0.250000X-0.475000X0.250000X-0.475000X-0.250000X0*%
%ADD19RoundRect,0.200000X-0.275000X0.200000X-0.275000X-0.200000X0.275000X-0.200000X0.275000X0.200000X0*%
%ADD20R,1.500000X2.000000*%
%ADD21R,3.800000X2.000000*%
G04 APERTURE END LIST*
D10*
G04 #@! TO.C,U2*
X86675000Y-76305000D03*
X86675000Y-75035000D03*
X86675000Y-73765000D03*
X86675000Y-72495000D03*
X81725000Y-72495000D03*
X81725000Y-73765000D03*
X81725000Y-75035000D03*
X81725000Y-76305000D03*
G04 #@! TD*
D11*
G04 #@! TO.C,R6*
X77297000Y-72550000D03*
X78947000Y-72550000D03*
G04 #@! TD*
D12*
G04 #@! TO.C,R2*
X91197000Y-74722000D03*
X89547000Y-74722000D03*
G04 #@! TD*
D13*
G04 #@! TO.C,C2*
X79054000Y-77050000D03*
X77154000Y-77050000D03*
G04 #@! TD*
D14*
G04 #@! TO.C,C5*
X97075000Y-77304000D03*
X94125000Y-77304000D03*
G04 #@! TD*
D12*
G04 #@! TO.C,R3*
X91197000Y-72944000D03*
X89547000Y-72944000D03*
G04 #@! TD*
D14*
G04 #@! TO.C,C6*
X97075000Y-74002000D03*
X94125000Y-74002000D03*
G04 #@! TD*
D15*
G04 #@! TO.C,C1*
X67000000Y-69950000D03*
X67000000Y-71850000D03*
G04 #@! TD*
D12*
G04 #@! TO.C,R7*
X78947000Y-74550000D03*
X77297000Y-74550000D03*
G04 #@! TD*
D16*
G04 #@! TO.C,C4*
X81852000Y-77800000D03*
X80892000Y-77800000D03*
G04 #@! TD*
D11*
G04 #@! TO.C,R4*
X77267500Y-70594000D03*
X78917500Y-70594000D03*
G04 #@! TD*
D12*
G04 #@! TO.C,R5*
X91197000Y-71166000D03*
X89547000Y-71166000D03*
G04 #@! TD*
D17*
G04 #@! TO.C,D1*
X83872000Y-70500000D03*
X81997000Y-70500000D03*
G04 #@! TD*
D18*
G04 #@! TO.C,C3*
X67000000Y-77912000D03*
X67000000Y-76012000D03*
G04 #@! TD*
D14*
G04 #@! TO.C,C7*
X97075000Y-70700000D03*
X94125000Y-70700000D03*
G04 #@! TD*
D19*
G04 #@! TO.C,R8*
X64700000Y-73075000D03*
X64700000Y-74725000D03*
G04 #@! TD*
D12*
G04 #@! TO.C,R1*
X91197000Y-76500000D03*
X89547000Y-76500000D03*
G04 #@! TD*
D20*
G04 #@! TO.C,U1*
X74400000Y-70850000D03*
D21*
X72100000Y-77150000D03*
D20*
X72100000Y-70850000D03*
X69800000Y-70850000D03*
G04 #@! TD*
M02*
