G04 #@! TF.GenerationSoftware,KiCad,Pcbnew,(6.0.5-0)*
G04 #@! TF.CreationDate,2022-05-08T11:44:22-04:00*
G04 #@! TF.ProjectId,Receiver,52656365-6976-4657-922e-6b696361645f,rev?*
G04 #@! TF.SameCoordinates,Original*
G04 #@! TF.FileFunction,Copper,L3,Inr*
G04 #@! TF.FilePolarity,Positive*
%FSLAX46Y46*%
G04 Gerber Fmt 4.6, Leading zero omitted, Abs format (unit mm)*
G04 Created by KiCad (PCBNEW (6.0.5-0)) date 2022-05-08 11:44:22*
%MOMM*%
%LPD*%
G01*
G04 APERTURE LIST*
G04 Aperture macros list*
%AMRoundRect*
0 Rectangle with rounded corners*
0 $1 Rounding radius*
0 $2 $3 $4 $5 $6 $7 $8 $9 X,Y pos of 4 corners*
0 Add a 4 corners polygon primitive as box body*
4,1,4,$2,$3,$4,$5,$6,$7,$8,$9,$2,$3,0*
0 Add four circle primitives for the rounded corners*
1,1,$1+$1,$2,$3*
1,1,$1+$1,$4,$5*
1,1,$1+$1,$6,$7*
1,1,$1+$1,$8,$9*
0 Add four rect primitives between the rounded corners*
20,1,$1+$1,$2,$3,$4,$5,0*
20,1,$1+$1,$4,$5,$6,$7,0*
20,1,$1+$1,$6,$7,$8,$9,0*
20,1,$1+$1,$8,$9,$2,$3,0*%
G04 Aperture macros list end*
G04 #@! TA.AperFunction,WasherPad*
%ADD10C,1.300000*%
G04 #@! TD*
G04 #@! TA.AperFunction,ComponentPad*
%ADD11RoundRect,0.250000X-1.125000X-1.125000X1.125000X-1.125000X1.125000X1.125000X-1.125000X1.125000X0*%
G04 #@! TD*
G04 #@! TA.AperFunction,ComponentPad*
%ADD12RoundRect,0.250000X-0.675000X-0.675000X0.675000X-0.675000X0.675000X0.675000X-0.675000X0.675000X0*%
G04 #@! TD*
G04 #@! TA.AperFunction,ViaPad*
%ADD13C,0.800000*%
G04 #@! TD*
G04 APERTURE END LIST*
D10*
G04 #@! TO.N,*
G04 #@! TO.C,H2*
X114500000Y-74100000D03*
G04 #@! TD*
G04 #@! TO.N,*
G04 #@! TO.C,H1*
X43500000Y-74400000D03*
G04 #@! TD*
D11*
G04 #@! TO.N,GND*
G04 #@! TO.C,J11*
X105400000Y-70900000D03*
G04 #@! TD*
D12*
G04 #@! TO.N,GND*
G04 #@! TO.C,J8*
X52100000Y-77500000D03*
G04 #@! TD*
G04 #@! TO.N,+12V*
G04 #@! TO.C,J3*
X55300000Y-70500000D03*
G04 #@! TD*
G04 #@! TO.N,+12V*
G04 #@! TO.C,J2*
X58700000Y-77500000D03*
G04 #@! TD*
G04 #@! TO.N,/B*
G04 #@! TO.C,J5*
X61900000Y-70500000D03*
G04 #@! TD*
D11*
G04 #@! TO.N,/LED DI*
G04 #@! TO.C,J10*
X101148000Y-74000000D03*
G04 #@! TD*
G04 #@! TO.N,+12V*
G04 #@! TO.C,J9*
X105400000Y-77000000D03*
G04 #@! TD*
D12*
G04 #@! TO.N,+12V*
G04 #@! TO.C,J1*
X58600000Y-70500000D03*
G04 #@! TD*
G04 #@! TO.N,GND*
G04 #@! TO.C,J6*
X55400000Y-77500000D03*
G04 #@! TD*
G04 #@! TO.N,GND*
G04 #@! TO.C,J7*
X52000000Y-70500000D03*
G04 #@! TD*
G04 #@! TO.N,/A*
G04 #@! TO.C,J4*
X62000000Y-77500000D03*
G04 #@! TD*
D13*
G04 #@! TO.N,+12V*
X98600000Y-70700000D03*
X65300000Y-70000000D03*
G04 #@! TO.N,GND*
X65300000Y-71300000D03*
X76100000Y-77000000D03*
X52100000Y-75700000D03*
X76000000Y-70800000D03*
X92800000Y-70700000D03*
X80200000Y-76900000D03*
X80200000Y-72200000D03*
G04 #@! TO.N,/A*
X78900000Y-73475500D03*
X66400000Y-74500000D03*
G04 #@! TO.N,/B*
X67900000Y-74500000D03*
X79000000Y-75700000D03*
G04 #@! TO.N,/LED DI*
X90347500Y-75697032D03*
G04 #@! TD*
G04 #@! TA.AperFunction,Conductor*
G04 #@! TO.N,GND*
G36*
X43433621Y-69528502D02*
G01*
X43480114Y-69582158D01*
X43491500Y-69634500D01*
X43491500Y-70491377D01*
X43491498Y-70492147D01*
X43491024Y-70569721D01*
X43493491Y-70578352D01*
X43499150Y-70598153D01*
X43502728Y-70614915D01*
X43506920Y-70644187D01*
X43510634Y-70652355D01*
X43510634Y-70652356D01*
X43517548Y-70667562D01*
X43523996Y-70685086D01*
X43531051Y-70709771D01*
X43535843Y-70717365D01*
X43535844Y-70717368D01*
X43546830Y-70734780D01*
X43554969Y-70749863D01*
X43567208Y-70776782D01*
X43573069Y-70783584D01*
X43583970Y-70796235D01*
X43595073Y-70811239D01*
X43608776Y-70832958D01*
X43615501Y-70838897D01*
X43615504Y-70838901D01*
X43630938Y-70852532D01*
X43642982Y-70864724D01*
X43656427Y-70880327D01*
X43656430Y-70880329D01*
X43662287Y-70887127D01*
X43669816Y-70892007D01*
X43669817Y-70892008D01*
X43683835Y-70901094D01*
X43698709Y-70912385D01*
X43711217Y-70923431D01*
X43717951Y-70929378D01*
X43744711Y-70941942D01*
X43759691Y-70950263D01*
X43776983Y-70961471D01*
X43776988Y-70961473D01*
X43784515Y-70966352D01*
X43793108Y-70968922D01*
X43793113Y-70968924D01*
X43809120Y-70973711D01*
X43826564Y-70980372D01*
X43841676Y-70987467D01*
X43841678Y-70987468D01*
X43849800Y-70991281D01*
X43858667Y-70992662D01*
X43858668Y-70992662D01*
X43861353Y-70993080D01*
X43879017Y-70995830D01*
X43895732Y-70999613D01*
X43915466Y-71005515D01*
X43915472Y-71005516D01*
X43924066Y-71008086D01*
X43933037Y-71008141D01*
X43933038Y-71008141D01*
X43943097Y-71008202D01*
X43958506Y-71008296D01*
X43959289Y-71008329D01*
X43960386Y-71008500D01*
X43991377Y-71008500D01*
X43992147Y-71008502D01*
X44065785Y-71008952D01*
X44065786Y-71008952D01*
X44069721Y-71008976D01*
X44071065Y-71008592D01*
X44072410Y-71008500D01*
X46991377Y-71008500D01*
X46992148Y-71008502D01*
X47069721Y-71008976D01*
X47098152Y-71000850D01*
X47114915Y-70997272D01*
X47115753Y-70997152D01*
X47144187Y-70993080D01*
X47167564Y-70982451D01*
X47185087Y-70976004D01*
X47209771Y-70968949D01*
X47217365Y-70964157D01*
X47217368Y-70964156D01*
X47234780Y-70953170D01*
X47249865Y-70945030D01*
X47276782Y-70932792D01*
X47296235Y-70916030D01*
X47311239Y-70904927D01*
X47332958Y-70891224D01*
X47338897Y-70884499D01*
X47338901Y-70884496D01*
X47352532Y-70869062D01*
X47364724Y-70857018D01*
X47380327Y-70843573D01*
X47380329Y-70843570D01*
X47387127Y-70837713D01*
X47401094Y-70816165D01*
X47412385Y-70801291D01*
X47423431Y-70788783D01*
X47423432Y-70788782D01*
X47429378Y-70782049D01*
X47441943Y-70755287D01*
X47450263Y-70740309D01*
X47461471Y-70723017D01*
X47461473Y-70723012D01*
X47466352Y-70715485D01*
X47468922Y-70706892D01*
X47468924Y-70706887D01*
X47473711Y-70690880D01*
X47480372Y-70673436D01*
X47487467Y-70658324D01*
X47487468Y-70658322D01*
X47491281Y-70650200D01*
X47495830Y-70620983D01*
X47499613Y-70604268D01*
X47505515Y-70584534D01*
X47505516Y-70584528D01*
X47508086Y-70575934D01*
X47508296Y-70541494D01*
X47508329Y-70540711D01*
X47508500Y-70539614D01*
X47508500Y-70508623D01*
X47508502Y-70507853D01*
X47508952Y-70434215D01*
X47508952Y-70434214D01*
X47508976Y-70430279D01*
X47508592Y-70428935D01*
X47508500Y-70427590D01*
X47508500Y-69634500D01*
X47528502Y-69566379D01*
X47582158Y-69519886D01*
X47634500Y-69508500D01*
X50457261Y-69508500D01*
X50525382Y-69528502D01*
X50571875Y-69582158D01*
X50581979Y-69652432D01*
X50580462Y-69660911D01*
X50576995Y-69677084D01*
X50567328Y-69771438D01*
X50567000Y-69777855D01*
X50567000Y-70227885D01*
X50571475Y-70243124D01*
X50572865Y-70244329D01*
X50580548Y-70246000D01*
X53414884Y-70246000D01*
X53430123Y-70241525D01*
X53431328Y-70240135D01*
X53432999Y-70232452D01*
X53432999Y-69777905D01*
X53432662Y-69771386D01*
X53422744Y-69675796D01*
X53419569Y-69661093D01*
X53424744Y-69590285D01*
X53467378Y-69533515D01*
X53533937Y-69508807D01*
X53542731Y-69508500D01*
X53756746Y-69508500D01*
X53824867Y-69528502D01*
X53871360Y-69582158D01*
X53881464Y-69652432D01*
X53879947Y-69660912D01*
X53879369Y-69663610D01*
X53877203Y-69670139D01*
X53866500Y-69774600D01*
X53866500Y-71225400D01*
X53866837Y-71228646D01*
X53866837Y-71228650D01*
X53876752Y-71324206D01*
X53877474Y-71331166D01*
X53879655Y-71337702D01*
X53879655Y-71337704D01*
X53923728Y-71469806D01*
X53933450Y-71498946D01*
X54026522Y-71649348D01*
X54151697Y-71774305D01*
X54157927Y-71778145D01*
X54157928Y-71778146D01*
X54295288Y-71862816D01*
X54302262Y-71867115D01*
X54382005Y-71893564D01*
X54463611Y-71920632D01*
X54463613Y-71920632D01*
X54470139Y-71922797D01*
X54476975Y-71923497D01*
X54476978Y-71923498D01*
X54520031Y-71927909D01*
X54574600Y-71933500D01*
X56025400Y-71933500D01*
X56028646Y-71933163D01*
X56028650Y-71933163D01*
X56124308Y-71923238D01*
X56124312Y-71923237D01*
X56131166Y-71922526D01*
X56137702Y-71920345D01*
X56137704Y-71920345D01*
X56269806Y-71876272D01*
X56298946Y-71866550D01*
X56449348Y-71773478D01*
X56574305Y-71648303D01*
X56623315Y-71568794D01*
X56663275Y-71503968D01*
X56663276Y-71503966D01*
X56667115Y-71497738D01*
X56722797Y-71329861D01*
X56733500Y-71225400D01*
X56733500Y-69774600D01*
X56722526Y-69668834D01*
X56720346Y-69662301D01*
X56720086Y-69661095D01*
X56725259Y-69590288D01*
X56767892Y-69533517D01*
X56834450Y-69508807D01*
X56843247Y-69508500D01*
X57056746Y-69508500D01*
X57124867Y-69528502D01*
X57171360Y-69582158D01*
X57181464Y-69652432D01*
X57179947Y-69660912D01*
X57179369Y-69663610D01*
X57177203Y-69670139D01*
X57166500Y-69774600D01*
X57166500Y-71225400D01*
X57166837Y-71228646D01*
X57166837Y-71228650D01*
X57176752Y-71324206D01*
X57177474Y-71331166D01*
X57179655Y-71337702D01*
X57179655Y-71337704D01*
X57223728Y-71469806D01*
X57233450Y-71498946D01*
X57326522Y-71649348D01*
X57451697Y-71774305D01*
X57457927Y-71778145D01*
X57457928Y-71778146D01*
X57595288Y-71862816D01*
X57602262Y-71867115D01*
X57682005Y-71893564D01*
X57763611Y-71920632D01*
X57763613Y-71920632D01*
X57770139Y-71922797D01*
X57776975Y-71923497D01*
X57776978Y-71923498D01*
X57820031Y-71927909D01*
X57874600Y-71933500D01*
X59325400Y-71933500D01*
X59328646Y-71933163D01*
X59328650Y-71933163D01*
X59424308Y-71923238D01*
X59424312Y-71923237D01*
X59431166Y-71922526D01*
X59437702Y-71920345D01*
X59437704Y-71920345D01*
X59569806Y-71876272D01*
X59598946Y-71866550D01*
X59749348Y-71773478D01*
X59874305Y-71648303D01*
X59923315Y-71568794D01*
X59963275Y-71503968D01*
X59963276Y-71503966D01*
X59967115Y-71497738D01*
X60022797Y-71329861D01*
X60033500Y-71225400D01*
X60033500Y-69774600D01*
X60022526Y-69668834D01*
X60020346Y-69662301D01*
X60020086Y-69661095D01*
X60025259Y-69590288D01*
X60067892Y-69533517D01*
X60134450Y-69508807D01*
X60143247Y-69508500D01*
X60356746Y-69508500D01*
X60424867Y-69528502D01*
X60471360Y-69582158D01*
X60481464Y-69652432D01*
X60479947Y-69660912D01*
X60479369Y-69663610D01*
X60477203Y-69670139D01*
X60466500Y-69774600D01*
X60466500Y-71225400D01*
X60466837Y-71228646D01*
X60466837Y-71228650D01*
X60476752Y-71324206D01*
X60477474Y-71331166D01*
X60479655Y-71337702D01*
X60479655Y-71337704D01*
X60523728Y-71469806D01*
X60533450Y-71498946D01*
X60626522Y-71649348D01*
X60751697Y-71774305D01*
X60757927Y-71778145D01*
X60757928Y-71778146D01*
X60895288Y-71862816D01*
X60902262Y-71867115D01*
X60982005Y-71893564D01*
X61063611Y-71920632D01*
X61063613Y-71920632D01*
X61070139Y-71922797D01*
X61076975Y-71923497D01*
X61076978Y-71923498D01*
X61120031Y-71927909D01*
X61174600Y-71933500D01*
X62625400Y-71933500D01*
X62628646Y-71933163D01*
X62628650Y-71933163D01*
X62724308Y-71923238D01*
X62724312Y-71923237D01*
X62731166Y-71922526D01*
X62737702Y-71920345D01*
X62737704Y-71920345D01*
X62869806Y-71876272D01*
X62898946Y-71866550D01*
X63049348Y-71773478D01*
X63174305Y-71648303D01*
X63223315Y-71568794D01*
X63263275Y-71503968D01*
X63263276Y-71503966D01*
X63267115Y-71497738D01*
X63322797Y-71329861D01*
X63333500Y-71225400D01*
X63333500Y-69774600D01*
X63322526Y-69668834D01*
X63320346Y-69662301D01*
X63320086Y-69661095D01*
X63325259Y-69590288D01*
X63367892Y-69533517D01*
X63434450Y-69508807D01*
X63443247Y-69508500D01*
X64331021Y-69508500D01*
X64399142Y-69528502D01*
X64445635Y-69582158D01*
X64455739Y-69652432D01*
X64450854Y-69673436D01*
X64406458Y-69810072D01*
X64405768Y-69816633D01*
X64405768Y-69816635D01*
X64396355Y-69906197D01*
X64386496Y-70000000D01*
X64387186Y-70006565D01*
X64404235Y-70168774D01*
X64406458Y-70189928D01*
X64465473Y-70371556D01*
X64468776Y-70377278D01*
X64468777Y-70377279D01*
X64499377Y-70430279D01*
X64560960Y-70536944D01*
X64565378Y-70541851D01*
X64565379Y-70541852D01*
X64646956Y-70632452D01*
X64688747Y-70678866D01*
X64765706Y-70734780D01*
X64830766Y-70782049D01*
X64843248Y-70791118D01*
X64849276Y-70793802D01*
X64849278Y-70793803D01*
X65011681Y-70866109D01*
X65017712Y-70868794D01*
X65086263Y-70883365D01*
X65198056Y-70907128D01*
X65198061Y-70907128D01*
X65204513Y-70908500D01*
X65395487Y-70908500D01*
X65401939Y-70907128D01*
X65401944Y-70907128D01*
X65513737Y-70883365D01*
X65582288Y-70868794D01*
X65588319Y-70866109D01*
X65750722Y-70793803D01*
X65750724Y-70793802D01*
X65756752Y-70791118D01*
X65769235Y-70782049D01*
X65834294Y-70734780D01*
X65882165Y-70700000D01*
X97686496Y-70700000D01*
X97687186Y-70706565D01*
X97703955Y-70866109D01*
X97706458Y-70889928D01*
X97765473Y-71071556D01*
X97860960Y-71236944D01*
X97865378Y-71241851D01*
X97865379Y-71241852D01*
X97984325Y-71373955D01*
X97988747Y-71378866D01*
X98143248Y-71491118D01*
X98149276Y-71493802D01*
X98149278Y-71493803D01*
X98311681Y-71566109D01*
X98317712Y-71568794D01*
X98411112Y-71588647D01*
X98498056Y-71607128D01*
X98498061Y-71607128D01*
X98504513Y-71608500D01*
X98695487Y-71608500D01*
X98701939Y-71607128D01*
X98701944Y-71607128D01*
X98788888Y-71588647D01*
X98882288Y-71568794D01*
X98888319Y-71566109D01*
X99050722Y-71493803D01*
X99050724Y-71493802D01*
X99056752Y-71491118D01*
X99211253Y-71378866D01*
X99215675Y-71373955D01*
X99334621Y-71241852D01*
X99334622Y-71241851D01*
X99339040Y-71236944D01*
X99434527Y-71071556D01*
X99493542Y-70889928D01*
X99496046Y-70866109D01*
X99512814Y-70706565D01*
X99513504Y-70700000D01*
X99509124Y-70658324D01*
X99494232Y-70516635D01*
X99494232Y-70516633D01*
X99493542Y-70510072D01*
X99434527Y-70328444D01*
X99339040Y-70163056D01*
X99221348Y-70032345D01*
X99215675Y-70026045D01*
X99215674Y-70026044D01*
X99211253Y-70021134D01*
X99056752Y-69908882D01*
X99050724Y-69906198D01*
X99050722Y-69906197D01*
X98888319Y-69833891D01*
X98888318Y-69833891D01*
X98882288Y-69831206D01*
X98782861Y-69810072D01*
X98701944Y-69792872D01*
X98701939Y-69792872D01*
X98695487Y-69791500D01*
X98504513Y-69791500D01*
X98498061Y-69792872D01*
X98498056Y-69792872D01*
X98417139Y-69810072D01*
X98317712Y-69831206D01*
X98311682Y-69833891D01*
X98311681Y-69833891D01*
X98149278Y-69906197D01*
X98149276Y-69906198D01*
X98143248Y-69908882D01*
X97988747Y-70021134D01*
X97984326Y-70026044D01*
X97984325Y-70026045D01*
X97978653Y-70032345D01*
X97860960Y-70163056D01*
X97765473Y-70328444D01*
X97706458Y-70510072D01*
X97705768Y-70516633D01*
X97705768Y-70516635D01*
X97690876Y-70658324D01*
X97686496Y-70700000D01*
X65882165Y-70700000D01*
X65911253Y-70678866D01*
X65953044Y-70632452D01*
X66034621Y-70541852D01*
X66034622Y-70541851D01*
X66039040Y-70536944D01*
X66100623Y-70430279D01*
X66131223Y-70377279D01*
X66131224Y-70377278D01*
X66134527Y-70371556D01*
X66193542Y-70189928D01*
X66195766Y-70168774D01*
X66212814Y-70006565D01*
X66213504Y-70000000D01*
X66203645Y-69906197D01*
X66194232Y-69816635D01*
X66194232Y-69816633D01*
X66193542Y-69810072D01*
X66149146Y-69673436D01*
X66147118Y-69602469D01*
X66183781Y-69541671D01*
X66247493Y-69510345D01*
X66268979Y-69508500D01*
X103399575Y-69508500D01*
X103467696Y-69528502D01*
X103514189Y-69582158D01*
X103524919Y-69647342D01*
X103517328Y-69721437D01*
X103517000Y-69727855D01*
X103517000Y-70627885D01*
X103521475Y-70643124D01*
X103522865Y-70644329D01*
X103530548Y-70646000D01*
X107264884Y-70646000D01*
X107280123Y-70641525D01*
X107281328Y-70640135D01*
X107282999Y-70632452D01*
X107282999Y-69727905D01*
X107282662Y-69721386D01*
X107274996Y-69647503D01*
X107287861Y-69577682D01*
X107336432Y-69525900D01*
X107400323Y-69508500D01*
X110365500Y-69508500D01*
X110433621Y-69528502D01*
X110480114Y-69582158D01*
X110491500Y-69634500D01*
X110491500Y-70491377D01*
X110491498Y-70492147D01*
X110491024Y-70569721D01*
X110493491Y-70578352D01*
X110499150Y-70598153D01*
X110502728Y-70614915D01*
X110506920Y-70644187D01*
X110510634Y-70652355D01*
X110510634Y-70652356D01*
X110517548Y-70667562D01*
X110523996Y-70685086D01*
X110531051Y-70709771D01*
X110535843Y-70717365D01*
X110535844Y-70717368D01*
X110546830Y-70734780D01*
X110554969Y-70749863D01*
X110567208Y-70776782D01*
X110573069Y-70783584D01*
X110583970Y-70796235D01*
X110595073Y-70811239D01*
X110608776Y-70832958D01*
X110615501Y-70838897D01*
X110615504Y-70838901D01*
X110630938Y-70852532D01*
X110642982Y-70864724D01*
X110656427Y-70880327D01*
X110656430Y-70880329D01*
X110662287Y-70887127D01*
X110669816Y-70892007D01*
X110669817Y-70892008D01*
X110683835Y-70901094D01*
X110698709Y-70912385D01*
X110711217Y-70923431D01*
X110717951Y-70929378D01*
X110744711Y-70941942D01*
X110759691Y-70950263D01*
X110776983Y-70961471D01*
X110776988Y-70961473D01*
X110784515Y-70966352D01*
X110793108Y-70968922D01*
X110793113Y-70968924D01*
X110809120Y-70973711D01*
X110826564Y-70980372D01*
X110841676Y-70987467D01*
X110841678Y-70987468D01*
X110849800Y-70991281D01*
X110858667Y-70992662D01*
X110858668Y-70992662D01*
X110861353Y-70993080D01*
X110879017Y-70995830D01*
X110895732Y-70999613D01*
X110915466Y-71005515D01*
X110915472Y-71005516D01*
X110924066Y-71008086D01*
X110933037Y-71008141D01*
X110933038Y-71008141D01*
X110943097Y-71008202D01*
X110958506Y-71008296D01*
X110959289Y-71008329D01*
X110960386Y-71008500D01*
X110991377Y-71008500D01*
X110992147Y-71008502D01*
X111065785Y-71008952D01*
X111065786Y-71008952D01*
X111069721Y-71008976D01*
X111071065Y-71008592D01*
X111072410Y-71008500D01*
X113991377Y-71008500D01*
X113992148Y-71008502D01*
X114069721Y-71008976D01*
X114098152Y-71000850D01*
X114114915Y-70997272D01*
X114115753Y-70997152D01*
X114144187Y-70993080D01*
X114167564Y-70982451D01*
X114185087Y-70976004D01*
X114209771Y-70968949D01*
X114217365Y-70964157D01*
X114217368Y-70964156D01*
X114234780Y-70953170D01*
X114249865Y-70945030D01*
X114276782Y-70932792D01*
X114296235Y-70916030D01*
X114311239Y-70904927D01*
X114332958Y-70891224D01*
X114338897Y-70884499D01*
X114338901Y-70884496D01*
X114352532Y-70869062D01*
X114364724Y-70857018D01*
X114380327Y-70843573D01*
X114380329Y-70843570D01*
X114387127Y-70837713D01*
X114401094Y-70816165D01*
X114412385Y-70801291D01*
X114423431Y-70788783D01*
X114423432Y-70788782D01*
X114429378Y-70782049D01*
X114441943Y-70755287D01*
X114450263Y-70740309D01*
X114461471Y-70723017D01*
X114461473Y-70723012D01*
X114466352Y-70715485D01*
X114468922Y-70706892D01*
X114468924Y-70706887D01*
X114473711Y-70690880D01*
X114480372Y-70673436D01*
X114487467Y-70658324D01*
X114487468Y-70658322D01*
X114491281Y-70650200D01*
X114495830Y-70620983D01*
X114499613Y-70604268D01*
X114505515Y-70584534D01*
X114505516Y-70584528D01*
X114508086Y-70575934D01*
X114508296Y-70541494D01*
X114508329Y-70540711D01*
X114508500Y-70539614D01*
X114508500Y-70508623D01*
X114508502Y-70507853D01*
X114508952Y-70434215D01*
X114508952Y-70434214D01*
X114508976Y-70430279D01*
X114508592Y-70428935D01*
X114508500Y-70427590D01*
X114508500Y-69634500D01*
X114528502Y-69566379D01*
X114582158Y-69519886D01*
X114634500Y-69508500D01*
X116450633Y-69508500D01*
X116470018Y-69510000D01*
X116484852Y-69512310D01*
X116484855Y-69512310D01*
X116493724Y-69513691D01*
X116502626Y-69512527D01*
X116502750Y-69512511D01*
X116533192Y-69512240D01*
X116540621Y-69513077D01*
X116595264Y-69519234D01*
X116622771Y-69525513D01*
X116699853Y-69552485D01*
X116725274Y-69564727D01*
X116794426Y-69608178D01*
X116816485Y-69625770D01*
X116874230Y-69683515D01*
X116891822Y-69705574D01*
X116935273Y-69774726D01*
X116947515Y-69800147D01*
X116974487Y-69877228D01*
X116980766Y-69904736D01*
X116987018Y-69960226D01*
X116986923Y-69975868D01*
X116987800Y-69975879D01*
X116987690Y-69984851D01*
X116986309Y-69993724D01*
X116987473Y-70002626D01*
X116987473Y-70002628D01*
X116990436Y-70025283D01*
X116991500Y-70041621D01*
X116991500Y-77950633D01*
X116990000Y-77970018D01*
X116986309Y-77993724D01*
X116987473Y-78002626D01*
X116987489Y-78002750D01*
X116987760Y-78033193D01*
X116980766Y-78095264D01*
X116974487Y-78122771D01*
X116947515Y-78199853D01*
X116935273Y-78225274D01*
X116891822Y-78294426D01*
X116874230Y-78316485D01*
X116816485Y-78374230D01*
X116794426Y-78391822D01*
X116725274Y-78435273D01*
X116699853Y-78447515D01*
X116622772Y-78474487D01*
X116595264Y-78480766D01*
X116539774Y-78487018D01*
X116524132Y-78486923D01*
X116524121Y-78487800D01*
X116515149Y-78487690D01*
X116506276Y-78486309D01*
X116497374Y-78487473D01*
X116497372Y-78487473D01*
X116486385Y-78488910D01*
X116474714Y-78490436D01*
X116458379Y-78491500D01*
X114634500Y-78491500D01*
X114566379Y-78471498D01*
X114519886Y-78417842D01*
X114508500Y-78365500D01*
X114508500Y-77508623D01*
X114508502Y-77507853D01*
X114508800Y-77459102D01*
X114508976Y-77430279D01*
X114500850Y-77401847D01*
X114497272Y-77385085D01*
X114494352Y-77364698D01*
X114493080Y-77355813D01*
X114482451Y-77332436D01*
X114476004Y-77314913D01*
X114471416Y-77298862D01*
X114468949Y-77290229D01*
X114464156Y-77282632D01*
X114453170Y-77265220D01*
X114445030Y-77250135D01*
X114442390Y-77244329D01*
X114432792Y-77223218D01*
X114416030Y-77203765D01*
X114404927Y-77188761D01*
X114391224Y-77167042D01*
X114384499Y-77161103D01*
X114384496Y-77161099D01*
X114369062Y-77147468D01*
X114357018Y-77135276D01*
X114343573Y-77119673D01*
X114343570Y-77119671D01*
X114337713Y-77112873D01*
X114324009Y-77103990D01*
X114316165Y-77098906D01*
X114301291Y-77087615D01*
X114288783Y-77076569D01*
X114288782Y-77076568D01*
X114282049Y-77070622D01*
X114255287Y-77058057D01*
X114240309Y-77049737D01*
X114223017Y-77038529D01*
X114223012Y-77038527D01*
X114215485Y-77033648D01*
X114206892Y-77031078D01*
X114206887Y-77031076D01*
X114190880Y-77026289D01*
X114173436Y-77019628D01*
X114158324Y-77012533D01*
X114158322Y-77012532D01*
X114150200Y-77008719D01*
X114141333Y-77007338D01*
X114141332Y-77007338D01*
X114130478Y-77005648D01*
X114120983Y-77004170D01*
X114104268Y-77000387D01*
X114084534Y-76994485D01*
X114084528Y-76994484D01*
X114075934Y-76991914D01*
X114066963Y-76991859D01*
X114066962Y-76991859D01*
X114056903Y-76991798D01*
X114041494Y-76991704D01*
X114040711Y-76991671D01*
X114039614Y-76991500D01*
X114008623Y-76991500D01*
X114007853Y-76991498D01*
X113934215Y-76991048D01*
X113934214Y-76991048D01*
X113930279Y-76991024D01*
X113928935Y-76991408D01*
X113927590Y-76991500D01*
X111008623Y-76991500D01*
X111007853Y-76991498D01*
X111007037Y-76991493D01*
X110930279Y-76991024D01*
X110907918Y-76997415D01*
X110901847Y-76999150D01*
X110885085Y-77002728D01*
X110855813Y-77006920D01*
X110847645Y-77010634D01*
X110847644Y-77010634D01*
X110832438Y-77017548D01*
X110814914Y-77023996D01*
X110790229Y-77031051D01*
X110782635Y-77035843D01*
X110782632Y-77035844D01*
X110765220Y-77046830D01*
X110750137Y-77054969D01*
X110723218Y-77067208D01*
X110716416Y-77073069D01*
X110703765Y-77083970D01*
X110688761Y-77095073D01*
X110667042Y-77108776D01*
X110661103Y-77115501D01*
X110661099Y-77115504D01*
X110647468Y-77130938D01*
X110635276Y-77142982D01*
X110619673Y-77156427D01*
X110619671Y-77156430D01*
X110612873Y-77162287D01*
X110607993Y-77169816D01*
X110607992Y-77169817D01*
X110598906Y-77183835D01*
X110587615Y-77198709D01*
X110577918Y-77209690D01*
X110570622Y-77217951D01*
X110559554Y-77241525D01*
X110558058Y-77244711D01*
X110549737Y-77259691D01*
X110538529Y-77276983D01*
X110538527Y-77276988D01*
X110533648Y-77284515D01*
X110531078Y-77293108D01*
X110531076Y-77293113D01*
X110526289Y-77309120D01*
X110519628Y-77326564D01*
X110512533Y-77341676D01*
X110508719Y-77349800D01*
X110507338Y-77358667D01*
X110507338Y-77358668D01*
X110504170Y-77379015D01*
X110500387Y-77395732D01*
X110494485Y-77415466D01*
X110494484Y-77415472D01*
X110491914Y-77424066D01*
X110491859Y-77433037D01*
X110491859Y-77433038D01*
X110491704Y-77458497D01*
X110491671Y-77459289D01*
X110491500Y-77460386D01*
X110491500Y-77491377D01*
X110491498Y-77492147D01*
X110491024Y-77569721D01*
X110491408Y-77571065D01*
X110491500Y-77572410D01*
X110491500Y-78315995D01*
X110471498Y-78384116D01*
X110417842Y-78430609D01*
X110365598Y-78441995D01*
X108872535Y-78443162D01*
X107392746Y-78444318D01*
X107324611Y-78424369D01*
X107278076Y-78370750D01*
X107267918Y-78300484D01*
X107269449Y-78291902D01*
X107270630Y-78286395D01*
X107272797Y-78279861D01*
X107283500Y-78175400D01*
X107283500Y-75824600D01*
X107283163Y-75821350D01*
X107273238Y-75725692D01*
X107273237Y-75725688D01*
X107272526Y-75718834D01*
X107266243Y-75700000D01*
X107218868Y-75558002D01*
X107216550Y-75551054D01*
X107123478Y-75400652D01*
X106998303Y-75275695D01*
X106992072Y-75271854D01*
X106853968Y-75186725D01*
X106853966Y-75186724D01*
X106847738Y-75182885D01*
X106687254Y-75129655D01*
X106686389Y-75129368D01*
X106686387Y-75129368D01*
X106679861Y-75127203D01*
X106673025Y-75126503D01*
X106673022Y-75126502D01*
X106629969Y-75122091D01*
X106575400Y-75116500D01*
X104224600Y-75116500D01*
X104221354Y-75116837D01*
X104221350Y-75116837D01*
X104125692Y-75126762D01*
X104125688Y-75126763D01*
X104118834Y-75127474D01*
X104112298Y-75129655D01*
X104112296Y-75129655D01*
X104035789Y-75155180D01*
X103951054Y-75183450D01*
X103800652Y-75276522D01*
X103675695Y-75401697D01*
X103671855Y-75407927D01*
X103671854Y-75407928D01*
X103643475Y-75453968D01*
X103582885Y-75552262D01*
X103527203Y-75720139D01*
X103526503Y-75726975D01*
X103526502Y-75726978D01*
X103522091Y-75770031D01*
X103516500Y-75824600D01*
X103516500Y-78175400D01*
X103516837Y-78178646D01*
X103516837Y-78178650D01*
X103522020Y-78228598D01*
X103527474Y-78281166D01*
X103529655Y-78287703D01*
X103531111Y-78294445D01*
X103528086Y-78295098D01*
X103530204Y-78352442D01*
X103494051Y-78413545D01*
X103430603Y-78445402D01*
X103408184Y-78447430D01*
X69051188Y-78474272D01*
X63546123Y-78478573D01*
X63477987Y-78458624D01*
X63431452Y-78405005D01*
X63421294Y-78334739D01*
X63421428Y-78333989D01*
X63422797Y-78329861D01*
X63433500Y-78225400D01*
X63433500Y-76774600D01*
X63433163Y-76771350D01*
X63423238Y-76675692D01*
X63423237Y-76675688D01*
X63422526Y-76668834D01*
X63388618Y-76567198D01*
X63368868Y-76508002D01*
X63366550Y-76501054D01*
X63273478Y-76350652D01*
X63148303Y-76225695D01*
X63142072Y-76221854D01*
X63003968Y-76136725D01*
X63003966Y-76136724D01*
X62997738Y-76132885D01*
X62917995Y-76106436D01*
X62836389Y-76079368D01*
X62836387Y-76079368D01*
X62829861Y-76077203D01*
X62823025Y-76076503D01*
X62823022Y-76076502D01*
X62774746Y-76071556D01*
X62725400Y-76066500D01*
X61274600Y-76066500D01*
X61271354Y-76066837D01*
X61271350Y-76066837D01*
X61175692Y-76076762D01*
X61175688Y-76076763D01*
X61168834Y-76077474D01*
X61162298Y-76079655D01*
X61162296Y-76079655D01*
X61145928Y-76085116D01*
X61001054Y-76133450D01*
X60850652Y-76226522D01*
X60725695Y-76351697D01*
X60721855Y-76357927D01*
X60721854Y-76357928D01*
X60639929Y-76490835D01*
X60632885Y-76502262D01*
X60577203Y-76670139D01*
X60566500Y-76774600D01*
X60566500Y-78225400D01*
X60577456Y-78330988D01*
X60577474Y-78331166D01*
X60577442Y-78331169D01*
X60572470Y-78399204D01*
X60529836Y-78455974D01*
X60463277Y-78480682D01*
X60454585Y-78480989D01*
X60245570Y-78481152D01*
X60177434Y-78461203D01*
X60130899Y-78407584D01*
X60120741Y-78337318D01*
X60121227Y-78334595D01*
X60122797Y-78329861D01*
X60133500Y-78225400D01*
X60133500Y-76774600D01*
X60133163Y-76771350D01*
X60123238Y-76675692D01*
X60123237Y-76675688D01*
X60122526Y-76668834D01*
X60088618Y-76567198D01*
X60068868Y-76508002D01*
X60066550Y-76501054D01*
X59973478Y-76350652D01*
X59848303Y-76225695D01*
X59842072Y-76221854D01*
X59703968Y-76136725D01*
X59703966Y-76136724D01*
X59697738Y-76132885D01*
X59617995Y-76106436D01*
X59536389Y-76079368D01*
X59536387Y-76079368D01*
X59529861Y-76077203D01*
X59523025Y-76076503D01*
X59523022Y-76076502D01*
X59474746Y-76071556D01*
X59425400Y-76066500D01*
X57974600Y-76066500D01*
X57971354Y-76066837D01*
X57971350Y-76066837D01*
X57875692Y-76076762D01*
X57875688Y-76076763D01*
X57868834Y-76077474D01*
X57862298Y-76079655D01*
X57862296Y-76079655D01*
X57845928Y-76085116D01*
X57701054Y-76133450D01*
X57550652Y-76226522D01*
X57425695Y-76351697D01*
X57421855Y-76357927D01*
X57421854Y-76357928D01*
X57339929Y-76490835D01*
X57332885Y-76502262D01*
X57277203Y-76670139D01*
X57266500Y-76774600D01*
X57266500Y-78225400D01*
X57266837Y-78228646D01*
X57266837Y-78228650D01*
X57276629Y-78323019D01*
X57277474Y-78331166D01*
X57278059Y-78332918D01*
X57273029Y-78401776D01*
X57230397Y-78458548D01*
X57163839Y-78483258D01*
X57155139Y-78483566D01*
X57025584Y-78483667D01*
X56944502Y-78483731D01*
X56876366Y-78463782D01*
X56829831Y-78410163D01*
X56819672Y-78339897D01*
X56821204Y-78331316D01*
X56823005Y-78322915D01*
X56832672Y-78228562D01*
X56833000Y-78222146D01*
X56833000Y-77772115D01*
X56828525Y-77756876D01*
X56827135Y-77755671D01*
X56819452Y-77754000D01*
X53985116Y-77754000D01*
X53969877Y-77758475D01*
X53968672Y-77759865D01*
X53967001Y-77767548D01*
X53967001Y-78222095D01*
X53967338Y-78228614D01*
X53977256Y-78324205D01*
X53979274Y-78333548D01*
X53974102Y-78404356D01*
X53931469Y-78461127D01*
X53864911Y-78485836D01*
X53856221Y-78486144D01*
X53768770Y-78486212D01*
X53643950Y-78486309D01*
X53575814Y-78466360D01*
X53529279Y-78412740D01*
X53519121Y-78342474D01*
X53520651Y-78333899D01*
X53523005Y-78322918D01*
X53532672Y-78228562D01*
X53533000Y-78222145D01*
X53533000Y-77772115D01*
X53528525Y-77756876D01*
X53527135Y-77755671D01*
X53519452Y-77754000D01*
X50685116Y-77754000D01*
X50669877Y-77758475D01*
X50668672Y-77759865D01*
X50667001Y-77767548D01*
X50667001Y-78222095D01*
X50667338Y-78228614D01*
X50677256Y-78324201D01*
X50679831Y-78336124D01*
X50674659Y-78406932D01*
X50632027Y-78463704D01*
X50565470Y-78488414D01*
X50556784Y-78488721D01*
X48995570Y-78489941D01*
X47634598Y-78491004D01*
X47566462Y-78471055D01*
X47519927Y-78417436D01*
X47508500Y-78365004D01*
X47508500Y-77508623D01*
X47508502Y-77507853D01*
X47508800Y-77459102D01*
X47508976Y-77430279D01*
X47500850Y-77401847D01*
X47497272Y-77385085D01*
X47494352Y-77364698D01*
X47493080Y-77355813D01*
X47482451Y-77332436D01*
X47476004Y-77314913D01*
X47471416Y-77298862D01*
X47468949Y-77290229D01*
X47464156Y-77282632D01*
X47453170Y-77265220D01*
X47445030Y-77250135D01*
X47442390Y-77244329D01*
X47434914Y-77227885D01*
X50667000Y-77227885D01*
X50671475Y-77243124D01*
X50672865Y-77244329D01*
X50680548Y-77246000D01*
X51827885Y-77246000D01*
X51843124Y-77241525D01*
X51844329Y-77240135D01*
X51846000Y-77232452D01*
X51846000Y-77227885D01*
X52354000Y-77227885D01*
X52358475Y-77243124D01*
X52359865Y-77244329D01*
X52367548Y-77246000D01*
X53514884Y-77246000D01*
X53530123Y-77241525D01*
X53531328Y-77240135D01*
X53532999Y-77232452D01*
X53532999Y-77227885D01*
X53967000Y-77227885D01*
X53971475Y-77243124D01*
X53972865Y-77244329D01*
X53980548Y-77246000D01*
X55127885Y-77246000D01*
X55143124Y-77241525D01*
X55144329Y-77240135D01*
X55146000Y-77232452D01*
X55146000Y-77227885D01*
X55654000Y-77227885D01*
X55658475Y-77243124D01*
X55659865Y-77244329D01*
X55667548Y-77246000D01*
X56814884Y-77246000D01*
X56830123Y-77241525D01*
X56831328Y-77240135D01*
X56832999Y-77232452D01*
X56832999Y-76777905D01*
X56832662Y-76771386D01*
X56822743Y-76675794D01*
X56819851Y-76662400D01*
X56768412Y-76508216D01*
X56762239Y-76495038D01*
X56676937Y-76357193D01*
X56667901Y-76345792D01*
X56553171Y-76231261D01*
X56541760Y-76222249D01*
X56403757Y-76137184D01*
X56390576Y-76131037D01*
X56236290Y-76079862D01*
X56222914Y-76076995D01*
X56128562Y-76067328D01*
X56122145Y-76067000D01*
X55672115Y-76067000D01*
X55656876Y-76071475D01*
X55655671Y-76072865D01*
X55654000Y-76080548D01*
X55654000Y-77227885D01*
X55146000Y-77227885D01*
X55146000Y-76085116D01*
X55141525Y-76069877D01*
X55140135Y-76068672D01*
X55132452Y-76067001D01*
X54677905Y-76067001D01*
X54671386Y-76067338D01*
X54575794Y-76077257D01*
X54562400Y-76080149D01*
X54408216Y-76131588D01*
X54395038Y-76137761D01*
X54257193Y-76223063D01*
X54245792Y-76232099D01*
X54131261Y-76346829D01*
X54122249Y-76358240D01*
X54037184Y-76496243D01*
X54031037Y-76509424D01*
X53979862Y-76663710D01*
X53976995Y-76677086D01*
X53967328Y-76771438D01*
X53967000Y-76777855D01*
X53967000Y-77227885D01*
X53532999Y-77227885D01*
X53532999Y-76777905D01*
X53532662Y-76771386D01*
X53522743Y-76675794D01*
X53519851Y-76662400D01*
X53468412Y-76508216D01*
X53462239Y-76495038D01*
X53376937Y-76357193D01*
X53367901Y-76345792D01*
X53253171Y-76231261D01*
X53241760Y-76222249D01*
X53103757Y-76137184D01*
X53090576Y-76131037D01*
X52936290Y-76079862D01*
X52922914Y-76076995D01*
X52828562Y-76067328D01*
X52822145Y-76067000D01*
X52372115Y-76067000D01*
X52356876Y-76071475D01*
X52355671Y-76072865D01*
X52354000Y-76080548D01*
X52354000Y-77227885D01*
X51846000Y-77227885D01*
X51846000Y-76085116D01*
X51841525Y-76069877D01*
X51840135Y-76068672D01*
X51832452Y-76067001D01*
X51377905Y-76067001D01*
X51371386Y-76067338D01*
X51275794Y-76077257D01*
X51262400Y-76080149D01*
X51108216Y-76131588D01*
X51095038Y-76137761D01*
X50957193Y-76223063D01*
X50945792Y-76232099D01*
X50831261Y-76346829D01*
X50822249Y-76358240D01*
X50737184Y-76496243D01*
X50731037Y-76509424D01*
X50679862Y-76663710D01*
X50676995Y-76677086D01*
X50667328Y-76771438D01*
X50667000Y-76777855D01*
X50667000Y-77227885D01*
X47434914Y-77227885D01*
X47432792Y-77223218D01*
X47416030Y-77203765D01*
X47404927Y-77188761D01*
X47391224Y-77167042D01*
X47384499Y-77161103D01*
X47384496Y-77161099D01*
X47369062Y-77147468D01*
X47357018Y-77135276D01*
X47343573Y-77119673D01*
X47343570Y-77119671D01*
X47337713Y-77112873D01*
X47324009Y-77103990D01*
X47316165Y-77098906D01*
X47301291Y-77087615D01*
X47288783Y-77076569D01*
X47288782Y-77076568D01*
X47282049Y-77070622D01*
X47255287Y-77058057D01*
X47240309Y-77049737D01*
X47223017Y-77038529D01*
X47223012Y-77038527D01*
X47215485Y-77033648D01*
X47206892Y-77031078D01*
X47206887Y-77031076D01*
X47190880Y-77026289D01*
X47173436Y-77019628D01*
X47158324Y-77012533D01*
X47158322Y-77012532D01*
X47150200Y-77008719D01*
X47141333Y-77007338D01*
X47141332Y-77007338D01*
X47130478Y-77005648D01*
X47120983Y-77004170D01*
X47104268Y-77000387D01*
X47084534Y-76994485D01*
X47084528Y-76994484D01*
X47075934Y-76991914D01*
X47066963Y-76991859D01*
X47066962Y-76991859D01*
X47056903Y-76991798D01*
X47041494Y-76991704D01*
X47040711Y-76991671D01*
X47039614Y-76991500D01*
X47008623Y-76991500D01*
X47007853Y-76991498D01*
X46934215Y-76991048D01*
X46934214Y-76991048D01*
X46930279Y-76991024D01*
X46928935Y-76991408D01*
X46927590Y-76991500D01*
X44008623Y-76991500D01*
X44007853Y-76991498D01*
X44007037Y-76991493D01*
X43930279Y-76991024D01*
X43907918Y-76997415D01*
X43901847Y-76999150D01*
X43885085Y-77002728D01*
X43855813Y-77006920D01*
X43847645Y-77010634D01*
X43847644Y-77010634D01*
X43832438Y-77017548D01*
X43814914Y-77023996D01*
X43790229Y-77031051D01*
X43782635Y-77035843D01*
X43782632Y-77035844D01*
X43765220Y-77046830D01*
X43750137Y-77054969D01*
X43723218Y-77067208D01*
X43716416Y-77073069D01*
X43703765Y-77083970D01*
X43688761Y-77095073D01*
X43667042Y-77108776D01*
X43661103Y-77115501D01*
X43661099Y-77115504D01*
X43647468Y-77130938D01*
X43635276Y-77142982D01*
X43619673Y-77156427D01*
X43619671Y-77156430D01*
X43612873Y-77162287D01*
X43607993Y-77169816D01*
X43607992Y-77169817D01*
X43598906Y-77183835D01*
X43587615Y-77198709D01*
X43577918Y-77209690D01*
X43570622Y-77217951D01*
X43559554Y-77241525D01*
X43558058Y-77244711D01*
X43549737Y-77259691D01*
X43538529Y-77276983D01*
X43538527Y-77276988D01*
X43533648Y-77284515D01*
X43531078Y-77293108D01*
X43531076Y-77293113D01*
X43526289Y-77309120D01*
X43519628Y-77326564D01*
X43512533Y-77341676D01*
X43508719Y-77349800D01*
X43507338Y-77358667D01*
X43507338Y-77358668D01*
X43504170Y-77379015D01*
X43500387Y-77395732D01*
X43494485Y-77415466D01*
X43494484Y-77415472D01*
X43491914Y-77424066D01*
X43491859Y-77433037D01*
X43491859Y-77433038D01*
X43491704Y-77458497D01*
X43491671Y-77459289D01*
X43491500Y-77460386D01*
X43491500Y-77491377D01*
X43491498Y-77492147D01*
X43491024Y-77569721D01*
X43491408Y-77571065D01*
X43491500Y-77572410D01*
X43491500Y-78365500D01*
X43471498Y-78433621D01*
X43417842Y-78480114D01*
X43365500Y-78491500D01*
X42716537Y-78491500D01*
X42648416Y-78471498D01*
X42601923Y-78417842D01*
X42597764Y-78407560D01*
X42570713Y-78331169D01*
X42500934Y-78134119D01*
X42364907Y-77870572D01*
X42351226Y-77851105D01*
X42196835Y-77631430D01*
X42194372Y-77627925D01*
X42037492Y-77459102D01*
X41995404Y-77413810D01*
X41995401Y-77413808D01*
X41992483Y-77410667D01*
X41989168Y-77407953D01*
X41989164Y-77407950D01*
X41836055Y-77282632D01*
X41762977Y-77222818D01*
X41510101Y-77067856D01*
X41462203Y-77046830D01*
X41242465Y-76950372D01*
X41238533Y-76948646D01*
X41211776Y-76941024D01*
X41099981Y-76909178D01*
X41039946Y-76871279D01*
X41009932Y-76806939D01*
X41008500Y-76787999D01*
X41008500Y-75700000D01*
X78086496Y-75700000D01*
X78087186Y-75706565D01*
X78098402Y-75813275D01*
X78106458Y-75889928D01*
X78165473Y-76071556D01*
X78168776Y-76077278D01*
X78168777Y-76077279D01*
X78173302Y-76085116D01*
X78260960Y-76236944D01*
X78265378Y-76241851D01*
X78265379Y-76241852D01*
X78369894Y-76357928D01*
X78388747Y-76378866D01*
X78543248Y-76491118D01*
X78549276Y-76493802D01*
X78549278Y-76493803D01*
X78711681Y-76566109D01*
X78717712Y-76568794D01*
X78811112Y-76588647D01*
X78898056Y-76607128D01*
X78898061Y-76607128D01*
X78904513Y-76608500D01*
X79095487Y-76608500D01*
X79101939Y-76607128D01*
X79101944Y-76607128D01*
X79188888Y-76588647D01*
X79282288Y-76568794D01*
X79288319Y-76566109D01*
X79450722Y-76493803D01*
X79450724Y-76493802D01*
X79456752Y-76491118D01*
X79611253Y-76378866D01*
X79630106Y-76357928D01*
X79734621Y-76241852D01*
X79734622Y-76241851D01*
X79739040Y-76236944D01*
X79826698Y-76085116D01*
X79831223Y-76077279D01*
X79831224Y-76077278D01*
X79834527Y-76071556D01*
X79893542Y-75889928D01*
X79901599Y-75813275D01*
X79912814Y-75706565D01*
X79913504Y-75700000D01*
X79913192Y-75697032D01*
X89433996Y-75697032D01*
X89434686Y-75703597D01*
X89435739Y-75713611D01*
X89453958Y-75886960D01*
X89512973Y-76068588D01*
X89516276Y-76074310D01*
X89516277Y-76074311D01*
X89519482Y-76079862D01*
X89608460Y-76233976D01*
X89612878Y-76238883D01*
X89612879Y-76238884D01*
X89708858Y-76345479D01*
X89736247Y-76375898D01*
X89890748Y-76488150D01*
X89896776Y-76490834D01*
X89896778Y-76490835D01*
X89938530Y-76509424D01*
X90065212Y-76565826D01*
X90158613Y-76585679D01*
X90245556Y-76604160D01*
X90245561Y-76604160D01*
X90252013Y-76605532D01*
X90442987Y-76605532D01*
X90449439Y-76604160D01*
X90449444Y-76604160D01*
X90536387Y-76585679D01*
X90629788Y-76565826D01*
X90756470Y-76509424D01*
X90798222Y-76490835D01*
X90798224Y-76490834D01*
X90804252Y-76488150D01*
X90958753Y-76375898D01*
X90986142Y-76345479D01*
X91082121Y-76238884D01*
X91082122Y-76238883D01*
X91086540Y-76233976D01*
X91175518Y-76079862D01*
X91178723Y-76074311D01*
X91178724Y-76074310D01*
X91182027Y-76068588D01*
X91241042Y-75886960D01*
X91259262Y-75713611D01*
X91260314Y-75703597D01*
X91261004Y-75697032D01*
X91250083Y-75593120D01*
X91241732Y-75513667D01*
X91241732Y-75513665D01*
X91241042Y-75507104D01*
X91182027Y-75325476D01*
X91095380Y-75175400D01*
X99264500Y-75175400D01*
X99264837Y-75178646D01*
X99264837Y-75178650D01*
X99274508Y-75271854D01*
X99275474Y-75281166D01*
X99277655Y-75287702D01*
X99277655Y-75287704D01*
X99289338Y-75322721D01*
X99331450Y-75448946D01*
X99424522Y-75599348D01*
X99549697Y-75724305D01*
X99555927Y-75728145D01*
X99555928Y-75728146D01*
X99693090Y-75812694D01*
X99700262Y-75817115D01*
X99780005Y-75843564D01*
X99861611Y-75870632D01*
X99861613Y-75870632D01*
X99868139Y-75872797D01*
X99874975Y-75873497D01*
X99874978Y-75873498D01*
X99918031Y-75877909D01*
X99972600Y-75883500D01*
X102323400Y-75883500D01*
X102326646Y-75883163D01*
X102326650Y-75883163D01*
X102422308Y-75873238D01*
X102422312Y-75873237D01*
X102429166Y-75872526D01*
X102435702Y-75870345D01*
X102435704Y-75870345D01*
X102582559Y-75821350D01*
X102596946Y-75816550D01*
X102747348Y-75723478D01*
X102872305Y-75598303D01*
X102901430Y-75551054D01*
X102961275Y-75453968D01*
X102961276Y-75453966D01*
X102965115Y-75447738D01*
X103006581Y-75322721D01*
X103018632Y-75286389D01*
X103018632Y-75286387D01*
X103020797Y-75279861D01*
X103021618Y-75271854D01*
X103030280Y-75187306D01*
X103031500Y-75175400D01*
X103031500Y-74100000D01*
X113596551Y-74100000D01*
X113616294Y-74287838D01*
X113618334Y-74294116D01*
X113618334Y-74294117D01*
X113647539Y-74384000D01*
X113674658Y-74467466D01*
X113677961Y-74473188D01*
X113677962Y-74473189D01*
X113697232Y-74506565D01*
X113769094Y-74631034D01*
X113895475Y-74771393D01*
X113900814Y-74775272D01*
X114041213Y-74877279D01*
X114048275Y-74882410D01*
X114054302Y-74885093D01*
X114054303Y-74885094D01*
X114214788Y-74956546D01*
X114220819Y-74959231D01*
X114313192Y-74978866D01*
X114399107Y-74997128D01*
X114399112Y-74997128D01*
X114405564Y-74998500D01*
X114594436Y-74998500D01*
X114600888Y-74997128D01*
X114600893Y-74997128D01*
X114686808Y-74978866D01*
X114779181Y-74959231D01*
X114785212Y-74956546D01*
X114945697Y-74885094D01*
X114945698Y-74885093D01*
X114951725Y-74882410D01*
X114958788Y-74877279D01*
X115099186Y-74775272D01*
X115104525Y-74771393D01*
X115230906Y-74631034D01*
X115302768Y-74506565D01*
X115322038Y-74473189D01*
X115322039Y-74473188D01*
X115325342Y-74467466D01*
X115352462Y-74384000D01*
X115381666Y-74294117D01*
X115381666Y-74294116D01*
X115383706Y-74287838D01*
X115403449Y-74100000D01*
X115383706Y-73912162D01*
X115325342Y-73732534D01*
X115268391Y-73633891D01*
X115234209Y-73574687D01*
X115230906Y-73568966D01*
X115104525Y-73428607D01*
X114951725Y-73317590D01*
X114945695Y-73314905D01*
X114785212Y-73243454D01*
X114785211Y-73243454D01*
X114779181Y-73240769D01*
X114686809Y-73221135D01*
X114600893Y-73202872D01*
X114600888Y-73202872D01*
X114594436Y-73201500D01*
X114405564Y-73201500D01*
X114399112Y-73202872D01*
X114399107Y-73202872D01*
X114313191Y-73221135D01*
X114220819Y-73240769D01*
X114214789Y-73243454D01*
X114214788Y-73243454D01*
X114054306Y-73314905D01*
X114054304Y-73314906D01*
X114048276Y-73317590D01*
X113895475Y-73428607D01*
X113891061Y-73433509D01*
X113891060Y-73433510D01*
X113829841Y-73501500D01*
X113769094Y-73568966D01*
X113765791Y-73574687D01*
X113731610Y-73633891D01*
X113674658Y-73732534D01*
X113616294Y-73912162D01*
X113596551Y-74100000D01*
X103031500Y-74100000D01*
X103031500Y-72824600D01*
X103029108Y-72801545D01*
X103021238Y-72725692D01*
X103021237Y-72725688D01*
X103020526Y-72718834D01*
X102964550Y-72551054D01*
X102871478Y-72400652D01*
X102746303Y-72275695D01*
X102740072Y-72271854D01*
X102601968Y-72186725D01*
X102601966Y-72186724D01*
X102595738Y-72182885D01*
X102435254Y-72129655D01*
X102434389Y-72129368D01*
X102434387Y-72129368D01*
X102427861Y-72127203D01*
X102421025Y-72126503D01*
X102421022Y-72126502D01*
X102377969Y-72122091D01*
X102323400Y-72116500D01*
X99972600Y-72116500D01*
X99969354Y-72116837D01*
X99969350Y-72116837D01*
X99873692Y-72126762D01*
X99873688Y-72126763D01*
X99866834Y-72127474D01*
X99860298Y-72129655D01*
X99860296Y-72129655D01*
X99730634Y-72172914D01*
X99699054Y-72183450D01*
X99548652Y-72276522D01*
X99423695Y-72401697D01*
X99330885Y-72552262D01*
X99328581Y-72559209D01*
X99287954Y-72681697D01*
X99275203Y-72720139D01*
X99264500Y-72824600D01*
X99264500Y-75175400D01*
X91095380Y-75175400D01*
X91086540Y-75160088D01*
X91010172Y-75075272D01*
X90963175Y-75023077D01*
X90963174Y-75023076D01*
X90958753Y-75018166D01*
X90804252Y-74905914D01*
X90798224Y-74903230D01*
X90798222Y-74903229D01*
X90635819Y-74830923D01*
X90635818Y-74830923D01*
X90629788Y-74828238D01*
X90536388Y-74808385D01*
X90449444Y-74789904D01*
X90449439Y-74789904D01*
X90442987Y-74788532D01*
X90252013Y-74788532D01*
X90245561Y-74789904D01*
X90245556Y-74789904D01*
X90158612Y-74808385D01*
X90065212Y-74828238D01*
X90059182Y-74830923D01*
X90059181Y-74830923D01*
X89896778Y-74903229D01*
X89896776Y-74903230D01*
X89890748Y-74905914D01*
X89736247Y-75018166D01*
X89731826Y-75023076D01*
X89731825Y-75023077D01*
X89684829Y-75075272D01*
X89608460Y-75160088D01*
X89512973Y-75325476D01*
X89453958Y-75507104D01*
X89453268Y-75513665D01*
X89453268Y-75513667D01*
X89444917Y-75593120D01*
X89433996Y-75697032D01*
X79913192Y-75697032D01*
X79902271Y-75593120D01*
X79894232Y-75516635D01*
X79894232Y-75516633D01*
X79893542Y-75510072D01*
X79834527Y-75328444D01*
X79810247Y-75286389D01*
X79752705Y-75186725D01*
X79739040Y-75163056D01*
X79731949Y-75155180D01*
X79615675Y-75026045D01*
X79615674Y-75026044D01*
X79611253Y-75021134D01*
X79493997Y-74935942D01*
X79462094Y-74912763D01*
X79462093Y-74912762D01*
X79456752Y-74908882D01*
X79450724Y-74906198D01*
X79450722Y-74906197D01*
X79288319Y-74833891D01*
X79288318Y-74833891D01*
X79282288Y-74831206D01*
X79188888Y-74811353D01*
X79101944Y-74792872D01*
X79101939Y-74792872D01*
X79095487Y-74791500D01*
X78904513Y-74791500D01*
X78898061Y-74792872D01*
X78898056Y-74792872D01*
X78811112Y-74811353D01*
X78717712Y-74831206D01*
X78711682Y-74833891D01*
X78711681Y-74833891D01*
X78549278Y-74906197D01*
X78549276Y-74906198D01*
X78543248Y-74908882D01*
X78537907Y-74912762D01*
X78537906Y-74912763D01*
X78506003Y-74935942D01*
X78388747Y-75021134D01*
X78384326Y-75026044D01*
X78384325Y-75026045D01*
X78268052Y-75155180D01*
X78260960Y-75163056D01*
X78247295Y-75186725D01*
X78189754Y-75286389D01*
X78165473Y-75328444D01*
X78106458Y-75510072D01*
X78105768Y-75516633D01*
X78105768Y-75516635D01*
X78097729Y-75593120D01*
X78086496Y-75700000D01*
X41008500Y-75700000D01*
X41008500Y-74400000D01*
X42596551Y-74400000D01*
X42616294Y-74587838D01*
X42618334Y-74594116D01*
X42618334Y-74594117D01*
X42649465Y-74689928D01*
X42674658Y-74767466D01*
X42677961Y-74773188D01*
X42677962Y-74773189D01*
X42709745Y-74828238D01*
X42769094Y-74931034D01*
X42895475Y-75071393D01*
X42900814Y-75075272D01*
X43038627Y-75175400D01*
X43048275Y-75182410D01*
X43054302Y-75185093D01*
X43054303Y-75185094D01*
X43214788Y-75256546D01*
X43220819Y-75259231D01*
X43313191Y-75278865D01*
X43399107Y-75297128D01*
X43399112Y-75297128D01*
X43405564Y-75298500D01*
X43594436Y-75298500D01*
X43600888Y-75297128D01*
X43600893Y-75297128D01*
X43686809Y-75278865D01*
X43779181Y-75259231D01*
X43785212Y-75256546D01*
X43945697Y-75185094D01*
X43945698Y-75185093D01*
X43951725Y-75182410D01*
X43961374Y-75175400D01*
X44099186Y-75075272D01*
X44104525Y-75071393D01*
X44230906Y-74931034D01*
X44290255Y-74828238D01*
X44322038Y-74773189D01*
X44322039Y-74773188D01*
X44325342Y-74767466D01*
X44350536Y-74689928D01*
X44381666Y-74594117D01*
X44381666Y-74594116D01*
X44383706Y-74587838D01*
X44392938Y-74500000D01*
X65486496Y-74500000D01*
X65506458Y-74689928D01*
X65565473Y-74871556D01*
X65568776Y-74877278D01*
X65568777Y-74877279D01*
X65573289Y-74885094D01*
X65660960Y-75036944D01*
X65665378Y-75041851D01*
X65665379Y-75041852D01*
X65784325Y-75173955D01*
X65788747Y-75178866D01*
X65943248Y-75291118D01*
X65949276Y-75293802D01*
X65949278Y-75293803D01*
X66034534Y-75331761D01*
X66117712Y-75368794D01*
X66211113Y-75388647D01*
X66298056Y-75407128D01*
X66298061Y-75407128D01*
X66304513Y-75408500D01*
X66495487Y-75408500D01*
X66501939Y-75407128D01*
X66501944Y-75407128D01*
X66588887Y-75388647D01*
X66682288Y-75368794D01*
X66765466Y-75331761D01*
X66850722Y-75293803D01*
X66850724Y-75293802D01*
X66856752Y-75291118D01*
X67011253Y-75178866D01*
X67017271Y-75172183D01*
X67056364Y-75128765D01*
X67116810Y-75091525D01*
X67187793Y-75092877D01*
X67243636Y-75128765D01*
X67282730Y-75172183D01*
X67288747Y-75178866D01*
X67443248Y-75291118D01*
X67449276Y-75293802D01*
X67449278Y-75293803D01*
X67534534Y-75331761D01*
X67617712Y-75368794D01*
X67711113Y-75388647D01*
X67798056Y-75407128D01*
X67798061Y-75407128D01*
X67804513Y-75408500D01*
X67995487Y-75408500D01*
X68001939Y-75407128D01*
X68001944Y-75407128D01*
X68088887Y-75388647D01*
X68182288Y-75368794D01*
X68265466Y-75331761D01*
X68350722Y-75293803D01*
X68350724Y-75293802D01*
X68356752Y-75291118D01*
X68511253Y-75178866D01*
X68515675Y-75173955D01*
X68634621Y-75041852D01*
X68634622Y-75041851D01*
X68639040Y-75036944D01*
X68726711Y-74885094D01*
X68731223Y-74877279D01*
X68731224Y-74877278D01*
X68734527Y-74871556D01*
X68793542Y-74689928D01*
X68813504Y-74500000D01*
X68793542Y-74310072D01*
X68734527Y-74128444D01*
X68639040Y-73963056D01*
X68511253Y-73821134D01*
X68390654Y-73733513D01*
X68362094Y-73712763D01*
X68362093Y-73712762D01*
X68356752Y-73708882D01*
X68350724Y-73706198D01*
X68350722Y-73706197D01*
X68188319Y-73633891D01*
X68188318Y-73633891D01*
X68182288Y-73631206D01*
X68088888Y-73611353D01*
X68001944Y-73592872D01*
X68001939Y-73592872D01*
X67995487Y-73591500D01*
X67804513Y-73591500D01*
X67798061Y-73592872D01*
X67798056Y-73592872D01*
X67711112Y-73611353D01*
X67617712Y-73631206D01*
X67611682Y-73633891D01*
X67611681Y-73633891D01*
X67449278Y-73706197D01*
X67449276Y-73706198D01*
X67443248Y-73708882D01*
X67437907Y-73712762D01*
X67437906Y-73712763D01*
X67409346Y-73733513D01*
X67288747Y-73821134D01*
X67284326Y-73826044D01*
X67284325Y-73826045D01*
X67243636Y-73871235D01*
X67183190Y-73908475D01*
X67112207Y-73907123D01*
X67056364Y-73871235D01*
X67015675Y-73826045D01*
X67015674Y-73826044D01*
X67011253Y-73821134D01*
X66890654Y-73733513D01*
X66862094Y-73712763D01*
X66862093Y-73712762D01*
X66856752Y-73708882D01*
X66850724Y-73706198D01*
X66850722Y-73706197D01*
X66688319Y-73633891D01*
X66688318Y-73633891D01*
X66682288Y-73631206D01*
X66588888Y-73611353D01*
X66501944Y-73592872D01*
X66501939Y-73592872D01*
X66495487Y-73591500D01*
X66304513Y-73591500D01*
X66298061Y-73592872D01*
X66298056Y-73592872D01*
X66211112Y-73611353D01*
X66117712Y-73631206D01*
X66111682Y-73633891D01*
X66111681Y-73633891D01*
X65949278Y-73706197D01*
X65949276Y-73706198D01*
X65943248Y-73708882D01*
X65937907Y-73712762D01*
X65937906Y-73712763D01*
X65909346Y-73733513D01*
X65788747Y-73821134D01*
X65660960Y-73963056D01*
X65565473Y-74128444D01*
X65506458Y-74310072D01*
X65486496Y-74500000D01*
X44392938Y-74500000D01*
X44403449Y-74400000D01*
X44383706Y-74212162D01*
X44364927Y-74154366D01*
X44327384Y-74038818D01*
X44327383Y-74038816D01*
X44325342Y-74032534D01*
X44230906Y-73868966D01*
X44104525Y-73728607D01*
X44073681Y-73706197D01*
X43957063Y-73621468D01*
X43957061Y-73621467D01*
X43951725Y-73617590D01*
X43945695Y-73614905D01*
X43785212Y-73543454D01*
X43785211Y-73543454D01*
X43779181Y-73540769D01*
X43686808Y-73521134D01*
X43600893Y-73502872D01*
X43600888Y-73502872D01*
X43594436Y-73501500D01*
X43405564Y-73501500D01*
X43399112Y-73502872D01*
X43399107Y-73502872D01*
X43313192Y-73521134D01*
X43220819Y-73540769D01*
X43214789Y-73543454D01*
X43214788Y-73543454D01*
X43054306Y-73614905D01*
X43054304Y-73614906D01*
X43048276Y-73617590D01*
X43042935Y-73621470D01*
X43042934Y-73621471D01*
X42991466Y-73658865D01*
X42895475Y-73728607D01*
X42891061Y-73733509D01*
X42891060Y-73733510D01*
X42794481Y-73840771D01*
X42769094Y-73868966D01*
X42674658Y-74032534D01*
X42672617Y-74038816D01*
X42672616Y-74038818D01*
X42635073Y-74154366D01*
X42616294Y-74212162D01*
X42596551Y-74400000D01*
X41008500Y-74400000D01*
X41008500Y-73475500D01*
X77986496Y-73475500D01*
X77987186Y-73482065D01*
X77996320Y-73568966D01*
X78006458Y-73665428D01*
X78065473Y-73847056D01*
X78160960Y-74012444D01*
X78165378Y-74017351D01*
X78165379Y-74017352D01*
X78239796Y-74100000D01*
X78288747Y-74154366D01*
X78443248Y-74266618D01*
X78449276Y-74269302D01*
X78449278Y-74269303D01*
X78611681Y-74341609D01*
X78617712Y-74344294D01*
X78711112Y-74364147D01*
X78798056Y-74382628D01*
X78798061Y-74382628D01*
X78804513Y-74384000D01*
X78995487Y-74384000D01*
X79001939Y-74382628D01*
X79001944Y-74382628D01*
X79088888Y-74364147D01*
X79182288Y-74344294D01*
X79188319Y-74341609D01*
X79350722Y-74269303D01*
X79350724Y-74269302D01*
X79356752Y-74266618D01*
X79511253Y-74154366D01*
X79560204Y-74100000D01*
X79634621Y-74017352D01*
X79634622Y-74017351D01*
X79639040Y-74012444D01*
X79734527Y-73847056D01*
X79793542Y-73665428D01*
X79803681Y-73568966D01*
X79812814Y-73482065D01*
X79813504Y-73475500D01*
X79793542Y-73285572D01*
X79734527Y-73103944D01*
X79639040Y-72938556D01*
X79539375Y-72827866D01*
X79515675Y-72801545D01*
X79515674Y-72801544D01*
X79511253Y-72796634D01*
X79405967Y-72720139D01*
X79362094Y-72688263D01*
X79362093Y-72688262D01*
X79356752Y-72684382D01*
X79350724Y-72681698D01*
X79350722Y-72681697D01*
X79188319Y-72609391D01*
X79188318Y-72609391D01*
X79182288Y-72606706D01*
X79088888Y-72586853D01*
X79001944Y-72568372D01*
X79001939Y-72568372D01*
X78995487Y-72567000D01*
X78804513Y-72567000D01*
X78798061Y-72568372D01*
X78798056Y-72568372D01*
X78711112Y-72586853D01*
X78617712Y-72606706D01*
X78611682Y-72609391D01*
X78611681Y-72609391D01*
X78449278Y-72681697D01*
X78449276Y-72681698D01*
X78443248Y-72684382D01*
X78437907Y-72688262D01*
X78437906Y-72688263D01*
X78394033Y-72720139D01*
X78288747Y-72796634D01*
X78284326Y-72801544D01*
X78284325Y-72801545D01*
X78260626Y-72827866D01*
X78160960Y-72938556D01*
X78065473Y-73103944D01*
X78006458Y-73285572D01*
X77986496Y-73475500D01*
X41008500Y-73475500D01*
X41008500Y-72072095D01*
X103517001Y-72072095D01*
X103517338Y-72078614D01*
X103527257Y-72174206D01*
X103530149Y-72187600D01*
X103581588Y-72341784D01*
X103587761Y-72354962D01*
X103673063Y-72492807D01*
X103682099Y-72504208D01*
X103796829Y-72618739D01*
X103808240Y-72627751D01*
X103946243Y-72712816D01*
X103959424Y-72718963D01*
X104113710Y-72770138D01*
X104127086Y-72773005D01*
X104221438Y-72782672D01*
X104227854Y-72783000D01*
X105127885Y-72783000D01*
X105143124Y-72778525D01*
X105144329Y-72777135D01*
X105146000Y-72769452D01*
X105146000Y-72764884D01*
X105654000Y-72764884D01*
X105658475Y-72780123D01*
X105659865Y-72781328D01*
X105667548Y-72782999D01*
X106572095Y-72782999D01*
X106578614Y-72782662D01*
X106674206Y-72772743D01*
X106687600Y-72769851D01*
X106841784Y-72718412D01*
X106854962Y-72712239D01*
X106992807Y-72626937D01*
X107004208Y-72617901D01*
X107118739Y-72503171D01*
X107127751Y-72491760D01*
X107212816Y-72353757D01*
X107218963Y-72340576D01*
X107270138Y-72186290D01*
X107273005Y-72172914D01*
X107282672Y-72078562D01*
X107283000Y-72072146D01*
X107283000Y-71172115D01*
X107278525Y-71156876D01*
X107277135Y-71155671D01*
X107269452Y-71154000D01*
X105672115Y-71154000D01*
X105656876Y-71158475D01*
X105655671Y-71159865D01*
X105654000Y-71167548D01*
X105654000Y-72764884D01*
X105146000Y-72764884D01*
X105146000Y-71172115D01*
X105141525Y-71156876D01*
X105140135Y-71155671D01*
X105132452Y-71154000D01*
X103535116Y-71154000D01*
X103519877Y-71158475D01*
X103518672Y-71159865D01*
X103517001Y-71167548D01*
X103517001Y-72072095D01*
X41008500Y-72072095D01*
X41008500Y-71222095D01*
X50567001Y-71222095D01*
X50567338Y-71228614D01*
X50577257Y-71324206D01*
X50580149Y-71337600D01*
X50631588Y-71491784D01*
X50637761Y-71504962D01*
X50723063Y-71642807D01*
X50732099Y-71654208D01*
X50846829Y-71768739D01*
X50858240Y-71777751D01*
X50996243Y-71862816D01*
X51009424Y-71868963D01*
X51163710Y-71920138D01*
X51177086Y-71923005D01*
X51271438Y-71932672D01*
X51277854Y-71933000D01*
X51727885Y-71933000D01*
X51743124Y-71928525D01*
X51744329Y-71927135D01*
X51746000Y-71919452D01*
X51746000Y-71914884D01*
X52254000Y-71914884D01*
X52258475Y-71930123D01*
X52259865Y-71931328D01*
X52267548Y-71932999D01*
X52722095Y-71932999D01*
X52728614Y-71932662D01*
X52824206Y-71922743D01*
X52837600Y-71919851D01*
X52991784Y-71868412D01*
X53004962Y-71862239D01*
X53142807Y-71776937D01*
X53154208Y-71767901D01*
X53268739Y-71653171D01*
X53277751Y-71641760D01*
X53362816Y-71503757D01*
X53368963Y-71490576D01*
X53420138Y-71336290D01*
X53423005Y-71322914D01*
X53432672Y-71228562D01*
X53433000Y-71222145D01*
X53433000Y-70772115D01*
X53428525Y-70756876D01*
X53427135Y-70755671D01*
X53419452Y-70754000D01*
X52272115Y-70754000D01*
X52256876Y-70758475D01*
X52255671Y-70759865D01*
X52254000Y-70767548D01*
X52254000Y-71914884D01*
X51746000Y-71914884D01*
X51746000Y-70772115D01*
X51741525Y-70756876D01*
X51740135Y-70755671D01*
X51732452Y-70754000D01*
X50585116Y-70754000D01*
X50569877Y-70758475D01*
X50568672Y-70759865D01*
X50567001Y-70767548D01*
X50567001Y-71222095D01*
X41008500Y-71222095D01*
X41008500Y-70053250D01*
X41010246Y-70032345D01*
X41012770Y-70017344D01*
X41012770Y-70017341D01*
X41013576Y-70012552D01*
X41013729Y-70000000D01*
X41013040Y-69995188D01*
X41012723Y-69990327D01*
X41013008Y-69990308D01*
X41012607Y-69963549D01*
X41019234Y-69904736D01*
X41025513Y-69877229D01*
X41052485Y-69800147D01*
X41064727Y-69774726D01*
X41108178Y-69705574D01*
X41125770Y-69683515D01*
X41183515Y-69625770D01*
X41205574Y-69608178D01*
X41274726Y-69564727D01*
X41300147Y-69552485D01*
X41377228Y-69525513D01*
X41404736Y-69519234D01*
X41460226Y-69512982D01*
X41475868Y-69513077D01*
X41475879Y-69512200D01*
X41484851Y-69512310D01*
X41493724Y-69513691D01*
X41502626Y-69512527D01*
X41502628Y-69512527D01*
X41517951Y-69510523D01*
X41525286Y-69509564D01*
X41541621Y-69508500D01*
X43365500Y-69508500D01*
X43433621Y-69528502D01*
G37*
G04 #@! TD.AperFunction*
G04 #@! TD*
M02*
