G04 #@! TF.GenerationSoftware,KiCad,Pcbnew,(6.0.5-0)*
G04 #@! TF.CreationDate,2022-05-08T11:44:22-04:00*
G04 #@! TF.ProjectId,Receiver,52656365-6976-4657-922e-6b696361645f,rev?*
G04 #@! TF.SameCoordinates,Original*
G04 #@! TF.FileFunction,Copper,L4,Bot*
G04 #@! TF.FilePolarity,Positive*
%FSLAX46Y46*%
G04 Gerber Fmt 4.6, Leading zero omitted, Abs format (unit mm)*
G04 Created by KiCad (PCBNEW (6.0.5-0)) date 2022-05-08 11:44:22*
%MOMM*%
%LPD*%
G01*
G04 APERTURE LIST*
G04 Aperture macros list*
%AMRoundRect*
0 Rectangle with rounded corners*
0 $1 Rounding radius*
0 $2 $3 $4 $5 $6 $7 $8 $9 X,Y pos of 4 corners*
0 Add a 4 corners polygon primitive as box body*
4,1,4,$2,$3,$4,$5,$6,$7,$8,$9,$2,$3,0*
0 Add four circle primitives for the rounded corners*
1,1,$1+$1,$2,$3*
1,1,$1+$1,$4,$5*
1,1,$1+$1,$6,$7*
1,1,$1+$1,$8,$9*
0 Add four rect primitives between the rounded corners*
20,1,$1+$1,$2,$3,$4,$5,0*
20,1,$1+$1,$4,$5,$6,$7,0*
20,1,$1+$1,$6,$7,$8,$9,0*
20,1,$1+$1,$8,$9,$2,$3,0*%
G04 Aperture macros list end*
G04 #@! TA.AperFunction,WasherPad*
%ADD10C,1.300000*%
G04 #@! TD*
G04 #@! TA.AperFunction,ComponentPad*
%ADD11RoundRect,0.250000X-1.125000X-1.125000X1.125000X-1.125000X1.125000X1.125000X-1.125000X1.125000X0*%
G04 #@! TD*
G04 #@! TA.AperFunction,ComponentPad*
%ADD12RoundRect,0.250000X-0.675000X-0.675000X0.675000X-0.675000X0.675000X0.675000X-0.675000X0.675000X0*%
G04 #@! TD*
G04 #@! TA.AperFunction,ViaPad*
%ADD13C,0.800000*%
G04 #@! TD*
G04 #@! TA.AperFunction,Conductor*
%ADD14C,0.500000*%
G04 #@! TD*
G04 #@! TA.AperFunction,Conductor*
%ADD15C,0.250000*%
G04 #@! TD*
G04 APERTURE END LIST*
D10*
G04 #@! TO.P,H2,*
G04 #@! TO.N,*
X114500000Y-74100000D03*
G04 #@! TD*
G04 #@! TO.P,H1,*
G04 #@! TO.N,*
X43500000Y-74400000D03*
G04 #@! TD*
D11*
G04 #@! TO.P,J11,1,Pin_1*
G04 #@! TO.N,GND*
X105400000Y-70900000D03*
G04 #@! TD*
D12*
G04 #@! TO.P,J8,1,Pin_1*
G04 #@! TO.N,GND*
X52100000Y-77500000D03*
G04 #@! TD*
G04 #@! TO.P,J3,1,Pin_1*
G04 #@! TO.N,+12V*
X55300000Y-70500000D03*
G04 #@! TD*
G04 #@! TO.P,J2,1,Pin_1*
G04 #@! TO.N,+12V*
X58700000Y-77500000D03*
G04 #@! TD*
G04 #@! TO.P,J5,1,Pin_1*
G04 #@! TO.N,/B*
X61900000Y-70500000D03*
G04 #@! TD*
D11*
G04 #@! TO.P,J10,1,Pin_1*
G04 #@! TO.N,/LED DI*
X101148000Y-74000000D03*
G04 #@! TD*
G04 #@! TO.P,J9,1,Pin_1*
G04 #@! TO.N,+12V*
X105400000Y-77000000D03*
G04 #@! TD*
D12*
G04 #@! TO.P,J1,1,Pin_1*
G04 #@! TO.N,+12V*
X58600000Y-70500000D03*
G04 #@! TD*
G04 #@! TO.P,J6,1,Pin_1*
G04 #@! TO.N,GND*
X55400000Y-77500000D03*
G04 #@! TD*
G04 #@! TO.P,J7,1,Pin_1*
G04 #@! TO.N,GND*
X52000000Y-70500000D03*
G04 #@! TD*
G04 #@! TO.P,J4,1,Pin_1*
G04 #@! TO.N,/A*
X62000000Y-77500000D03*
G04 #@! TD*
D13*
G04 #@! TO.N,+12V*
X98600000Y-70700000D03*
X65300000Y-70000000D03*
G04 #@! TO.N,GND*
X65300000Y-71300000D03*
X76100000Y-77000000D03*
X52100000Y-75700000D03*
X76000000Y-70800000D03*
X92800000Y-70700000D03*
X80200000Y-76900000D03*
X80200000Y-72200000D03*
G04 #@! TO.N,/A*
X78900000Y-73475500D03*
X66400000Y-74500000D03*
G04 #@! TO.N,/B*
X67900000Y-74500000D03*
X79000000Y-75700000D03*
G04 #@! TO.N,/LED DI*
X90347500Y-75697032D03*
G04 #@! TD*
D14*
G04 #@! TO.N,GND*
X52100000Y-77500000D02*
X52100000Y-75700000D01*
D15*
G04 #@! TO.N,/A*
X67424500Y-73475500D02*
X78900000Y-73475500D01*
X66400000Y-74500000D02*
X67424500Y-73475500D01*
G04 #@! TO.N,/B*
X67900000Y-74500000D02*
X77800000Y-74500000D01*
X77800000Y-74500000D02*
X79000000Y-75700000D01*
G04 #@! TO.N,/LED DI*
X90347500Y-75697032D02*
X92044532Y-74000000D01*
X92044532Y-74000000D02*
X101148000Y-74000000D01*
G04 #@! TD*
G04 #@! TA.AperFunction,Conductor*
G04 #@! TO.N,+12V*
G36*
X43433621Y-69528502D02*
G01*
X43480114Y-69582158D01*
X43491500Y-69634500D01*
X43491500Y-70491377D01*
X43491498Y-70492147D01*
X43491024Y-70569721D01*
X43493491Y-70578352D01*
X43499150Y-70598153D01*
X43502728Y-70614915D01*
X43506920Y-70644187D01*
X43510634Y-70652355D01*
X43510634Y-70652356D01*
X43517548Y-70667562D01*
X43523996Y-70685086D01*
X43531051Y-70709771D01*
X43535843Y-70717365D01*
X43535844Y-70717368D01*
X43546830Y-70734780D01*
X43554969Y-70749863D01*
X43567208Y-70776782D01*
X43573069Y-70783584D01*
X43583970Y-70796235D01*
X43595073Y-70811239D01*
X43608776Y-70832958D01*
X43615501Y-70838897D01*
X43615504Y-70838901D01*
X43630938Y-70852532D01*
X43642982Y-70864724D01*
X43656427Y-70880327D01*
X43656430Y-70880329D01*
X43662287Y-70887127D01*
X43669816Y-70892007D01*
X43669817Y-70892008D01*
X43683835Y-70901094D01*
X43698709Y-70912385D01*
X43710413Y-70922721D01*
X43717951Y-70929378D01*
X43744711Y-70941942D01*
X43759691Y-70950263D01*
X43776983Y-70961471D01*
X43776988Y-70961473D01*
X43784515Y-70966352D01*
X43793108Y-70968922D01*
X43793113Y-70968924D01*
X43809120Y-70973711D01*
X43826564Y-70980372D01*
X43841676Y-70987467D01*
X43841678Y-70987468D01*
X43849800Y-70991281D01*
X43858667Y-70992662D01*
X43858668Y-70992662D01*
X43861353Y-70993080D01*
X43879017Y-70995830D01*
X43895732Y-70999613D01*
X43915466Y-71005515D01*
X43915472Y-71005516D01*
X43924066Y-71008086D01*
X43933037Y-71008141D01*
X43933038Y-71008141D01*
X43943097Y-71008202D01*
X43958506Y-71008296D01*
X43959289Y-71008329D01*
X43960386Y-71008500D01*
X43991377Y-71008500D01*
X43992147Y-71008502D01*
X44065785Y-71008952D01*
X44065786Y-71008952D01*
X44069721Y-71008976D01*
X44071065Y-71008592D01*
X44072410Y-71008500D01*
X46991377Y-71008500D01*
X46992148Y-71008502D01*
X47069721Y-71008976D01*
X47098152Y-71000850D01*
X47114915Y-70997272D01*
X47115753Y-70997152D01*
X47144187Y-70993080D01*
X47167564Y-70982451D01*
X47185087Y-70976004D01*
X47209771Y-70968949D01*
X47217365Y-70964157D01*
X47217368Y-70964156D01*
X47234780Y-70953170D01*
X47249865Y-70945030D01*
X47276782Y-70932792D01*
X47296235Y-70916030D01*
X47311239Y-70904927D01*
X47332958Y-70891224D01*
X47338897Y-70884499D01*
X47338901Y-70884496D01*
X47352532Y-70869062D01*
X47364724Y-70857018D01*
X47380327Y-70843573D01*
X47380329Y-70843570D01*
X47387127Y-70837713D01*
X47401094Y-70816165D01*
X47412385Y-70801291D01*
X47423431Y-70788783D01*
X47423432Y-70788782D01*
X47429378Y-70782049D01*
X47441943Y-70755287D01*
X47450263Y-70740309D01*
X47461471Y-70723017D01*
X47461473Y-70723012D01*
X47466352Y-70715485D01*
X47468922Y-70706892D01*
X47468924Y-70706887D01*
X47473711Y-70690880D01*
X47480372Y-70673436D01*
X47487467Y-70658324D01*
X47487468Y-70658322D01*
X47491281Y-70650200D01*
X47495830Y-70620983D01*
X47499613Y-70604268D01*
X47505515Y-70584534D01*
X47505516Y-70584528D01*
X47508086Y-70575934D01*
X47508296Y-70541494D01*
X47508329Y-70540711D01*
X47508500Y-70539614D01*
X47508500Y-70508623D01*
X47508502Y-70507853D01*
X47508952Y-70434215D01*
X47508952Y-70434214D01*
X47508976Y-70430279D01*
X47508592Y-70428935D01*
X47508500Y-70427590D01*
X47508500Y-69634500D01*
X47528502Y-69566379D01*
X47582158Y-69519886D01*
X47634500Y-69508500D01*
X50456746Y-69508500D01*
X50524867Y-69528502D01*
X50571360Y-69582158D01*
X50581464Y-69652432D01*
X50579947Y-69660912D01*
X50579369Y-69663610D01*
X50577203Y-69670139D01*
X50566500Y-69774600D01*
X50566500Y-71225400D01*
X50566837Y-71228646D01*
X50566837Y-71228650D01*
X50576752Y-71324206D01*
X50577474Y-71331166D01*
X50579655Y-71337702D01*
X50579655Y-71337704D01*
X50602506Y-71406197D01*
X50633450Y-71498946D01*
X50726522Y-71649348D01*
X50851697Y-71774305D01*
X50857927Y-71778145D01*
X50857928Y-71778146D01*
X50995288Y-71862816D01*
X51002262Y-71867115D01*
X51082005Y-71893564D01*
X51163611Y-71920632D01*
X51163613Y-71920632D01*
X51170139Y-71922797D01*
X51176975Y-71923497D01*
X51176978Y-71923498D01*
X51220031Y-71927909D01*
X51274600Y-71933500D01*
X52725400Y-71933500D01*
X52728646Y-71933163D01*
X52728650Y-71933163D01*
X52824308Y-71923238D01*
X52824312Y-71923237D01*
X52831166Y-71922526D01*
X52837702Y-71920345D01*
X52837704Y-71920345D01*
X52969806Y-71876272D01*
X52998946Y-71866550D01*
X53149348Y-71773478D01*
X53274305Y-71648303D01*
X53299686Y-71607128D01*
X53363275Y-71503968D01*
X53363276Y-71503966D01*
X53367115Y-71497738D01*
X53422797Y-71329861D01*
X53426728Y-71291500D01*
X53433167Y-71228650D01*
X53433500Y-71225400D01*
X53433500Y-71222095D01*
X53867001Y-71222095D01*
X53867338Y-71228614D01*
X53877257Y-71324206D01*
X53880149Y-71337600D01*
X53931588Y-71491784D01*
X53937761Y-71504962D01*
X54023063Y-71642807D01*
X54032099Y-71654208D01*
X54146829Y-71768739D01*
X54158240Y-71777751D01*
X54296243Y-71862816D01*
X54309424Y-71868963D01*
X54463710Y-71920138D01*
X54477086Y-71923005D01*
X54571438Y-71932672D01*
X54577854Y-71933000D01*
X55027885Y-71933000D01*
X55043124Y-71928525D01*
X55044329Y-71927135D01*
X55046000Y-71919452D01*
X55046000Y-71914884D01*
X55554000Y-71914884D01*
X55558475Y-71930123D01*
X55559865Y-71931328D01*
X55567548Y-71932999D01*
X56022095Y-71932999D01*
X56028614Y-71932662D01*
X56124206Y-71922743D01*
X56137600Y-71919851D01*
X56291784Y-71868412D01*
X56304962Y-71862239D01*
X56442807Y-71776937D01*
X56454208Y-71767901D01*
X56568739Y-71653171D01*
X56577751Y-71641760D01*
X56662816Y-71503757D01*
X56668963Y-71490576D01*
X56720138Y-71336290D01*
X56723005Y-71322914D01*
X56732672Y-71228562D01*
X56733000Y-71222146D01*
X56733000Y-71222095D01*
X57167001Y-71222095D01*
X57167338Y-71228614D01*
X57177257Y-71324206D01*
X57180149Y-71337600D01*
X57231588Y-71491784D01*
X57237761Y-71504962D01*
X57323063Y-71642807D01*
X57332099Y-71654208D01*
X57446829Y-71768739D01*
X57458240Y-71777751D01*
X57596243Y-71862816D01*
X57609424Y-71868963D01*
X57763710Y-71920138D01*
X57777086Y-71923005D01*
X57871438Y-71932672D01*
X57877854Y-71933000D01*
X58327885Y-71933000D01*
X58343124Y-71928525D01*
X58344329Y-71927135D01*
X58346000Y-71919452D01*
X58346000Y-71914884D01*
X58854000Y-71914884D01*
X58858475Y-71930123D01*
X58859865Y-71931328D01*
X58867548Y-71932999D01*
X59322095Y-71932999D01*
X59328614Y-71932662D01*
X59424206Y-71922743D01*
X59437600Y-71919851D01*
X59591784Y-71868412D01*
X59604962Y-71862239D01*
X59742807Y-71776937D01*
X59754208Y-71767901D01*
X59868739Y-71653171D01*
X59877751Y-71641760D01*
X59962816Y-71503757D01*
X59968963Y-71490576D01*
X60020138Y-71336290D01*
X60023005Y-71322914D01*
X60032672Y-71228562D01*
X60033000Y-71222146D01*
X60033000Y-70772115D01*
X60028525Y-70756876D01*
X60027135Y-70755671D01*
X60019452Y-70754000D01*
X58872115Y-70754000D01*
X58856876Y-70758475D01*
X58855671Y-70759865D01*
X58854000Y-70767548D01*
X58854000Y-71914884D01*
X58346000Y-71914884D01*
X58346000Y-70772115D01*
X58341525Y-70756876D01*
X58340135Y-70755671D01*
X58332452Y-70754000D01*
X57185116Y-70754000D01*
X57169877Y-70758475D01*
X57168672Y-70759865D01*
X57167001Y-70767548D01*
X57167001Y-71222095D01*
X56733000Y-71222095D01*
X56733000Y-70772115D01*
X56728525Y-70756876D01*
X56727135Y-70755671D01*
X56719452Y-70754000D01*
X55572115Y-70754000D01*
X55556876Y-70758475D01*
X55555671Y-70759865D01*
X55554000Y-70767548D01*
X55554000Y-71914884D01*
X55046000Y-71914884D01*
X55046000Y-70772115D01*
X55041525Y-70756876D01*
X55040135Y-70755671D01*
X55032452Y-70754000D01*
X53885116Y-70754000D01*
X53869877Y-70758475D01*
X53868672Y-70759865D01*
X53867001Y-70767548D01*
X53867001Y-71222095D01*
X53433500Y-71222095D01*
X53433500Y-69774600D01*
X53422526Y-69668834D01*
X53420346Y-69662301D01*
X53420086Y-69661095D01*
X53425259Y-69590288D01*
X53467892Y-69533517D01*
X53534450Y-69508807D01*
X53543247Y-69508500D01*
X53757261Y-69508500D01*
X53825382Y-69528502D01*
X53871875Y-69582158D01*
X53881979Y-69652432D01*
X53880462Y-69660911D01*
X53876995Y-69677084D01*
X53867328Y-69771438D01*
X53867000Y-69777855D01*
X53867000Y-70227885D01*
X53871475Y-70243124D01*
X53872865Y-70244329D01*
X53880548Y-70246000D01*
X56714884Y-70246000D01*
X56730123Y-70241525D01*
X56731328Y-70240135D01*
X56732999Y-70232452D01*
X56732999Y-69777905D01*
X56732662Y-69771386D01*
X56722744Y-69675796D01*
X56719569Y-69661093D01*
X56724744Y-69590285D01*
X56767378Y-69533515D01*
X56833937Y-69508807D01*
X56842731Y-69508500D01*
X57057261Y-69508500D01*
X57125382Y-69528502D01*
X57171875Y-69582158D01*
X57181979Y-69652432D01*
X57180462Y-69660911D01*
X57176995Y-69677084D01*
X57167328Y-69771438D01*
X57167000Y-69777855D01*
X57167000Y-70227885D01*
X57171475Y-70243124D01*
X57172865Y-70244329D01*
X57180548Y-70246000D01*
X60014884Y-70246000D01*
X60030123Y-70241525D01*
X60031328Y-70240135D01*
X60032999Y-70232452D01*
X60032999Y-69777905D01*
X60032662Y-69771386D01*
X60022744Y-69675796D01*
X60019569Y-69661093D01*
X60024744Y-69590285D01*
X60067378Y-69533515D01*
X60133937Y-69508807D01*
X60142731Y-69508500D01*
X60356746Y-69508500D01*
X60424867Y-69528502D01*
X60471360Y-69582158D01*
X60481464Y-69652432D01*
X60479947Y-69660912D01*
X60479369Y-69663610D01*
X60477203Y-69670139D01*
X60466500Y-69774600D01*
X60466500Y-71225400D01*
X60466837Y-71228646D01*
X60466837Y-71228650D01*
X60476752Y-71324206D01*
X60477474Y-71331166D01*
X60479655Y-71337702D01*
X60479655Y-71337704D01*
X60502506Y-71406197D01*
X60533450Y-71498946D01*
X60626522Y-71649348D01*
X60751697Y-71774305D01*
X60757927Y-71778145D01*
X60757928Y-71778146D01*
X60895288Y-71862816D01*
X60902262Y-71867115D01*
X60982005Y-71893564D01*
X61063611Y-71920632D01*
X61063613Y-71920632D01*
X61070139Y-71922797D01*
X61076975Y-71923497D01*
X61076978Y-71923498D01*
X61120031Y-71927909D01*
X61174600Y-71933500D01*
X62625400Y-71933500D01*
X62628646Y-71933163D01*
X62628650Y-71933163D01*
X62724308Y-71923238D01*
X62724312Y-71923237D01*
X62731166Y-71922526D01*
X62737702Y-71920345D01*
X62737704Y-71920345D01*
X62869806Y-71876272D01*
X62898946Y-71866550D01*
X63049348Y-71773478D01*
X63174305Y-71648303D01*
X63199686Y-71607128D01*
X63263275Y-71503968D01*
X63263276Y-71503966D01*
X63267115Y-71497738D01*
X63322797Y-71329861D01*
X63325857Y-71300000D01*
X64386496Y-71300000D01*
X64406458Y-71489928D01*
X64465473Y-71671556D01*
X64468776Y-71677278D01*
X64468777Y-71677279D01*
X64486803Y-71708500D01*
X64560960Y-71836944D01*
X64565378Y-71841851D01*
X64565379Y-71841852D01*
X64638659Y-71923238D01*
X64688747Y-71978866D01*
X64843248Y-72091118D01*
X64849276Y-72093802D01*
X64849278Y-72093803D01*
X65011681Y-72166109D01*
X65017712Y-72168794D01*
X65084005Y-72182885D01*
X65198056Y-72207128D01*
X65198061Y-72207128D01*
X65204513Y-72208500D01*
X65395487Y-72208500D01*
X65401939Y-72207128D01*
X65401944Y-72207128D01*
X65515995Y-72182885D01*
X65582288Y-72168794D01*
X65588319Y-72166109D01*
X65750722Y-72093803D01*
X65750724Y-72093802D01*
X65756752Y-72091118D01*
X65911253Y-71978866D01*
X65961341Y-71923238D01*
X66034621Y-71841852D01*
X66034622Y-71841851D01*
X66039040Y-71836944D01*
X66113197Y-71708500D01*
X66131223Y-71677279D01*
X66131224Y-71677278D01*
X66134527Y-71671556D01*
X66193542Y-71489928D01*
X66213504Y-71300000D01*
X66212611Y-71291500D01*
X66194232Y-71116635D01*
X66194232Y-71116633D01*
X66193542Y-71110072D01*
X66134527Y-70928444D01*
X66120946Y-70904920D01*
X66075018Y-70825371D01*
X66060370Y-70800000D01*
X75086496Y-70800000D01*
X75087186Y-70806565D01*
X75105454Y-70980372D01*
X75106458Y-70989928D01*
X75165473Y-71171556D01*
X75168776Y-71177278D01*
X75168777Y-71177279D01*
X75198436Y-71228650D01*
X75260960Y-71336944D01*
X75265378Y-71341851D01*
X75265379Y-71341852D01*
X75325733Y-71408882D01*
X75388747Y-71478866D01*
X75543248Y-71591118D01*
X75549276Y-71593802D01*
X75549278Y-71593803D01*
X75704824Y-71663056D01*
X75717712Y-71668794D01*
X75811113Y-71688647D01*
X75898056Y-71707128D01*
X75898061Y-71707128D01*
X75904513Y-71708500D01*
X76095487Y-71708500D01*
X76101939Y-71707128D01*
X76101944Y-71707128D01*
X76188887Y-71688647D01*
X76282288Y-71668794D01*
X76295176Y-71663056D01*
X76450722Y-71593803D01*
X76450724Y-71593802D01*
X76456752Y-71591118D01*
X76611253Y-71478866D01*
X76674267Y-71408882D01*
X76734621Y-71341852D01*
X76734622Y-71341851D01*
X76739040Y-71336944D01*
X76801564Y-71228650D01*
X76831223Y-71177279D01*
X76831224Y-71177278D01*
X76834527Y-71171556D01*
X76893542Y-70989928D01*
X76894547Y-70980372D01*
X76912814Y-70806565D01*
X76913504Y-70800000D01*
X76907987Y-70747511D01*
X76902994Y-70700000D01*
X91886496Y-70700000D01*
X91887186Y-70706565D01*
X91902528Y-70852532D01*
X91906458Y-70889928D01*
X91965473Y-71071556D01*
X92060960Y-71236944D01*
X92065378Y-71241851D01*
X92065379Y-71241852D01*
X92155419Y-71341852D01*
X92188747Y-71378866D01*
X92235402Y-71412763D01*
X92326385Y-71478866D01*
X92343248Y-71491118D01*
X92349276Y-71493802D01*
X92349278Y-71493803D01*
X92511681Y-71566109D01*
X92517712Y-71568794D01*
X92604479Y-71587237D01*
X92698056Y-71607128D01*
X92698061Y-71607128D01*
X92704513Y-71608500D01*
X92895487Y-71608500D01*
X92901939Y-71607128D01*
X92901944Y-71607128D01*
X92995521Y-71587237D01*
X93082288Y-71568794D01*
X93088319Y-71566109D01*
X93250722Y-71493803D01*
X93250724Y-71493802D01*
X93256752Y-71491118D01*
X93273616Y-71478866D01*
X93364598Y-71412763D01*
X93411253Y-71378866D01*
X93444581Y-71341852D01*
X93534621Y-71241852D01*
X93534622Y-71241851D01*
X93539040Y-71236944D01*
X93634527Y-71071556D01*
X93693542Y-70889928D01*
X93697473Y-70852532D01*
X93712814Y-70706565D01*
X93713504Y-70700000D01*
X93709124Y-70658324D01*
X93694232Y-70516635D01*
X93694232Y-70516633D01*
X93693542Y-70510072D01*
X93634527Y-70328444D01*
X93539040Y-70163056D01*
X93421348Y-70032345D01*
X93415675Y-70026045D01*
X93415674Y-70026044D01*
X93411253Y-70021134D01*
X93256752Y-69908882D01*
X93250724Y-69906198D01*
X93250722Y-69906197D01*
X93088319Y-69833891D01*
X93088318Y-69833891D01*
X93082288Y-69831206D01*
X92988887Y-69811353D01*
X92901944Y-69792872D01*
X92901939Y-69792872D01*
X92895487Y-69791500D01*
X92704513Y-69791500D01*
X92698061Y-69792872D01*
X92698056Y-69792872D01*
X92611113Y-69811353D01*
X92517712Y-69831206D01*
X92511682Y-69833891D01*
X92511681Y-69833891D01*
X92349278Y-69906197D01*
X92349276Y-69906198D01*
X92343248Y-69908882D01*
X92188747Y-70021134D01*
X92184326Y-70026044D01*
X92184325Y-70026045D01*
X92178653Y-70032345D01*
X92060960Y-70163056D01*
X91965473Y-70328444D01*
X91906458Y-70510072D01*
X91905768Y-70516633D01*
X91905768Y-70516635D01*
X91890876Y-70658324D01*
X91886496Y-70700000D01*
X76902994Y-70700000D01*
X76894232Y-70616635D01*
X76894232Y-70616633D01*
X76893542Y-70610072D01*
X76834527Y-70428444D01*
X76813990Y-70392872D01*
X76797314Y-70363990D01*
X76739040Y-70263056D01*
X76719654Y-70241525D01*
X76615675Y-70126045D01*
X76615674Y-70126044D01*
X76611253Y-70121134D01*
X76479326Y-70025283D01*
X76462094Y-70012763D01*
X76462093Y-70012762D01*
X76456752Y-70008882D01*
X76450724Y-70006198D01*
X76450722Y-70006197D01*
X76288319Y-69933891D01*
X76288318Y-69933891D01*
X76282288Y-69931206D01*
X76188888Y-69911353D01*
X76101944Y-69892872D01*
X76101939Y-69892872D01*
X76095487Y-69891500D01*
X75904513Y-69891500D01*
X75898061Y-69892872D01*
X75898056Y-69892872D01*
X75811112Y-69911353D01*
X75717712Y-69931206D01*
X75711682Y-69933891D01*
X75711681Y-69933891D01*
X75549278Y-70006197D01*
X75549276Y-70006198D01*
X75543248Y-70008882D01*
X75537907Y-70012762D01*
X75537906Y-70012763D01*
X75520674Y-70025283D01*
X75388747Y-70121134D01*
X75384326Y-70126044D01*
X75384325Y-70126045D01*
X75280347Y-70241525D01*
X75260960Y-70263056D01*
X75202686Y-70363990D01*
X75186011Y-70392872D01*
X75165473Y-70428444D01*
X75106458Y-70610072D01*
X75105768Y-70616633D01*
X75105768Y-70616635D01*
X75092013Y-70747511D01*
X75086496Y-70800000D01*
X66060370Y-70800000D01*
X66039040Y-70763056D01*
X65997903Y-70717368D01*
X65915675Y-70626045D01*
X65915674Y-70626044D01*
X65911253Y-70621134D01*
X65756752Y-70508882D01*
X65750724Y-70506198D01*
X65750722Y-70506197D01*
X65588319Y-70433891D01*
X65588318Y-70433891D01*
X65582288Y-70431206D01*
X65488887Y-70411353D01*
X65401944Y-70392872D01*
X65401939Y-70392872D01*
X65395487Y-70391500D01*
X65204513Y-70391500D01*
X65198061Y-70392872D01*
X65198056Y-70392872D01*
X65111113Y-70411353D01*
X65017712Y-70431206D01*
X65011682Y-70433891D01*
X65011681Y-70433891D01*
X64849278Y-70506197D01*
X64849276Y-70506198D01*
X64843248Y-70508882D01*
X64688747Y-70621134D01*
X64684326Y-70626044D01*
X64684325Y-70626045D01*
X64602098Y-70717368D01*
X64560960Y-70763056D01*
X64524982Y-70825371D01*
X64479055Y-70904920D01*
X64465473Y-70928444D01*
X64406458Y-71110072D01*
X64405768Y-71116633D01*
X64405768Y-71116635D01*
X64387389Y-71291500D01*
X64386496Y-71300000D01*
X63325857Y-71300000D01*
X63326728Y-71291500D01*
X63333167Y-71228650D01*
X63333500Y-71225400D01*
X63333500Y-69774600D01*
X63322526Y-69668834D01*
X63320346Y-69662301D01*
X63320086Y-69661095D01*
X63325259Y-69590288D01*
X63367892Y-69533517D01*
X63434450Y-69508807D01*
X63443247Y-69508500D01*
X103399072Y-69508500D01*
X103467193Y-69528502D01*
X103513686Y-69582158D01*
X103524416Y-69647342D01*
X103516500Y-69724600D01*
X103516500Y-72075400D01*
X103516837Y-72078646D01*
X103516837Y-72078650D01*
X103526333Y-72170166D01*
X103527474Y-72181166D01*
X103529655Y-72187702D01*
X103529655Y-72187704D01*
X103559011Y-72275695D01*
X103583450Y-72348946D01*
X103676522Y-72499348D01*
X103801697Y-72624305D01*
X103807927Y-72628145D01*
X103807928Y-72628146D01*
X103945090Y-72712694D01*
X103952262Y-72717115D01*
X103994806Y-72731226D01*
X104113611Y-72770632D01*
X104113613Y-72770632D01*
X104120139Y-72772797D01*
X104126975Y-72773497D01*
X104126978Y-72773498D01*
X104170031Y-72777909D01*
X104224600Y-72783500D01*
X106575400Y-72783500D01*
X106578646Y-72783163D01*
X106578650Y-72783163D01*
X106674308Y-72773238D01*
X106674312Y-72773237D01*
X106681166Y-72772526D01*
X106687702Y-72770345D01*
X106687704Y-72770345D01*
X106838188Y-72720139D01*
X106848946Y-72716550D01*
X106999348Y-72623478D01*
X107124305Y-72498303D01*
X107217115Y-72347738D01*
X107270328Y-72187306D01*
X107270632Y-72186389D01*
X107270632Y-72186387D01*
X107272797Y-72179861D01*
X107273791Y-72170166D01*
X107281614Y-72093803D01*
X107283500Y-72075400D01*
X107283500Y-69724600D01*
X107279238Y-69683515D01*
X107275501Y-69647503D01*
X107288366Y-69577682D01*
X107336937Y-69525900D01*
X107400828Y-69508500D01*
X110365500Y-69508500D01*
X110433621Y-69528502D01*
X110480114Y-69582158D01*
X110491500Y-69634500D01*
X110491500Y-70491377D01*
X110491498Y-70492147D01*
X110491024Y-70569721D01*
X110493491Y-70578352D01*
X110499150Y-70598153D01*
X110502728Y-70614915D01*
X110506920Y-70644187D01*
X110510634Y-70652355D01*
X110510634Y-70652356D01*
X110517548Y-70667562D01*
X110523996Y-70685086D01*
X110531051Y-70709771D01*
X110535843Y-70717365D01*
X110535844Y-70717368D01*
X110546830Y-70734780D01*
X110554969Y-70749863D01*
X110567208Y-70776782D01*
X110573069Y-70783584D01*
X110583970Y-70796235D01*
X110595073Y-70811239D01*
X110608776Y-70832958D01*
X110615501Y-70838897D01*
X110615504Y-70838901D01*
X110630938Y-70852532D01*
X110642982Y-70864724D01*
X110656427Y-70880327D01*
X110656430Y-70880329D01*
X110662287Y-70887127D01*
X110669816Y-70892007D01*
X110669817Y-70892008D01*
X110683835Y-70901094D01*
X110698709Y-70912385D01*
X110710413Y-70922721D01*
X110717951Y-70929378D01*
X110744711Y-70941942D01*
X110759691Y-70950263D01*
X110776983Y-70961471D01*
X110776988Y-70961473D01*
X110784515Y-70966352D01*
X110793108Y-70968922D01*
X110793113Y-70968924D01*
X110809120Y-70973711D01*
X110826564Y-70980372D01*
X110841676Y-70987467D01*
X110841678Y-70987468D01*
X110849800Y-70991281D01*
X110858667Y-70992662D01*
X110858668Y-70992662D01*
X110861353Y-70993080D01*
X110879017Y-70995830D01*
X110895732Y-70999613D01*
X110915466Y-71005515D01*
X110915472Y-71005516D01*
X110924066Y-71008086D01*
X110933037Y-71008141D01*
X110933038Y-71008141D01*
X110943097Y-71008202D01*
X110958506Y-71008296D01*
X110959289Y-71008329D01*
X110960386Y-71008500D01*
X110991377Y-71008500D01*
X110992147Y-71008502D01*
X111065785Y-71008952D01*
X111065786Y-71008952D01*
X111069721Y-71008976D01*
X111071065Y-71008592D01*
X111072410Y-71008500D01*
X113991377Y-71008500D01*
X113992148Y-71008502D01*
X114069721Y-71008976D01*
X114098152Y-71000850D01*
X114114915Y-70997272D01*
X114115753Y-70997152D01*
X114144187Y-70993080D01*
X114167564Y-70982451D01*
X114185087Y-70976004D01*
X114209771Y-70968949D01*
X114217365Y-70964157D01*
X114217368Y-70964156D01*
X114234780Y-70953170D01*
X114249865Y-70945030D01*
X114276782Y-70932792D01*
X114296235Y-70916030D01*
X114311239Y-70904927D01*
X114332958Y-70891224D01*
X114338897Y-70884499D01*
X114338901Y-70884496D01*
X114352532Y-70869062D01*
X114364724Y-70857018D01*
X114380327Y-70843573D01*
X114380329Y-70843570D01*
X114387127Y-70837713D01*
X114401094Y-70816165D01*
X114412385Y-70801291D01*
X114423431Y-70788783D01*
X114423432Y-70788782D01*
X114429378Y-70782049D01*
X114441943Y-70755287D01*
X114450263Y-70740309D01*
X114461471Y-70723017D01*
X114461473Y-70723012D01*
X114466352Y-70715485D01*
X114468922Y-70706892D01*
X114468924Y-70706887D01*
X114473711Y-70690880D01*
X114480372Y-70673436D01*
X114487467Y-70658324D01*
X114487468Y-70658322D01*
X114491281Y-70650200D01*
X114495830Y-70620983D01*
X114499613Y-70604268D01*
X114505515Y-70584534D01*
X114505516Y-70584528D01*
X114508086Y-70575934D01*
X114508296Y-70541494D01*
X114508329Y-70540711D01*
X114508500Y-70539614D01*
X114508500Y-70508623D01*
X114508502Y-70507853D01*
X114508952Y-70434215D01*
X114508952Y-70434214D01*
X114508976Y-70430279D01*
X114508592Y-70428935D01*
X114508500Y-70427590D01*
X114508500Y-69634500D01*
X114528502Y-69566379D01*
X114582158Y-69519886D01*
X114634500Y-69508500D01*
X116450633Y-69508500D01*
X116470018Y-69510000D01*
X116484852Y-69512310D01*
X116484855Y-69512310D01*
X116493724Y-69513691D01*
X116502626Y-69512527D01*
X116502750Y-69512511D01*
X116533192Y-69512240D01*
X116540621Y-69513077D01*
X116595264Y-69519234D01*
X116622771Y-69525513D01*
X116699853Y-69552485D01*
X116725274Y-69564727D01*
X116794426Y-69608178D01*
X116816485Y-69625770D01*
X116874230Y-69683515D01*
X116891822Y-69705574D01*
X116935273Y-69774726D01*
X116947515Y-69800147D01*
X116974487Y-69877228D01*
X116980766Y-69904736D01*
X116987018Y-69960226D01*
X116986923Y-69975868D01*
X116987800Y-69975879D01*
X116987690Y-69984851D01*
X116986309Y-69993724D01*
X116987473Y-70002626D01*
X116987473Y-70002628D01*
X116990436Y-70025283D01*
X116991500Y-70041621D01*
X116991500Y-77950633D01*
X116990000Y-77970018D01*
X116986309Y-77993724D01*
X116987473Y-78002626D01*
X116987489Y-78002750D01*
X116987760Y-78033193D01*
X116980766Y-78095264D01*
X116974487Y-78122771D01*
X116947515Y-78199853D01*
X116935273Y-78225274D01*
X116891822Y-78294426D01*
X116874230Y-78316485D01*
X116816485Y-78374230D01*
X116794426Y-78391822D01*
X116725274Y-78435273D01*
X116699853Y-78447515D01*
X116622772Y-78474487D01*
X116595264Y-78480766D01*
X116539774Y-78487018D01*
X116524132Y-78486923D01*
X116524121Y-78487800D01*
X116515149Y-78487690D01*
X116506276Y-78486309D01*
X116497374Y-78487473D01*
X116497372Y-78487473D01*
X116486385Y-78488910D01*
X116474714Y-78490436D01*
X116458379Y-78491500D01*
X114634500Y-78491500D01*
X114566379Y-78471498D01*
X114519886Y-78417842D01*
X114508500Y-78365500D01*
X114508500Y-77508623D01*
X114508502Y-77507853D01*
X114508800Y-77459102D01*
X114508976Y-77430279D01*
X114500850Y-77401847D01*
X114497272Y-77385085D01*
X114496154Y-77377279D01*
X114493080Y-77355813D01*
X114482451Y-77332436D01*
X114476004Y-77314913D01*
X114471416Y-77298862D01*
X114468949Y-77290229D01*
X114464156Y-77282632D01*
X114453170Y-77265220D01*
X114445030Y-77250135D01*
X114442390Y-77244329D01*
X114432792Y-77223218D01*
X114416030Y-77203765D01*
X114404927Y-77188761D01*
X114391224Y-77167042D01*
X114384499Y-77161103D01*
X114384496Y-77161099D01*
X114369062Y-77147468D01*
X114357018Y-77135276D01*
X114343573Y-77119673D01*
X114343570Y-77119671D01*
X114337713Y-77112873D01*
X114324009Y-77103990D01*
X114316165Y-77098906D01*
X114301291Y-77087615D01*
X114288783Y-77076569D01*
X114288782Y-77076568D01*
X114282049Y-77070622D01*
X114255287Y-77058057D01*
X114240309Y-77049737D01*
X114223017Y-77038529D01*
X114223012Y-77038527D01*
X114215485Y-77033648D01*
X114206892Y-77031078D01*
X114206887Y-77031076D01*
X114190880Y-77026289D01*
X114173436Y-77019628D01*
X114158324Y-77012533D01*
X114158322Y-77012532D01*
X114150200Y-77008719D01*
X114141333Y-77007338D01*
X114141332Y-77007338D01*
X114130478Y-77005648D01*
X114120983Y-77004170D01*
X114104268Y-77000387D01*
X114084534Y-76994485D01*
X114084528Y-76994484D01*
X114075934Y-76991914D01*
X114066963Y-76991859D01*
X114066962Y-76991859D01*
X114056903Y-76991798D01*
X114041494Y-76991704D01*
X114040711Y-76991671D01*
X114039614Y-76991500D01*
X114008623Y-76991500D01*
X114007853Y-76991498D01*
X113934215Y-76991048D01*
X113934214Y-76991048D01*
X113930279Y-76991024D01*
X113928935Y-76991408D01*
X113927590Y-76991500D01*
X111008623Y-76991500D01*
X111007853Y-76991498D01*
X111007037Y-76991493D01*
X110930279Y-76991024D01*
X110907918Y-76997415D01*
X110901847Y-76999150D01*
X110885085Y-77002728D01*
X110855813Y-77006920D01*
X110847645Y-77010634D01*
X110847644Y-77010634D01*
X110832438Y-77017548D01*
X110814914Y-77023996D01*
X110790229Y-77031051D01*
X110782635Y-77035843D01*
X110782632Y-77035844D01*
X110765220Y-77046830D01*
X110750137Y-77054969D01*
X110723218Y-77067208D01*
X110716416Y-77073069D01*
X110703765Y-77083970D01*
X110688761Y-77095073D01*
X110667042Y-77108776D01*
X110661103Y-77115501D01*
X110661099Y-77115504D01*
X110647468Y-77130938D01*
X110635276Y-77142982D01*
X110619673Y-77156427D01*
X110619671Y-77156430D01*
X110612873Y-77162287D01*
X110607993Y-77169816D01*
X110607992Y-77169817D01*
X110598906Y-77183835D01*
X110587615Y-77198709D01*
X110577918Y-77209690D01*
X110570622Y-77217951D01*
X110559554Y-77241525D01*
X110558058Y-77244711D01*
X110549737Y-77259691D01*
X110538529Y-77276983D01*
X110538527Y-77276988D01*
X110533648Y-77284515D01*
X110531078Y-77293108D01*
X110531076Y-77293113D01*
X110526289Y-77309120D01*
X110519628Y-77326564D01*
X110512533Y-77341676D01*
X110508719Y-77349800D01*
X110507338Y-77358667D01*
X110507338Y-77358668D01*
X110504170Y-77379015D01*
X110500387Y-77395732D01*
X110494485Y-77415466D01*
X110494484Y-77415472D01*
X110491914Y-77424066D01*
X110491859Y-77433037D01*
X110491859Y-77433038D01*
X110491704Y-77458497D01*
X110491671Y-77459289D01*
X110491500Y-77460386D01*
X110491500Y-77491377D01*
X110491498Y-77492147D01*
X110491024Y-77569721D01*
X110491408Y-77571065D01*
X110491500Y-77572410D01*
X110491500Y-78315995D01*
X110471498Y-78384116D01*
X110417842Y-78430609D01*
X110365598Y-78441995D01*
X109351430Y-78442788D01*
X107392231Y-78444318D01*
X107324097Y-78424370D01*
X107277562Y-78370751D01*
X107267404Y-78300485D01*
X107268934Y-78291909D01*
X107273005Y-78272919D01*
X107282672Y-78178562D01*
X107283000Y-78172146D01*
X107283000Y-77272115D01*
X107278525Y-77256876D01*
X107277135Y-77255671D01*
X107269452Y-77254000D01*
X103535116Y-77254000D01*
X103519877Y-77258475D01*
X103518672Y-77259865D01*
X103517001Y-77267548D01*
X103517001Y-78172095D01*
X103517338Y-78178614D01*
X103527257Y-78274206D01*
X103531605Y-78294343D01*
X103528614Y-78294989D01*
X103530727Y-78352461D01*
X103494565Y-78413557D01*
X103431111Y-78445404D01*
X103408706Y-78447430D01*
X63546123Y-78478573D01*
X63477987Y-78458624D01*
X63431452Y-78405005D01*
X63421294Y-78334739D01*
X63421428Y-78333989D01*
X63422797Y-78329861D01*
X63433500Y-78225400D01*
X63433500Y-77000000D01*
X75186496Y-77000000D01*
X75187186Y-77006565D01*
X75204053Y-77167042D01*
X75206458Y-77189928D01*
X75265473Y-77371556D01*
X75268776Y-77377278D01*
X75268777Y-77377279D01*
X75294394Y-77421648D01*
X75360960Y-77536944D01*
X75365378Y-77541851D01*
X75365379Y-77541852D01*
X75446035Y-77631430D01*
X75488747Y-77678866D01*
X75643248Y-77791118D01*
X75649276Y-77793802D01*
X75649278Y-77793803D01*
X75811681Y-77866109D01*
X75817712Y-77868794D01*
X75911113Y-77888647D01*
X75998056Y-77907128D01*
X75998061Y-77907128D01*
X76004513Y-77908500D01*
X76195487Y-77908500D01*
X76201939Y-77907128D01*
X76201944Y-77907128D01*
X76288887Y-77888647D01*
X76382288Y-77868794D01*
X76388319Y-77866109D01*
X76550722Y-77793803D01*
X76550724Y-77793802D01*
X76556752Y-77791118D01*
X76711253Y-77678866D01*
X76753965Y-77631430D01*
X76834621Y-77541852D01*
X76834622Y-77541851D01*
X76839040Y-77536944D01*
X76905606Y-77421648D01*
X76931223Y-77377279D01*
X76931224Y-77377278D01*
X76934527Y-77371556D01*
X76993542Y-77189928D01*
X76995948Y-77167042D01*
X77012814Y-77006565D01*
X77013504Y-77000000D01*
X77007983Y-76947470D01*
X76994232Y-76816635D01*
X76994232Y-76816633D01*
X76993542Y-76810072D01*
X76934527Y-76628444D01*
X76839040Y-76463056D01*
X76744383Y-76357928D01*
X76715675Y-76326045D01*
X76715674Y-76326044D01*
X76711253Y-76321134D01*
X76579893Y-76225695D01*
X76562094Y-76212763D01*
X76562093Y-76212762D01*
X76556752Y-76208882D01*
X76550724Y-76206198D01*
X76550722Y-76206197D01*
X76388319Y-76133891D01*
X76388318Y-76133891D01*
X76382288Y-76131206D01*
X76288888Y-76111353D01*
X76201944Y-76092872D01*
X76201939Y-76092872D01*
X76195487Y-76091500D01*
X76004513Y-76091500D01*
X75998061Y-76092872D01*
X75998056Y-76092872D01*
X75911112Y-76111353D01*
X75817712Y-76131206D01*
X75811682Y-76133891D01*
X75811681Y-76133891D01*
X75649278Y-76206197D01*
X75649276Y-76206198D01*
X75643248Y-76208882D01*
X75637907Y-76212762D01*
X75637906Y-76212763D01*
X75620107Y-76225695D01*
X75488747Y-76321134D01*
X75484326Y-76326044D01*
X75484325Y-76326045D01*
X75455618Y-76357928D01*
X75360960Y-76463056D01*
X75265473Y-76628444D01*
X75206458Y-76810072D01*
X75205768Y-76816633D01*
X75205768Y-76816635D01*
X75192017Y-76947470D01*
X75186496Y-77000000D01*
X63433500Y-77000000D01*
X63433500Y-76774600D01*
X63430234Y-76743124D01*
X63423238Y-76675692D01*
X63423237Y-76675688D01*
X63422526Y-76668834D01*
X63407142Y-76622721D01*
X63368868Y-76508002D01*
X63366550Y-76501054D01*
X63273478Y-76350652D01*
X63148303Y-76225695D01*
X63140904Y-76221134D01*
X63003968Y-76136725D01*
X63003966Y-76136724D01*
X62997738Y-76132885D01*
X62877102Y-76092872D01*
X62836389Y-76079368D01*
X62836387Y-76079368D01*
X62829861Y-76077203D01*
X62823025Y-76076503D01*
X62823022Y-76076502D01*
X62774746Y-76071556D01*
X62725400Y-76066500D01*
X61274600Y-76066500D01*
X61271354Y-76066837D01*
X61271350Y-76066837D01*
X61175692Y-76076762D01*
X61175688Y-76076763D01*
X61168834Y-76077474D01*
X61162298Y-76079655D01*
X61162296Y-76079655D01*
X61082741Y-76106197D01*
X61001054Y-76133450D01*
X60850652Y-76226522D01*
X60725695Y-76351697D01*
X60721855Y-76357927D01*
X60721854Y-76357928D01*
X60639929Y-76490835D01*
X60632885Y-76502262D01*
X60611802Y-76565826D01*
X60591033Y-76628444D01*
X60577203Y-76670139D01*
X60566500Y-76774600D01*
X60566500Y-78225400D01*
X60577456Y-78330988D01*
X60577474Y-78331166D01*
X60577442Y-78331169D01*
X60572470Y-78399204D01*
X60529836Y-78455974D01*
X60463277Y-78480682D01*
X60454582Y-78480989D01*
X60446021Y-78480996D01*
X60245055Y-78481153D01*
X60176919Y-78461204D01*
X60130384Y-78407585D01*
X60120226Y-78337319D01*
X60121756Y-78328740D01*
X60123006Y-78322911D01*
X60132672Y-78228562D01*
X60133000Y-78222146D01*
X60133000Y-77772115D01*
X60128525Y-77756876D01*
X60127135Y-77755671D01*
X60119452Y-77754000D01*
X57285116Y-77754000D01*
X57269877Y-77758475D01*
X57268672Y-77759865D01*
X57267001Y-77767548D01*
X57267001Y-78222095D01*
X57267338Y-78228614D01*
X57277256Y-78324202D01*
X57278718Y-78330972D01*
X57273544Y-78401780D01*
X57230910Y-78458550D01*
X57164351Y-78483259D01*
X57155655Y-78483566D01*
X57121365Y-78483593D01*
X56945017Y-78483731D01*
X56876881Y-78463782D01*
X56830346Y-78410163D01*
X56820187Y-78339897D01*
X56821025Y-78335204D01*
X56822797Y-78329861D01*
X56833500Y-78225400D01*
X56833500Y-77227885D01*
X57267000Y-77227885D01*
X57271475Y-77243124D01*
X57272865Y-77244329D01*
X57280548Y-77246000D01*
X58427885Y-77246000D01*
X58443124Y-77241525D01*
X58444329Y-77240135D01*
X58446000Y-77232452D01*
X58446000Y-77227885D01*
X58954000Y-77227885D01*
X58958475Y-77243124D01*
X58959865Y-77244329D01*
X58967548Y-77246000D01*
X60114884Y-77246000D01*
X60130123Y-77241525D01*
X60131328Y-77240135D01*
X60132999Y-77232452D01*
X60132999Y-76777905D01*
X60132662Y-76771386D01*
X60122743Y-76675794D01*
X60119851Y-76662400D01*
X60068412Y-76508216D01*
X60062239Y-76495038D01*
X59976937Y-76357193D01*
X59967901Y-76345792D01*
X59853171Y-76231261D01*
X59841760Y-76222249D01*
X59703757Y-76137184D01*
X59690576Y-76131037D01*
X59536290Y-76079862D01*
X59522914Y-76076995D01*
X59428562Y-76067328D01*
X59422145Y-76067000D01*
X58972115Y-76067000D01*
X58956876Y-76071475D01*
X58955671Y-76072865D01*
X58954000Y-76080548D01*
X58954000Y-77227885D01*
X58446000Y-77227885D01*
X58446000Y-76085116D01*
X58441525Y-76069877D01*
X58440135Y-76068672D01*
X58432452Y-76067001D01*
X57977905Y-76067001D01*
X57971386Y-76067338D01*
X57875794Y-76077257D01*
X57862400Y-76080149D01*
X57708216Y-76131588D01*
X57695038Y-76137761D01*
X57557193Y-76223063D01*
X57545792Y-76232099D01*
X57431261Y-76346829D01*
X57422249Y-76358240D01*
X57337184Y-76496243D01*
X57331037Y-76509424D01*
X57279862Y-76663710D01*
X57276995Y-76677086D01*
X57267328Y-76771438D01*
X57267000Y-76777855D01*
X57267000Y-77227885D01*
X56833500Y-77227885D01*
X56833500Y-76774600D01*
X56830234Y-76743124D01*
X56823238Y-76675692D01*
X56823237Y-76675688D01*
X56822526Y-76668834D01*
X56807142Y-76622721D01*
X56768868Y-76508002D01*
X56766550Y-76501054D01*
X56673478Y-76350652D01*
X56548303Y-76225695D01*
X56540904Y-76221134D01*
X56403968Y-76136725D01*
X56403966Y-76136724D01*
X56397738Y-76132885D01*
X56277102Y-76092872D01*
X56236389Y-76079368D01*
X56236387Y-76079368D01*
X56229861Y-76077203D01*
X56223025Y-76076503D01*
X56223022Y-76076502D01*
X56174746Y-76071556D01*
X56125400Y-76066500D01*
X54674600Y-76066500D01*
X54671354Y-76066837D01*
X54671350Y-76066837D01*
X54575692Y-76076762D01*
X54575688Y-76076763D01*
X54568834Y-76077474D01*
X54562298Y-76079655D01*
X54562296Y-76079655D01*
X54482741Y-76106197D01*
X54401054Y-76133450D01*
X54250652Y-76226522D01*
X54125695Y-76351697D01*
X54121855Y-76357927D01*
X54121854Y-76357928D01*
X54039929Y-76490835D01*
X54032885Y-76502262D01*
X54011802Y-76565826D01*
X53991033Y-76628444D01*
X53977203Y-76670139D01*
X53966500Y-76774600D01*
X53966500Y-78225400D01*
X53977474Y-78331166D01*
X53978669Y-78334748D01*
X53973587Y-78404352D01*
X53930956Y-78461125D01*
X53864398Y-78485836D01*
X53855695Y-78486144D01*
X53644464Y-78486309D01*
X53576328Y-78466360D01*
X53529793Y-78412741D01*
X53519635Y-78342475D01*
X53520824Y-78335810D01*
X53522797Y-78329861D01*
X53523510Y-78322911D01*
X53533167Y-78228650D01*
X53533500Y-78225400D01*
X53533500Y-76774600D01*
X53530234Y-76743124D01*
X53523238Y-76675692D01*
X53523237Y-76675688D01*
X53522526Y-76668834D01*
X53507142Y-76622721D01*
X53468868Y-76508002D01*
X53466550Y-76501054D01*
X53373478Y-76350652D01*
X53248303Y-76225695D01*
X53240904Y-76221134D01*
X53103968Y-76136725D01*
X53103966Y-76136724D01*
X53097738Y-76132885D01*
X53051281Y-76117476D01*
X52992922Y-76077045D01*
X52965685Y-76011481D01*
X52971116Y-75958948D01*
X52993542Y-75889928D01*
X53001599Y-75813275D01*
X53012814Y-75706565D01*
X53012814Y-75706564D01*
X53013504Y-75700000D01*
X53002271Y-75593120D01*
X52994232Y-75516635D01*
X52994232Y-75516633D01*
X52993542Y-75510072D01*
X52934527Y-75328444D01*
X52910247Y-75286389D01*
X52852970Y-75187184D01*
X52839040Y-75163056D01*
X52831949Y-75155180D01*
X52715675Y-75026045D01*
X52715674Y-75026044D01*
X52711253Y-75021134D01*
X52593997Y-74935942D01*
X52562094Y-74912763D01*
X52562093Y-74912762D01*
X52556752Y-74908882D01*
X52550724Y-74906198D01*
X52550722Y-74906197D01*
X52388319Y-74833891D01*
X52388318Y-74833891D01*
X52382288Y-74831206D01*
X52288888Y-74811353D01*
X52201944Y-74792872D01*
X52201939Y-74792872D01*
X52195487Y-74791500D01*
X52004513Y-74791500D01*
X51998061Y-74792872D01*
X51998056Y-74792872D01*
X51911112Y-74811353D01*
X51817712Y-74831206D01*
X51811682Y-74833891D01*
X51811681Y-74833891D01*
X51649278Y-74906197D01*
X51649276Y-74906198D01*
X51643248Y-74908882D01*
X51637907Y-74912762D01*
X51637906Y-74912763D01*
X51606003Y-74935942D01*
X51488747Y-75021134D01*
X51484326Y-75026044D01*
X51484325Y-75026045D01*
X51368052Y-75155180D01*
X51360960Y-75163056D01*
X51347030Y-75187184D01*
X51289754Y-75286389D01*
X51265473Y-75328444D01*
X51206458Y-75510072D01*
X51205768Y-75516633D01*
X51205768Y-75516635D01*
X51197729Y-75593120D01*
X51186496Y-75700000D01*
X51187186Y-75706564D01*
X51187186Y-75706565D01*
X51198402Y-75813275D01*
X51206458Y-75889928D01*
X51228905Y-75959012D01*
X51230933Y-76029978D01*
X51194271Y-76090776D01*
X51148949Y-76117470D01*
X51108007Y-76131130D01*
X51108005Y-76131131D01*
X51101054Y-76133450D01*
X50950652Y-76226522D01*
X50825695Y-76351697D01*
X50821855Y-76357927D01*
X50821854Y-76357928D01*
X50739929Y-76490835D01*
X50732885Y-76502262D01*
X50711802Y-76565826D01*
X50691033Y-76628444D01*
X50677203Y-76670139D01*
X50666500Y-76774600D01*
X50666500Y-78225400D01*
X50666837Y-78228646D01*
X50666837Y-78228650D01*
X50676762Y-78324307D01*
X50676763Y-78324310D01*
X50677474Y-78331166D01*
X50679280Y-78336581D01*
X50674144Y-78406929D01*
X50631514Y-78463702D01*
X50564957Y-78488414D01*
X50556259Y-78488722D01*
X49545171Y-78489512D01*
X47634598Y-78491004D01*
X47566462Y-78471055D01*
X47519927Y-78417436D01*
X47508500Y-78365004D01*
X47508500Y-77508623D01*
X47508502Y-77507853D01*
X47508800Y-77459102D01*
X47508976Y-77430279D01*
X47500850Y-77401847D01*
X47497272Y-77385085D01*
X47496154Y-77377279D01*
X47493080Y-77355813D01*
X47482451Y-77332436D01*
X47476004Y-77314913D01*
X47471416Y-77298862D01*
X47468949Y-77290229D01*
X47464156Y-77282632D01*
X47453170Y-77265220D01*
X47445030Y-77250135D01*
X47442390Y-77244329D01*
X47432792Y-77223218D01*
X47416030Y-77203765D01*
X47404927Y-77188761D01*
X47391224Y-77167042D01*
X47384499Y-77161103D01*
X47384496Y-77161099D01*
X47369062Y-77147468D01*
X47357018Y-77135276D01*
X47343573Y-77119673D01*
X47343570Y-77119671D01*
X47337713Y-77112873D01*
X47324009Y-77103990D01*
X47316165Y-77098906D01*
X47301291Y-77087615D01*
X47288783Y-77076569D01*
X47288782Y-77076568D01*
X47282049Y-77070622D01*
X47255287Y-77058057D01*
X47240309Y-77049737D01*
X47223017Y-77038529D01*
X47223012Y-77038527D01*
X47215485Y-77033648D01*
X47206892Y-77031078D01*
X47206887Y-77031076D01*
X47190880Y-77026289D01*
X47173436Y-77019628D01*
X47158324Y-77012533D01*
X47158322Y-77012532D01*
X47150200Y-77008719D01*
X47141333Y-77007338D01*
X47141332Y-77007338D01*
X47130478Y-77005648D01*
X47120983Y-77004170D01*
X47104268Y-77000387D01*
X47084534Y-76994485D01*
X47084528Y-76994484D01*
X47075934Y-76991914D01*
X47066963Y-76991859D01*
X47066962Y-76991859D01*
X47056903Y-76991798D01*
X47041494Y-76991704D01*
X47040711Y-76991671D01*
X47039614Y-76991500D01*
X47008623Y-76991500D01*
X47007853Y-76991498D01*
X46934215Y-76991048D01*
X46934214Y-76991048D01*
X46930279Y-76991024D01*
X46928935Y-76991408D01*
X46927590Y-76991500D01*
X44008623Y-76991500D01*
X44007853Y-76991498D01*
X44007037Y-76991493D01*
X43930279Y-76991024D01*
X43907918Y-76997415D01*
X43901847Y-76999150D01*
X43885085Y-77002728D01*
X43855813Y-77006920D01*
X43847645Y-77010634D01*
X43847644Y-77010634D01*
X43832438Y-77017548D01*
X43814914Y-77023996D01*
X43790229Y-77031051D01*
X43782635Y-77035843D01*
X43782632Y-77035844D01*
X43765220Y-77046830D01*
X43750137Y-77054969D01*
X43723218Y-77067208D01*
X43716416Y-77073069D01*
X43703765Y-77083970D01*
X43688761Y-77095073D01*
X43667042Y-77108776D01*
X43661103Y-77115501D01*
X43661099Y-77115504D01*
X43647468Y-77130938D01*
X43635276Y-77142982D01*
X43619673Y-77156427D01*
X43619671Y-77156430D01*
X43612873Y-77162287D01*
X43607993Y-77169816D01*
X43607992Y-77169817D01*
X43598906Y-77183835D01*
X43587615Y-77198709D01*
X43577918Y-77209690D01*
X43570622Y-77217951D01*
X43559554Y-77241525D01*
X43558058Y-77244711D01*
X43549737Y-77259691D01*
X43538529Y-77276983D01*
X43538527Y-77276988D01*
X43533648Y-77284515D01*
X43531078Y-77293108D01*
X43531076Y-77293113D01*
X43526289Y-77309120D01*
X43519628Y-77326564D01*
X43512533Y-77341676D01*
X43508719Y-77349800D01*
X43507338Y-77358667D01*
X43507338Y-77358668D01*
X43504170Y-77379015D01*
X43500387Y-77395732D01*
X43494485Y-77415466D01*
X43494484Y-77415472D01*
X43491914Y-77424066D01*
X43491859Y-77433037D01*
X43491859Y-77433038D01*
X43491704Y-77458497D01*
X43491671Y-77459289D01*
X43491500Y-77460386D01*
X43491500Y-77491377D01*
X43491498Y-77492147D01*
X43491024Y-77569721D01*
X43491408Y-77571065D01*
X43491500Y-77572410D01*
X43491500Y-78365500D01*
X43471498Y-78433621D01*
X43417842Y-78480114D01*
X43365500Y-78491500D01*
X42716537Y-78491500D01*
X42648416Y-78471498D01*
X42601923Y-78417842D01*
X42597764Y-78407560D01*
X42582694Y-78365004D01*
X42500934Y-78134119D01*
X42364907Y-77870572D01*
X42361771Y-77866109D01*
X42196835Y-77631430D01*
X42194372Y-77627925D01*
X42037492Y-77459102D01*
X41995404Y-77413810D01*
X41995401Y-77413808D01*
X41992483Y-77410667D01*
X41989168Y-77407953D01*
X41989164Y-77407950D01*
X41829515Y-77277279D01*
X41762977Y-77222818D01*
X41510101Y-77067856D01*
X41462203Y-77046830D01*
X41242465Y-76950372D01*
X41238533Y-76948646D01*
X41211776Y-76941024D01*
X41099981Y-76909178D01*
X41039946Y-76871279D01*
X41009932Y-76806939D01*
X41008500Y-76787999D01*
X41008500Y-74400000D01*
X42596551Y-74400000D01*
X42616294Y-74587838D01*
X42618334Y-74594116D01*
X42618334Y-74594117D01*
X42672070Y-74759500D01*
X42674658Y-74767466D01*
X42677961Y-74773188D01*
X42677962Y-74773189D01*
X42709745Y-74828238D01*
X42769094Y-74931034D01*
X42895475Y-75071393D01*
X42900814Y-75075272D01*
X43038627Y-75175400D01*
X43048275Y-75182410D01*
X43054302Y-75185093D01*
X43054303Y-75185094D01*
X43214788Y-75256546D01*
X43220819Y-75259231D01*
X43313191Y-75278865D01*
X43399107Y-75297128D01*
X43399112Y-75297128D01*
X43405564Y-75298500D01*
X43594436Y-75298500D01*
X43600888Y-75297128D01*
X43600893Y-75297128D01*
X43686809Y-75278865D01*
X43779181Y-75259231D01*
X43785212Y-75256546D01*
X43945697Y-75185094D01*
X43945698Y-75185093D01*
X43951725Y-75182410D01*
X43961374Y-75175400D01*
X44099186Y-75075272D01*
X44104525Y-75071393D01*
X44230906Y-74931034D01*
X44290255Y-74828238D01*
X44322038Y-74773189D01*
X44322039Y-74773188D01*
X44325342Y-74767466D01*
X44327931Y-74759500D01*
X44381666Y-74594117D01*
X44381666Y-74594116D01*
X44383706Y-74587838D01*
X44392938Y-74500000D01*
X65486496Y-74500000D01*
X65487186Y-74506565D01*
X65502630Y-74653502D01*
X65506458Y-74689928D01*
X65565473Y-74871556D01*
X65568776Y-74877278D01*
X65568777Y-74877279D01*
X65573289Y-74885094D01*
X65660960Y-75036944D01*
X65665378Y-75041851D01*
X65665379Y-75041852D01*
X65784325Y-75173955D01*
X65788747Y-75178866D01*
X65800196Y-75187184D01*
X65918398Y-75273063D01*
X65943248Y-75291118D01*
X65949276Y-75293802D01*
X65949278Y-75293803D01*
X66034534Y-75331761D01*
X66117712Y-75368794D01*
X66211113Y-75388647D01*
X66298056Y-75407128D01*
X66298061Y-75407128D01*
X66304513Y-75408500D01*
X66495487Y-75408500D01*
X66501939Y-75407128D01*
X66501944Y-75407128D01*
X66588887Y-75388647D01*
X66682288Y-75368794D01*
X66765466Y-75331761D01*
X66850722Y-75293803D01*
X66850724Y-75293802D01*
X66856752Y-75291118D01*
X66881603Y-75273063D01*
X66999804Y-75187184D01*
X67011253Y-75178866D01*
X67017271Y-75172183D01*
X67056364Y-75128765D01*
X67116810Y-75091525D01*
X67187793Y-75092877D01*
X67243636Y-75128765D01*
X67282730Y-75172183D01*
X67288747Y-75178866D01*
X67300196Y-75187184D01*
X67418398Y-75273063D01*
X67443248Y-75291118D01*
X67449276Y-75293802D01*
X67449278Y-75293803D01*
X67534534Y-75331761D01*
X67617712Y-75368794D01*
X67711113Y-75388647D01*
X67798056Y-75407128D01*
X67798061Y-75407128D01*
X67804513Y-75408500D01*
X67995487Y-75408500D01*
X68001939Y-75407128D01*
X68001944Y-75407128D01*
X68088887Y-75388647D01*
X68182288Y-75368794D01*
X68265466Y-75331761D01*
X68350722Y-75293803D01*
X68350724Y-75293802D01*
X68356752Y-75291118D01*
X68381603Y-75273063D01*
X68502681Y-75185094D01*
X68511253Y-75178866D01*
X68515668Y-75173963D01*
X68520580Y-75169540D01*
X68521705Y-75170789D01*
X68575014Y-75137949D01*
X68608200Y-75133500D01*
X77485406Y-75133500D01*
X77553527Y-75153502D01*
X77574501Y-75170405D01*
X78052878Y-75648782D01*
X78086904Y-75711094D01*
X78089092Y-75724703D01*
X78106458Y-75889928D01*
X78165473Y-76071556D01*
X78168776Y-76077278D01*
X78168777Y-76077279D01*
X78191985Y-76117476D01*
X78260960Y-76236944D01*
X78265378Y-76241851D01*
X78265379Y-76241852D01*
X78369894Y-76357928D01*
X78388747Y-76378866D01*
X78543248Y-76491118D01*
X78549276Y-76493802D01*
X78549278Y-76493803D01*
X78711681Y-76566109D01*
X78717712Y-76568794D01*
X78811112Y-76588647D01*
X78898056Y-76607128D01*
X78898061Y-76607128D01*
X78904513Y-76608500D01*
X79095487Y-76608500D01*
X79101939Y-76607128D01*
X79101944Y-76607128D01*
X79152564Y-76596368D01*
X79223355Y-76601770D01*
X79279988Y-76644587D01*
X79304481Y-76711225D01*
X79304071Y-76732782D01*
X79286496Y-76900000D01*
X79287186Y-76906565D01*
X79303957Y-77066129D01*
X79306458Y-77089928D01*
X79365473Y-77271556D01*
X79460960Y-77436944D01*
X79465378Y-77441851D01*
X79465379Y-77441852D01*
X79510665Y-77492147D01*
X79588747Y-77578866D01*
X79656271Y-77627925D01*
X79726385Y-77678866D01*
X79743248Y-77691118D01*
X79749276Y-77693802D01*
X79749278Y-77693803D01*
X79894535Y-77758475D01*
X79917712Y-77768794D01*
X80004479Y-77787237D01*
X80098056Y-77807128D01*
X80098061Y-77807128D01*
X80104513Y-77808500D01*
X80295487Y-77808500D01*
X80301939Y-77807128D01*
X80301944Y-77807128D01*
X80395521Y-77787237D01*
X80482288Y-77768794D01*
X80505465Y-77758475D01*
X80650722Y-77693803D01*
X80650724Y-77693802D01*
X80656752Y-77691118D01*
X80673616Y-77678866D01*
X80743729Y-77627925D01*
X80811253Y-77578866D01*
X80889335Y-77492147D01*
X80934621Y-77441852D01*
X80934622Y-77441851D01*
X80939040Y-77436944D01*
X81034527Y-77271556D01*
X81093542Y-77089928D01*
X81096044Y-77066129D01*
X81112814Y-76906565D01*
X81113504Y-76900000D01*
X81103723Y-76806939D01*
X81095414Y-76727885D01*
X103517000Y-76727885D01*
X103521475Y-76743124D01*
X103522865Y-76744329D01*
X103530548Y-76746000D01*
X105127885Y-76746000D01*
X105143124Y-76741525D01*
X105144329Y-76740135D01*
X105146000Y-76732452D01*
X105146000Y-76727885D01*
X105654000Y-76727885D01*
X105658475Y-76743124D01*
X105659865Y-76744329D01*
X105667548Y-76746000D01*
X107264884Y-76746000D01*
X107280123Y-76741525D01*
X107281328Y-76740135D01*
X107282999Y-76732452D01*
X107282999Y-75827905D01*
X107282662Y-75821386D01*
X107272743Y-75725794D01*
X107269851Y-75712400D01*
X107218412Y-75558216D01*
X107212239Y-75545038D01*
X107126937Y-75407193D01*
X107117901Y-75395792D01*
X107003171Y-75281261D01*
X106991760Y-75272249D01*
X106853757Y-75187184D01*
X106840576Y-75181037D01*
X106686290Y-75129862D01*
X106672914Y-75126995D01*
X106578562Y-75117328D01*
X106572145Y-75117000D01*
X105672115Y-75117000D01*
X105656876Y-75121475D01*
X105655671Y-75122865D01*
X105654000Y-75130548D01*
X105654000Y-76727885D01*
X105146000Y-76727885D01*
X105146000Y-75135116D01*
X105141525Y-75119877D01*
X105140135Y-75118672D01*
X105132452Y-75117001D01*
X104227905Y-75117001D01*
X104221386Y-75117338D01*
X104125794Y-75127257D01*
X104112400Y-75130149D01*
X103958216Y-75181588D01*
X103945038Y-75187761D01*
X103807193Y-75273063D01*
X103795792Y-75282099D01*
X103681261Y-75396829D01*
X103672249Y-75408240D01*
X103587184Y-75546243D01*
X103581037Y-75559424D01*
X103529862Y-75713710D01*
X103526995Y-75727086D01*
X103517328Y-75821438D01*
X103517000Y-75827855D01*
X103517000Y-76727885D01*
X81095414Y-76727885D01*
X81094232Y-76716635D01*
X81094232Y-76716633D01*
X81093542Y-76710072D01*
X81034527Y-76528444D01*
X81015117Y-76494824D01*
X80996775Y-76463056D01*
X80939040Y-76363056D01*
X80927872Y-76350652D01*
X80815675Y-76226045D01*
X80815674Y-76226044D01*
X80811253Y-76221134D01*
X80695706Y-76137184D01*
X80662094Y-76112763D01*
X80662093Y-76112762D01*
X80656752Y-76108882D01*
X80650724Y-76106198D01*
X80650722Y-76106197D01*
X80488319Y-76033891D01*
X80488318Y-76033891D01*
X80482288Y-76031206D01*
X80388888Y-76011353D01*
X80301944Y-75992872D01*
X80301939Y-75992872D01*
X80295487Y-75991500D01*
X80104513Y-75991500D01*
X80098061Y-75992872D01*
X80098056Y-75992872D01*
X80047436Y-76003632D01*
X79976645Y-75998230D01*
X79920012Y-75955413D01*
X79895519Y-75888775D01*
X79895929Y-75867214D01*
X79900741Y-75821438D01*
X79913504Y-75700000D01*
X79913192Y-75697032D01*
X89433996Y-75697032D01*
X89434686Y-75703597D01*
X89451883Y-75867214D01*
X89453958Y-75886960D01*
X89512973Y-76068588D01*
X89516276Y-76074310D01*
X89516277Y-76074311D01*
X89519482Y-76079862D01*
X89608460Y-76233976D01*
X89612878Y-76238883D01*
X89612879Y-76238884D01*
X89731825Y-76370987D01*
X89736247Y-76375898D01*
X89890748Y-76488150D01*
X89896776Y-76490834D01*
X89896778Y-76490835D01*
X90059181Y-76563141D01*
X90065212Y-76565826D01*
X90158613Y-76585679D01*
X90245556Y-76604160D01*
X90245561Y-76604160D01*
X90252013Y-76605532D01*
X90442987Y-76605532D01*
X90449439Y-76604160D01*
X90449444Y-76604160D01*
X90536387Y-76585679D01*
X90629788Y-76565826D01*
X90635819Y-76563141D01*
X90798222Y-76490835D01*
X90798224Y-76490834D01*
X90804252Y-76488150D01*
X90958753Y-76375898D01*
X90963175Y-76370987D01*
X91082121Y-76238884D01*
X91082122Y-76238883D01*
X91086540Y-76233976D01*
X91175518Y-76079862D01*
X91178723Y-76074311D01*
X91178724Y-76074310D01*
X91182027Y-76068588D01*
X91241042Y-75886960D01*
X91243118Y-75867214D01*
X91258095Y-75724707D01*
X91258407Y-75721738D01*
X91285420Y-75656082D01*
X91294622Y-75645814D01*
X92270031Y-74670405D01*
X92332343Y-74636379D01*
X92359126Y-74633500D01*
X99138500Y-74633500D01*
X99206621Y-74653502D01*
X99253114Y-74707158D01*
X99264500Y-74759500D01*
X99264500Y-75175400D01*
X99264837Y-75178646D01*
X99264837Y-75178650D01*
X99274549Y-75272249D01*
X99275474Y-75281166D01*
X99277655Y-75287702D01*
X99277655Y-75287704D01*
X99289338Y-75322721D01*
X99331450Y-75448946D01*
X99424522Y-75599348D01*
X99549697Y-75724305D01*
X99555927Y-75728145D01*
X99555928Y-75728146D01*
X99693090Y-75812694D01*
X99700262Y-75817115D01*
X99732793Y-75827905D01*
X99861611Y-75870632D01*
X99861613Y-75870632D01*
X99868139Y-75872797D01*
X99874975Y-75873497D01*
X99874978Y-75873498D01*
X99918031Y-75877909D01*
X99972600Y-75883500D01*
X102323400Y-75883500D01*
X102326646Y-75883163D01*
X102326650Y-75883163D01*
X102422308Y-75873238D01*
X102422312Y-75873237D01*
X102429166Y-75872526D01*
X102435702Y-75870345D01*
X102435704Y-75870345D01*
X102582451Y-75821386D01*
X102596946Y-75816550D01*
X102747348Y-75723478D01*
X102872305Y-75598303D01*
X102876146Y-75592072D01*
X102961275Y-75453968D01*
X102961276Y-75453966D01*
X102965115Y-75447738D01*
X103006581Y-75322721D01*
X103018632Y-75286389D01*
X103018632Y-75286387D01*
X103020797Y-75279861D01*
X103031500Y-75175400D01*
X103031500Y-74100000D01*
X113596551Y-74100000D01*
X113616294Y-74287838D01*
X113618334Y-74294116D01*
X113618334Y-74294117D01*
X113647539Y-74384000D01*
X113674658Y-74467466D01*
X113677961Y-74473188D01*
X113677962Y-74473189D01*
X113697232Y-74506565D01*
X113769094Y-74631034D01*
X113773512Y-74635941D01*
X113773513Y-74635942D01*
X113789324Y-74653502D01*
X113895475Y-74771393D01*
X113900814Y-74775272D01*
X114041213Y-74877279D01*
X114048275Y-74882410D01*
X114054302Y-74885093D01*
X114054303Y-74885094D01*
X114214788Y-74956546D01*
X114220819Y-74959231D01*
X114313192Y-74978866D01*
X114399107Y-74997128D01*
X114399112Y-74997128D01*
X114405564Y-74998500D01*
X114594436Y-74998500D01*
X114600888Y-74997128D01*
X114600893Y-74997128D01*
X114686808Y-74978866D01*
X114779181Y-74959231D01*
X114785212Y-74956546D01*
X114945697Y-74885094D01*
X114945698Y-74885093D01*
X114951725Y-74882410D01*
X114958788Y-74877279D01*
X115099186Y-74775272D01*
X115104525Y-74771393D01*
X115210676Y-74653502D01*
X115226487Y-74635942D01*
X115226488Y-74635941D01*
X115230906Y-74631034D01*
X115302768Y-74506565D01*
X115322038Y-74473189D01*
X115322039Y-74473188D01*
X115325342Y-74467466D01*
X115352462Y-74384000D01*
X115381666Y-74294117D01*
X115381666Y-74294116D01*
X115383706Y-74287838D01*
X115403449Y-74100000D01*
X115383706Y-73912162D01*
X115325342Y-73732534D01*
X115268391Y-73633891D01*
X115234209Y-73574687D01*
X115230906Y-73568966D01*
X115189176Y-73522620D01*
X115146748Y-73475500D01*
X115104525Y-73428607D01*
X115016355Y-73364547D01*
X114957063Y-73321468D01*
X114957061Y-73321467D01*
X114951725Y-73317590D01*
X114945695Y-73314905D01*
X114785212Y-73243454D01*
X114785211Y-73243454D01*
X114779181Y-73240769D01*
X114686809Y-73221135D01*
X114600893Y-73202872D01*
X114600888Y-73202872D01*
X114594436Y-73201500D01*
X114405564Y-73201500D01*
X114399112Y-73202872D01*
X114399107Y-73202872D01*
X114313191Y-73221135D01*
X114220819Y-73240769D01*
X114214789Y-73243454D01*
X114214788Y-73243454D01*
X114054306Y-73314905D01*
X114054304Y-73314906D01*
X114048276Y-73317590D01*
X114042935Y-73321470D01*
X114042934Y-73321471D01*
X113977068Y-73369326D01*
X113895475Y-73428607D01*
X113891061Y-73433509D01*
X113891060Y-73433510D01*
X113804297Y-73529869D01*
X113769094Y-73568966D01*
X113765791Y-73574687D01*
X113731610Y-73633891D01*
X113674658Y-73732534D01*
X113616294Y-73912162D01*
X113596551Y-74100000D01*
X103031500Y-74100000D01*
X103031500Y-72824600D01*
X103029566Y-72805960D01*
X103021238Y-72725692D01*
X103021237Y-72725688D01*
X103020526Y-72718834D01*
X102989999Y-72627332D01*
X102966868Y-72558002D01*
X102964550Y-72551054D01*
X102871478Y-72400652D01*
X102746303Y-72275695D01*
X102637293Y-72208500D01*
X102601968Y-72186725D01*
X102601966Y-72186724D01*
X102595738Y-72182885D01*
X102435254Y-72129655D01*
X102434389Y-72129368D01*
X102434387Y-72129368D01*
X102427861Y-72127203D01*
X102421025Y-72126503D01*
X102421022Y-72126502D01*
X102377969Y-72122091D01*
X102323400Y-72116500D01*
X99972600Y-72116500D01*
X99969354Y-72116837D01*
X99969350Y-72116837D01*
X99873692Y-72126762D01*
X99873688Y-72126763D01*
X99866834Y-72127474D01*
X99860298Y-72129655D01*
X99860296Y-72129655D01*
X99751031Y-72166109D01*
X99699054Y-72183450D01*
X99548652Y-72276522D01*
X99423695Y-72401697D01*
X99419855Y-72407927D01*
X99419854Y-72407928D01*
X99397877Y-72443582D01*
X99330885Y-72552262D01*
X99328581Y-72559209D01*
X99277480Y-72713275D01*
X99275203Y-72720139D01*
X99264500Y-72824600D01*
X99264500Y-73240500D01*
X99244498Y-73308621D01*
X99190842Y-73355114D01*
X99138500Y-73366500D01*
X92123300Y-73366500D01*
X92112117Y-73365973D01*
X92104624Y-73364298D01*
X92096698Y-73364547D01*
X92096697Y-73364547D01*
X92036534Y-73366438D01*
X92032576Y-73366500D01*
X92004676Y-73366500D01*
X92000686Y-73367004D01*
X91988852Y-73367936D01*
X91944643Y-73369326D01*
X91937027Y-73371539D01*
X91937025Y-73371539D01*
X91925184Y-73374979D01*
X91905825Y-73378988D01*
X91904515Y-73379154D01*
X91885735Y-73381526D01*
X91878369Y-73384442D01*
X91878363Y-73384444D01*
X91844630Y-73397800D01*
X91833400Y-73401645D01*
X91798549Y-73411770D01*
X91790939Y-73413981D01*
X91784116Y-73418016D01*
X91773498Y-73424295D01*
X91755745Y-73432992D01*
X91748100Y-73436019D01*
X91736915Y-73440448D01*
X91730500Y-73445109D01*
X91701144Y-73466437D01*
X91691227Y-73472951D01*
X91653170Y-73495458D01*
X91638849Y-73509779D01*
X91623816Y-73522619D01*
X91607425Y-73534528D01*
X91602374Y-73540634D01*
X91579234Y-73568605D01*
X91571244Y-73577384D01*
X90397000Y-74751627D01*
X90334688Y-74785653D01*
X90307905Y-74788532D01*
X90252013Y-74788532D01*
X90245561Y-74789904D01*
X90245556Y-74789904D01*
X90158612Y-74808385D01*
X90065212Y-74828238D01*
X90059182Y-74830923D01*
X90059181Y-74830923D01*
X89896778Y-74903229D01*
X89896776Y-74903230D01*
X89890748Y-74905914D01*
X89736247Y-75018166D01*
X89731826Y-75023076D01*
X89731825Y-75023077D01*
X89635676Y-75129862D01*
X89608460Y-75160088D01*
X89512973Y-75325476D01*
X89453958Y-75507104D01*
X89453268Y-75513665D01*
X89453268Y-75513667D01*
X89444917Y-75593120D01*
X89433996Y-75697032D01*
X79913192Y-75697032D01*
X79902271Y-75593120D01*
X79894232Y-75516635D01*
X79894232Y-75516633D01*
X79893542Y-75510072D01*
X79834527Y-75328444D01*
X79810247Y-75286389D01*
X79752970Y-75187184D01*
X79739040Y-75163056D01*
X79731949Y-75155180D01*
X79615675Y-75026045D01*
X79615674Y-75026044D01*
X79611253Y-75021134D01*
X79493997Y-74935942D01*
X79462094Y-74912763D01*
X79462093Y-74912762D01*
X79456752Y-74908882D01*
X79450724Y-74906198D01*
X79450722Y-74906197D01*
X79288319Y-74833891D01*
X79288318Y-74833891D01*
X79282288Y-74831206D01*
X79188888Y-74811353D01*
X79101944Y-74792872D01*
X79101939Y-74792872D01*
X79095487Y-74791500D01*
X79039595Y-74791500D01*
X78971474Y-74771498D01*
X78950500Y-74754595D01*
X78795000Y-74599095D01*
X78760974Y-74536783D01*
X78766039Y-74465968D01*
X78808586Y-74409132D01*
X78875106Y-74384321D01*
X78884095Y-74384000D01*
X78995487Y-74384000D01*
X79001939Y-74382628D01*
X79001944Y-74382628D01*
X79088888Y-74364147D01*
X79182288Y-74344294D01*
X79188319Y-74341609D01*
X79350722Y-74269303D01*
X79350724Y-74269302D01*
X79356752Y-74266618D01*
X79511253Y-74154366D01*
X79560204Y-74100000D01*
X79634621Y-74017352D01*
X79634622Y-74017351D01*
X79639040Y-74012444D01*
X79734527Y-73847056D01*
X79793542Y-73665428D01*
X79803681Y-73568966D01*
X79812814Y-73482065D01*
X79813504Y-73475500D01*
X79805567Y-73399986D01*
X79794232Y-73292135D01*
X79794232Y-73292133D01*
X79793542Y-73285572D01*
X79776109Y-73231918D01*
X79774082Y-73160950D01*
X79810744Y-73100152D01*
X79874457Y-73068827D01*
X79922139Y-73069735D01*
X80098056Y-73107128D01*
X80098061Y-73107128D01*
X80104513Y-73108500D01*
X80295487Y-73108500D01*
X80301939Y-73107128D01*
X80301944Y-73107128D01*
X80388887Y-73088647D01*
X80482288Y-73068794D01*
X80527481Y-73048673D01*
X80650722Y-72993803D01*
X80650724Y-72993802D01*
X80656752Y-72991118D01*
X80811253Y-72878866D01*
X80816263Y-72873302D01*
X80934621Y-72741852D01*
X80934622Y-72741851D01*
X80939040Y-72736944D01*
X81034527Y-72571556D01*
X81093542Y-72389928D01*
X81098707Y-72340791D01*
X81112814Y-72206565D01*
X81113504Y-72200000D01*
X81111705Y-72182885D01*
X81094232Y-72016635D01*
X81094232Y-72016633D01*
X81093542Y-72010072D01*
X81034527Y-71828444D01*
X80939040Y-71663056D01*
X80930421Y-71653483D01*
X80815675Y-71526045D01*
X80815674Y-71526044D01*
X80811253Y-71521134D01*
X80656752Y-71408882D01*
X80650724Y-71406198D01*
X80650722Y-71406197D01*
X80488319Y-71333891D01*
X80488318Y-71333891D01*
X80482288Y-71331206D01*
X80366362Y-71306565D01*
X80301944Y-71292872D01*
X80301939Y-71292872D01*
X80295487Y-71291500D01*
X80104513Y-71291500D01*
X80098061Y-71292872D01*
X80098056Y-71292872D01*
X80033638Y-71306565D01*
X79917712Y-71331206D01*
X79911682Y-71333891D01*
X79911681Y-71333891D01*
X79749278Y-71406197D01*
X79749276Y-71406198D01*
X79743248Y-71408882D01*
X79588747Y-71521134D01*
X79584326Y-71526044D01*
X79584325Y-71526045D01*
X79469580Y-71653483D01*
X79460960Y-71663056D01*
X79365473Y-71828444D01*
X79306458Y-72010072D01*
X79305768Y-72016633D01*
X79305768Y-72016635D01*
X79288295Y-72182885D01*
X79286496Y-72200000D01*
X79287186Y-72206565D01*
X79301294Y-72340791D01*
X79306458Y-72389928D01*
X79310282Y-72401697D01*
X79323891Y-72443582D01*
X79325918Y-72514550D01*
X79289256Y-72575348D01*
X79225543Y-72606673D01*
X79177861Y-72605765D01*
X79001944Y-72568372D01*
X79001939Y-72568372D01*
X78995487Y-72567000D01*
X78804513Y-72567000D01*
X78798061Y-72568372D01*
X78798056Y-72568372D01*
X78711112Y-72586853D01*
X78617712Y-72606706D01*
X78611682Y-72609391D01*
X78611681Y-72609391D01*
X78449278Y-72681697D01*
X78449276Y-72681698D01*
X78443248Y-72684382D01*
X78288747Y-72796634D01*
X78284332Y-72801537D01*
X78279420Y-72805960D01*
X78278295Y-72804711D01*
X78224986Y-72837551D01*
X78191800Y-72842000D01*
X67503267Y-72842000D01*
X67492084Y-72841473D01*
X67484591Y-72839798D01*
X67476665Y-72840047D01*
X67476664Y-72840047D01*
X67416501Y-72841938D01*
X67412543Y-72842000D01*
X67384644Y-72842000D01*
X67380654Y-72842504D01*
X67368820Y-72843436D01*
X67324611Y-72844826D01*
X67316997Y-72847038D01*
X67316992Y-72847039D01*
X67305159Y-72850477D01*
X67285796Y-72854488D01*
X67265703Y-72857026D01*
X67258336Y-72859943D01*
X67258331Y-72859944D01*
X67224592Y-72873302D01*
X67213365Y-72877146D01*
X67170907Y-72889482D01*
X67164081Y-72893519D01*
X67153472Y-72899793D01*
X67135724Y-72908488D01*
X67116883Y-72915948D01*
X67110467Y-72920610D01*
X67110466Y-72920610D01*
X67081113Y-72941936D01*
X67071193Y-72948452D01*
X67039965Y-72966920D01*
X67039962Y-72966922D01*
X67033138Y-72970958D01*
X67018817Y-72985279D01*
X67003784Y-72998119D01*
X66987393Y-73010028D01*
X66982343Y-73016132D01*
X66982338Y-73016137D01*
X66959207Y-73044098D01*
X66951217Y-73052879D01*
X66449499Y-73554596D01*
X66387187Y-73588621D01*
X66360404Y-73591500D01*
X66304513Y-73591500D01*
X66298061Y-73592872D01*
X66298056Y-73592872D01*
X66211112Y-73611353D01*
X66117712Y-73631206D01*
X66111682Y-73633891D01*
X66111681Y-73633891D01*
X65949278Y-73706197D01*
X65949276Y-73706198D01*
X65943248Y-73708882D01*
X65937907Y-73712762D01*
X65937906Y-73712763D01*
X65909346Y-73733513D01*
X65788747Y-73821134D01*
X65660960Y-73963056D01*
X65565473Y-74128444D01*
X65506458Y-74310072D01*
X65486496Y-74500000D01*
X44392938Y-74500000D01*
X44403449Y-74400000D01*
X44383706Y-74212162D01*
X44364927Y-74154366D01*
X44327384Y-74038818D01*
X44327383Y-74038816D01*
X44325342Y-74032534D01*
X44230906Y-73868966D01*
X44104525Y-73728607D01*
X44073681Y-73706197D01*
X43957063Y-73621468D01*
X43957061Y-73621467D01*
X43951725Y-73617590D01*
X43945695Y-73614905D01*
X43785212Y-73543454D01*
X43785211Y-73543454D01*
X43779181Y-73540769D01*
X43686808Y-73521134D01*
X43600893Y-73502872D01*
X43600888Y-73502872D01*
X43594436Y-73501500D01*
X43405564Y-73501500D01*
X43399112Y-73502872D01*
X43399107Y-73502872D01*
X43313192Y-73521134D01*
X43220819Y-73540769D01*
X43214789Y-73543454D01*
X43214788Y-73543454D01*
X43054306Y-73614905D01*
X43054304Y-73614906D01*
X43048276Y-73617590D01*
X43042935Y-73621470D01*
X43042934Y-73621471D01*
X42991466Y-73658865D01*
X42895475Y-73728607D01*
X42891061Y-73733509D01*
X42891060Y-73733510D01*
X42794481Y-73840771D01*
X42769094Y-73868966D01*
X42674658Y-74032534D01*
X42672617Y-74038816D01*
X42672616Y-74038818D01*
X42635073Y-74154366D01*
X42616294Y-74212162D01*
X42596551Y-74400000D01*
X41008500Y-74400000D01*
X41008500Y-70053250D01*
X41010246Y-70032345D01*
X41012770Y-70017344D01*
X41012770Y-70017341D01*
X41013576Y-70012552D01*
X41013729Y-70000000D01*
X41013040Y-69995188D01*
X41012723Y-69990327D01*
X41013008Y-69990308D01*
X41012607Y-69963549D01*
X41019234Y-69904736D01*
X41025513Y-69877229D01*
X41052485Y-69800147D01*
X41064727Y-69774726D01*
X41108178Y-69705574D01*
X41125770Y-69683515D01*
X41183515Y-69625770D01*
X41205574Y-69608178D01*
X41274726Y-69564727D01*
X41300147Y-69552485D01*
X41377228Y-69525513D01*
X41404736Y-69519234D01*
X41460226Y-69512982D01*
X41475868Y-69513077D01*
X41475879Y-69512200D01*
X41484851Y-69512310D01*
X41493724Y-69513691D01*
X41502626Y-69512527D01*
X41502628Y-69512527D01*
X41517951Y-69510523D01*
X41525286Y-69509564D01*
X41541621Y-69508500D01*
X43365500Y-69508500D01*
X43433621Y-69528502D01*
G37*
G04 #@! TD.AperFunction*
G04 #@! TD*
M02*
